<svg width="640" height="400" viewBox="0 0 640 400" fill="none" xmlns="http://www.w3.org/2000/svg">
<path opacity="0.4" d="M170.711 176.41C167.739 178.584 165.321 181.429 163.656 184.714C161.99 187.998 161.123 191.63 161.125 195.312V228.125C161.125 230.611 160.137 232.996 158.379 234.754C156.621 236.512 154.236 237.5 151.75 237.5H142.375C139.889 237.5 137.504 236.512 135.746 234.754C133.988 232.996 133 230.611 133 228.125V195.312C133 181.637 138.432 168.522 148.102 158.852C157.772 149.182 170.887 143.75 184.562 143.75H184.826C176.696 152.813 171.74 164.278 170.711 176.41V176.41ZM503.312 68.75H444.678C442.882 70.6178 440.859 72.2518 438.654 73.6133C441.648 76.7656 444.461 79.748 446.676 82.1094C449.918 85.571 451.716 90.1399 451.703 94.8828V98.832L505.896 77.334C506.731 76.7761 507.364 75.9652 507.703 75.0205C508.042 74.0758 508.069 73.0473 507.779 72.0863C507.49 71.1253 506.9 70.2825 506.096 69.6819C505.292 69.0813 504.316 68.7546 503.312 68.75V68.75Z" fill="white"/>
<path d="M446.676 82.1094C444.461 79.7656 441.648 76.7656 438.654 73.6133C445.135 69.6055 450.08 63.3652 451.65 55.6484C451.784 54.9624 451.765 54.2552 451.593 53.5776C451.422 52.9 451.103 52.2686 450.659 51.7288C450.215 51.189 449.657 50.7541 449.025 50.4552C448.393 50.1563 447.703 50.0009 447.004 50H376.691C336.127 50 301.75 87.5 301.75 125H301.703C264.25 125 240.648 103.449 226.902 72.1074C225.016 67.8008 218.928 67.5605 216.941 71.8145C211.05 84.2438 207.996 97.8273 208 111.582C208 150.84 237.883 191.416 283 200C226.24 200 201.701 157.051 193.123 136.133C186.524 141.054 181.086 147.364 177.192 154.617C173.298 161.87 171.044 169.889 170.588 178.108C170.132 186.327 171.485 194.547 174.553 202.186C177.621 209.825 182.328 216.697 188.342 222.318L173.324 262.391C170.652 269.512 170.21 277.278 172.059 284.656L186.619 342.904C187.126 344.928 188.295 346.726 189.939 348.011C191.583 349.296 193.609 349.996 195.695 350H234.367C235.792 350 237.197 349.675 238.478 349.05C239.758 348.425 240.879 347.517 241.756 346.394C242.632 345.271 243.241 343.963 243.537 342.57C243.832 341.176 243.806 339.734 243.461 338.352L228.033 276.676L241.984 239.416L301.75 252.488V340.625C301.75 343.111 302.738 345.496 304.496 347.254C306.254 349.012 308.639 350 311.125 350H348.625C351.111 350 353.496 349.012 355.254 347.254C357.012 345.496 358 343.111 358 340.625V236.457C370.019 224.23 376.753 207.77 376.75 190.625C376.75 190.496 376.709 190.379 376.703 190.25V130.209L386.078 134.375L397.152 156.465C399.259 160.666 402.866 163.923 407.26 165.591C411.653 167.259 416.513 167.216 420.877 165.471L439.949 157.854C443.436 156.462 446.424 154.056 448.528 150.948C450.632 147.839 451.755 144.17 451.75 140.416L451.715 94.8828C451.725 90.1383 449.922 85.5691 446.676 82.1094V82.1094ZM414.203 106.25C412.349 106.25 410.536 105.7 408.995 104.67C407.453 103.64 406.251 102.176 405.542 100.463C404.832 98.7496 404.647 96.8646 405.008 95.046C405.37 93.2275 406.263 91.557 407.574 90.2459C408.885 88.9348 410.556 88.0419 412.374 87.6801C414.193 87.3184 416.078 87.5041 417.791 88.2136C419.504 88.9232 420.968 90.1248 421.998 91.6665C423.028 93.2082 423.578 95.0208 423.578 96.875C423.578 99.3614 422.59 101.746 420.832 103.504C419.074 105.262 416.69 106.25 414.203 106.25Z" fill="white"/>
</svg>
