<svg width="640" height="400" viewBox="0 0 640 400" fill="none" xmlns="http://www.w3.org/2000/svg">
<path opacity="0.4" d="M320.25 50C247.759 50 189 101.58 189 186.202C189 251.696 267.642 317.802 303.178 344.331C308.109 348.011 314.097 350 320.25 350C326.403 350 332.391 348.011 337.322 344.331C372.858 317.802 451.5 251.696 451.5 186.202C451.5 101.58 392.741 50 320.25 50ZM292.125 237.5H273.375C260.943 237.5 249.02 232.561 240.229 223.771C231.439 214.98 226.5 203.057 226.5 190.625C226.5 189.394 226.742 188.175 227.214 187.037C227.685 185.9 228.375 184.866 229.246 183.996C230.116 183.125 231.15 182.435 232.287 181.964C233.425 181.492 234.644 181.25 235.875 181.25H254.625C260.781 181.25 266.876 182.462 272.563 184.818C278.251 187.174 283.418 190.626 287.771 194.979C292.124 199.332 295.576 204.499 297.932 210.187C300.288 215.874 301.5 221.969 301.5 228.125C301.5 230.611 300.512 232.996 298.754 234.754C296.996 236.512 294.611 237.5 292.125 237.5ZM367.125 237.5H348.375C345.889 237.5 343.504 236.512 341.746 234.754C339.988 232.996 339 230.611 339 228.125C339 221.969 340.212 215.874 342.568 210.187C344.924 204.499 348.376 199.332 352.729 194.979C357.082 190.626 362.249 187.174 367.937 184.818C373.624 182.462 379.719 181.25 385.875 181.25H404.625C405.856 181.25 407.075 181.492 408.213 181.964C409.35 182.435 410.384 183.125 411.254 183.996C412.125 184.866 412.815 185.9 413.286 187.037C413.758 188.175 414 189.394 414 190.625C414 203.057 409.061 214.98 400.271 223.771C391.48 232.561 379.557 237.5 367.125 237.5V237.5Z" fill="white"/>
<path d="M254.625 181.25H235.875C234.644 181.25 233.425 181.492 232.287 181.964C231.15 182.435 230.116 183.125 229.246 183.996C228.375 184.866 227.685 185.9 227.214 187.037C226.742 188.175 226.5 189.394 226.5 190.625C226.5 203.057 231.439 214.98 240.229 223.771C249.02 232.561 260.943 237.5 273.375 237.5H292.125C294.611 237.5 296.996 236.512 298.754 234.754C300.512 232.996 301.5 230.611 301.5 228.125C301.5 221.969 300.288 215.874 297.932 210.187C295.576 204.499 292.124 199.332 287.771 194.979C283.418 190.626 278.251 187.174 272.563 184.818C266.876 182.462 260.781 181.25 254.625 181.25V181.25ZM404.625 181.25H385.875C379.719 181.25 373.624 182.462 367.937 184.818C362.249 187.174 357.082 190.626 352.729 194.979C348.376 199.332 344.924 204.499 342.568 210.187C340.212 215.874 339 221.969 339 228.125C339 230.611 339.988 232.996 341.746 234.754C343.504 236.512 345.889 237.5 348.375 237.5H367.125C379.557 237.5 391.48 232.561 400.271 223.771C409.061 214.98 414 203.057 414 190.625C414 189.394 413.758 188.175 413.286 187.037C412.815 185.9 412.125 184.866 411.254 183.996C410.384 183.125 409.35 182.435 408.213 181.964C407.075 181.492 405.856 181.25 404.625 181.25Z" fill="white"/>
</svg>
