<svg width="640" height="400" viewBox="0 0 640 400" fill="none" xmlns="http://www.w3.org/2000/svg">
<path opacity="0.4" d="M437.656 82.8817C428.235 73.4643 414.884 69 399.107 69C376.399 69 348.629 78.4494 320.25 95.4519C308.351 102.64 296.985 110.675 286.241 119.497C271.373 131.622 256.135 145.519 239.248 166.216C245.171 178.173 252.173 189.565 260.167 200.249C277.21 177.478 297.446 157.281 320.25 140.283C330.937 132.345 342.32 125.388 354.259 119.498C395.282 99.3806 410.055 108.322 411.132 109.399C416.723 114.99 415.628 136.906 401.252 166.216C410.034 176.97 418.028 188.345 425.171 200.25C454.006 152.156 460.636 105.856 437.656 82.8817ZM320.25 260.216C309.562 268.154 298.18 275.111 286.241 281.002C245.218 301.119 230.445 292.178 229.369 291.101C223.777 285.51 224.872 263.595 239.248 234.284C230.466 223.529 222.472 212.155 215.329 200.25C186.494 248.344 179.864 294.644 202.844 317.617C212.265 327.036 225.616 331.5 241.393 331.5C264.101 331.5 291.871 322.051 320.25 305.048C332.149 297.86 343.515 289.824 354.259 281.003C369.136 268.871 384.39 254.954 401.252 234.284C395.33 222.326 388.328 210.934 380.333 200.25C363.29 223.021 343.054 243.217 320.25 260.216V260.216Z" fill="white"/>
<path d="M320.25 218.993C323.958 218.992 327.582 217.892 330.664 215.832C333.746 213.772 336.149 210.844 337.567 207.418C338.985 203.993 339.356 200.223 338.632 196.587C337.909 192.951 336.123 189.611 333.501 186.99C330.879 184.368 327.539 182.583 323.903 181.86C320.266 181.137 316.497 181.508 313.072 182.927C309.646 184.346 306.719 186.749 304.659 189.832C302.599 192.915 301.5 196.539 301.5 200.247C301.5 202.709 301.984 205.147 302.927 207.422C303.869 209.697 305.25 211.764 306.991 213.504C308.732 215.245 310.799 216.626 313.074 217.568C315.349 218.51 317.788 218.994 320.25 218.993V218.993ZM260.169 200.249C252.174 189.565 245.172 178.174 239.249 166.216C224.871 136.906 223.777 114.99 229.368 109.4C230.446 108.323 245.218 99.3795 286.24 119.497C296.985 110.676 308.351 102.64 320.25 95.4519C291.869 78.4517 264.096 69 241.394 69C225.612 69 212.268 73.462 202.843 82.8817C179.863 105.856 186.494 152.156 215.329 200.25C222.472 212.156 230.466 223.53 239.249 234.284C256.122 254.969 271.393 268.896 286.24 281.002C298.18 275.111 309.562 268.154 320.25 260.216C297.446 243.218 277.21 223.021 260.169 200.249V200.249ZM425.171 200.25C418.028 188.344 410.034 176.97 401.251 166.216C384.351 145.5 369.084 131.585 354.26 119.498C342.32 125.389 330.938 132.345 320.25 140.283C343.054 157.282 363.289 177.478 380.331 200.25C388.327 210.934 395.329 222.326 401.251 234.284C415.629 263.593 416.723 285.508 411.132 291.1C410.054 292.177 395.282 301.12 354.26 281.003C343.515 289.824 332.149 297.86 320.25 305.048C348.631 322.048 376.404 331.5 399.106 331.5C414.888 331.5 428.232 327.038 437.657 317.617C460.637 294.644 454.006 248.344 425.171 200.25Z" fill="white"/>
</svg>
