<svg width="1920" height="700" viewBox="0 0 1920 700" fill="none" xmlns="http://www.w3.org/2000/svg">
<path d="M391.08 516.522C390.848 516.522 390.625 516.433 390.455 516.275C390.285 516.116 390.181 515.899 390.165 515.668C389.565 507.507 385.905 499.875 379.918 494.297C373.931 488.719 366.059 485.608 357.876 485.586C356.897 485.586 355.868 485.636 354.818 485.734C354.643 485.751 354.466 485.716 354.31 485.635C354.153 485.554 354.023 485.429 353.936 485.276C350.177 478.697 344.564 473.371 337.798 469.962C331.031 466.553 323.41 465.212 315.886 466.107C308.362 467.002 301.269 470.093 295.49 474.994C289.712 479.895 285.505 486.389 283.394 493.666C283.339 493.861 283.22 494.032 283.056 494.152C282.893 494.272 282.694 494.334 282.491 494.329L282.247 494.321C282.12 494.317 281.993 494.313 281.865 494.313C275.659 494.332 269.646 496.473 264.823 500.38C260.001 504.287 256.66 509.725 255.354 515.793C255.31 515.999 255.197 516.184 255.034 516.317C254.87 516.449 254.666 516.522 254.455 516.522H192.916C192.673 516.521 192.44 516.424 192.268 516.252C192.096 516.08 192 515.847 192 515.603C192 515.36 192.096 515.127 192.268 514.955C192.44 514.782 192.673 514.685 192.916 514.685H253.72C255.25 508.374 258.851 502.758 263.947 498.732C269.042 494.707 275.339 492.504 281.833 492.476C284.145 484.998 288.579 478.352 294.596 473.346C300.613 468.34 307.954 465.189 315.728 464.276C323.502 463.363 331.373 464.727 338.386 468.203C345.4 471.679 351.252 477.116 355.234 483.855C356.137 483.785 357.024 483.749 357.876 483.749C366.523 483.773 374.842 487.06 381.169 492.955C387.496 498.849 391.363 506.915 391.998 515.539C392.006 515.659 391.991 515.78 391.953 515.895C391.914 516.009 391.854 516.115 391.775 516.206C391.696 516.297 391.599 516.371 391.491 516.425C391.384 516.479 391.266 516.511 391.146 516.52C391.124 516.521 391.102 516.522 391.08 516.522Z" fill="#CBCBCB"/>
<path d="M380.151 528.3H229.507C229.263 528.3 229.03 528.203 228.857 528.03C228.685 527.858 228.588 527.625 228.588 527.381C228.588 527.137 228.685 526.904 228.857 526.731C229.03 526.559 229.263 526.462 229.507 526.462H380.151C380.395 526.462 380.629 526.559 380.801 526.731C380.973 526.904 381.07 527.137 381.07 527.381C381.07 527.625 380.973 527.858 380.801 528.03C380.629 528.203 380.395 528.3 380.151 528.3Z" fill="#CBCBCB"/>
<path d="M266.249 541.619H215.728C215.607 541.619 215.488 541.595 215.376 541.549C215.264 541.503 215.163 541.436 215.077 541.35C214.991 541.265 214.924 541.164 214.877 541.052C214.831 540.941 214.807 540.821 214.807 540.7C214.807 540.579 214.831 540.46 214.877 540.348C214.924 540.236 214.991 540.135 215.077 540.05C215.163 539.964 215.264 539.897 215.376 539.851C215.488 539.805 215.607 539.781 215.728 539.781H266.249C266.492 539.782 266.725 539.879 266.897 540.051C267.069 540.224 267.165 540.457 267.165 540.7C267.165 540.943 267.069 541.177 266.897 541.349C266.725 541.521 266.492 541.618 266.249 541.619Z" fill="#CBCBCB"/>
<path d="M1723.23 524.09C1719.91 581.754 1657.86 605.863 1657.86 605.863C1657.86 605.863 1598.38 574.753 1600.46 517.018C1601.68 483.082 1631.48 457.217 1665.38 459.17C1673.44 459.634 1681.33 461.681 1688.6 465.195C1695.87 468.709 1702.38 473.62 1707.75 479.649C1713.12 485.677 1717.25 492.705 1719.91 500.33C1722.56 507.955 1723.69 516.029 1723.23 524.09V524.09Z" fill="#E5E5E5"/>
<path d="M1678.13 610.452L1637.21 608.095L1633.39 587.968L1684.23 590.897L1678.13 610.452Z" fill="#CBCBCB"/>
<path d="M1674.78 644.304L1636.65 642.107L1635.5 661.979L1673.63 664.176L1674.78 644.304Z" fill="white"/>
<path d="M1673.93 664.504L1635.17 662.272L1636.35 641.78L1675.11 644.012L1673.93 664.504ZM1635.83 661.687L1673.34 663.848L1674.45 644.596L1636.94 642.435L1635.83 661.687Z" fill="#CBCBCB"/>
<path d="M1665.35 612.064L1649.72 611.163L1648.08 608.24L1667.31 609.348L1665.35 612.064Z" fill="#CBCBCB"/>
<path d="M1638.14 608.149L1637.52 608.113L1635.77 638.495L1636.39 638.531L1638.14 608.149Z" fill="#CBCBCB"/>
<path d="M1677.82 610.435L1677.2 610.399L1675.45 640.781L1676.07 640.817L1677.82 610.435Z" fill="#CBCBCB"/>
<path d="M1665.04 589.454L1664.69 588.941C1683.4 576.16 1706.12 553.725 1708.09 519.432C1708.8 507.422 1705.94 495.471 1699.88 485.078C1693.83 474.684 1684.83 466.311 1674.03 461.009L1674.31 460.451C1685.22 465.808 1694.3 474.266 1700.42 484.765C1706.54 495.264 1709.43 507.336 1708.71 519.468C1706.72 554.013 1683.87 576.594 1665.04 589.454Z" fill="#CBCBCB"/>
<path d="M1645.2 588.311L1644.85 587.799C1663.56 575.017 1686.28 552.582 1688.25 518.289C1688.94 506.359 1686.13 494.488 1680.15 484.142C1674.17 473.796 1665.29 465.428 1654.61 460.072L1654.89 459.516C1665.68 464.927 1674.64 473.38 1680.68 483.831C1686.72 494.282 1689.57 506.274 1688.87 518.325C1686.88 552.87 1664.03 575.451 1645.2 588.311Z" fill="#CBCBCB"/>
<path d="M1670.6 589.774C1653.37 574.837 1633.26 549.781 1635.25 515.236C1635.94 503.185 1640.15 491.599 1647.35 481.91C1654.55 472.222 1664.43 464.855 1675.77 460.719L1675.98 461.302C1664.75 465.397 1654.97 472.69 1647.84 482.281C1640.72 491.872 1636.55 503.341 1635.87 515.272C1633.9 549.565 1653.89 574.459 1671 589.304L1670.6 589.774Z" fill="#CBCBCB"/>
<path d="M1650.75 588.631C1633.53 573.695 1613.42 548.639 1615.41 514.093C1616.09 501.912 1620.37 490.206 1627.71 480.457C1635.04 470.708 1645.11 463.355 1656.62 459.327L1656.83 459.913C1645.43 463.9 1635.47 471.18 1628.2 480.831C1620.94 490.482 1616.7 502.07 1616.03 514.129C1614.05 548.422 1634.04 573.317 1651.16 588.162L1650.75 588.631Z" fill="#CBCBCB"/>
<path d="M1665.69 459.188L1665.07 459.152L1657.57 589.361L1658.19 589.397L1665.69 459.188Z" fill="#CBCBCB"/>
<path d="M1648.06 638.244L1636.03 648.959L1636.44 649.423L1648.47 638.708L1648.06 638.244Z" fill="#CBCBCB"/>
<path d="M1653.59 638.374L1635.67 655.176L1636.09 655.629L1654.02 638.827L1653.59 638.374Z" fill="#CBCBCB"/>
<path d="M1678.6 640.029L1632.1 637.351L1631.78 642.931L1678.28 645.61L1678.6 640.029Z" fill="white"/>
<path d="M1678.57 645.938L1631.45 643.223L1631.81 637.023L1678.93 639.737L1678.57 645.938ZM1632.1 642.639L1677.99 645.282L1678.27 640.322L1632.39 637.678L1632.1 642.639Z" fill="#CBCBCB"/>
<path d="M1792.71 134.228C1792.46 134.228 1792.21 134.13 1792.02 133.954C1791.83 133.778 1791.72 133.538 1791.7 133.281C1791.03 124.234 1786.98 115.772 1780.34 109.588C1773.7 103.405 1764.97 99.9559 1755.9 99.9315C1754.82 99.9315 1753.68 99.9866 1752.51 100.096C1752.32 100.114 1752.12 100.076 1751.95 99.9857C1751.78 99.8956 1751.63 99.7575 1751.53 99.5878C1747.37 92.2942 1741.14 86.3892 1733.64 82.6098C1726.14 78.8304 1717.69 77.344 1709.35 78.3361C1701.01 79.3281 1693.15 82.7547 1686.74 88.1882C1680.33 93.6217 1675.67 100.822 1673.33 108.889C1673.27 109.105 1673.14 109.295 1672.95 109.428C1672.77 109.561 1672.55 109.63 1672.33 109.624L1672.06 109.616C1671.92 109.611 1671.78 109.606 1671.63 109.606C1664.75 109.627 1658.09 112.001 1652.74 116.332C1647.39 120.664 1643.69 126.693 1642.24 133.42C1642.19 133.648 1642.07 133.853 1641.89 134C1641.71 134.148 1641.48 134.228 1641.25 134.228H1573.02C1572.89 134.228 1572.75 134.202 1572.63 134.151C1572.51 134.1 1572.39 134.025 1572.3 133.931C1572.2 133.836 1572.13 133.724 1572.08 133.6C1572.03 133.476 1572 133.344 1572 133.21C1572 133.076 1572.03 132.943 1572.08 132.819C1572.13 132.695 1572.2 132.583 1572.3 132.488C1572.39 132.394 1572.51 132.319 1572.63 132.268C1572.75 132.217 1572.89 132.191 1573.02 132.191H1640.43C1642.13 125.195 1646.12 118.968 1651.77 114.505C1657.42 110.043 1664.4 107.601 1671.6 107.569C1674.16 99.2787 1679.08 91.911 1685.75 86.3611C1692.42 80.8112 1700.56 77.318 1709.18 76.3058C1717.79 75.2937 1726.52 76.8062 1734.3 80.6595C1742.07 84.5128 1748.56 90.5411 1752.97 98.0121C1753.98 97.9341 1754.96 97.8948 1755.9 97.8948C1765.49 97.9207 1774.71 101.566 1781.73 108.101C1788.74 114.635 1793.03 123.578 1793.73 133.138C1793.74 133.272 1793.72 133.406 1793.68 133.532C1793.64 133.659 1793.57 133.777 1793.48 133.878C1793.4 133.979 1793.29 134.061 1793.17 134.121C1793.05 134.181 1792.92 134.216 1792.79 134.225C1792.76 134.227 1792.74 134.228 1792.71 134.228Z" fill="#CBCBCB"/>
<path d="M1780.6 147.285H1613.59C1613.45 147.285 1613.32 147.259 1613.2 147.208C1613.07 147.157 1612.96 147.082 1612.87 146.988C1612.77 146.893 1612.7 146.781 1612.64 146.657C1612.59 146.533 1612.57 146.401 1612.57 146.267C1612.57 146.133 1612.59 146 1612.64 145.876C1612.7 145.752 1612.77 145.64 1612.87 145.545C1612.96 145.451 1613.07 145.376 1613.2 145.325C1613.32 145.274 1613.45 145.248 1613.59 145.248H1780.6C1780.87 145.248 1781.13 145.356 1781.32 145.547C1781.51 145.738 1781.62 145.997 1781.62 146.267C1781.62 146.537 1781.51 146.796 1781.32 146.987C1781.13 147.178 1780.87 147.285 1780.6 147.285Z" fill="#CBCBCB"/>
<path d="M1654.32 162.051H1598.31C1598.18 162.052 1598.05 162.025 1597.92 161.974C1597.8 161.924 1597.68 161.849 1597.59 161.754C1597.5 161.659 1597.42 161.547 1597.37 161.423C1597.32 161.299 1597.29 161.167 1597.29 161.033C1597.29 160.899 1597.32 160.766 1597.37 160.642C1597.42 160.519 1597.5 160.406 1597.59 160.312C1597.68 160.217 1597.8 160.142 1597.92 160.091C1598.05 160.04 1598.18 160.014 1598.31 160.014H1654.32C1654.46 160.014 1654.59 160.04 1654.71 160.091C1654.84 160.142 1654.95 160.217 1655.04 160.312C1655.14 160.406 1655.21 160.519 1655.27 160.642C1655.32 160.766 1655.34 160.899 1655.34 161.033C1655.34 161.167 1655.32 161.299 1655.27 161.423C1655.21 161.547 1655.14 161.659 1655.04 161.754C1654.95 161.849 1654.84 161.924 1654.71 161.974C1654.59 162.025 1654.46 162.052 1654.32 162.051V162.051Z" fill="#CBCBCB"/>
<g opacity="0.4">
<path d="M1171.41 79.5186C1161.77 76.3685 1151.4 81.6306 1148.25 91.2718C1145.6 99.3798 1149.26 112.26 1154.23 119.636C1154.68 120.299 1155.24 120.843 1155.87 121.265L1155.76 123.836C1155.73 124.37 1156.07 124.855 1156.58 125.021L1156.66 125.048C1157.19 125.222 1157.77 125.003 1158.06 124.523L1159.38 122.277C1160.03 122.261 1160.69 122.142 1161.33 121.911C1170.69 118.507 1180.43 111.061 1183.17 102.679C1186.32 93.0379 1181.06 82.6686 1171.41 79.5186L1171.41 79.5186Z" fill="#989898"/>
<path d="M1160.15 123.847C1157.67 126.194 1155.62 126.822 1154.86 122.119L1155.21 121.061L1160.5 122.789L1160.15 123.847Z" fill="#3F3D56"/>
<path d="M1157.94 122.543L1154.56 132.478L1154.45 132.815L1127.78 155.269L1127.26 156.877L1127.09 157.383L1126.56 157.21L1126.72 156.73L1127.25 155.095L1153.92 132.642L1154.73 130.263L1157.41 122.364L1157.94 122.543Z" fill="#3F3D56"/>
<path d="M1127.15 157.403L1126.61 157.228L1126.72 156.73L1127.24 155.092L1153.67 132.56L1155.97 121.83L1156.51 121.947L1154.73 130.263L1154.2 132.734L1127.67 155.23L1127.5 155.742L1127.26 156.877L1127.15 157.403Z" fill="#3F3D56"/>
<path d="M1159.43 122.961L1154.95 132.978L1128 155.34L1127.29 157.45L1126.81 157.292L1127.5 155.742L1127.67 155.232L1154.42 132.804L1154.56 132.478L1158.92 122.733L1159.43 122.961Z" fill="#3F3D56"/>
</g>
</svg>
