<svg width="1920" height="700" viewBox="0 0 1920 700" fill="none" xmlns="http://www.w3.org/2000/svg">
<g opacity="0.4">
<path d="M95.0342 629.284C95.0382 623.997 97.1393 618.928 100.876 615.191C104.612 611.453 109.678 609.354 114.96 609.354C120.242 609.354 125.307 611.453 129.044 615.191C132.78 618.928 134.881 623.997 134.885 629.284" fill="#F2F2F2"/>
<path d="M114.96 629.284C114.817 629.284 114.68 629.228 114.579 629.127C114.478 629.025 114.421 628.888 114.421 628.745V618.234C114.421 618.091 114.478 617.954 114.579 617.852C114.68 617.751 114.817 617.695 114.96 617.695C115.102 617.695 115.239 617.751 115.34 617.852C115.441 617.954 115.498 618.091 115.498 618.234V628.745C115.498 628.888 115.441 629.025 115.34 629.127C115.239 629.228 115.102 629.284 114.96 629.284V629.284Z" fill="#CCCCCC"/>
<path d="M114.96 625.673C114.831 625.673 114.706 625.627 114.609 625.543L108.147 619.991C108.092 619.945 108.048 619.888 108.015 619.825C107.982 619.762 107.963 619.693 107.957 619.622C107.951 619.551 107.96 619.479 107.982 619.412C108.004 619.344 108.039 619.281 108.085 619.227C108.132 619.173 108.188 619.129 108.252 619.097C108.315 619.065 108.384 619.046 108.455 619.041C108.526 619.036 108.598 619.045 108.665 619.067C108.732 619.09 108.795 619.126 108.848 619.172L115.311 624.724C115.394 624.796 115.454 624.892 115.481 624.998C115.509 625.105 115.503 625.218 115.465 625.321C115.427 625.424 115.358 625.513 115.267 625.576C115.177 625.639 115.07 625.673 114.959 625.673L114.96 625.673Z" fill="#CCCCCC"/>
<path d="M156.426 629.284C156.43 623.997 158.531 618.928 162.268 615.191C166.004 611.453 171.07 609.354 176.352 609.354C181.633 609.354 186.699 611.453 190.436 615.191C194.172 618.928 196.273 623.997 196.277 629.284" fill="#F2F2F2"/>
<path d="M176.352 629.284C176.209 629.284 176.072 629.228 175.971 629.127C175.87 629.025 175.813 628.888 175.813 628.745V618.234C175.813 618.091 175.87 617.954 175.971 617.852C176.072 617.751 176.209 617.695 176.352 617.695C176.494 617.695 176.631 617.751 176.732 617.852C176.833 617.954 176.89 618.091 176.89 618.234V628.745C176.89 628.888 176.833 629.025 176.732 629.127C176.631 629.228 176.494 629.284 176.352 629.284V629.284Z" fill="#CCCCCC"/>
<path d="M176.351 625.672C176.223 625.672 176.098 625.626 176.001 625.542L169.538 619.99C169.484 619.944 169.439 619.888 169.407 619.825C169.374 619.761 169.354 619.692 169.348 619.621C169.343 619.55 169.351 619.479 169.373 619.411C169.395 619.343 169.43 619.281 169.477 619.227C169.523 619.172 169.58 619.128 169.643 619.096C169.707 619.064 169.776 619.045 169.847 619.04C169.918 619.035 169.989 619.044 170.057 619.067C170.124 619.089 170.186 619.125 170.24 619.172L176.702 624.724C176.786 624.796 176.845 624.891 176.873 624.998C176.901 625.105 176.895 625.217 176.857 625.32C176.818 625.424 176.749 625.513 176.659 625.576C176.569 625.639 176.461 625.672 176.351 625.672L176.351 625.672Z" fill="#CCCCCC"/>
<path d="M187.289 672.085C206.521 672.085 222.112 668.443 222.112 663.951C222.112 659.459 206.521 655.817 187.289 655.817C168.056 655.817 152.465 659.459 152.465 663.951C152.465 668.443 168.056 672.085 187.289 672.085Z" fill="#F2F2F2"/>
<path d="M666.683 596.988C666.99 596.988 667.286 596.865 667.503 596.647C667.721 596.429 667.843 596.134 667.843 595.826C667.843 595.517 667.721 595.222 667.503 595.004C667.286 594.786 666.99 594.664 666.683 594.664H655.655V590.016H666.683C666.99 590.016 667.286 589.893 667.503 589.676C667.721 589.458 667.843 589.162 667.843 588.854C667.843 588.546 667.721 588.25 667.503 588.032C667.286 587.814 666.99 587.692 666.683 587.692H572.658C572.35 587.692 572.055 587.814 571.838 588.032C571.62 588.25 571.498 588.546 571.498 588.854C571.498 589.162 571.62 589.458 571.838 589.676C572.055 589.893 572.35 590.016 572.658 590.016H583.686V594.664H572.658C572.35 594.664 572.055 594.786 571.838 595.004C571.62 595.222 571.498 595.517 571.498 595.826C571.498 596.134 571.62 596.429 571.838 596.647C572.055 596.865 572.35 596.988 572.658 596.988H583.686V601.635H572.658C572.35 601.635 572.055 601.758 571.838 601.976C571.62 602.194 571.498 602.489 571.498 602.797C571.498 603.106 571.62 603.401 571.838 603.619C572.055 603.837 572.35 603.959 572.658 603.959H583.686V608.607H573.819C573.203 608.607 572.613 608.852 572.178 609.288C571.742 609.724 571.498 610.315 571.498 610.931C571.498 611.547 571.742 612.139 572.178 612.574C572.613 613.01 573.203 613.255 573.819 613.255H583.212C583.144 613.441 583.108 613.638 583.105 613.836V630.103C583.105 630.566 583.289 631.009 583.616 631.336C583.942 631.663 584.385 631.846 584.847 631.846C585.308 631.846 585.751 631.663 586.078 631.336C586.404 631.009 586.588 630.566 586.588 630.103V613.836C586.586 613.638 586.55 613.441 586.481 613.255H652.86C652.791 613.441 652.755 613.638 652.753 613.836V630.103C652.753 630.566 652.937 631.009 653.263 631.336C653.59 631.663 654.032 631.846 654.494 631.846C654.956 631.846 655.399 631.663 655.725 631.336C656.052 631.009 656.235 630.566 656.235 630.103V613.836C656.233 613.638 656.197 613.441 656.129 613.255H665.522C666.138 613.255 666.728 613.01 667.163 612.574C667.599 612.139 667.843 611.547 667.843 610.931C667.843 610.315 667.599 609.724 667.163 609.288C666.728 608.852 666.138 608.607 665.522 608.607H655.655V603.959H666.683C666.99 603.959 667.286 603.837 667.503 603.619C667.721 603.401 667.843 603.106 667.843 602.797C667.843 602.489 667.721 602.194 667.503 601.976C667.286 601.758 666.99 601.635 666.683 601.635H655.655V596.988H666.683ZM586.007 590.016H653.333V594.664H586.007V590.016ZM653.333 608.607H586.007V603.959H653.333V608.607ZM653.333 601.635H586.007V596.988H653.333V601.635Z" fill="#3F3D56"/>
<path d="M312.655 548.218C312.655 527.697 296.024 479 275.509 479C254.994 479 238.364 527.697 238.364 548.218C238.364 558.08 242.277 567.537 249.243 574.51C256.21 581.483 265.658 585.401 275.509 585.401C285.361 585.401 294.809 581.483 301.775 574.51C308.741 567.537 312.655 558.08 312.655 548.218H312.655Z" fill="#E6E6E6"/>
<path d="M303.368 548.218C303.368 527.697 286.738 479 266.223 479C245.708 479 229.077 527.697 229.077 548.218C229.077 558.08 232.991 567.537 239.957 574.51C246.923 581.483 256.371 585.401 266.223 585.401C276.074 585.401 285.522 581.483 292.489 574.51C299.455 567.537 303.368 558.08 303.368 548.218H303.368Z" fill="#F2F2F2"/>
<path d="M267.383 631.357C267.076 631.357 266.78 631.234 266.563 631.016C266.345 630.798 266.223 630.503 266.223 630.195V526.617C266.223 526.309 266.345 526.013 266.563 525.795C266.78 525.578 267.076 525.455 267.383 525.455C267.691 525.455 267.987 525.578 268.204 525.795C268.422 526.013 268.544 526.309 268.544 526.617V630.195C268.544 630.503 268.422 630.798 268.204 631.016C267.987 631.234 267.691 631.357 267.383 631.357Z" fill="#CCCCCC"/>
<path d="M267.383 543.597C267.154 543.597 266.93 543.529 266.739 543.401C266.548 543.274 266.399 543.092 266.311 542.88C266.223 542.668 266.2 542.434 266.245 542.209C266.29 541.983 266.4 541.776 266.563 541.614L281.743 526.417C281.961 526.2 282.256 526.077 282.564 526.077C282.872 526.077 283.167 526.2 283.385 526.417C283.602 526.635 283.725 526.931 283.725 527.239C283.725 527.547 283.602 527.843 283.385 528.061L268.204 543.257C268.097 543.365 267.969 543.451 267.828 543.509C267.687 543.567 267.536 543.597 267.383 543.597V543.597Z" fill="#CCCCCC"/>
<path d="M694.555 631.357C694.247 631.357 693.952 631.234 693.735 631.016C693.517 630.798 693.395 630.503 693.395 630.195V526.617C693.395 526.309 693.517 526.013 693.735 525.795C693.952 525.578 694.247 525.455 694.555 525.455C694.863 525.455 695.158 525.578 695.376 525.795C695.594 526.013 695.716 526.309 695.716 526.617V630.195C695.716 630.503 695.594 630.798 695.376 631.016C695.158 631.234 694.863 631.357 694.555 631.357Z" fill="#3F3D56"/>
<path d="M818.76 548.218C818.76 527.697 802.13 479 781.615 479C761.1 479 744.469 527.697 744.469 548.218C744.469 558.08 748.383 567.537 755.349 574.51C762.315 581.483 771.763 585.401 781.615 585.401C791.467 585.401 800.915 581.483 807.881 574.51C814.847 567.537 818.76 558.08 818.76 548.218H818.76Z" fill="#E6E6E6"/>
<path d="M809.474 548.218C809.474 527.697 792.843 479 772.328 479C751.814 479 735.183 527.697 735.183 548.218C735.183 558.08 739.097 567.537 746.063 574.51C753.029 581.483 762.477 585.401 772.329 585.401C782.18 585.401 791.628 581.483 798.594 574.51C805.56 567.537 809.474 558.08 809.474 548.218H809.474Z" fill="#F2F2F2"/>
<path d="M773.489 631.357C773.182 631.357 772.886 631.234 772.669 631.016C772.451 630.798 772.329 630.503 772.329 630.195V526.617C772.329 526.309 772.451 526.013 772.669 525.795C772.886 525.578 773.182 525.455 773.489 525.455C773.797 525.455 774.093 525.578 774.31 525.795C774.528 526.013 774.65 526.309 774.65 526.617V630.195C774.65 630.503 774.528 630.798 774.31 631.016C774.093 631.234 773.797 631.357 773.489 631.357Z" fill="#CCCCCC"/>
<path d="M773.489 543.597C773.26 543.597 773.035 543.529 772.844 543.401C772.654 543.274 772.505 543.092 772.417 542.88C772.329 542.668 772.306 542.434 772.351 542.209C772.396 541.983 772.506 541.776 772.668 541.614L787.849 526.417C788.067 526.2 788.362 526.077 788.67 526.077C788.977 526.077 789.273 526.2 789.49 526.417C789.708 526.635 789.83 526.931 789.83 527.239C789.83 527.547 789.708 527.843 789.49 528.061L774.31 543.257C774.202 543.365 774.074 543.451 773.933 543.509C773.793 543.567 773.642 543.597 773.489 543.597Z" fill="#CCCCCC"/>
<path d="M1025.7 632.937H61.9216C61.6772 632.937 61.4428 632.815 61.2699 632.599C61.0971 632.382 61 632.088 61 631.782C61 631.476 61.0971 631.182 61.2699 630.965C61.4428 630.749 61.6772 630.627 61.9216 630.627H1025.7C1025.95 630.627 1026.18 630.749 1026.36 630.965C1026.53 631.182 1026.63 631.476 1026.63 631.782C1026.63 632.088 1026.53 632.382 1026.36 632.599C1026.18 632.815 1025.95 632.937 1025.7 632.937Z" fill="#E6E6E6"/>
<path d="M482.13 673.247H374.176C373.869 673.247 373.573 673.124 373.356 672.906C373.138 672.689 373.016 672.393 373.016 672.085C373.016 671.777 373.138 671.481 373.356 671.263C373.573 671.045 373.869 670.923 374.176 670.923H482.13C482.438 670.923 482.733 671.045 482.951 671.263C483.169 671.481 483.291 671.777 483.291 672.085C483.291 672.393 483.169 672.689 482.951 672.906C482.733 673.124 482.438 673.247 482.13 673.247Z" fill="#E6E6E6"/>
<path d="M750.273 673.247H642.319C642.012 673.247 641.716 673.124 641.499 672.906C641.281 672.689 641.159 672.393 641.159 672.085C641.159 671.777 641.281 671.481 641.499 671.263C641.716 671.045 642.012 670.923 642.319 670.923H750.273C750.581 670.923 750.876 671.045 751.094 671.263C751.312 671.481 751.434 671.777 751.434 672.085C751.434 672.393 751.312 672.689 751.094 672.906C750.876 673.124 750.581 673.247 750.273 673.247Z" fill="#E6E6E6"/>
<path d="M1018.42 673.247H910.463C910.155 673.247 909.86 673.124 909.642 672.906C909.424 672.689 909.302 672.393 909.302 672.085C909.302 671.777 909.424 671.481 909.642 671.263C909.86 671.045 910.155 670.923 910.463 670.923H1018.42C1018.72 670.923 1019.02 671.045 1019.24 671.263C1019.46 671.481 1019.58 671.777 1019.58 672.085C1019.58 672.393 1019.46 672.689 1019.24 672.906C1019.02 673.124 1018.72 673.247 1018.42 673.247Z" fill="#E6E6E6"/>
<path d="M543.652 548.218C543.652 527.697 527.022 479 506.507 479C485.992 479 469.362 527.697 469.362 548.218C469.362 558.08 473.275 567.537 480.241 574.51C487.207 581.483 496.655 585.401 506.507 585.401C516.359 585.401 525.807 581.483 532.773 574.51C539.739 567.537 543.652 558.08 543.652 548.218H543.652Z" fill="#E6E6E6"/>
<path d="M534.366 548.218C534.366 527.697 517.735 479 497.221 479C476.706 479 460.075 527.697 460.075 548.218C460.075 558.08 463.989 567.537 470.955 574.51C477.921 581.483 487.369 585.401 497.221 585.401C507.072 585.401 516.52 581.483 523.486 574.51C530.453 567.537 534.366 558.08 534.366 548.218H534.366Z" fill="#F2F2F2"/>
<path d="M498.381 631.357C498.074 631.357 497.778 631.234 497.561 631.016C497.343 630.798 497.221 630.503 497.221 630.195V526.617C497.221 526.309 497.343 526.013 497.561 525.795C497.778 525.578 498.074 525.455 498.381 525.455C498.689 525.455 498.985 525.578 499.202 525.795C499.42 526.013 499.542 526.309 499.542 526.617V630.195C499.542 630.503 499.42 630.798 499.202 631.016C498.985 631.234 498.689 631.357 498.381 631.357Z" fill="#CCCCCC"/>
<path d="M498.381 543.597C498.152 543.597 497.927 543.529 497.736 543.401C497.546 543.274 497.397 543.092 497.309 542.88C497.221 542.668 497.198 542.434 497.243 542.209C497.288 541.983 497.398 541.776 497.561 541.614L512.741 526.417C512.959 526.2 513.254 526.077 513.562 526.077C513.87 526.077 514.165 526.2 514.382 526.417C514.6 526.635 514.722 526.931 514.722 527.239C514.722 527.547 514.6 527.843 514.382 528.061L499.202 543.257C499.094 543.365 498.966 543.451 498.826 543.509C498.685 543.567 498.534 543.597 498.381 543.597Z" fill="#CCCCCC"/>
<path d="M707.324 561.118H681.787C681.017 561.117 680.279 560.811 679.735 560.266C679.191 559.722 678.885 558.983 678.885 558.213V532.65C678.885 531.88 679.191 531.141 679.735 530.596C680.279 530.052 681.017 529.746 681.787 529.745H707.324C708.093 529.746 708.831 530.052 709.375 530.596C709.919 531.141 710.225 531.88 710.226 532.65V558.213C710.225 558.983 709.919 559.722 709.375 560.266C708.831 560.811 708.093 561.117 707.324 561.118Z" fill="#3F3D56"/>
<path d="M159.427 585.205H147.371V581.542C151.18 578.888 154.556 579.119 158.996 581.757L159.427 585.205Z" fill="#3F3D56"/>
<path d="M144.579 650.277H141.94L141.545 640.087H144.579V650.277Z" fill="#FFB8B8"/>
<path d="M145.252 652.838L136.742 652.838V652.73C136.742 652.295 136.827 651.863 136.994 651.461C137.16 651.059 137.404 650.693 137.712 650.385C138.02 650.078 138.385 649.833 138.787 649.667C139.189 649.5 139.619 649.414 140.054 649.414H140.054L145.252 649.415L145.252 652.838Z" fill="#2F2E41"/>
<path d="M159.446 650.277H162.084L162.479 640.087H159.444L159.446 650.277Z" fill="#FFB8B8"/>
<path d="M158.772 649.415L163.97 649.414H163.97C164.405 649.414 164.836 649.5 165.238 649.667C165.64 649.833 166.005 650.078 166.312 650.385C166.62 650.693 166.864 651.059 167.03 651.461C167.197 651.863 167.282 652.295 167.282 652.73V652.838L158.772 652.838L158.772 649.415Z" fill="#2F2E41"/>
<path d="M159.514 648.971C159.294 648.97 159.081 648.895 158.909 648.757C158.737 648.619 158.617 648.427 158.569 648.212L152.027 619.65C152.012 619.577 151.973 619.512 151.915 619.466C151.858 619.419 151.785 619.395 151.712 619.397H151.71C151.636 619.395 151.563 619.42 151.506 619.467C151.448 619.514 151.409 619.58 151.396 619.653L145.388 648.022C145.341 648.24 145.222 648.434 145.049 648.574C144.877 648.714 144.662 648.79 144.44 648.791H141.579C141.447 648.791 141.316 648.764 141.195 648.712C141.074 648.659 140.964 648.583 140.874 648.487C140.783 648.39 140.713 648.277 140.668 648.152C140.623 648.028 140.604 647.896 140.612 647.764L142.743 611.807L143.601 611.552L143.617 611.553L160.465 611.7L164.053 647.618C164.065 647.746 164.052 647.876 164.014 647.999C163.976 648.122 163.914 648.236 163.832 648.335C163.749 648.433 163.648 648.515 163.534 648.574C163.42 648.633 163.295 648.669 163.167 648.679L159.592 648.968C159.566 648.97 159.54 648.971 159.514 648.971Z" fill="#2F2E41"/>
<path d="M152.557 578.639C155.477 578.639 157.845 576.269 157.845 573.346C157.845 570.423 155.477 568.053 152.557 568.053C149.637 568.053 147.27 570.423 147.27 573.346C147.27 576.269 149.637 578.639 152.557 578.639Z" fill="#FFB8B8"/>
<path d="M149.318 615.749C148.39 615.76 147.466 615.63 146.578 615.363C145.788 615.124 145.055 614.726 144.424 614.194C143.793 613.661 143.278 613.005 142.91 612.265C142.793 612.043 142.767 611.783 142.838 611.542C143.421 609.55 146.239 599.194 144.441 590.961C144.187 589.818 144.166 588.634 144.379 587.482C144.592 586.33 145.034 585.233 145.68 584.256C146.31 583.287 147.13 582.454 148.089 581.809C149.048 581.163 150.127 580.717 151.262 580.498V580.498C151.56 580.44 151.86 580.392 152.153 580.356C153.407 580.201 154.68 580.326 155.881 580.721C157.081 581.117 158.18 581.773 159.097 582.643C160.042 583.53 160.78 584.615 161.257 585.82C161.733 587.026 161.938 588.322 161.856 589.616L160.474 611.814C160.465 611.98 160.412 612.141 160.322 612.281C160.231 612.421 160.106 612.535 159.958 612.612C158.367 613.447 153.586 615.749 149.318 615.749Z" fill="#3F3D56"/>
<path d="M158.53 569.45C157.981 568.068 156.975 566.917 155.68 566.188C154.385 565.459 152.88 565.197 151.415 565.445L153.082 566.794C151.011 566.864 148.83 566.715 147.351 568.168C147.822 568.155 148.439 569.163 148.91 569.15C148.469 569.181 148.045 569.33 147.681 569.581C147.318 569.832 147.028 570.176 146.843 570.578C146.482 571.39 146.398 572.298 146.603 573.163C147.136 574.436 147.757 575.67 148.46 576.857C148.398 574.751 152.539 569.729 154.561 570.253C153.534 570.635 152.643 571.312 151.999 572.2C153.375 571.506 154.931 571.251 156.456 571.471C156.804 571.551 157.164 571.571 157.519 571.53C157.736 571.487 157.939 571.389 158.108 571.245C158.277 571.101 158.406 570.916 158.483 570.708C158.56 570.5 158.583 570.275 158.548 570.056C158.514 569.837 158.424 569.63 158.288 569.455L158.53 569.45Z" fill="#2F2E41"/>
<path d="M148.954 614.416C148.82 614.416 148.688 614.388 148.566 614.334L138.533 609.951C138.32 609.859 138.147 609.694 138.046 609.485C137.945 609.276 137.923 609.037 137.984 608.813L144.625 583.699C144.749 583.232 144.964 582.794 145.259 582.411C145.553 582.028 145.921 581.708 146.341 581.469C146.761 581.23 147.224 581.077 147.704 581.02C148.183 580.962 148.669 581.001 149.133 581.134L151.789 581.893L149.92 613.503C149.91 613.658 149.863 613.81 149.783 613.944C149.702 614.078 149.591 614.19 149.458 614.272C149.306 614.366 149.132 614.415 148.954 614.416V614.416Z" fill="#3F3D56"/>
<path d="M167.522 608.813L167.08 607.148L166.441 604.725L166.133 603.564L165.494 601.148L160.88 583.699C160.757 583.231 160.542 582.793 160.247 582.41C159.953 582.027 159.585 581.706 159.165 581.468C158.745 581.229 158.281 581.076 157.802 581.019C157.322 580.962 156.836 581.001 156.372 581.134L153.717 581.893L155.033 604.126L155.168 606.447L155.255 607.91V607.913L155.392 610.221L155.586 613.503C155.602 613.749 155.71 613.98 155.89 614.15C156.069 614.32 156.306 614.415 156.553 614.416C156.686 614.416 156.818 614.388 156.94 614.335L166.972 609.951C167.186 609.86 167.359 609.694 167.46 609.485C167.561 609.276 167.583 609.037 167.522 608.813Z" fill="#3F3D56"/>
<path d="M166.133 603.564L155.168 606.447L155.032 604.126L165.493 601.147L166.133 603.564Z" fill="#CCCCCC"/>
<path d="M167.08 607.148L155.392 610.221L155.254 607.912V607.91L166.441 604.725L167.08 607.148Z" fill="#CCCCCC"/>
<path d="M150.338 604.626L150.202 606.904L139.449 603.698L140.079 601.313L150.338 604.626Z" fill="#CCCCCC"/>
<path d="M150.114 608.404L139.141 604.859L138.51 607.249L149.981 610.669L150.114 608.404Z" fill="#CCCCCC"/>
<path d="M139.332 610.786C139.659 610.701 139.963 610.544 140.224 610.328C140.484 610.112 140.694 609.842 140.838 609.536C140.983 609.23 141.059 608.896 141.06 608.558C141.062 608.219 140.99 607.884 140.848 607.577L146.007 591.366L142.349 590.599L137.619 606.493C137.119 606.765 136.736 607.211 136.543 607.747C136.35 608.283 136.359 608.872 136.57 609.401C136.782 609.93 137.179 610.363 137.688 610.619C138.197 610.874 138.782 610.933 139.332 610.786V610.786Z" fill="#FFB8B8"/>
<path d="M146.15 583.396C147.2 583.503 147.791 584.685 147.53 586.157L146.277 593.221C146.183 593.751 145.747 594.17 145.386 594.079L141.147 593.019C140.82 592.937 140.7 592.473 140.885 592.009L143.43 585.619C143.602 585.014 143.955 584.477 144.441 584.08C144.928 583.683 145.524 583.444 146.15 583.396Z" fill="#3F3D56"/>
<path d="M152.538 563.439C154.327 563.44 156.046 564.137 157.331 565.384C158.616 566.631 159.366 568.329 159.421 570.12H160.718C160.833 570.12 160.942 570.165 161.023 570.246C161.104 570.327 161.149 570.437 161.149 570.551V572.275C161.149 572.389 161.104 572.499 161.023 572.58C160.942 572.661 160.833 572.706 160.718 572.706H146.079C145.965 572.706 145.855 572.661 145.775 572.58C145.694 572.499 145.648 572.389 145.648 572.275V570.336C145.648 569.43 145.827 568.533 146.173 567.697C146.519 566.86 147.026 566.1 147.666 565.459C148.306 564.819 149.065 564.311 149.901 563.964C150.737 563.618 151.633 563.439 152.538 563.439V563.439Z" fill="#3F3D56"/>
<path d="M153.361 606.067H150.318C150.22 606.067 150.126 606.031 150.053 605.965C149.981 605.899 149.936 605.809 149.927 605.712L149.318 599.462H154.361L153.752 605.712C153.743 605.809 153.697 605.899 153.625 605.965C153.553 606.031 153.459 606.067 153.361 606.067Z" fill="#E6E6E6"/>
<path d="M154.353 600.248H149.326C149.221 600.248 149.122 600.207 149.048 600.133C148.974 600.059 148.933 599.959 148.933 599.855V598.911C148.933 598.807 148.974 598.707 149.048 598.634C149.122 598.56 149.221 598.518 149.326 598.518H154.353C154.457 598.518 154.557 598.56 154.63 598.634C154.704 598.707 154.745 598.807 154.746 598.911V599.855C154.745 599.959 154.704 600.059 154.63 600.133C154.557 600.207 154.457 600.248 154.353 600.248V600.248Z" fill="#CCCCCC"/>
<path d="M151.904 602.715C152.023 602.729 152.14 602.752 152.255 602.784L160.359 595.826L159.885 593.274L163.641 592.054L164.918 596.492C165.021 596.85 165.006 597.233 164.873 597.581C164.741 597.93 164.499 598.227 164.184 598.426L153.92 604.928C153.927 605.387 153.795 605.838 153.54 606.22C153.285 606.602 152.92 606.897 152.493 607.067C152.067 607.236 151.599 607.271 151.152 607.168C150.704 607.064 150.299 606.827 149.99 606.488C149.681 606.148 149.482 605.723 149.421 605.267C149.359 604.812 149.438 604.349 149.645 603.939C149.853 603.53 150.181 603.193 150.584 602.974C150.988 602.756 151.448 602.665 151.904 602.715H151.904Z" fill="#FFB8B8"/>
<path d="M160.38 583.98C161.502 583.666 162.624 584.52 162.999 585.977L164.802 592.965C164.937 593.489 164.675 594.046 164.265 594.105L159.462 594.797C159.093 594.85 158.767 594.47 158.754 593.971L158.567 587.094C158.496 586.448 158.634 585.798 158.96 585.237C159.287 584.676 159.785 584.236 160.38 583.98Z" fill="#3F3D56"/>
<path d="M214.967 602.887H211.311C211.194 602.887 211.08 602.844 210.993 602.765C210.907 602.686 210.852 602.577 210.841 602.461L210.109 594.952H216.169L215.437 602.46C215.426 602.577 215.371 602.686 215.285 602.765C215.198 602.844 215.084 602.887 214.967 602.887V602.887Z" fill="#E6E6E6"/>
<path d="M216.159 595.896H210.119C209.994 595.896 209.874 595.846 209.786 595.758C209.697 595.669 209.647 595.549 209.647 595.424V594.29C209.647 594.165 209.697 594.045 209.786 593.957C209.874 593.868 209.994 593.818 210.119 593.818H216.159C216.284 593.818 216.404 593.868 216.492 593.957C216.581 594.045 216.631 594.165 216.631 594.29V595.424C216.631 595.549 216.581 595.669 216.492 595.758C216.404 595.846 216.284 595.896 216.159 595.896V595.896Z" fill="#CCCCCC"/>
<path d="M250.888 646.983C248.232 643.446 246.131 639.523 244.661 635.35C244.576 635.1 244.582 634.829 244.678 634.583C244.774 634.337 244.954 634.134 245.186 634.009L254.277 629.133C254.424 629.054 254.587 629.009 254.754 629.002C254.921 628.995 255.087 629.027 255.24 629.094C255.396 629.162 255.535 629.264 255.645 629.394C255.755 629.523 255.835 629.676 255.877 629.841C256.935 633.862 258.924 637.578 261.683 640.687C261.796 640.813 261.879 640.964 261.926 641.128C261.972 641.291 261.981 641.463 261.951 641.631C261.922 641.796 261.856 641.952 261.758 642.087C261.66 642.223 261.532 642.334 261.385 642.412L252.294 647.288C252.062 647.412 251.793 647.45 251.535 647.394C251.278 647.338 251.048 647.193 250.888 646.983Z" fill="#CCCCCC"/>
<path d="M251.508 646.517C251.557 646.578 251.626 646.62 251.702 646.636C251.779 646.651 251.859 646.64 251.928 646.603L261.018 641.727C261.062 641.704 261.101 641.672 261.13 641.631C261.159 641.591 261.179 641.544 261.187 641.495C261.197 641.443 261.194 641.39 261.179 641.339C261.165 641.289 261.139 641.242 261.103 641.203C258.263 638.002 256.216 634.177 255.126 630.038C255.114 629.987 255.09 629.939 255.056 629.899C255.022 629.859 254.979 629.827 254.93 629.806C254.885 629.786 254.835 629.776 254.785 629.778C254.736 629.78 254.687 629.794 254.643 629.818L245.553 634.694C245.484 634.731 245.43 634.791 245.401 634.864C245.372 634.936 245.369 635.017 245.393 635.092C246.837 639.19 248.899 643.043 251.508 646.517V646.517Z" fill="white"/>
<path d="M254.873 636.091L249.922 638.279C249.734 638.362 249.521 638.367 249.329 638.292C249.137 638.218 248.982 638.07 248.899 637.882L248.777 637.604C248.694 637.416 248.689 637.202 248.763 637.01C248.838 636.818 248.985 636.664 249.173 636.58L254.124 634.393C254.313 634.31 254.526 634.305 254.718 634.379C254.91 634.454 255.064 634.601 255.147 634.789L255.27 635.067C255.353 635.256 255.358 635.469 255.283 635.661C255.209 635.853 255.062 636.008 254.873 636.091V636.091Z" fill="#CCCCCC"/>
<path d="M256.684 639.457L251.733 641.645C251.545 641.728 251.331 641.733 251.139 641.658C250.948 641.584 250.793 641.436 250.71 641.248L250.587 640.97C250.504 640.782 250.5 640.568 250.574 640.376C250.648 640.184 250.796 640.03 250.984 639.946L255.935 637.759C256.123 637.676 256.337 637.671 256.528 637.745C256.72 637.82 256.875 637.967 256.958 638.155L257.081 638.433C257.163 638.622 257.168 638.835 257.094 639.027C257.019 639.219 256.872 639.374 256.684 639.457V639.457Z" fill="#CCCCCC"/>
<path d="M245.072 636.653C244.731 636.433 244.441 636.14 244.225 635.796C244.008 635.452 243.87 635.065 243.819 634.662C243.768 634.258 243.806 633.849 243.93 633.461C244.055 633.074 244.263 632.719 244.539 632.421L242.451 602.761L248.465 603.345L248.631 632.391C249.1 632.889 249.371 633.542 249.391 634.226C249.412 634.911 249.181 635.579 248.742 636.104C248.304 636.629 247.688 636.975 247.011 637.076C246.335 637.178 245.645 637.027 245.072 636.653V636.653Z" fill="#A0616A"/>
<path d="M243.812 612.727C243.672 612.626 243.555 612.494 243.472 612.342C243.389 612.189 243.341 612.02 243.332 611.847L242.891 603.853C242.847 603.061 243.098 602.28 243.595 601.663C244.092 601.045 244.8 600.633 245.582 600.507C246.365 600.38 247.166 600.549 247.832 600.979C248.498 601.409 248.981 602.07 249.188 602.836L251.124 609.983C251.205 610.281 251.163 610.599 251.01 610.867C250.856 611.135 250.603 611.331 250.305 611.412L244.798 612.907C244.631 612.953 244.456 612.96 244.285 612.929C244.114 612.898 243.953 612.829 243.812 612.727Z" fill="#3F3D56"/>
<path d="M233.561 673.118L230.391 673.117L228.882 660.875H233.562L233.561 673.118Z" fill="#A0616A"/>
<path d="M227.418 672.21H234.241V676.065H224.275V675.356C224.275 674.943 224.356 674.534 224.514 674.152C224.672 673.77 224.904 673.424 225.196 673.132C225.487 672.839 225.834 672.608 226.215 672.45C226.596 672.292 227.005 672.21 227.418 672.21V672.21Z" fill="#2F2E41"/>
<path d="M245.459 673.118L242.289 673.117L240.78 660.875H245.46L245.459 673.118Z" fill="#A0616A"/>
<path d="M239.315 672.21H246.139V676.065H236.173V675.356C236.173 674.943 236.254 674.534 236.412 674.152C236.57 673.77 236.802 673.424 237.093 673.132C237.385 672.839 237.732 672.608 238.113 672.45C238.494 672.292 238.903 672.21 239.315 672.21V672.21Z" fill="#2F2E41"/>
<path d="M233.412 666.949L229.921 666.783C229.624 666.768 229.343 666.641 229.137 666.426C228.931 666.211 228.815 665.925 228.813 665.627C227.892 651.408 226.618 636.161 228.569 630.271C228.568 630.103 228.603 629.937 228.672 629.784C228.741 629.631 228.842 629.495 228.968 629.385C229.095 629.274 229.243 629.193 229.404 629.145C229.565 629.098 229.734 629.086 229.9 629.11L243.866 631.139C244.142 631.178 244.394 631.315 244.577 631.525C244.76 631.735 244.862 632.004 244.862 632.283C246.645 639.258 246.726 651.904 246.659 665.045C246.66 665.198 246.63 665.351 246.572 665.493C246.514 665.635 246.429 665.765 246.321 665.874C246.213 665.983 246.084 666.07 245.942 666.129C245.8 666.188 245.648 666.218 245.495 666.218H241.731C241.454 666.22 241.185 666.121 240.974 665.94C240.763 665.76 240.623 665.509 240.581 665.234L238.259 650.459C238.226 650.243 238.115 650.046 237.947 649.906C237.78 649.765 237.567 649.69 237.348 649.694C237.13 649.698 236.92 649.781 236.758 649.928C236.596 650.074 236.492 650.275 236.466 650.492L234.623 665.924C234.588 666.207 234.452 666.467 234.239 666.656C234.026 666.845 233.752 666.95 233.467 666.951C233.449 666.951 233.431 666.95 233.412 666.949Z" fill="#2F2E41"/>
<path d="M235.869 632.285C233.831 631.086 231.572 630.312 229.227 630.008C229.073 629.993 228.924 629.947 228.788 629.872C228.652 629.798 228.533 629.697 228.437 629.575C228.34 629.452 228.268 629.31 228.227 629.159C228.185 629.008 228.175 628.849 228.197 628.694L231.543 603.825C231.736 602.37 232.297 600.989 233.174 599.813C234.05 598.637 235.213 597.704 236.551 597.105C237.847 596.509 239.273 596.254 240.694 596.366C242.116 596.477 243.485 596.951 244.672 597.742C244.786 597.818 244.899 597.896 245.009 597.976C246.376 598.978 247.416 600.363 247.998 601.956C248.579 603.549 248.677 605.279 248.278 606.927C246.226 615.33 245.521 629.106 245.4 631.783C245.391 632.011 245.314 632.231 245.18 632.415C245.046 632.6 244.86 632.74 244.646 632.819C243.383 633.279 242.051 633.516 240.708 633.521C239.016 633.532 237.349 633.106 235.869 632.285V632.285Z" fill="#3F3D56"/>
<path d="M238.668 593.728C242.177 593.728 245.021 590.881 245.021 587.369C245.021 583.857 242.177 581.01 238.668 581.01C235.16 581.01 232.316 583.857 232.316 587.369C232.316 590.881 235.16 593.728 238.668 593.728Z" fill="#A0616A"/>
<path d="M243.164 592.4C242.898 592.687 242.556 592.891 242.178 592.99C241.8 593.089 241.402 593.078 241.03 592.958C240.659 592.838 240.329 592.615 240.079 592.314C239.83 592.013 239.672 591.647 239.623 591.259C239.611 591.125 239.612 590.99 239.626 590.856C239.857 590.121 239.997 589.359 240.041 588.59C240.017 588.389 239.943 588.197 239.824 588.033C238.88 586.767 236.663 588.6 235.771 587.453C235.225 586.751 235.867 585.644 235.448 584.859C234.894 583.823 233.255 584.334 232.227 583.766C231.083 583.135 231.151 581.378 231.904 580.309C232.394 579.678 233.017 579.162 233.729 578.799C234.441 578.437 235.224 578.235 236.023 578.21C237.621 578.172 239.209 578.483 240.676 579.119C242.409 579.683 243.938 580.745 245.074 582.171C245.661 583.107 246.034 584.161 246.164 585.258C246.294 586.355 246.179 587.468 245.826 588.515C245.205 589.974 244.3 591.294 243.164 592.4Z" fill="#2F2E41"/>
<path d="M248.195 598.582C248.084 598.059 247.129 597.345 245.763 596.762C243.568 595.872 241.194 595.514 238.834 595.716C236.475 595.919 234.196 596.676 232.184 597.927C232.044 597.935 231.91 597.988 231.803 598.08C231.696 598.171 231.622 598.295 231.592 598.432L226.998 618.77L226.401 621.418L226.005 623.171L225.408 625.812L225.089 627.223C225.069 627.313 225.068 627.407 225.087 627.497C225.106 627.588 225.143 627.674 225.198 627.748C225.252 627.823 225.322 627.885 225.402 627.931C225.482 627.977 225.572 628.005 225.664 628.013L245.5 629.727C245.518 629.727 245.538 629.729 245.557 629.729C245.72 629.728 245.877 629.665 245.996 629.553C246.115 629.441 246.187 629.287 246.198 629.124L246.387 626.247L246.589 623.171L246.676 621.838L246.876 618.77L248.197 598.616V598.598L248.195 598.582Z" fill="#3F3D56"/>
<path d="M215.648 599.863C215.679 600.003 215.7 600.144 215.709 600.287L226.82 606.704L229.521 605.148L232.4 608.92L226.623 613.042L213.947 603.032C213.43 603.224 212.867 603.253 212.333 603.117C211.798 602.98 211.319 602.684 210.957 602.268C210.595 601.851 210.368 601.335 210.307 600.786C210.245 600.238 210.352 599.684 210.613 599.198C210.874 598.712 211.276 598.316 211.767 598.065C212.258 597.813 212.813 597.717 213.36 597.789C213.906 597.862 214.418 598.099 214.827 598.469C215.235 598.839 215.522 599.326 215.648 599.863V599.863Z" fill="#A0616A"/>
<path d="M227.217 606.158C227.199 605.985 227.219 605.811 227.277 605.647C227.335 605.483 227.429 605.335 227.552 605.212L233.207 599.55C233.767 598.989 234.515 598.656 235.306 598.614C236.097 598.572 236.876 598.826 237.492 599.325C238.108 599.824 238.517 600.533 238.642 601.317C238.766 602.1 238.596 602.902 238.164 603.567L234.137 609.779C233.969 610.038 233.705 610.22 233.403 610.284C233.101 610.348 232.786 610.29 232.527 610.122L227.741 607.013C227.595 606.919 227.473 606.793 227.382 606.645C227.291 606.497 227.235 606.331 227.217 606.158Z" fill="#3F3D56"/>
<path d="M246.875 618.77L246.677 621.838L226.4 621.419L226.998 618.77H246.875Z" fill="#CCCCCC"/>
<path d="M246.589 623.171L246.387 626.247L225.408 625.812L226.006 623.171H246.589Z" fill="#CCCCCC"/>
<path d="M238.793 575.014C236.643 575.014 234.577 575.852 233.033 577.35C231.49 578.848 230.589 580.889 230.522 583.04H228.964C228.827 583.04 228.695 583.094 228.598 583.192C228.501 583.289 228.447 583.42 228.447 583.558V585.629C228.447 585.766 228.501 585.898 228.598 585.995C228.695 586.092 228.827 586.147 228.964 586.147H246.552C246.689 586.147 246.821 586.092 246.918 585.995C247.015 585.898 247.07 585.766 247.07 585.629V583.299C247.07 582.211 246.856 581.133 246.44 580.128C246.024 579.123 245.414 578.21 244.645 577.44C243.877 576.671 242.964 576.061 241.96 575.644C240.956 575.228 239.88 575.014 238.793 575.014Z" fill="#3F3D56"/>
<path d="M285.376 659.303H283.602C283.59 659.088 281.209 653.493 281.209 653.493L279.769 650.007L278.817 647.684L277.378 644.198L275.729 640.189C275.687 640.008 275.585 639.847 275.44 639.731C275.294 639.616 275.114 639.553 274.929 639.553C274.743 639.553 274.563 639.616 274.417 639.731C274.272 639.847 274.17 640.008 274.128 640.189L272.479 644.198L271.04 647.684L270.088 650.007L268.648 653.493C268.648 653.493 266.267 659.088 266.255 659.303H264.481C264.02 659.303 263.577 659.487 263.25 659.814C262.924 660.14 262.74 660.584 262.74 661.046C262.74 661.508 262.924 661.952 263.25 662.279C263.577 662.605 264.02 662.789 264.481 662.789H285.376C285.837 662.789 286.28 662.605 286.607 662.279C286.933 661.952 287.117 661.508 287.117 661.046C287.117 660.584 286.933 660.14 286.607 659.814C286.28 659.487 285.837 659.303 285.376 659.303Z" fill="#FF6584"/>
<path d="M284.215 689.514H283.527C283.59 689.365 280.535 681.543 280.535 681.543L278.701 677.069L277.471 674.072L275.637 669.598L273.64 664.753C273.584 664.524 273.453 664.321 273.268 664.175C273.083 664.03 272.854 663.951 272.619 663.951C272.383 663.951 272.155 664.03 271.97 664.175C271.784 664.321 271.653 664.524 271.597 664.753L269.601 669.598L267.767 674.072L266.524 677.069L264.691 681.543C264.691 681.543 261.647 689.365 261.71 689.514H260.999C260.537 689.514 260.094 689.698 259.768 690.024C259.441 690.351 259.258 690.795 259.258 691.257C259.258 691.719 259.441 692.163 259.768 692.489C260.094 692.816 260.537 693 260.999 693H284.215C284.677 693 285.12 692.816 285.446 692.489C285.773 692.163 285.956 691.719 285.956 691.257C285.956 690.795 285.773 690.351 285.446 690.024C285.12 689.698 284.677 689.514 284.215 689.514Z" fill="#FF6584"/>
<path d="M278.817 647.684H271.04L272.479 644.198H277.377L278.817 647.684Z" fill="#F2F2F2"/>
<path d="M281.208 653.493H268.648L270.088 650.008H279.769L281.208 653.493Z" fill="#F2F2F2"/>
<path d="M277.47 674.072H267.766L269.6 669.598H275.636L277.47 674.072Z" fill="#F2F2F2"/>
<path d="M280.535 681.543H264.69L266.524 677.07H278.701L280.535 681.543Z" fill="#F2F2F2"/>
<path d="M540.384 592.777C540.564 592.599 540.702 592.384 540.789 592.148C540.877 591.911 540.911 591.658 540.89 591.407C540.87 591.155 540.794 590.911 540.669 590.692C540.544 590.473 540.372 590.284 540.166 590.139L539.295 584.392L535.718 585.519L537.677 590.646C537.456 591.009 537.376 591.44 537.451 591.858C537.526 592.276 537.752 592.652 538.086 592.915C538.419 593.177 538.837 593.308 539.261 593.283C539.685 593.257 540.085 593.077 540.384 592.777V592.777Z" fill="#FFB8B8"/>
<path d="M536.699 590.073L534.493 579.757C534.278 578.769 534.32 577.742 534.615 576.774C534.91 575.807 535.448 574.932 536.178 574.233C539.002 571.508 542.633 568.074 543.887 567.185C545.064 566.346 546.488 565.925 547.932 565.99L547.962 565.994L549.86 567.789L545.725 574.603L539.448 578.54L540.146 588.651L536.699 590.073Z" fill="#3F3D56"/>
<path d="M544.427 576.054H535.167C534.766 576.054 534.44 576.379 534.44 576.781C534.44 577.183 534.766 577.508 535.167 577.508H544.427C544.828 577.508 545.153 577.183 545.153 576.781C545.153 576.379 544.828 576.054 544.427 576.054Z" fill="#CCCCCC"/>
<path d="M544.427 591.867H535.167C534.766 591.867 534.44 592.192 534.44 592.594C534.44 592.996 534.766 593.321 535.167 593.321H544.427C544.828 593.321 545.153 592.996 545.153 592.594C545.153 592.192 544.828 591.867 544.427 591.867Z" fill="#CCCCCC"/>
<path d="M539.888 631.49C539.797 631.49 539.71 631.456 539.643 631.395C539.576 631.333 539.534 631.249 539.526 631.159L534.897 576.813C534.892 576.766 534.898 576.717 534.912 576.672C534.926 576.626 534.949 576.584 534.98 576.547C535.01 576.51 535.048 576.48 535.09 576.458C535.132 576.436 535.179 576.422 535.226 576.418C535.274 576.414 535.322 576.419 535.367 576.433C535.413 576.448 535.455 576.471 535.492 576.502C535.528 576.532 535.559 576.57 535.581 576.612C535.603 576.655 535.616 576.701 535.62 576.749L539.883 626.96L544.024 576.75C544.028 576.702 544.041 576.656 544.063 576.613C544.085 576.57 544.115 576.533 544.152 576.502C544.188 576.471 544.23 576.448 544.276 576.433C544.322 576.419 544.37 576.413 544.417 576.417C544.465 576.421 544.511 576.435 544.554 576.457C544.596 576.479 544.634 576.509 544.664 576.546C544.695 576.583 544.718 576.625 544.733 576.671C544.747 576.717 544.752 576.765 544.748 576.812L540.25 631.158C540.242 631.248 540.201 631.333 540.134 631.394C540.067 631.456 539.979 631.49 539.888 631.49L539.888 631.49Z" fill="#CCCCCC"/>
<path d="M550.28 563.815C552.911 563.815 555.045 561.68 555.045 559.046C555.045 556.412 552.911 554.277 550.28 554.277C547.649 554.277 545.516 556.412 545.516 559.046C545.516 561.68 547.649 563.815 550.28 563.815Z" fill="#FFB8B8"/>
<path d="M536.081 629.311L533.815 628.588L535.523 619.496L538.867 620.563L536.081 629.311Z" fill="#FFB8B8"/>
<path d="M535.955 631.322L528.661 628.995L528.721 628.805C528.953 628.08 529.463 627.476 530.139 627.126C530.815 626.777 531.603 626.71 532.328 626.94L536.887 628.395L535.955 631.322Z" fill="#2F2E41"/>
<path d="M552.567 629.263H550.188L549.057 620.082H552.567V629.263Z" fill="#FFB8B8"/>
<path d="M545.693 631.383H552.985V628.674H548.382C547.669 628.675 546.985 628.959 546.481 629.463C545.977 629.968 545.693 630.652 545.693 631.366V631.383Z" fill="#2F2E41"/>
<path d="M552.497 626.284L551.694 626.164C550.686 626.103 549.69 625.917 548.728 625.609C548.53 625.522 548.516 624.211 548.635 616.838C548.722 611.426 548.83 604.691 548.62 601.076C548.611 600.933 548.555 600.797 548.46 600.691C548.365 600.584 548.237 600.513 548.096 600.488C547.955 600.463 547.81 600.486 547.685 600.554C547.559 600.622 547.46 600.73 547.403 600.861C545.591 605.048 542.553 614.418 540.542 620.619C539.842 622.776 539.29 624.479 538.94 625.5C538.873 625.694 538.736 625.855 538.556 625.952C538.376 626.049 538.166 626.076 537.968 626.027C536.313 625.613 536.424 625.437 534.067 624.827C533.863 624.775 533.687 624.646 533.576 624.467C533.465 624.288 533.427 624.073 533.471 623.867C533.897 621.854 541.699 589.224 542.296 586.122C542.316 586.016 542.357 585.915 542.417 585.824C542.476 585.734 542.553 585.657 542.643 585.596C542.732 585.536 542.833 585.494 542.939 585.473C543.044 585.451 543.153 585.451 543.259 585.473C545.016 585.827 546.085 586.203 547.82 586.566C549.693 586.958 551.63 587.364 553.519 587.743C553.707 587.78 553.876 587.884 553.995 588.034C554.521 588.598 555.169 589.034 555.889 589.308C556.384 589.545 555.263 589.524 555.694 589.865C557.439 591.248 554.93 619.326 553.413 625.667C553.365 625.866 553.244 626.039 553.074 626.153C552.905 626.267 552.699 626.314 552.497 626.284V626.284Z" fill="#2F2E41"/>
<path d="M552.311 563.219C552.033 562.038 553.439 559.495 553.161 558.314C552.972 557.514 551.093 558.058 550.654 557.363C550.45 557.005 550.162 556.702 549.814 556.481C549.467 556.26 549.07 556.128 548.66 556.096C547.716 556.085 546.787 556.786 545.893 556.483C545.682 556.378 545.493 556.232 545.338 556.053C545.184 555.875 545.066 555.667 544.992 555.443C544.919 555.218 544.89 554.981 544.909 554.746C544.927 554.51 544.992 554.28 545.1 554.07C545.578 553.235 546.321 552.583 547.211 552.217C548.613 551.359 550.292 551.077 551.897 551.428C552.815 551.785 553.657 552.314 554.376 552.988C555.097 553.522 555.73 554.166 556.253 554.895C556.697 555.656 556.938 556.518 556.952 557.399C556.966 558.28 556.753 559.15 556.334 559.924C555.466 561.47 554.083 562.662 552.426 563.29" fill="#2F2E41"/>
<path d="M540.613 590.713C541.127 589.853 541.907 585.824 542.87 579.062C543.526 574.445 544.097 569.755 544.38 567.359C544.402 567.165 544.473 566.979 544.586 566.82C544.699 566.661 544.851 566.534 545.026 566.449C545.21 566.361 545.393 566.277 545.575 566.197C547.756 565.198 550.178 564.844 552.554 565.178C554.93 565.512 557.161 566.52 558.983 568.083L559.004 568.103L559.01 568.132C559.02 568.185 560.004 573.493 557.988 577.08C556 580.618 555.977 589.989 555.977 590.084V590.204L555.861 590.171C552.769 589.286 540.822 590.834 540.702 590.85L540.516 590.874L540.613 590.713Z" fill="#3F3D56"/>
<path d="M558.59 578.417H549.33C548.929 578.417 548.604 578.742 548.604 579.144C548.604 579.545 548.929 579.871 549.33 579.871H558.59C558.991 579.871 559.316 579.545 559.316 579.144C559.316 578.742 558.991 578.417 558.59 578.417Z" fill="#CCCCCC"/>
<path d="M558.59 594.23H549.33C548.929 594.23 548.604 594.555 548.604 594.957C548.604 595.358 548.929 595.684 549.33 595.684H558.59C558.991 595.684 559.316 595.358 559.316 594.957C559.316 594.555 558.991 594.23 558.59 594.23Z" fill="#CCCCCC"/>
<path d="M554.051 631.672C553.96 631.672 553.873 631.638 553.806 631.576C553.739 631.515 553.697 631.431 553.689 631.34L549.06 579.176C549.051 579.08 549.081 578.984 549.143 578.911C549.205 578.837 549.293 578.79 549.389 578.782C549.485 578.773 549.581 578.803 549.655 578.865C549.728 578.927 549.775 579.016 549.783 579.112L554.046 627.141L558.187 579.113C558.191 579.065 558.204 579.018 558.226 578.976C558.248 578.933 558.278 578.896 558.315 578.865C558.351 578.834 558.393 578.81 558.439 578.796C558.485 578.781 558.533 578.776 558.58 578.78C558.628 578.784 558.674 578.798 558.717 578.82C558.759 578.842 558.797 578.872 558.827 578.909C558.858 578.946 558.881 578.988 558.896 579.034C558.91 579.079 558.915 579.127 558.911 579.175L554.413 631.34C554.405 631.43 554.364 631.515 554.297 631.576C554.23 631.638 554.142 631.672 554.051 631.672L554.051 631.672Z" fill="#CCCCCC"/>
<path d="M551.061 594.46C551.007 594.214 551.007 593.958 551.062 593.712C551.117 593.466 551.226 593.234 551.38 593.035C551.534 592.835 551.73 592.671 551.954 592.556C552.178 592.44 552.424 592.374 552.676 592.364L556.527 588.013L558.918 590.905L554.49 594.144C554.479 594.568 554.312 594.974 554.022 595.284C553.732 595.595 553.338 595.788 552.916 595.827C552.493 595.865 552.071 595.748 551.729 595.496C551.387 595.244 551.149 594.876 551.061 594.46H551.061Z" fill="#FFB8B8"/>
<path d="M553.303 591.432L559.378 583.324L556.245 576.604L556.473 568.635L559.041 568.16L559.068 568.174C560.316 568.904 561.283 570.032 561.815 571.377C562.386 572.805 563.569 577.662 564.461 581.486C564.694 582.47 564.671 583.498 564.394 584.47C564.116 585.443 563.594 586.327 562.877 587.04L555.425 594.5L553.303 591.432Z" fill="#3F3D56"/>
<path d="M527.837 629.417L536.148 631.42C536.309 631.463 536.48 631.448 536.632 631.377C536.783 631.307 536.904 631.185 536.975 631.034L544.115 612.033C544.146 611.96 544.162 611.881 544.162 611.801C544.163 611.722 544.147 611.643 544.115 611.57C544.079 611.488 544.027 611.414 543.962 611.353C543.896 611.291 543.819 611.244 543.735 611.214L537.486 608.825C537.387 608.787 537.282 608.77 537.176 608.776C537.07 608.782 536.967 608.81 536.873 608.859C536.792 608.899 536.72 608.957 536.662 609.027C536.604 609.098 536.562 609.18 536.539 609.268L536.539 609.269L532.128 626.016L532.063 626.02C530.694 626.1 529.393 626.643 528.372 627.56C528.16 627.816 528.003 628.113 527.911 628.433C527.819 628.752 527.793 629.088 527.837 629.417Z" fill="#CCCCCC"/>
<path d="M533.856 618.766L533.818 619.127L541.395 619.93L541.434 619.569L533.856 618.766Z" fill="#B3B3B3"/>
<path d="M533.195 621.76L533.046 622.092L539.144 624.838L539.293 624.507L533.195 621.76Z" fill="#B3B3B3"/>
<path d="M542.231 617.023L535.043 614.64L535.193 614.309L542.38 616.691L542.231 617.023Z" fill="#B3B3B3"/>
<path d="M542.958 615.387L535.77 611.914L535.919 611.582L543.106 615.055L542.958 615.387Z" fill="#B3B3B3"/>
<path d="M532.562 624.607L532.326 624.883L537.508 629.314L537.744 629.038L532.562 624.607Z" fill="#B3B3B3"/>
<path d="M531.09 626.076L530.76 626.226L532.84 630.819L533.171 630.669L531.09 626.076Z" fill="#B3B3B3"/>
<path d="M733.647 594.299C733.339 594.227 733.05 594.089 732.801 593.893C732.552 593.698 732.35 593.451 732.207 593.168C732.064 592.886 731.984 592.576 731.974 592.259C731.964 591.943 732.023 591.628 732.148 591.337L724.175 573.307L728.736 572.157L735.139 590.242C735.613 590.484 735.982 590.891 736.177 591.388C736.371 591.884 736.377 592.434 736.193 592.934C736.009 593.434 735.648 593.849 735.179 594.1C734.709 594.352 734.164 594.423 733.647 594.299V594.299Z" fill="#A0616A"/>
<path d="M725.655 578.957C725.528 578.9 725.414 578.816 725.323 578.711C725.231 578.606 725.162 578.483 725.123 578.349L723.729 573.681C723.424 573.035 723.388 572.293 723.63 571.62C723.871 570.947 724.369 570.398 725.015 570.093C725.661 569.788 726.402 569.752 727.074 569.994C727.746 570.236 728.295 570.735 728.6 571.381L731.296 575.456C731.373 575.573 731.424 575.704 731.445 575.842C731.467 575.98 731.458 576.121 731.421 576.255C731.383 576.389 731.317 576.514 731.227 576.62C731.136 576.727 731.024 576.812 730.898 576.871L726.463 578.95C726.336 579.009 726.199 579.04 726.06 579.041C725.92 579.043 725.782 579.014 725.655 578.957V578.957Z" fill="#3F3D56"/>
<path d="M741.884 576.631L736.994 580.097C736.931 580.142 736.856 580.167 736.779 580.167C736.701 580.167 736.626 580.142 736.563 580.097L735.242 579.104C735.198 579.071 735.162 579.03 735.136 578.982C735.11 578.934 735.096 578.881 735.094 578.826C735.091 578.772 735.101 578.717 735.123 578.667C735.144 578.617 735.177 578.573 735.218 578.537L738.981 575.178C739.03 575.135 739.091 575.105 739.155 575.093C739.219 575.08 739.286 575.085 739.348 575.107L741.797 575.984C741.86 576.007 741.915 576.047 741.957 576.1C741.999 576.152 742.026 576.215 742.035 576.281C742.044 576.348 742.035 576.416 742.008 576.477C741.982 576.539 741.939 576.592 741.884 576.631V576.631Z" fill="#3F3D56"/>
<path d="M741.486 576.303C741.498 576.271 741.497 576.235 741.483 576.203C741.468 576.171 741.442 576.147 741.41 576.134L739.204 575.344C739.182 575.337 739.159 575.335 739.136 575.339C739.113 575.343 739.092 575.353 739.074 575.369L735.68 578.398L735.661 578.419C735.651 578.432 735.644 578.447 735.641 578.464C735.637 578.48 735.636 578.497 735.639 578.513C735.642 578.529 735.648 578.545 735.656 578.559C735.665 578.574 735.677 578.586 735.69 578.595L736.879 579.489C736.901 579.505 736.928 579.514 736.956 579.513C736.984 579.513 737.01 579.504 737.033 579.487L741.44 576.364C741.461 576.349 741.477 576.327 741.486 576.303Z" fill="white"/>
<path d="M724.061 628.301H726.529L727.704 618.772H724.061V628.301Z" fill="#A0616A"/>
<path d="M723.432 627.495L728.292 627.494H728.292C728.699 627.494 729.102 627.575 729.478 627.73C729.854 627.886 730.195 628.115 730.483 628.403C730.77 628.69 730.998 629.032 731.154 629.408C731.31 629.785 731.39 630.188 731.39 630.595V630.696L723.432 630.696L723.432 627.495Z" fill="#2F2E41"/>
<path d="M715.807 628.301H718.276L719.449 618.772H715.807V628.301Z" fill="#A0616A"/>
<path d="M715.178 627.495L720.038 627.494H720.038C720.445 627.494 720.848 627.575 721.224 627.73C721.6 627.886 721.941 628.115 722.229 628.403C722.516 628.69 722.745 629.032 722.9 629.408C723.056 629.785 723.136 630.188 723.136 630.595V630.696L715.178 630.696L715.178 627.495Z" fill="#2F2E41"/>
<path d="M715.284 625.389C715.115 625.195 715.02 624.948 715.016 624.69C714.428 618.631 716.029 586.781 719.728 584.061L719.751 584.039L730.577 582.168L730.778 582.369C730.794 582.65 732.762 610.568 727.327 624.817C727.26 624.987 727.144 625.133 726.994 625.236C726.843 625.338 726.665 625.393 726.483 625.393H724.322C724.197 625.393 724.073 625.367 723.959 625.317C723.844 625.267 723.741 625.194 723.656 625.102C723.572 625.01 723.507 624.902 723.466 624.784C723.425 624.665 723.409 624.54 723.419 624.415L725.168 597.736C725.174 597.66 725.151 597.584 725.104 597.524C725.056 597.464 724.987 597.424 724.911 597.413C724.836 597.402 724.759 597.42 724.696 597.463C724.633 597.507 724.589 597.573 724.572 597.648L719.644 624.726C719.602 624.917 719.499 625.089 719.352 625.217C719.205 625.345 719.02 625.422 718.826 625.437L715.987 625.648C715.965 625.649 715.943 625.65 715.92 625.65C715.682 625.65 715.454 625.556 715.284 625.389V625.389Z" fill="#2F2E41"/>
<path d="M729.529 565.836C732.26 565.836 734.474 563.62 734.474 560.886C734.474 558.153 732.26 555.937 729.529 555.937C726.799 555.937 724.585 558.153 724.585 560.886C724.585 563.62 726.799 565.836 729.529 565.836Z" fill="#A0616A"/>
<path d="M717.62 588.395C717.411 588.183 717.291 587.898 717.284 587.6L719.303 578.137C717.693 571.286 719.837 570.001 722.257 568.703L722.241 568.695L723.252 565.957C723.284 565.835 723.343 565.722 723.423 565.625C723.504 565.529 723.605 565.451 723.719 565.399C723.834 565.346 723.958 565.319 724.084 565.319C724.21 565.32 724.334 565.349 724.447 565.403L729.601 568.144C729.833 568.275 730.004 568.491 730.079 568.747C730.166 569.018 730.16 569.311 730.062 569.579L729.682 570.61C730.666 571.925 732.187 577.13 730.577 579.145L731.792 585.861C731.819 586.108 731.758 586.356 731.62 586.563C731.482 586.769 731.276 586.921 731.038 586.991L718.339 588.622C718.29 588.632 718.24 588.637 718.189 588.637C717.975 588.634 717.771 588.547 717.62 588.395V588.395Z" fill="#3F3D56"/>
<path d="M736.106 577.543C736.025 577.62 735.95 577.702 735.882 577.791L725.922 577.102L724.854 574.922L721.357 576.106L722.874 580.149C722.996 580.476 723.221 580.753 723.515 580.941C723.809 581.129 724.156 581.216 724.503 581.19L735.829 580.33C736.08 580.678 736.431 580.942 736.835 581.087C737.239 581.231 737.678 581.248 738.092 581.137C738.507 581.025 738.877 580.79 739.155 580.463C739.433 580.135 739.604 579.731 739.647 579.304C739.689 578.876 739.601 578.446 739.393 578.07C739.186 577.694 738.868 577.39 738.484 577.199C738.1 577.008 737.666 576.939 737.242 577C736.817 577.062 736.421 577.251 736.106 577.543V577.543Z" fill="#A0616A"/>
<path d="M725.55 577.136L721.209 578.583C721.086 578.624 720.955 578.638 720.825 578.624C720.696 578.61 720.571 578.568 720.459 578.502C720.347 578.435 720.251 578.345 720.177 578.237C720.103 578.13 720.054 578.008 720.031 577.88L719.24 573.383C719.033 572.749 719.085 572.059 719.386 571.464C719.687 570.869 720.211 570.417 720.843 570.208C721.476 570 722.166 570.051 722.761 570.35C723.356 570.65 723.809 571.173 724.019 571.806L726.073 575.867C726.131 575.983 726.164 576.11 726.169 576.241C726.175 576.371 726.151 576.501 726.102 576.621C726.052 576.742 725.977 576.85 725.882 576.939C725.787 577.028 725.674 577.095 725.55 577.136V577.136Z" fill="#3F3D56"/>
<path d="M726.752 556.978C728.976 556.978 730.778 555.173 730.778 552.947C730.778 550.721 728.976 548.917 726.752 548.917C724.528 548.917 722.726 550.721 722.726 552.947C722.726 555.173 724.528 556.978 726.752 556.978Z" fill="#2F2E41"/>
<path d="M734.21 561.498C734.6 561.576 735.004 561.542 735.376 561.4C735.565 561.293 735.726 561.142 735.846 560.96C735.967 560.779 736.042 560.571 736.068 560.355C736.818 555.365 732.579 555.776 732.078 555.56C731.762 555.374 731.465 555.157 731.192 554.912C730.486 554.52 729.681 554.343 728.876 554.402C727.924 554.314 726.965 554.432 726.062 554.747C725.276 555.116 724.623 555.718 724.192 556.473C723.765 557.224 723.453 558.034 723.264 558.877C722.967 559.831 722.913 560.845 723.107 561.825C723.312 562.557 723.742 563.206 724.335 563.682C724.927 564.157 725.654 564.435 726.412 564.477C726.29 563.89 726.365 563.279 726.625 562.739C726.885 562.199 727.316 561.76 727.85 561.489C728.7 561.071 729.667 560.956 730.591 561.163C731.191 561.284 731.799 561.36 732.41 561.389C733.009 561.412 733.729 561.447 734.21 561.498Z" fill="#2F2E41"/>
</g>
</svg>
