<svg width="866" height="659" viewBox="0 0 866 659" fill="none" xmlns="http://www.w3.org/2000/svg">
<g clip-path="url(#clip0_16_2151)">
<path d="M728.525 127.071L744.963 114.181C732.193 112.799 726.947 119.627 724.799 125.032C714.823 120.971 703.963 126.293 703.963 126.293L736.851 138C735.192 133.655 732.304 129.864 728.525 127.071V127.071Z" fill="#CECECE"/>
<path d="M709.549 153.067L721.963 143.139C712.319 142.075 708.357 147.334 706.735 151.497C699.202 148.369 691 152.469 691 152.469L715.837 161.486C714.584 158.139 712.403 155.219 709.549 153.067V153.067Z" fill="#CECECE"/>
<path d="M329.276 92.1644H303.156C301.209 92.1622 299.341 91.3868 297.964 90.0083C296.587 88.6298 295.812 86.7608 295.81 84.8113V24.353C295.812 22.4036 296.587 20.5345 297.964 19.1561C299.341 17.7776 301.209 17.0022 303.156 17H329.276C331.223 17.0022 333.091 17.7776 334.468 19.1561C335.845 20.5345 336.62 22.4036 336.622 24.353V84.8113C336.62 86.7608 335.845 88.6298 334.468 90.0083C333.091 91.3868 331.223 92.1622 329.276 92.1644V92.1644Z" fill="#E6E6E6"/>
<path d="M432.121 655.897H298.259C294.581 655.893 291.054 654.428 288.452 651.825C285.851 649.221 284.388 645.69 284.384 642.008V101.151C284.388 97.4689 285.851 93.9386 288.452 91.3348C291.054 88.731 294.581 87.2664 298.259 87.2622H432.121C435.8 87.2663 439.327 88.7309 441.928 91.3348C444.529 93.9386 445.993 97.4689 445.997 101.151V642.008C445.993 645.69 444.529 649.221 441.928 651.825C439.327 654.428 435.8 655.893 432.121 655.897V655.897Z" fill="#E6E6E6"/>
<path d="M352.13 655.897H218.268C214.59 655.893 211.063 654.428 208.461 651.825C205.86 649.221 204.397 645.69 204.393 642.008V101.151C204.397 97.4689 205.86 93.9386 208.461 91.3348C211.063 88.731 214.59 87.2664 218.268 87.2622H352.13C355.809 87.2664 359.336 88.731 361.937 91.3348C364.538 93.9386 366.002 97.4689 366.006 101.151V642.008C366.002 645.69 364.538 649.221 361.937 651.825C359.336 654.428 355.809 655.893 352.13 655.897V655.897Z" fill="#F2F2F2"/>
<path d="M304.789 92.1644H278.67C276.722 92.1622 274.855 91.3868 273.477 90.0083C272.1 88.6298 271.326 86.7608 271.323 84.8113V24.353C271.326 22.4036 272.1 20.5345 273.477 19.1561C274.855 17.7776 276.722 17.0022 278.67 17H304.789C306.736 17.0022 308.604 17.7776 309.981 19.1561C311.358 20.5345 312.133 22.4036 312.135 24.353V84.8113C312.133 86.7608 311.358 88.6298 309.981 90.0083C308.604 91.3868 306.736 92.1622 304.789 92.1644V92.1644Z" fill="#F2F2F2"/>
<path d="M270.507 209.813H239.491C238.409 209.812 237.371 209.381 236.606 208.615C235.841 207.849 235.411 206.811 235.409 205.728V158.342C235.411 157.259 235.841 156.22 236.606 155.454C237.371 154.689 238.409 154.258 239.491 154.257H270.507C271.589 154.258 272.627 154.689 273.392 155.454C274.157 156.22 274.587 157.259 274.588 158.342V205.728C274.587 206.811 274.157 207.849 273.392 208.615C272.627 209.381 271.589 209.812 270.507 209.813V209.813Z" fill="#3F3D56"/>
<path d="M330.908 209.813H299.891C298.809 209.812 297.772 209.381 297.007 208.615C296.242 207.849 295.812 206.811 295.81 205.728V158.342C295.812 157.259 296.242 156.22 297.007 155.454C297.772 154.689 298.809 154.258 299.891 154.257H330.908C331.99 154.258 333.027 154.689 333.793 155.454C334.558 156.22 334.988 157.259 334.989 158.342V205.728C334.988 206.811 334.558 207.849 333.793 208.615C333.027 209.381 331.99 209.812 330.908 209.813V209.813Z" fill="#3F3D56"/>
<path d="M270.507 296.416H239.491C238.409 296.414 237.371 295.984 236.606 295.218C235.841 294.452 235.411 293.414 235.409 292.331V244.944C235.411 243.861 235.841 242.823 236.606 242.057C237.371 241.291 238.409 240.86 239.491 240.859H270.507C271.589 240.86 272.627 241.291 273.392 242.057C274.157 242.823 274.587 243.861 274.588 244.944V292.331C274.587 293.414 274.157 294.452 273.392 295.218C272.627 295.984 271.589 296.414 270.507 296.416V296.416Z" fill="#3F3D56"/>
<path d="M330.908 296.416H299.891C298.809 296.414 297.772 295.984 297.007 295.218C296.242 294.452 295.812 293.414 295.81 292.331V244.944C295.812 243.861 296.242 242.823 297.007 242.057C297.772 241.291 298.809 240.86 299.891 240.859H330.908C331.99 240.86 333.027 241.291 333.793 242.057C334.558 242.823 334.988 243.861 334.989 244.944V292.331C334.988 293.414 334.558 294.452 333.793 295.218C333.027 295.984 331.99 296.414 330.908 296.416V296.416Z" fill="#3F3D56"/>
<path d="M270.507 383.018H239.491C238.409 383.017 237.371 382.586 236.606 381.82C235.841 381.054 235.411 380.016 235.409 378.933V331.547C235.411 330.464 235.841 329.425 236.606 328.66C237.371 327.894 238.409 327.463 239.491 327.462H270.507C271.589 327.463 272.627 327.894 273.392 328.66C274.157 329.425 274.587 330.464 274.588 331.547V378.933C274.587 380.016 274.157 381.054 273.392 381.82C272.627 382.586 271.589 383.017 270.507 383.018V383.018Z" fill="#3F3D56"/>
<path d="M330.908 383.018H299.891C298.809 383.017 297.772 382.586 297.007 381.82C296.242 381.054 295.812 380.016 295.81 378.933V331.547C295.812 330.464 296.242 329.425 297.007 328.66C297.772 327.894 298.809 327.463 299.891 327.462H330.908C331.99 327.463 333.027 327.894 333.793 328.66C334.558 329.425 334.988 330.464 334.989 331.547V378.933C334.988 380.016 334.558 381.054 333.793 381.82C333.027 382.586 331.99 383.017 330.908 383.018V383.018Z" fill="#3F3D56"/>
<path d="M270.507 469.62H239.491C238.409 469.619 237.371 469.188 236.606 468.423C235.841 467.657 235.411 466.618 235.409 465.535V418.149C235.411 417.066 235.841 416.028 236.606 415.262C237.371 414.496 238.409 414.065 239.491 414.064H270.507C271.589 414.065 272.627 414.496 273.392 415.262C274.157 416.028 274.587 417.066 274.588 418.149V465.535C274.587 466.618 274.157 467.657 273.392 468.423C272.627 469.188 271.589 469.619 270.507 469.62V469.62Z" fill="#3F3D56"/>
<path d="M330.908 469.62H299.891C298.809 469.619 297.772 469.188 297.007 468.423C296.242 467.657 295.812 466.618 295.81 465.535V418.149C295.812 417.066 296.242 416.028 297.007 415.262C297.772 414.496 298.809 414.065 299.891 414.064H330.908C331.99 414.065 333.027 414.496 333.793 415.262C334.558 416.028 334.988 417.066 334.989 418.149V465.535C334.988 466.618 334.558 467.657 333.793 468.423C333.027 469.188 331.99 469.619 330.908 469.62V469.62Z" fill="#3F3D56"/>
<path d="M270.507 556.223H239.491C238.409 556.221 237.371 555.79 236.606 555.025C235.841 554.259 235.411 553.221 235.409 552.138V504.751C235.411 503.668 235.841 502.63 236.606 501.864C237.371 501.098 238.409 500.667 239.491 500.666H270.507C271.589 500.667 272.627 501.098 273.392 501.864C274.157 502.63 274.587 503.668 274.588 504.751V552.138C274.587 553.221 274.157 554.259 273.392 555.025C272.627 555.79 271.589 556.221 270.507 556.223V556.223Z" fill="#3F3D56"/>
<path d="M330.908 556.223H299.891C298.809 556.221 297.772 555.79 297.007 555.025C296.242 554.259 295.812 553.221 295.81 552.138V504.751C295.812 503.668 296.242 502.63 297.007 501.864C297.772 501.098 298.809 500.667 299.891 500.666H330.908C331.99 500.667 333.027 501.098 333.793 501.864C334.558 502.63 334.988 503.668 334.989 504.751V552.138C334.988 553.221 334.558 554.259 333.793 555.025C333.027 555.79 331.99 556.221 330.908 556.223V556.223Z" fill="#3F3D56"/>
<path d="M726.558 659H127.442C125.734 659 124.095 658.842 122.887 658.561C121.679 658.279 121 657.898 121 657.5C121 657.102 121.679 656.721 122.887 656.439C124.095 656.158 125.734 656 127.442 656H726.558C728.266 656 729.905 656.158 731.113 656.439C732.321 656.721 733 657.102 733 657.5C733 657.898 732.321 658.279 731.113 658.561C729.905 658.842 728.266 659 726.558 659Z" fill="#E6E6E6"/>
<path d="M475.338 421.231H453.369C451.731 421.229 450.16 420.577 449.002 419.418C447.844 418.258 447.192 416.686 447.19 415.047V386.185C447.192 384.545 447.844 382.973 449.002 381.814C450.16 380.654 451.731 380.002 453.369 380H475.338C476.976 380.002 478.547 380.654 479.705 381.813C480.863 382.973 481.515 384.545 481.517 386.185V415.047C481.515 416.686 480.863 418.258 479.705 419.418C478.547 420.577 476.976 421.229 475.338 421.231Z" fill="#E6E6E6"/>
<path d="M660.703 656.249H548.111C545.017 656.246 542.05 655.014 539.862 652.824C537.674 650.634 536.443 647.664 536.44 644.567V426.042C536.443 422.944 537.674 419.975 539.862 417.785C542.05 415.595 545.017 414.363 548.111 414.359H660.703C663.797 414.363 666.763 415.595 668.951 417.785C671.139 419.975 672.37 422.944 672.374 426.042V644.567C672.37 647.664 671.139 650.634 668.951 652.824C666.763 655.014 663.797 656.246 660.703 656.249V656.249Z" fill="#E6E6E6"/>
<path d="M593.422 656.249H398.446C395.352 656.246 392.386 655.014 390.198 652.824C388.01 650.634 386.779 647.664 386.775 644.567V426.042C386.779 422.944 388.01 419.975 390.198 417.785C392.386 415.595 395.352 414.363 398.446 414.359H593.422C596.516 414.363 599.483 415.595 601.671 417.785C603.859 419.975 605.09 422.944 605.093 426.042V644.567C605.09 647.664 603.859 650.634 601.671 652.824C599.483 655.014 596.516 656.246 593.422 656.249V656.249Z" fill="#F2F2F2"/>
<path d="M454.742 421.231H432.773C431.135 421.229 429.564 420.577 428.406 419.418C427.248 418.258 426.596 416.686 426.594 415.047V386.185C426.596 384.545 427.248 382.973 428.406 381.814C429.564 380.654 431.135 380.002 432.773 380H454.742C456.38 380.002 457.951 380.654 459.109 381.813C460.268 382.973 460.919 384.545 460.921 386.185V415.047C460.919 416.686 460.268 418.258 459.109 419.418C457.951 420.577 456.38 421.229 454.742 421.231V421.231Z" fill="#F2F2F2"/>
<path d="M483.577 522.247H457.488C456.578 522.246 455.706 521.884 455.062 521.24C454.419 520.596 454.057 519.722 454.056 518.812V478.955C454.057 478.044 454.419 477.17 455.062 476.526C455.706 475.882 456.578 475.52 457.488 475.519H483.577C484.487 475.52 485.359 475.882 486.003 476.526C486.646 477.17 487.008 478.044 487.009 478.955V518.812C487.008 519.722 486.646 520.596 486.003 521.24C485.359 521.884 484.487 522.246 483.577 522.247V522.247Z" fill="#3F3D56"/>
<path d="M534.38 522.247H508.292C507.382 522.246 506.509 521.884 505.866 521.24C505.222 520.596 504.86 519.722 504.859 518.812V478.955C504.86 478.044 505.222 477.17 505.866 476.526C506.509 475.882 507.382 475.52 508.292 475.519H534.38C535.29 475.52 536.163 475.882 536.806 476.526C537.45 477.17 537.812 478.044 537.813 478.955V518.812C537.812 519.722 537.45 520.596 536.806 521.24C536.163 521.884 535.29 522.246 534.38 522.247V522.247Z" fill="#3F3D56"/>
<path d="M483.577 595.09H457.488C456.578 595.088 455.706 594.726 455.062 594.082C454.419 593.438 454.057 592.565 454.056 591.654V551.797C454.057 550.886 454.419 550.013 455.062 549.368C455.706 548.724 456.578 548.362 457.488 548.361H483.577C484.487 548.362 485.359 548.724 486.003 549.368C486.646 550.013 487.008 550.886 487.009 551.797V591.654C487.008 592.565 486.646 593.438 486.003 594.082C485.359 594.726 484.487 595.088 483.577 595.09V595.09Z" fill="#3F3D56"/>
<path d="M534.38 595.09H508.292C507.382 595.088 506.509 594.726 505.866 594.082C505.222 593.438 504.86 592.565 504.859 591.654V551.797C504.86 550.886 505.222 550.013 505.866 549.368C506.509 548.724 507.382 548.362 508.292 548.361H534.38C535.29 548.362 536.163 548.724 536.806 549.368C537.45 550.013 537.812 550.886 537.813 551.797V591.654C537.812 592.565 537.45 593.438 536.806 594.082C536.163 594.726 535.29 595.088 534.38 595.09Z" fill="#3F3D56"/>
</g>
<defs>
<clipPath id="clip0_16_2151">
<rect width="865.573" height="658.549" fill="white"/>
</clipPath>
</defs>
</svg>
