<svg width="1920" height="700" viewBox="0 0 1920 700" fill="none" xmlns="http://www.w3.org/2000/svg">
<g clip-path="url(#clip0_16_1902)">
<path d="M378.486 567.865C378.801 567.865 379.104 567.74 379.327 567.516C379.55 567.293 379.675 566.99 379.675 566.675C379.675 566.359 379.55 566.056 379.327 565.833C379.104 565.61 378.801 565.484 378.486 565.484H367.189V560.723H378.486C378.801 560.723 379.104 560.598 379.327 560.375C379.55 560.151 379.675 559.849 379.675 559.533C379.675 559.217 379.55 558.914 379.327 558.691C379.104 558.468 378.801 558.343 378.486 558.343H282.164C281.848 558.343 281.546 558.468 281.323 558.691C281.1 558.914 280.975 559.217 280.975 559.533C280.975 559.849 281.1 560.151 281.323 560.375C281.546 560.598 281.848 560.723 282.164 560.723H293.461V565.484H282.164C281.848 565.484 281.546 565.61 281.323 565.833C281.1 566.056 280.975 566.359 280.975 566.675C280.975 566.99 281.1 567.293 281.323 567.516C281.546 567.74 281.848 567.865 282.164 567.865H293.461V572.626H282.164C281.848 572.626 281.546 572.751 281.323 572.975C281.1 573.198 280.975 573.501 280.975 573.816C280.975 574.132 281.1 574.435 281.323 574.658C281.546 574.881 281.848 575.007 282.164 575.007H293.461V579.768H283.353C282.722 579.768 282.117 580.019 281.671 580.465C281.225 580.912 280.975 581.517 280.975 582.148C280.975 582.78 281.225 583.385 281.671 583.832C282.117 584.278 282.722 584.529 283.353 584.529H292.975C292.905 584.72 292.868 584.921 292.866 585.124V601.788C292.866 602.262 293.054 602.716 293.389 603.051C293.723 603.386 294.177 603.574 294.65 603.574C295.123 603.574 295.577 603.386 295.911 603.051C296.246 602.716 296.434 602.262 296.434 601.788V585.124C296.432 584.921 296.395 584.72 296.325 584.529H364.325C364.255 584.72 364.218 584.921 364.216 585.124V601.788C364.216 602.262 364.404 602.716 364.739 603.051C365.073 603.386 365.527 603.574 366 603.574C366.473 603.574 366.927 603.386 367.261 603.051C367.596 602.716 367.784 602.262 367.784 601.788V585.124C367.781 584.921 367.745 584.72 367.674 584.529H377.297C377.928 584.529 378.533 584.278 378.979 583.832C379.425 583.385 379.675 582.78 379.675 582.148C379.675 581.517 379.425 580.912 378.979 580.465C378.533 580.019 377.928 579.768 377.297 579.768H367.189V575.007H378.486C378.801 575.007 379.104 574.881 379.327 574.658C379.55 574.435 379.675 574.132 379.675 573.816C379.675 573.501 379.55 573.198 379.327 572.975C379.104 572.751 378.801 572.626 378.486 572.626H367.189V567.865H378.486ZM295.839 560.723H364.811V565.484H295.839V560.723ZM364.811 579.768H295.839V575.007H364.811V579.768ZM364.811 572.626H295.839V567.865H364.811V572.626Z" fill="#3F3D56"/>
<path d="M407.04 603.072C406.724 603.072 406.422 602.947 406.199 602.724C405.976 602.5 405.851 602.198 405.851 601.882V495.778C405.851 495.463 405.976 495.16 406.199 494.937C406.422 494.714 406.724 494.588 407.04 494.588C407.355 494.588 407.658 494.714 407.881 494.937C408.104 495.16 408.229 495.463 408.229 495.778V601.882C408.229 602.198 408.104 602.5 407.881 602.724C407.658 602.947 407.355 603.072 407.04 603.072Z" fill="#3F3D56"/>
<path d="M534.28 517.906C534.28 496.884 517.243 447 496.227 447C475.211 447 458.174 496.884 458.174 517.906C458.174 528.008 462.183 537.696 469.319 544.839C476.456 551.983 486.135 555.996 496.227 555.996C506.319 555.996 515.998 551.983 523.135 544.839C530.271 537.696 534.28 528.008 534.28 517.906H534.28Z" fill="#E6E6E6"/>
<path d="M524.767 517.906C524.767 496.884 507.73 447 486.714 447C465.698 447 448.661 496.884 448.661 517.906C448.661 528.008 452.67 537.696 459.806 544.839C466.943 551.983 476.622 555.996 486.714 555.996C496.806 555.996 506.485 551.983 513.622 544.839C520.758 537.696 524.767 528.008 524.767 517.906H524.767Z" fill="#F2F2F2"/>
<path d="M487.903 603.072C487.588 603.072 487.285 602.947 487.062 602.724C486.839 602.5 486.714 602.198 486.714 601.882V495.778C486.714 495.463 486.839 495.16 487.062 494.937C487.285 494.714 487.588 494.588 487.903 494.588C488.218 494.588 488.521 494.714 488.744 494.937C488.967 495.16 489.092 495.463 489.092 495.778V601.882C489.092 602.198 488.967 602.5 488.744 602.724C488.521 602.947 488.218 603.072 487.903 603.072Z" fill="#CCCCCC"/>
<path d="M487.903 513.173C487.668 513.173 487.438 513.103 487.242 512.972C487.047 512.841 486.895 512.655 486.805 512.438C486.715 512.22 486.691 511.981 486.737 511.75C486.783 511.519 486.896 511.307 487.062 511.141L502.614 495.574C502.837 495.351 503.139 495.225 503.454 495.225C503.77 495.225 504.072 495.351 504.295 495.574C504.518 495.797 504.644 496.1 504.644 496.416C504.644 496.731 504.518 497.034 504.295 497.257L488.744 512.824C488.634 512.935 488.502 513.022 488.358 513.082C488.214 513.142 488.059 513.173 487.903 513.173Z" fill="#CCCCCC"/>
<path d="M1179.47 604.323H-417.473C-417.878 604.323 -418.266 604.198 -418.553 603.975C-418.839 603.752 -419 603.449 -419 603.133C-419 602.817 -418.839 602.515 -418.553 602.292C-418.266 602.068 -417.878 601.943 -417.473 601.943H1179.47C1179.88 601.943 1180.27 602.068 1180.55 602.292C1180.84 602.515 1181 602.817 1181 603.133C1181 603.449 1180.84 603.752 1180.55 603.975C1180.27 604.198 1179.88 604.323 1179.47 604.323Z" fill="#E6E6E6"/>
<path d="M189.423 645.984H78.8308C78.5154 645.984 78.2129 645.858 77.9899 645.635C77.7669 645.412 77.6416 645.109 77.6416 644.793C77.6416 644.478 77.7669 644.175 77.9899 643.952C78.2129 643.728 78.5154 643.603 78.8308 643.603H189.423C189.738 643.603 190.041 643.728 190.264 643.952C190.487 644.175 190.612 644.478 190.612 644.793C190.612 645.109 190.487 645.412 190.264 645.635C190.041 645.858 189.738 645.984 189.423 645.984Z" fill="#E6E6E6"/>
<path d="M464.12 645.984H353.528C353.212 645.984 352.91 645.858 352.687 645.635C352.464 645.412 352.338 645.109 352.338 644.793C352.338 644.478 352.464 644.175 352.687 643.952C352.91 643.728 353.212 643.603 353.528 643.603H464.12C464.435 643.603 464.738 643.728 464.961 643.952C465.184 644.175 465.309 644.478 465.309 644.793C465.309 645.109 465.184 645.412 464.961 645.635C464.738 645.858 464.435 645.984 464.12 645.984Z" fill="#E6E6E6"/>
<path d="M738.817 645.984H628.224C627.909 645.984 627.606 645.858 627.383 645.635C627.16 645.412 627.035 645.109 627.035 644.793C627.035 644.478 627.16 644.175 627.383 643.952C627.606 643.728 627.909 643.603 628.224 643.603H738.817C739.132 643.603 739.434 643.728 739.657 643.952C739.88 644.175 740.006 644.478 740.006 644.793C740.006 645.109 739.88 645.412 739.657 645.635C739.434 645.858 739.132 645.984 738.817 645.984Z" fill="#E6E6E6"/>
<path d="M252.449 517.906C252.449 496.884 235.412 447 214.396 447C193.379 447 176.342 496.884 176.342 517.906C176.342 528.008 180.351 537.696 187.488 544.839C194.624 551.983 204.303 555.996 214.396 555.996C224.488 555.996 234.167 551.983 241.303 544.839C248.44 537.696 252.449 528.008 252.449 517.906H252.449Z" fill="#E6E6E6"/>
<path d="M242.935 517.906C242.935 496.884 225.898 447 204.882 447C183.866 447 166.829 496.884 166.829 517.906C166.829 528.008 170.838 537.696 177.974 544.839C185.111 551.983 194.79 555.996 204.882 555.996C214.974 555.996 224.653 551.983 231.79 544.839C238.926 537.696 242.935 528.008 242.935 517.906H242.935Z" fill="#F2F2F2"/>
<path d="M206.071 603.072C205.756 603.072 205.453 602.947 205.23 602.724C205.007 602.5 204.882 602.198 204.882 601.882V495.778C204.882 495.463 205.007 495.16 205.23 494.937C205.453 494.714 205.756 494.588 206.071 494.588C206.387 494.588 206.689 494.714 206.912 494.937C207.135 495.16 207.26 495.463 207.26 495.778V601.882C207.26 602.198 207.135 602.5 206.912 602.724C206.689 602.947 206.387 603.072 206.071 603.072Z" fill="#CCCCCC"/>
<path d="M206.071 513.173C205.836 513.173 205.606 513.103 205.411 512.972C205.215 512.841 205.063 512.655 204.973 512.438C204.883 512.22 204.859 511.981 204.905 511.75C204.951 511.519 205.064 511.307 205.231 511.141L220.782 495.574C221.005 495.351 221.307 495.225 221.623 495.225C221.938 495.225 222.241 495.351 222.464 495.574C222.686 495.797 222.812 496.1 222.812 496.416C222.812 496.731 222.686 497.034 222.464 497.257L206.912 512.824C206.802 512.935 206.671 513.022 206.526 513.082C206.382 513.142 206.227 513.173 206.071 513.173Z" fill="#CCCCCC"/>
<path d="M420.12 531.12H393.959C393.171 531.12 392.415 530.806 391.857 530.248C391.3 529.69 390.987 528.934 390.986 528.145V501.958C390.987 501.169 391.3 500.413 391.857 499.855C392.415 499.297 393.171 498.983 393.959 498.982H420.12C420.909 498.983 421.664 499.297 422.222 499.855C422.779 500.413 423.093 501.169 423.093 501.958V528.145C423.093 528.934 422.779 529.69 422.222 530.248C421.664 530.806 420.909 531.12 420.12 531.12Z" fill="#3F3D56"/>
<path d="M674.085 543.872C674.371 543.947 674.637 544.084 674.864 544.273C675.091 544.463 675.274 544.699 675.4 544.967C675.526 545.234 675.592 545.526 675.593 545.822C675.594 546.118 675.531 546.41 675.407 546.679L680.577 551.67L676.935 552.487L672.583 547.622C672.146 547.384 671.812 546.993 671.644 546.525C671.475 546.056 671.485 545.542 671.67 545.079C671.855 544.617 672.203 544.239 672.648 544.016C673.094 543.794 673.605 543.743 674.085 543.872H674.085Z" fill="#FFB8B8"/>
<path d="M681.356 557.002L674.978 551.012C674.89 550.93 674.819 550.83 674.77 550.72C674.721 550.609 674.695 550.49 674.692 550.369C674.69 550.249 674.712 550.129 674.757 550.016C674.801 549.904 674.868 549.802 674.953 549.716L676.256 548.396C676.41 548.239 676.617 548.144 676.836 548.129C677.056 548.114 677.273 548.179 677.448 548.312L682.794 552.401L686.129 544.306C686.26 543.986 686.456 543.697 686.703 543.457C686.951 543.216 687.245 543.028 687.568 542.906C687.891 542.784 688.236 542.729 688.58 542.745C688.925 542.761 689.263 542.848 689.573 543V543C690.062 543.237 690.46 543.626 690.709 544.109C690.958 544.591 691.044 545.142 690.954 545.678C690.349 549.36 686.683 554.228 684.551 556.802C684.26 557.153 683.868 557.405 683.428 557.523C682.988 557.641 682.522 557.62 682.094 557.462C681.82 557.36 681.569 557.203 681.356 557.002V557.002Z" fill="#FF0000"/>
<path d="M677.777 551.192L673.081 544.374C673.02 544.286 672.997 544.178 673.017 544.073C673.036 543.968 673.096 543.875 673.184 543.814L673.372 543.684C673.416 543.654 673.465 543.633 673.516 543.622C673.568 543.611 673.621 543.61 673.673 543.619C673.725 543.629 673.775 543.649 673.819 543.677C673.863 543.706 673.901 543.743 673.931 543.787L678.628 550.605C678.657 550.648 678.679 550.697 678.69 550.749C678.701 550.801 678.701 550.854 678.692 550.906C678.682 550.958 678.663 551.007 678.634 551.052C678.605 551.096 678.568 551.134 678.525 551.164L678.336 551.295C678.248 551.355 678.14 551.378 678.035 551.359C677.93 551.34 677.838 551.279 677.777 551.192V551.192Z" fill="white"/>
<path d="M676.464 551.242L672.567 545.584C672.401 545.342 672.337 545.044 672.39 544.756C672.443 544.467 672.608 544.212 672.85 544.045L673.247 543.771L678.399 551.251L678.002 551.525C677.761 551.692 677.463 551.755 677.175 551.702C676.886 551.649 676.631 551.484 676.464 551.242V551.242Z" fill="#3F3D56"/>
<path d="M676.936 600.08L674.487 599.798L674.812 590.258L678.025 590.629L676.936 600.08Z" fill="#FFB8B8"/>
<path d="M677.286 602.528L669.392 601.616L669.404 601.516C669.45 601.113 669.576 600.722 669.773 600.366C669.971 600.011 670.236 599.698 670.554 599.446C670.873 599.193 671.238 599.006 671.628 598.894C672.019 598.783 672.427 598.749 672.831 598.796H672.831L677.652 599.353L677.286 602.528Z" fill="#2F2E41"/>
<path d="M705.403 598.268L703.048 598.997L699.123 590.253L702.598 589.178L705.403 598.268Z" fill="#FFB8B8"/>
<path d="M706.709 600.368L699.117 602.715L699.087 602.619C698.967 602.231 698.925 601.822 698.963 601.417C699.001 601.013 699.118 600.619 699.307 600.26C699.497 599.9 699.755 599.582 700.068 599.322C700.381 599.063 700.741 598.867 701.129 598.747H701.13L705.767 597.314L706.709 600.368Z" fill="#2F2E41"/>
<path d="M674.202 597.881C673.954 597.804 673.745 597.634 673.62 597.405C673.494 597.177 673.463 596.909 673.532 596.657L675.007 579.654C675.076 578.878 675.32 578.128 675.72 577.461L684.653 562.622L692.646 564.06L692.698 564.081C696.583 566.463 700.032 578.011 703.368 589.179C703.887 590.916 704.423 592.712 704.947 594.428C705.044 594.673 705.042 594.947 704.941 595.19C704.839 595.434 704.647 595.628 704.405 595.731L701.984 596.751C701.755 596.849 701.497 596.857 701.262 596.775C701.027 596.693 700.831 596.525 700.712 596.306L688.269 573.505C688.254 573.476 688.232 573.452 688.205 573.434C688.178 573.415 688.147 573.404 688.114 573.401C688.082 573.397 688.05 573.401 688.02 573.412C687.99 573.424 687.963 573.443 687.942 573.468L680.721 581.647L678.067 597.234L678.056 597.268C677.961 597.491 677.788 597.671 677.569 597.777C677.351 597.882 677.102 597.905 676.868 597.841L674.265 597.89L674.249 597.891L674.202 597.881Z" fill="#2F2E41"/>
<path d="M684.221 564.248L684.17 564.232L684.155 564.181C684.118 564.057 680.464 551.681 683.756 543.792L683.76 543.785C683.856 543.597 686.153 539.18 688.822 538.738L688.893 538.726L689.76 540.349C690.033 540.623 694.728 545.503 692.597 553.89C692.788 554.577 695.381 564.02 693.971 565.431C693.457 565.786 692.832 565.943 692.212 565.873C689.495 565.64 686.813 565.095 684.221 564.248V564.248Z" fill="#FF0000"/>
<path d="M688.271 537.191C691.713 537.191 694.503 534.398 694.503 530.954C694.503 527.509 691.713 524.716 688.271 524.716C684.83 524.716 682.04 527.509 682.04 530.954C682.04 534.398 684.83 537.191 688.271 537.191Z" fill="#2F2E41"/>
<path d="M685.796 537.161C688.523 537.161 690.733 534.949 690.733 532.219C690.733 529.49 688.523 527.278 685.796 527.278C683.069 527.278 680.859 529.49 680.859 532.219C680.859 534.949 683.069 537.161 685.796 537.161Z" fill="#FFB8B8"/>
<path d="M688.973 537.02C688.523 537.18 687.97 537.321 687.616 536.989C687.469 536.798 687.382 536.567 687.368 536.325C687.354 536.084 687.413 535.844 687.537 535.637C687.793 535.23 688 534.794 688.154 534.338C688.2 533.996 688.157 533.647 688.028 533.326C687.9 533.005 687.691 532.723 687.421 532.508C686.886 532.099 686.279 531.794 685.632 531.607L682.176 530.377C681.278 530.165 680.481 529.648 679.92 528.914C679.632 528.303 679.582 527.605 679.781 526.959C679.981 526.313 680.414 525.765 680.997 525.422C681.584 525.126 682.23 524.965 682.887 524.952C683.545 524.939 684.196 525.074 684.794 525.347C685.454 525.655 686.129 525.926 686.819 526.158C688.202 526.523 689.776 526.196 690.992 526.977C691.505 527.366 691.912 527.878 692.177 528.466C692.441 529.054 692.554 529.699 692.506 530.341C692.402 531.634 692.057 532.897 691.489 534.063C691.226 534.781 690.845 535.451 690.362 536.045C690.125 536.335 689.823 536.563 689.479 536.712C689.136 536.86 688.762 536.923 688.389 536.896L688.973 537.02Z" fill="#2F2E41"/>
<path d="M693.498 531.96C695.718 531.96 697.518 530.158 697.518 527.935C697.518 525.713 695.718 523.911 693.498 523.911C691.277 523.911 689.478 525.713 689.478 527.935C689.478 530.158 691.277 531.96 693.498 531.96Z" fill="#2F2E41"/>
<path d="M686.864 533.771C686.864 533.698 686.884 533.626 686.921 533.563C686.959 533.501 687.013 533.449 687.077 533.415C687.142 533.381 687.214 533.364 687.287 533.368C687.36 533.372 687.43 533.395 687.491 533.436C687.551 533.477 687.6 533.534 687.631 533.6C687.661 533.666 687.674 533.739 687.666 533.812C687.659 533.885 687.631 533.954 687.588 534.012C687.544 534.07 687.485 534.116 687.417 534.143V535.028C687.417 535.048 687.413 535.068 687.406 535.086C687.399 535.105 687.387 535.122 687.373 535.136C687.359 535.15 687.343 535.161 687.324 535.169C687.306 535.176 687.286 535.18 687.266 535.18C687.246 535.18 687.227 535.176 687.208 535.169C687.19 535.161 687.173 535.15 687.159 535.136C687.145 535.122 687.134 535.105 687.127 535.086C687.119 535.068 687.115 535.048 687.116 535.028V534.143C687.041 534.113 686.978 534.062 686.933 533.995C686.888 533.929 686.864 533.851 686.864 533.771V533.771Z" fill="white"/>
<path d="M674.33 548.096C674.624 548.067 674.921 548.103 675.2 548.201C675.478 548.299 675.732 548.457 675.944 548.663C676.155 548.87 676.318 549.121 676.422 549.398C676.526 549.675 676.568 549.971 676.545 550.266L683.13 553.14L680 555.177L674.228 552.135C673.735 552.064 673.286 551.815 672.965 551.434C672.644 551.053 672.474 550.568 672.486 550.07C672.499 549.572 672.693 549.097 673.033 548.733C673.373 548.369 673.834 548.143 674.33 548.096Z" fill="#FFB8B8"/>
<path d="M685.717 557.866L677.653 554.477C677.541 554.43 677.44 554.362 677.356 554.275C677.272 554.189 677.205 554.086 677.161 553.974C677.117 553.861 677.096 553.741 677.098 553.62C677.101 553.5 677.128 553.381 677.178 553.27L677.939 551.579C678.029 551.378 678.19 551.217 678.39 551.126C678.591 551.035 678.818 551.02 679.028 551.084L685.462 553.052L685.769 544.301C685.781 543.955 685.864 543.616 686.012 543.304C686.16 542.992 686.371 542.714 686.631 542.487C686.891 542.259 687.194 542.088 687.523 541.983C687.852 541.877 688.199 541.841 688.543 541.875V541.875C689.083 541.927 689.592 542.152 689.994 542.518C690.395 542.883 690.667 543.369 690.769 543.903C691.484 547.566 689.743 553.408 688.642 556.564C688.491 556.994 688.211 557.367 687.839 557.631C687.468 557.896 687.024 558.038 686.569 558.039C686.276 558.039 685.986 557.98 685.717 557.866Z" fill="#FF0000"/>
<path d="M249.101 563.551C249.285 563.37 249.426 563.15 249.516 562.907C249.605 562.665 249.641 562.406 249.619 562.148C249.598 561.89 249.52 561.64 249.392 561.416C249.264 561.192 249.088 560.998 248.877 560.849L247.985 554.962L244.32 556.116L246.328 561.369C246.101 561.74 246.019 562.182 246.096 562.61C246.173 563.039 246.404 563.424 246.746 563.693C247.088 563.962 247.516 564.096 247.95 564.07C248.384 564.044 248.794 563.859 249.101 563.551V563.551Z" fill="#FFB8B8"/>
<path d="M245.326 560.782L243.065 550.214C242.845 549.202 242.888 548.15 243.19 547.159C243.492 546.168 244.044 545.272 244.791 544.555C247.685 541.764 251.404 538.246 252.689 537.336C253.894 536.476 255.353 536.045 256.832 536.112L256.863 536.115L258.808 537.955L254.572 544.935L248.141 548.968L248.857 559.325L245.326 560.782Z" fill="#FF0000"/>
<path d="M253.242 546.421H243.756C243.345 546.421 243.012 546.754 243.012 547.166C243.012 547.577 243.345 547.91 243.756 547.91H253.242C253.653 547.91 253.987 547.577 253.987 547.166C253.987 546.754 253.653 546.421 253.242 546.421Z" fill="#CCCCCC"/>
<path d="M253.242 562.62H243.756C243.345 562.62 243.012 562.953 243.012 563.364C243.012 563.776 243.345 564.109 243.756 564.109H253.242C253.653 564.109 253.987 563.776 253.987 563.364C253.987 562.953 253.653 562.62 253.242 562.62Z" fill="#CCCCCC"/>
<path d="M248.592 603.209C248.499 603.209 248.41 603.174 248.341 603.111C248.273 603.048 248.23 602.962 248.222 602.869L243.479 547.199C243.475 547.15 243.48 547.101 243.494 547.054C243.509 547.007 243.533 546.964 243.564 546.926C243.595 546.888 243.634 546.857 243.677 546.835C243.721 546.812 243.768 546.798 243.817 546.794C243.865 546.789 243.915 546.795 243.961 546.809C244.008 546.824 244.051 546.848 244.089 546.879C244.126 546.911 244.157 546.95 244.18 546.993C244.202 547.036 244.216 547.084 244.22 547.133L248.587 598.568L252.829 547.134C252.833 547.085 252.847 547.037 252.87 546.994C252.892 546.95 252.923 546.911 252.96 546.88C252.998 546.848 253.041 546.824 253.088 546.809C253.134 546.794 253.183 546.789 253.232 546.793C253.281 546.797 253.329 546.811 253.372 546.834C253.415 546.856 253.454 546.887 253.485 546.925C253.517 546.963 253.541 547.006 253.555 547.053C253.57 547.1 253.575 547.149 253.571 547.198L248.963 602.869C248.955 602.961 248.912 603.048 248.844 603.111C248.775 603.174 248.686 603.209 248.593 603.209L248.592 603.209Z" fill="#CCCCCC"/>
<path d="M259.239 533.883C261.934 533.883 264.119 531.696 264.119 528.998C264.119 526.3 261.934 524.113 259.239 524.113C256.543 524.113 254.358 526.3 254.358 528.998C254.358 531.696 256.543 533.883 259.239 533.883Z" fill="#FFB8B8"/>
<path d="M244.693 600.977L242.371 600.236L244.121 590.922L247.547 592.015L244.693 600.977Z" fill="#FFB8B8"/>
<path d="M244.563 603.037L237.091 600.653L237.153 600.459C237.39 599.715 237.913 599.097 238.606 598.739C239.298 598.381 240.105 598.312 240.848 598.548L245.518 600.038L244.563 603.037Z" fill="#2F2E41"/>
<path d="M261.581 600.928H259.144L257.985 591.522H261.581V600.928Z" fill="#FFB8B8"/>
<path d="M254.539 603.099H262.01V600.324H257.294C256.563 600.325 255.863 600.616 255.347 601.133C254.83 601.65 254.54 602.35 254.539 603.081V603.099Z" fill="#2F2E41"/>
<path d="M261.509 597.876L260.687 597.753C259.654 597.691 258.633 597.5 257.648 597.185C257.446 597.096 257.431 595.752 257.553 588.2C257.642 582.656 257.753 575.757 257.538 572.053C257.529 571.907 257.471 571.768 257.373 571.659C257.276 571.549 257.145 571.476 257.001 571.451C256.857 571.425 256.708 571.449 256.579 571.519C256.451 571.588 256.349 571.699 256.291 571.833C254.435 576.122 251.322 585.721 249.262 592.073C248.545 594.282 247.979 596.027 247.621 597.073C247.552 597.271 247.412 597.436 247.227 597.536C247.043 597.636 246.829 597.663 246.625 597.613C244.93 597.189 245.043 597.008 242.629 596.383C242.42 596.33 242.24 596.198 242.126 596.014C242.012 595.831 241.973 595.611 242.018 595.4C242.455 593.338 250.447 559.912 251.059 556.735C251.08 556.626 251.122 556.522 251.183 556.43C251.244 556.337 251.322 556.258 251.414 556.196C251.506 556.134 251.609 556.091 251.717 556.07C251.826 556.048 251.937 556.048 252.046 556.07C253.845 556.432 254.94 556.817 256.718 557.19C258.637 557.592 260.621 558.007 262.557 558.395C262.749 558.434 262.922 558.539 263.044 558.694C263.583 559.271 264.247 559.717 264.985 559.999C265.491 560.241 264.343 560.219 264.784 560.569C266.572 561.986 264.001 590.748 262.448 597.244C262.398 597.448 262.274 597.625 262.101 597.742C261.927 597.859 261.716 597.906 261.509 597.876V597.876Z" fill="#2F2E41"/>
<path d="M261.319 533.273C261.034 532.063 262.474 529.459 262.189 528.248C261.997 527.429 260.071 527.986 259.622 527.274C259.413 526.907 259.118 526.597 258.761 526.371C258.405 526.144 257.999 526.009 257.578 525.976C256.612 525.965 255.66 526.683 254.744 526.373C254.528 526.265 254.334 526.115 254.176 525.932C254.018 525.749 253.897 525.537 253.821 525.307C253.746 525.077 253.717 524.834 253.736 524.593C253.754 524.351 253.821 524.116 253.932 523.901C254.422 523.045 255.183 522.377 256.094 522.002C257.531 521.124 259.25 520.834 260.894 521.195C261.835 521.56 262.697 522.102 263.434 522.792C264.173 523.34 264.822 523.999 265.357 524.746C265.812 525.525 266.059 526.409 266.073 527.311C266.088 528.214 265.87 529.104 265.44 529.898C264.551 531.481 263.134 532.702 261.437 533.346" fill="#2F2E41"/>
<path d="M249.335 561.437C249.861 560.556 250.661 556.429 251.647 549.502C252.319 544.773 252.904 539.968 253.194 537.513C253.217 537.315 253.289 537.125 253.405 536.962C253.521 536.799 253.676 536.668 253.856 536.582C254.045 536.491 254.232 536.405 254.418 536.324C256.653 535.3 259.134 534.938 261.568 535.28C264.002 535.622 266.287 536.655 268.154 538.255L268.176 538.276L268.181 538.305C268.192 538.36 269.2 543.798 267.135 547.472C265.099 551.096 265.075 560.696 265.075 560.793V560.916L264.956 560.882C261.788 559.976 249.55 561.561 249.426 561.577L249.236 561.602L249.335 561.437Z" fill="#FF0000"/>
<path d="M267.752 548.841H258.265C257.854 548.841 257.521 549.175 257.521 549.586C257.521 549.997 257.854 550.331 258.265 550.331H267.752C268.163 550.331 268.496 549.997 268.496 549.586C268.496 549.175 268.163 548.841 267.752 548.841Z" fill="#CCCCCC"/>
<path d="M267.752 565.04H258.265C257.854 565.04 257.521 565.373 257.521 565.785C257.521 566.196 257.854 566.53 258.265 566.53H267.752C268.163 566.53 268.496 566.196 268.496 565.785C268.496 565.373 268.163 565.04 267.752 565.04Z" fill="#CCCCCC"/>
<path d="M263.101 603.395C263.008 603.395 262.919 603.36 262.85 603.298C262.781 603.235 262.739 603.148 262.731 603.056L257.988 549.619C257.979 549.521 258.01 549.423 258.073 549.347C258.137 549.272 258.227 549.224 258.326 549.215C258.424 549.207 258.522 549.237 258.597 549.301C258.673 549.364 258.72 549.455 258.729 549.553L263.096 598.754L267.338 549.554C267.342 549.505 267.356 549.458 267.378 549.414C267.401 549.371 267.432 549.332 267.469 549.3C267.507 549.269 267.55 549.245 267.597 549.23C267.643 549.215 267.692 549.21 267.741 549.214C267.79 549.218 267.838 549.232 267.881 549.254C267.924 549.277 267.963 549.308 267.994 549.346C268.026 549.383 268.05 549.427 268.064 549.473C268.079 549.52 268.084 549.569 268.08 549.618L263.472 603.055C263.464 603.148 263.421 603.234 263.353 603.297C263.284 603.36 263.195 603.395 263.102 603.395L263.101 603.395Z" fill="#CCCCCC"/>
<path d="M260.038 565.276C259.983 565.023 259.983 564.762 260.04 564.51C260.096 564.257 260.207 564.02 260.365 563.816C260.523 563.611 260.723 563.444 260.953 563.325C261.182 563.206 261.435 563.139 261.693 563.129L265.638 558.672L268.088 561.634L263.551 564.952C263.54 565.387 263.369 565.803 263.072 566.12C262.775 566.438 262.371 566.636 261.938 566.676C261.505 566.716 261.073 566.595 260.723 566.337C260.372 566.079 260.129 565.702 260.038 565.276H260.038Z" fill="#FFB8B8"/>
<path d="M262.335 562.174L268.558 553.868L265.349 546.984L265.582 538.821L268.213 538.334L268.241 538.348C269.519 539.097 270.51 540.252 271.055 541.63C271.64 543.092 272.852 548.068 273.766 551.985C274.005 552.993 273.981 554.046 273.697 555.042C273.413 556.038 272.878 556.945 272.143 557.675L264.509 565.317L262.335 562.174Z" fill="#FF0000"/>
<path d="M236.247 601.086L244.761 603.137C244.926 603.181 245.102 603.166 245.256 603.093C245.411 603.021 245.536 602.897 245.608 602.742L252.922 583.277C252.955 583.202 252.971 583.121 252.971 583.04C252.972 582.958 252.955 582.878 252.923 582.803C252.886 582.719 252.833 582.643 252.766 582.58C252.699 582.518 252.62 582.469 252.533 582.438L246.132 579.991C246.031 579.952 245.922 579.935 245.814 579.941C245.706 579.947 245.6 579.976 245.504 580.026C245.42 580.067 245.347 580.126 245.287 580.198C245.228 580.27 245.186 580.355 245.162 580.445L245.162 580.446L240.643 597.601L240.576 597.605C239.174 597.688 237.841 598.244 236.795 599.183C236.578 599.445 236.417 599.749 236.323 600.077C236.228 600.404 236.202 600.748 236.247 601.086Z" fill="#CCCCCC"/>
<path d="M242.413 590.174L242.374 590.544L250.136 591.367L250.176 590.997L242.413 590.174Z" fill="#B3B3B3"/>
<path d="M241.736 593.242L241.583 593.582L247.83 596.395L247.983 596.055L241.736 593.242Z" fill="#B3B3B3"/>
<path d="M250.993 588.389L243.629 585.948L243.783 585.609L251.145 588.049L250.993 588.389Z" fill="#B3B3B3"/>
<path d="M251.737 586.713L244.374 583.155L244.526 582.815L251.89 586.373L251.737 586.713Z" fill="#B3B3B3"/>
<path d="M241.087 596.158L240.845 596.441L246.154 600.98L246.395 600.697L241.087 596.158Z" fill="#B3B3B3"/>
<path d="M239.58 597.663L239.241 597.816L241.372 602.521L241.711 602.368L239.58 597.663Z" fill="#B3B3B3"/>
<path d="M447.087 565.11C446.771 565.037 446.475 564.895 446.221 564.695C445.966 564.495 445.758 564.242 445.611 563.952C445.465 563.663 445.384 563.345 445.373 563.021C445.363 562.697 445.424 562.375 445.551 562.077L437.384 543.607L442.056 542.429L448.615 560.955C449.101 561.203 449.479 561.62 449.678 562.128C449.877 562.636 449.883 563.2 449.695 563.712C449.506 564.224 449.137 564.65 448.656 564.907C448.175 565.165 447.617 565.237 447.087 565.11V565.11Z" fill="#A0616A"/>
<path d="M438.9 549.394C438.769 549.336 438.653 549.25 438.559 549.143C438.465 549.035 438.395 548.909 438.354 548.772L436.926 543.99C436.614 543.328 436.577 542.569 436.825 541.879C437.072 541.19 437.583 540.627 438.244 540.315C438.906 540.002 439.665 539.966 440.353 540.213C441.042 540.461 441.604 540.972 441.917 541.634L444.678 545.809C444.757 545.928 444.809 546.063 444.831 546.204C444.853 546.345 444.845 546.489 444.806 546.627C444.767 546.764 444.7 546.892 444.607 547.001C444.515 547.11 444.4 547.198 444.271 547.258L439.727 549.387C439.598 549.448 439.457 549.48 439.314 549.481C439.171 549.482 439.03 549.453 438.9 549.394V549.394Z" fill="#FF0000"/>
<path d="M455.526 547.012L450.516 550.562C450.452 550.609 450.374 550.634 450.295 550.634C450.216 550.634 450.139 550.609 450.074 550.562L448.721 549.545C448.676 549.512 448.639 549.469 448.612 549.42C448.586 549.371 448.571 549.316 448.569 549.26C448.567 549.205 448.577 549.149 448.599 549.098C448.621 549.047 448.654 549.001 448.696 548.964L452.551 545.523C452.602 545.479 452.664 545.449 452.73 545.436C452.796 545.423 452.864 545.428 452.927 545.45L455.436 546.349C455.5 546.373 455.557 546.414 455.6 546.467C455.643 546.521 455.671 546.585 455.68 546.653C455.689 546.722 455.68 546.791 455.653 546.854C455.625 546.917 455.582 546.972 455.526 547.012V547.012Z" fill="#3F3D56"/>
<path d="M455.118 546.676C455.13 546.642 455.129 546.606 455.114 546.573C455.1 546.541 455.073 546.516 455.04 546.503L452.78 545.694C452.758 545.686 452.734 545.684 452.71 545.688C452.687 545.692 452.665 545.703 452.647 545.719L449.169 548.822L449.15 548.843C449.14 548.857 449.133 548.872 449.129 548.889C449.126 548.906 449.125 548.923 449.128 548.94C449.13 548.956 449.137 548.973 449.146 548.987C449.155 549.002 449.166 549.014 449.18 549.024L450.398 549.939C450.421 549.956 450.449 549.965 450.477 549.964C450.505 549.964 450.533 549.955 450.555 549.938L455.07 546.738C455.092 546.722 455.108 546.701 455.118 546.676Z" fill="white"/>
<path d="M437.267 599.942H439.795L440.998 590.181H437.267V599.942Z" fill="#A0616A"/>
<path d="M436.622 599.116L441.601 599.116H441.602C442.018 599.116 442.431 599.198 442.816 599.358C443.201 599.517 443.551 599.751 443.845 600.046C444.14 600.341 444.374 600.691 444.533 601.076C444.693 601.462 444.775 601.875 444.775 602.292V602.395L436.622 602.395L436.622 599.116Z" fill="#2F2E41"/>
<path d="M428.811 599.942H431.34L432.542 590.181H428.811V599.942Z" fill="#A0616A"/>
<path d="M428.166 599.116L433.146 599.116H433.146C433.563 599.116 433.975 599.198 434.36 599.358C434.745 599.517 435.095 599.751 435.39 600.046C435.684 600.341 435.918 600.691 436.077 601.076C436.237 601.462 436.319 601.875 436.319 602.292V602.395L428.166 602.395L428.166 599.116Z" fill="#2F2E41"/>
<path d="M428.275 596.959C428.101 596.76 428.004 596.507 428.001 596.243C427.398 590.036 429.038 557.409 432.827 554.623L432.851 554.6L443.942 552.684L444.148 552.89C444.164 553.178 446.181 581.777 440.612 596.373C440.544 596.547 440.425 596.696 440.271 596.802C440.117 596.907 439.934 596.963 439.748 596.963H437.533C437.405 596.963 437.279 596.937 437.162 596.885C437.044 596.834 436.939 596.759 436.852 596.665C436.765 596.571 436.698 596.46 436.657 596.339C436.615 596.218 436.598 596.089 436.608 595.962L438.401 568.632C438.407 568.553 438.383 568.476 438.334 568.414C438.286 568.353 438.215 568.312 438.138 568.301C438.06 568.289 437.981 568.308 437.916 568.352C437.852 568.397 437.807 568.465 437.79 568.541L432.742 596.28C432.698 596.475 432.593 596.651 432.442 596.782C432.291 596.914 432.103 596.993 431.903 597.009L428.996 597.224C428.973 597.226 428.95 597.226 428.927 597.226C428.683 597.227 428.449 597.13 428.275 596.959V596.959Z" fill="#2F2E41"/>
<path d="M442.869 535.953C445.666 535.953 447.934 533.683 447.934 530.883C447.934 528.083 445.666 525.813 442.869 525.813C440.071 525.813 437.803 528.083 437.803 530.883C437.803 533.683 440.071 535.953 442.869 535.953Z" fill="#A0616A"/>
<path d="M430.668 559.063C430.454 558.845 430.331 558.554 430.324 558.248L432.393 548.555C430.743 541.536 432.939 540.22 435.418 538.89L435.403 538.882L436.438 536.078C436.471 535.953 436.531 535.837 436.613 535.738C436.696 535.639 436.8 535.56 436.917 535.505C437.034 535.451 437.161 535.424 437.29 535.424C437.419 535.425 437.546 535.454 437.662 535.51L442.942 538.318C443.179 538.452 443.355 538.673 443.432 538.935C443.521 539.213 443.515 539.513 443.415 539.787L443.025 540.843C444.033 542.191 445.592 547.523 443.942 549.587L445.187 556.466C445.214 556.72 445.151 556.974 445.01 557.186C444.869 557.397 444.658 557.552 444.414 557.624L431.405 559.295C431.354 559.305 431.303 559.31 431.252 559.31C431.032 559.307 430.823 559.219 430.668 559.063V559.063Z" fill="#FF0000"/>
<path d="M449.607 547.946C449.524 548.025 449.447 548.109 449.377 548.2L439.173 547.494L438.079 545.261L434.496 546.474L436.05 550.616C436.176 550.95 436.407 551.235 436.708 551.427C437.009 551.619 437.364 551.709 437.72 551.682L449.322 550.801C449.579 551.158 449.939 551.428 450.353 551.576C450.767 551.724 451.216 551.742 451.641 551.627C452.065 551.513 452.445 551.273 452.73 550.937C453.014 550.602 453.19 550.187 453.234 549.749C453.277 549.312 453.187 548.871 452.974 548.486C452.761 548.101 452.436 547.79 452.042 547.594C451.649 547.398 451.205 547.327 450.77 547.39C450.334 547.453 449.929 547.647 449.607 547.946V547.946Z" fill="#A0616A"/>
<path d="M438.792 547.53L434.345 549.012C434.219 549.054 434.084 549.068 433.952 549.054C433.819 549.039 433.691 548.997 433.577 548.928C433.462 548.86 433.364 548.768 433.288 548.658C433.212 548.548 433.161 548.423 433.138 548.292L432.328 543.685C432.115 543.036 432.169 542.329 432.477 541.719C432.785 541.109 433.322 540.647 433.97 540.433C434.619 540.219 435.325 540.271 435.935 540.578C436.545 540.885 437.008 541.421 437.223 542.069L439.327 546.229C439.388 546.348 439.421 546.479 439.427 546.612C439.432 546.746 439.408 546.879 439.357 547.002C439.307 547.125 439.23 547.236 439.132 547.328C439.035 547.419 438.919 547.488 438.792 547.53V547.53Z" fill="#FF0000"/>
<path d="M440.023 526.88C442.301 526.88 444.148 525.031 444.148 522.751C444.148 520.471 442.301 518.622 440.023 518.622C437.745 518.622 435.899 520.471 435.899 522.751C435.899 525.031 437.745 526.88 440.023 526.88Z" fill="#2F2E41"/>
<path d="M447.664 531.51C448.063 531.59 448.477 531.555 448.858 531.41C449.052 531.3 449.217 531.145 449.34 530.959C449.463 530.773 449.541 530.561 449.567 530.339C450.335 525.228 445.993 525.648 445.48 525.427C445.156 525.237 444.851 525.015 444.571 524.764C443.848 524.362 443.024 524.181 442.199 524.242C441.224 524.151 440.241 524.272 439.317 524.594C438.511 524.972 437.842 525.589 437.4 526.362C436.964 527.132 436.643 527.962 436.45 528.825C436.146 529.803 436.091 530.841 436.289 531.845C436.5 532.595 436.94 533.26 437.547 533.747C438.154 534.234 438.898 534.519 439.675 534.562C439.55 533.96 439.627 533.335 439.893 532.781C440.16 532.228 440.601 531.778 441.148 531.501C442.019 531.073 443.01 530.954 443.956 531.166C444.571 531.291 445.193 531.369 445.819 531.399C446.433 531.422 447.171 531.458 447.664 531.51Z" fill="#2F2E41"/>
<path d="M1031.11 517.906C1031.11 496.884 1014.07 447 993.058 447C972.042 447 955.005 496.884 955.005 517.906C955.005 528.008 959.014 537.696 966.15 544.839C973.287 551.983 982.966 555.996 993.058 555.996C1003.15 555.996 1012.83 551.983 1019.97 544.839C1027.1 537.696 1031.11 528.008 1031.11 517.906H1031.11Z" fill="#E6E6E6"/>
<path d="M1021.6 517.906C1021.6 496.884 1004.56 447 983.544 447C962.528 447 945.491 496.884 945.491 517.906C945.491 528.008 949.5 537.696 956.637 544.839C963.773 551.983 973.452 555.996 983.545 555.996C993.637 555.996 1003.32 551.983 1010.45 544.839C1017.59 537.696 1021.6 528.008 1021.6 517.906H1021.6Z" fill="#F2F2F2"/>
<path d="M984.734 603.072C984.419 603.072 984.116 602.947 983.893 602.724C983.67 602.5 983.545 602.198 983.545 601.882V495.778C983.545 495.463 983.67 495.16 983.893 494.937C984.116 494.714 984.419 494.588 984.734 494.588C985.049 494.588 985.352 494.714 985.575 494.937C985.798 495.16 985.923 495.463 985.923 495.778V601.882C985.923 602.198 985.798 602.5 985.575 602.724C985.352 602.947 985.049 603.072 984.734 603.072Z" fill="#CCCCCC"/>
<path d="M984.734 513.173C984.499 513.173 984.269 513.103 984.073 512.972C983.878 512.841 983.725 512.655 983.635 512.438C983.545 512.22 983.522 511.981 983.568 511.75C983.614 511.519 983.727 511.307 983.893 511.141L999.445 495.574C999.668 495.351 999.97 495.225 1000.29 495.225C1000.6 495.225 1000.9 495.351 1001.13 495.574C1001.35 495.797 1001.47 496.1 1001.47 496.416C1001.47 496.731 1001.35 497.034 1001.13 497.257L985.575 512.824C985.464 512.935 985.333 513.022 985.189 513.082C985.045 513.142 984.89 513.173 984.734 513.173V513.173Z" fill="#CCCCCC"/>
<path d="M1015.09 600.949C1015.09 595.533 1017.24 590.34 1021.07 586.512C1024.9 582.684 1030.09 580.533 1035.5 580.533C1040.91 580.533 1046.1 582.684 1049.93 586.512C1053.76 590.34 1055.91 595.533 1055.91 600.949" fill="#F2F2F2"/>
<path d="M1035.5 600.949C1035.35 600.949 1035.21 600.891 1035.11 600.788C1035.01 600.684 1034.95 600.544 1034.95 600.397V589.629C1034.95 589.483 1035.01 589.342 1035.11 589.239C1035.21 589.135 1035.35 589.077 1035.5 589.077C1035.65 589.077 1035.79 589.135 1035.89 589.239C1035.99 589.342 1036.05 589.483 1036.05 589.629V600.397C1036.05 600.544 1035.99 600.684 1035.89 600.788C1035.79 600.891 1035.65 600.949 1035.5 600.949V600.949Z" fill="#CCCCCC"/>
<path d="M1035.5 597.249C1035.37 597.249 1035.24 597.202 1035.14 597.116L1028.52 591.429C1028.46 591.382 1028.42 591.324 1028.38 591.259C1028.35 591.194 1028.33 591.123 1028.33 591.051C1028.32 590.978 1028.33 590.905 1028.35 590.836C1028.37 590.766 1028.41 590.702 1028.46 590.647C1028.5 590.591 1028.56 590.546 1028.63 590.513C1028.69 590.48 1028.76 590.461 1028.84 590.456C1028.91 590.45 1028.98 590.46 1029.05 590.483C1029.12 590.506 1029.18 590.543 1029.24 590.591L1035.86 596.278C1035.94 596.351 1036 596.449 1036.03 596.559C1036.06 596.668 1036.06 596.783 1036.02 596.889C1035.98 596.995 1035.91 597.086 1035.81 597.15C1035.72 597.215 1035.61 597.249 1035.5 597.249L1035.5 597.249Z" fill="#CCCCCC"/>
<path d="M1077.98 600.949C1077.98 595.533 1080.14 590.34 1083.96 586.512C1087.79 582.684 1092.98 580.533 1098.39 580.533C1103.8 580.533 1108.99 582.684 1112.82 586.512C1116.65 590.34 1118.8 595.533 1118.8 600.949" fill="#F2F2F2"/>
<path d="M1098.39 600.949C1098.25 600.949 1098.1 600.891 1098 600.788C1097.9 600.684 1097.84 600.544 1097.84 600.397V589.629C1097.84 589.483 1097.9 589.342 1098 589.239C1098.1 589.135 1098.25 589.077 1098.39 589.077C1098.54 589.077 1098.68 589.135 1098.78 589.239C1098.89 589.342 1098.94 589.483 1098.94 589.629V600.397C1098.94 600.544 1098.89 600.684 1098.78 600.788C1098.68 600.891 1098.54 600.949 1098.39 600.949V600.949Z" fill="#CCCCCC"/>
<path d="M1098.39 597.249C1098.26 597.249 1098.13 597.202 1098.03 597.116L1091.41 591.429C1091.36 591.382 1091.31 591.324 1091.28 591.259C1091.24 591.194 1091.22 591.123 1091.22 591.051C1091.21 590.978 1091.22 590.905 1091.24 590.835C1091.26 590.766 1091.3 590.702 1091.35 590.646C1091.4 590.591 1091.45 590.546 1091.52 590.513C1091.58 590.48 1091.66 590.46 1091.73 590.455C1091.8 590.45 1091.87 590.459 1091.94 590.483C1092.01 590.506 1092.08 590.543 1092.13 590.591L1098.75 596.278C1098.84 596.351 1098.9 596.449 1098.93 596.559C1098.95 596.668 1098.95 596.783 1098.91 596.889C1098.87 596.995 1098.8 597.086 1098.71 597.15C1098.61 597.215 1098.5 597.249 1098.39 597.249V597.249Z" fill="#CCCCCC"/>
</g>
<defs>
<clipPath id="clip0_16_1902">
<rect width="1920" height="700" fill="white" transform="matrix(-1 0 0 1 1920 0)"/>
</clipPath>
</defs>
</svg>
