<svg width="512" height="300" viewBox="0 0 512 300" fill="none" xmlns="http://www.w3.org/2000/svg">
<path opacity="0.4" d="M285.117 164.324H199.905L162.711 192.219C162.063 192.703 161.292 192.996 160.486 193.067C159.68 193.138 158.87 192.982 158.147 192.619C157.424 192.255 156.817 191.697 156.393 191.008C155.97 190.318 155.747 189.524 155.749 188.715V164.369C148.126 164.362 140.818 161.33 135.428 155.941C130.038 150.551 127.007 143.243 127 135.62V63.7486C127.007 56.1262 130.038 48.818 135.428 43.4282C140.818 38.0383 148.126 35.0071 155.749 35H285.117C292.74 35.0071 300.048 38.0383 305.438 43.4282C310.828 48.818 313.859 56.1262 313.866 63.7486V135.62C313.865 139.393 313.121 143.129 311.675 146.614C310.23 150.099 308.112 153.265 305.442 155.931C302.772 158.597 299.602 160.71 296.115 162.151C292.627 163.591 288.89 164.329 285.117 164.324V164.324Z" fill="black"/>
<path d="M385.737 135.62V207.491C385.73 215.114 382.699 222.422 377.309 227.812C371.919 233.202 364.611 236.233 356.989 236.24H342.615V260.631C342.617 261.44 342.393 262.234 341.97 262.924C341.546 263.613 340.939 264.171 340.216 264.535C339.493 264.898 338.683 265.054 337.877 264.983C337.071 264.913 336.301 264.619 335.652 264.135L298.458 236.24H241.994C234.372 236.233 227.064 233.202 221.674 227.812C216.284 222.422 213.253 215.114 213.246 207.491V178.743H285.117C296.549 178.725 307.507 174.176 315.59 166.093C323.673 158.009 328.222 147.051 328.24 135.62V106.871H356.989C364.611 106.878 371.919 109.91 377.309 115.299C382.699 120.689 385.73 127.997 385.737 135.62Z" fill="black"/>
</svg>
