<svg width="250" height="36" viewBox="0 0 250 36" fill="none" xmlns="http://www.w3.org/2000/svg">
<g clip-path="url(#clip0_1_9)">
<path d="M12.96 23.76C16.1411 23.76 18.72 21.1812 18.72 18C18.72 14.8188 16.1411 12.24 12.96 12.24C9.77882 12.24 7.19998 14.8188 7.19998 18C7.19998 21.1812 9.77882 23.76 12.96 23.76Z" stroke="#F03E2F" stroke-width="1.275"/>
<path d="M15.4979 7.78474L14.9348 6.37701C14.6118 5.5695 13.8298 5.04 12.96 5.04C12.0902 5.04 11.3082 5.5695 10.9852 6.37701L10.4221 7.78474C10.2034 8.33163 9.77314 8.7671 9.22897 8.99251C8.6848 9.21792 8.07268 9.21419 7.53129 8.98216L6.1377 8.38491C5.33831 8.04231 4.41088 8.22092 3.7959 8.8359C3.18092 9.45088 3.00231 10.3783 3.3449 11.1777L3.94216 12.5713C4.17419 13.1127 4.17792 13.7248 3.95251 14.269C3.72709 14.8131 3.29162 15.2434 2.74474 15.4621L1.33701 16.0252C0.529503 16.3482 0 17.1302 0 18C0 18.8698 0.529503 19.6518 1.33701 19.9748L2.74474 20.5379C3.29162 20.7566 3.72709 21.1869 3.95251 21.731C4.17792 22.2752 4.17419 22.8874 3.94216 23.4287L3.3449 24.8223C3.00231 25.6216 3.18092 26.5491 3.7959 27.1642C4.41088 27.779 5.33831 27.9577 6.1377 27.6152L7.53129 27.0179C8.07268 26.7859 8.6848 26.7821 9.22897 27.0075C9.77314 27.2328 10.2034 27.6683 10.4221 28.2152L10.9852 29.623C11.3082 30.4305 12.0902 30.96 12.96 30.96C13.8298 30.96 14.6118 30.4305 14.9348 29.623L15.4979 28.2152C15.7166 27.6683 16.1469 27.2328 16.691 27.0075C17.2352 26.7821 17.8474 26.7859 18.3887 27.0179L19.7823 27.615C20.5816 27.9577 21.5091 27.779 22.1242 27.1642C22.739 26.5491 22.9177 25.6216 22.575 24.8223L21.9779 23.4287C21.7459 22.8874 21.7421 22.2752 21.9675 21.731C22.1928 21.1869 22.6283 20.7566 23.1752 20.5379L24.583 19.9748C25.3905 19.6518 25.92 18.8698 25.92 18C25.92 17.1302 25.3905 16.3482 24.583 16.0252L23.1752 15.4621C22.6283 15.2434 22.1928 14.8131 21.9675 14.269C21.7421 13.7248 21.7459 13.1127 21.9779 12.5713L22.5752 11.1777C22.9177 10.3783 22.739 9.45088 22.1242 8.8359C21.5091 8.22092 20.5816 8.04231 19.7823 8.38491L18.3887 8.98216C17.8474 9.21419 17.2352 9.21792 16.691 8.99251C16.1469 8.7671 15.7166 8.33163 15.4979 7.78474Z" stroke="#F03E2F" stroke-width="1.275"/>
</g>
<defs>
<clipPath id="clip0_1_9">
<rect width="250" height="36" fill="white"/>
</clipPath>
</defs>
</svg>
