<svg width="36" height="36" viewBox="0 0 36 36" fill="none" xmlns="http://www.w3.org/2000/svg">
<path d="M18 23.76C21.1812 23.76 23.76 21.1812 23.76 18C23.76 14.8188 21.1812 12.24 18 12.24C14.8188 12.24 12.24 14.8188 12.24 18C12.24 21.1812 14.8188 23.76 18 23.76Z" stroke="#F03E2F" stroke-width="1.9"/>
<path d="M20.5379 7.78473L19.9748 6.377C19.6518 5.5695 18.8698 5.03999 18 5.03999C17.1302 5.03999 16.3482 5.5695 16.0252 6.377L15.4622 7.78473C15.2434 8.33162 14.8131 8.76709 14.269 8.99251C13.7248 9.21791 13.1127 9.21418 12.5713 8.98215L11.1777 8.3849C10.3783 8.04231 9.45089 8.22091 8.83591 8.83589C8.22093 9.45087 8.04232 10.3783 8.38491 11.1777L8.98217 12.5713C9.21419 13.1127 9.21792 13.7248 8.99252 14.269C8.7671 14.8131 8.33163 15.2434 7.78475 15.4621L6.37702 16.0252C5.56951 16.3482 5.04001 17.1302 5.04001 18C5.04001 18.8698 5.56951 19.6518 6.37702 19.9748L7.78475 20.5378C8.33163 20.7566 8.7671 21.1869 8.99252 21.731C9.21792 22.2752 9.21419 22.8874 8.98217 23.4286L8.38491 24.8223C8.04232 25.6216 8.22093 26.5491 8.83591 27.1642C9.45089 27.779 10.3783 27.9577 11.1777 27.6152L12.5713 27.0178C13.1127 26.7859 13.7248 26.7821 14.269 27.0075C14.8131 27.2328 15.2434 27.6683 15.4622 28.2152L16.0252 29.623C16.3482 30.4305 17.1302 30.96 18 30.96C18.8698 30.96 19.6518 30.4305 19.9748 29.623L20.5379 28.2152C20.7566 27.6683 21.1869 27.2328 21.731 27.0075C22.2752 26.7821 22.8874 26.7859 23.4287 27.0178L24.8223 27.615C25.6216 27.9577 26.5491 27.779 27.1642 27.1642C27.779 26.5491 27.9578 25.6216 27.615 24.8223L27.0179 23.4286C26.7859 22.8874 26.7821 22.2752 27.0075 21.731C27.2329 21.1869 27.6683 20.7566 28.2152 20.5378L29.623 19.9748C30.4305 19.6518 30.96 18.8698 30.96 18C30.96 17.1302 30.4305 16.3482 29.623 16.0252L28.2152 15.4621C27.6683 15.2434 27.2329 14.8131 27.0075 14.269C26.7821 13.7248 26.7859 13.1127 27.0179 12.5713L27.6152 11.1777C27.9578 10.3783 27.779 9.45087 27.1642 8.83589C26.5491 8.22091 25.6216 8.04231 24.8223 8.3849L23.4287 8.98215C22.8874 9.21418 22.2752 9.21791 21.731 8.99251C21.1869 8.76709 20.7566 8.33162 20.5379 7.78473Z" stroke="#F03E2F" stroke-width="1.9"/>
</svg>
