<svg width="869" height="373" viewBox="0 0 869 373" fill="none" xmlns="http://www.w3.org/2000/svg">
<g opacity="0.3">
<path d="M24.3168 327.579C24.3197 323.81 25.8208 320.197 28.4903 317.532C31.1598 314.868 34.7792 313.372 38.553 313.372C42.3269 313.372 45.9463 314.868 48.6158 317.532C51.2853 320.197 52.7864 323.81 52.7893 327.579" fill="#F2F2F2"/>
<path d="M38.553 327.579C38.4509 327.579 38.3531 327.539 38.2809 327.467C38.2088 327.395 38.1682 327.297 38.1682 327.195V319.702C38.1682 319.6 38.2087 319.502 38.2809 319.43C38.3531 319.358 38.4509 319.317 38.553 319.317C38.655 319.317 38.7529 319.358 38.825 319.43C38.8972 319.502 38.9377 319.6 38.9377 319.702V327.195C38.9377 327.297 38.8972 327.395 38.825 327.467C38.7529 327.539 38.655 327.579 38.553 327.579V327.579Z" fill="#CCCCCC"/>
<path d="M38.5528 325.004C38.4609 325.005 38.372 324.972 38.3023 324.912L33.6852 320.954C33.6464 320.921 33.6144 320.881 33.5911 320.836C33.5679 320.791 33.5538 320.742 33.5497 320.691C33.5456 320.64 33.5516 320.59 33.5673 320.541C33.583 320.493 33.6082 320.448 33.6413 320.41C33.6744 320.371 33.7148 320.34 33.7602 320.317C33.8056 320.294 33.855 320.28 33.9057 320.277C33.9564 320.273 34.0073 320.28 34.0555 320.296C34.1037 320.312 34.1482 320.337 34.1864 320.371L38.8036 324.329C38.8633 324.38 38.9058 324.448 38.9255 324.524C38.9452 324.6 38.9411 324.68 38.9138 324.754C38.8865 324.827 38.8372 324.891 38.7727 324.936C38.7081 324.981 38.6314 325.005 38.5528 325.005L38.5528 325.004Z" fill="#CCCCCC"/>
<path d="M68.1798 327.579C68.1827 323.81 69.6838 320.197 72.3534 317.532C75.0229 314.868 78.6423 313.372 82.4161 313.372C86.1899 313.372 89.8093 314.868 92.4788 317.532C95.1483 320.197 96.6495 323.81 96.6523 327.579" fill="#F2F2F2"/>
<path d="M82.4161 327.579C82.3141 327.579 82.2162 327.539 82.1441 327.467C82.0719 327.395 82.0314 327.297 82.0314 327.195V319.702C82.0314 319.6 82.0719 319.502 82.1441 319.43C82.2162 319.358 82.3141 319.317 82.4161 319.317C82.5182 319.317 82.616 319.358 82.6882 319.43C82.7604 319.502 82.8009 319.6 82.8009 319.702V327.195C82.8009 327.297 82.7603 327.395 82.6882 327.467C82.616 327.539 82.5182 327.579 82.4161 327.579V327.579Z" fill="#CCCCCC"/>
<path d="M82.4159 325.004C82.324 325.005 82.2351 324.972 82.1654 324.912L77.5483 320.954C77.5094 320.921 77.4773 320.881 77.454 320.836C77.4307 320.791 77.4166 320.742 77.4125 320.691C77.4084 320.64 77.4144 320.589 77.4301 320.541C77.4458 320.493 77.471 320.448 77.5041 320.41C77.5372 320.371 77.5776 320.339 77.6231 320.317C77.6685 320.294 77.718 320.28 77.7687 320.277C77.8194 320.273 77.8703 320.279 77.9185 320.296C77.9667 320.312 78.0112 320.337 78.0495 320.371L82.6667 324.329C82.7263 324.38 82.7689 324.448 82.7886 324.524C82.8083 324.6 82.8042 324.68 82.7769 324.754C82.7496 324.827 82.7003 324.891 82.6358 324.936C82.5712 324.981 82.4945 325.005 82.4159 325.005L82.4159 325.004Z" fill="#CCCCCC"/>
<path d="M90.2305 358.09C103.972 358.09 115.111 355.494 115.111 352.292C115.111 349.09 103.972 346.494 90.2305 346.494C76.4893 346.494 65.3497 349.09 65.3497 352.292C65.3497 355.494 76.4893 358.09 90.2305 358.09Z" fill="#F2F2F2"/>
<path d="M432.747 304.556C432.967 304.556 433.178 304.469 433.333 304.313C433.489 304.158 433.576 303.947 433.576 303.728C433.576 303.508 433.489 303.297 433.333 303.142C433.178 302.987 432.967 302.899 432.747 302.899H424.868V299.586H432.747C432.967 299.586 433.178 299.499 433.333 299.344C433.489 299.188 433.576 298.977 433.576 298.758C433.576 298.538 433.489 298.327 433.333 298.172C433.178 298.017 432.967 297.929 432.747 297.929H365.568C365.348 297.929 365.137 298.017 364.982 298.172C364.826 298.327 364.739 298.538 364.739 298.758C364.739 298.977 364.826 299.188 364.982 299.344C365.137 299.499 365.348 299.586 365.568 299.586H373.447V302.899H365.568C365.348 302.899 365.137 302.987 364.982 303.142C364.826 303.297 364.739 303.508 364.739 303.728C364.739 303.947 364.826 304.158 364.982 304.313C365.137 304.469 365.348 304.556 365.568 304.556H373.447V307.869H365.568C365.348 307.869 365.137 307.957 364.982 308.112C364.826 308.267 364.739 308.478 364.739 308.698C364.739 308.917 364.826 309.128 364.982 309.283C365.137 309.439 365.348 309.526 365.568 309.526H373.447V312.839H366.398C365.958 312.839 365.536 313.014 365.225 313.324C364.914 313.635 364.739 314.056 364.739 314.496C364.739 314.935 364.914 315.357 365.225 315.667C365.536 315.978 365.958 316.152 366.398 316.152H373.109C373.06 316.285 373.034 316.425 373.033 316.567V328.163C373.033 328.493 373.164 328.809 373.397 329.042C373.63 329.275 373.947 329.406 374.277 329.406C374.607 329.406 374.923 329.275 375.156 329.042C375.39 328.809 375.521 328.493 375.521 328.163V316.567C375.519 316.425 375.494 316.285 375.445 316.152H422.87C422.821 316.285 422.796 316.425 422.794 316.567V328.163C422.794 328.493 422.925 328.809 423.159 329.042C423.392 329.275 423.708 329.406 424.038 329.406C424.368 329.406 424.685 329.275 424.918 329.042C425.151 328.809 425.282 328.493 425.282 328.163V316.567C425.281 316.425 425.255 316.285 425.206 316.152H431.917C432.357 316.152 432.779 315.978 433.09 315.667C433.401 315.357 433.576 314.935 433.576 314.496C433.576 314.056 433.401 313.635 433.09 313.324C432.779 313.014 432.357 312.839 431.917 312.839H424.868V309.526H432.747C432.967 309.526 433.178 309.439 433.333 309.283C433.489 309.128 433.576 308.917 433.576 308.698C433.576 308.478 433.489 308.267 433.333 308.112C433.178 307.957 432.967 307.869 432.747 307.869H424.868V304.556H432.747ZM375.106 299.586H423.209V302.899H375.106V299.586ZM423.209 312.839H375.106V309.526H423.209V312.839ZM423.209 307.869H375.106V304.556H423.209V307.869Z" fill="#3F3D56"/>
<path d="M179.801 269.79C179.801 255.161 167.919 220.447 153.262 220.447C138.605 220.447 126.722 255.161 126.722 269.79C126.722 276.82 129.519 283.562 134.496 288.533C139.473 293.504 146.223 296.296 153.262 296.296C160.301 296.296 167.051 293.504 172.028 288.533C177.005 283.562 179.802 276.82 179.802 269.79H179.801Z" fill="#E6E6E6"/>
<path d="M173.167 269.79C173.167 255.161 161.284 220.447 146.627 220.447C131.97 220.447 120.088 255.161 120.088 269.79C120.088 276.82 122.884 283.562 127.861 288.533C132.838 293.504 139.588 296.296 146.627 296.296C153.666 296.296 160.416 293.504 165.393 288.533C170.371 283.562 173.167 276.82 173.167 269.79H173.167Z" fill="#F2F2F2"/>
<path d="M147.456 329.057C147.236 329.057 147.026 328.969 146.87 328.814C146.714 328.659 146.627 328.448 146.627 328.228V254.391C146.627 254.172 146.714 253.961 146.87 253.806C147.026 253.65 147.236 253.563 147.456 253.563C147.676 253.563 147.887 253.65 148.043 253.806C148.198 253.961 148.286 254.172 148.286 254.391V328.228C148.286 328.448 148.198 328.659 148.043 328.814C147.887 328.969 147.676 329.057 147.456 329.057Z" fill="#CCCCCC"/>
<path d="M147.456 266.496C147.292 266.496 147.132 266.447 146.996 266.356C146.859 266.265 146.753 266.136 146.69 265.984C146.628 265.833 146.611 265.667 146.643 265.506C146.675 265.345 146.754 265.198 146.87 265.082L157.716 254.249C157.872 254.094 158.083 254.006 158.302 254.006C158.522 254.006 158.733 254.094 158.889 254.249C159.044 254.404 159.132 254.615 159.132 254.835C159.132 255.054 159.044 255.265 158.889 255.42L148.043 266.253C147.966 266.33 147.874 266.391 147.774 266.433C147.673 266.475 147.565 266.496 147.456 266.496V266.496Z" fill="#CCCCCC"/>
<path d="M452.661 329.057C452.441 329.057 452.23 328.969 452.074 328.814C451.919 328.659 451.832 328.448 451.832 328.228V254.391C451.832 254.172 451.919 253.961 452.074 253.806C452.23 253.65 452.441 253.563 452.661 253.563C452.881 253.563 453.092 253.65 453.247 253.806C453.403 253.961 453.49 254.172 453.49 254.391V328.228C453.49 328.448 453.403 328.659 453.247 328.814C453.092 328.969 452.881 329.057 452.661 329.057Z" fill="#3F3D56"/>
<path d="M541.403 269.79C541.403 255.161 529.52 220.447 514.863 220.447C500.206 220.447 488.323 255.161 488.323 269.79C488.323 276.82 491.12 283.562 496.097 288.533C501.074 293.504 507.824 296.296 514.863 296.296C521.902 296.296 528.652 293.504 533.629 288.533C538.607 283.562 541.403 276.82 541.403 269.79H541.403Z" fill="#E6E6E6"/>
<path d="M534.768 269.79C534.768 255.161 522.886 220.447 508.228 220.447C493.571 220.447 481.689 255.161 481.689 269.79C481.689 276.82 484.485 283.562 489.462 288.533C494.439 293.504 501.19 296.296 508.228 296.296C515.267 296.296 522.017 293.504 526.995 288.533C531.972 283.562 534.768 276.82 534.768 269.79H534.768Z" fill="#F2F2F2"/>
<path d="M509.058 329.057C508.838 329.057 508.627 328.969 508.471 328.814C508.316 328.659 508.228 328.448 508.228 328.228V254.391C508.228 254.172 508.316 253.961 508.471 253.806C508.627 253.65 508.838 253.563 509.058 253.563C509.278 253.563 509.489 253.65 509.644 253.806C509.8 253.961 509.887 254.172 509.887 254.391V328.228C509.887 328.448 509.8 328.659 509.644 328.814C509.489 328.969 509.278 329.057 509.058 329.057Z" fill="#CCCCCC"/>
<path d="M509.057 266.496C508.893 266.496 508.733 266.447 508.597 266.356C508.46 266.265 508.354 266.136 508.291 265.984C508.229 265.833 508.212 265.667 508.244 265.506C508.276 265.345 508.355 265.198 508.471 265.082L519.317 254.249C519.473 254.094 519.684 254.006 519.904 254.006C520.123 254.006 520.334 254.094 520.49 254.249C520.645 254.404 520.733 254.615 520.733 254.835C520.733 255.054 520.645 255.265 520.49 255.42L509.644 266.253C509.567 266.33 509.476 266.391 509.375 266.433C509.274 266.475 509.166 266.496 509.057 266.496Z" fill="#CCCCCC"/>
<path d="M868.171 329.927H0.829361C0.6094 329.927 0.398449 329.84 0.242913 329.685C0.0873782 329.529 0 329.319 0 329.099C0 328.879 0.0873782 328.669 0.242913 328.513C0.398449 328.358 0.6094 328.271 0.829361 328.271H868.171C868.391 328.271 868.602 328.358 868.757 328.513C868.913 328.669 869 328.879 869 329.099C869 329.319 868.913 329.529 868.757 329.685C868.602 329.84 868.391 329.927 868.171 329.927Z" fill="#E6E6E6"/>
<path d="M300.888 358.919H223.758C223.538 358.919 223.327 358.831 223.171 358.676C223.016 358.521 222.928 358.31 222.928 358.09C222.928 357.871 223.016 357.66 223.171 357.505C223.327 357.349 223.538 357.262 223.758 357.262H300.888C301.108 357.262 301.319 357.349 301.475 357.505C301.63 357.66 301.717 357.871 301.717 358.09C301.717 358.31 301.63 358.521 301.475 358.676C301.319 358.831 301.108 358.919 300.888 358.919Z" fill="#E6E6E6"/>
<path d="M492.47 358.919H415.34C415.12 358.919 414.909 358.831 414.753 358.676C414.598 358.521 414.51 358.31 414.51 358.09C414.51 357.871 414.598 357.66 414.753 357.505C414.909 357.349 415.12 357.262 415.34 357.262H492.47C492.69 357.262 492.901 357.349 493.057 357.505C493.212 357.66 493.3 357.871 493.3 358.09C493.3 358.31 493.212 358.521 493.057 358.676C492.901 358.831 492.69 358.919 492.47 358.919Z" fill="#E6E6E6"/>
<path d="M684.053 358.919H606.922C606.702 358.919 606.491 358.831 606.336 358.676C606.18 358.521 606.093 358.31 606.093 358.09C606.093 357.871 606.18 357.66 606.336 357.505C606.491 357.349 606.702 357.262 606.922 357.262H684.053C684.273 357.262 684.484 357.349 684.639 357.505C684.795 357.66 684.882 357.871 684.882 358.09C684.882 358.31 684.795 358.521 684.639 358.676C684.484 358.831 684.273 358.919 684.053 358.919Z" fill="#E6E6E6"/>
<path d="M344.844 269.79C344.844 255.161 332.962 220.447 318.305 220.447C303.647 220.447 291.765 255.161 291.765 269.79C291.765 276.82 294.561 283.562 299.538 288.533C304.516 293.504 311.266 296.296 318.305 296.296C325.343 296.296 332.094 293.504 337.071 288.533C342.048 283.562 344.844 276.82 344.844 269.79H344.844Z" fill="#E6E6E6"/>
<path d="M338.209 269.79C338.209 255.161 326.327 220.447 311.67 220.447C297.012 220.447 285.13 255.161 285.13 269.79C285.13 276.82 287.926 283.562 292.904 288.533C297.881 293.504 304.631 296.296 311.67 296.296C318.709 296.296 325.459 293.504 330.436 288.533C335.413 283.562 338.209 276.82 338.209 269.79H338.209Z" fill="#F2F2F2"/>
<path d="M312.499 329.057C312.279 329.057 312.068 328.969 311.913 328.814C311.757 328.659 311.67 328.448 311.67 328.228V254.391C311.67 254.172 311.757 253.961 311.913 253.806C312.068 253.65 312.279 253.563 312.499 253.563C312.719 253.563 312.93 253.65 313.086 253.806C313.241 253.961 313.329 254.172 313.329 254.391V328.228C313.329 328.448 313.241 328.659 313.086 328.814C312.93 328.969 312.719 329.057 312.499 329.057Z" fill="#CCCCCC"/>
<path d="M312.499 266.496C312.335 266.496 312.175 266.447 312.038 266.356C311.902 266.265 311.796 266.136 311.733 265.984C311.67 265.833 311.654 265.667 311.686 265.506C311.718 265.345 311.797 265.198 311.913 265.082L322.759 254.249C322.914 254.094 323.125 254.006 323.345 254.006C323.565 254.006 323.776 254.094 323.932 254.249C324.087 254.404 324.174 254.615 324.174 254.835C324.174 255.054 324.087 255.265 323.932 255.42L313.086 266.253C313.009 266.33 312.917 266.391 312.817 266.433C312.716 266.475 312.608 266.496 312.499 266.496Z" fill="#CCCCCC"/>
<path d="M768.647 269.79C768.647 255.161 756.765 220.447 742.108 220.447C727.451 220.447 715.568 255.161 715.568 269.79C715.568 276.82 718.365 283.562 723.342 288.533C728.319 293.504 735.069 296.296 742.108 296.296C749.147 296.296 755.897 293.504 760.874 288.533C765.851 283.562 768.648 276.82 768.648 269.79H768.647Z" fill="#E6E6E6"/>
<path d="M762.013 269.79C762.013 255.161 750.13 220.447 735.473 220.447C720.816 220.447 708.934 255.161 708.934 269.79C708.934 276.82 711.73 283.562 716.707 288.533C721.684 293.504 728.434 296.296 735.473 296.296C742.512 296.296 749.262 293.504 754.239 288.533C759.217 283.562 762.013 276.82 762.013 269.79H762.013Z" fill="#F2F2F2"/>
<path d="M736.302 329.057C736.082 329.057 735.871 328.969 735.716 328.814C735.56 328.659 735.473 328.448 735.473 328.228V254.391C735.473 254.172 735.56 253.961 735.716 253.806C735.871 253.65 736.082 253.563 736.302 253.563C736.522 253.563 736.733 253.65 736.889 253.806C737.044 253.961 737.132 254.172 737.132 254.391V328.228C737.132 328.448 737.044 328.659 736.889 328.814C736.733 328.969 736.522 329.057 736.302 329.057Z" fill="#CCCCCC"/>
<path d="M736.302 266.496C736.138 266.496 735.978 266.447 735.842 266.356C735.705 266.265 735.599 266.136 735.536 265.984C735.473 265.833 735.457 265.667 735.489 265.506C735.521 265.345 735.6 265.198 735.716 265.082L746.562 254.249C746.718 254.094 746.928 254.006 747.148 254.006C747.368 254.006 747.579 254.094 747.735 254.249C747.89 254.404 747.978 254.615 747.978 254.835C747.978 255.054 747.89 255.265 747.735 255.42L736.889 266.253C736.812 266.33 736.72 266.391 736.62 266.433C736.519 266.475 736.411 266.496 736.302 266.496V266.496Z" fill="#CCCCCC"/>
<path d="M461.784 278.986H443.538C442.988 278.985 442.461 278.767 442.072 278.379C441.684 277.99 441.465 277.464 441.465 276.915V258.692C441.465 258.143 441.684 257.616 442.072 257.228C442.461 256.84 442.988 256.622 443.538 256.621H461.784C462.334 256.622 462.861 256.84 463.249 257.228C463.638 257.616 463.857 258.143 463.857 258.692V276.915C463.857 277.464 463.638 277.99 463.249 278.379C462.861 278.767 462.334 278.985 461.784 278.986Z" fill="#3F3D56"/>
<path d="M638.907 287.86C639.106 287.912 639.292 288.007 639.45 288.139C639.609 288.271 639.736 288.435 639.824 288.621C639.912 288.808 639.958 289.011 639.959 289.217C639.959 289.422 639.915 289.626 639.828 289.813L643.434 293.286L640.894 293.855L637.859 290.469C637.555 290.303 637.322 290.032 637.204 289.705C637.087 289.379 637.093 289.021 637.222 288.7C637.352 288.378 637.594 288.115 637.905 287.96C638.215 287.805 638.572 287.77 638.907 287.86H638.907Z" fill="#FFB8B8"/>
<path d="M643.978 296.997L639.529 292.829C639.468 292.771 639.419 292.702 639.384 292.625C639.35 292.548 639.332 292.465 639.33 292.381C639.329 292.297 639.344 292.213 639.375 292.135C639.406 292.057 639.453 291.986 639.512 291.926L640.42 291.008C640.528 290.899 640.672 290.833 640.825 290.822C640.979 290.811 641.13 290.857 641.252 290.95L644.98 293.795L647.306 288.161C647.398 287.939 647.534 287.738 647.707 287.57C647.88 287.403 648.085 287.273 648.31 287.187C648.535 287.102 648.776 287.064 649.016 287.075C649.257 287.087 649.492 287.147 649.708 287.253V287.253C650.049 287.418 650.327 287.688 650.501 288.024C650.675 288.36 650.735 288.743 650.672 289.116C650.249 291.679 647.693 295.066 646.206 296.858C646.003 297.102 645.729 297.277 645.422 297.359C645.116 297.441 644.791 297.427 644.493 297.317C644.301 297.245 644.126 297.137 643.978 296.997V296.997Z" fill="#FF0000"/>
<path d="M641.482 292.953L638.207 288.209C638.165 288.148 638.148 288.072 638.162 287.999C638.175 287.926 638.217 287.861 638.278 287.819L638.41 287.729C638.44 287.708 638.474 287.693 638.51 287.685C638.546 287.678 638.584 287.677 638.62 287.684C638.656 287.69 638.691 287.704 638.721 287.724C638.752 287.744 638.779 287.77 638.8 287.8L642.075 292.545C642.096 292.575 642.111 292.609 642.118 292.645C642.126 292.681 642.127 292.718 642.12 292.754C642.113 292.791 642.1 292.825 642.08 292.856C642.06 292.887 642.034 292.913 642.003 292.934L641.872 293.025C641.811 293.067 641.735 293.083 641.662 293.07C641.589 293.056 641.524 293.014 641.482 292.953V292.953Z" fill="white"/>
<path d="M640.566 292.989L637.848 289.051C637.732 288.883 637.688 288.675 637.725 288.475C637.762 288.274 637.877 288.096 638.045 287.98L638.322 287.789L641.915 292.995L641.638 293.185C641.47 293.301 641.263 293.346 641.061 293.309C640.86 293.272 640.682 293.157 640.566 292.989V292.989Z" fill="#3F3D56"/>
<path d="M640.895 326.974L639.187 326.778L639.414 320.139L641.655 320.398L640.895 326.974Z" fill="#FFB8B8"/>
<path d="M641.139 328.678L635.634 328.043L635.642 327.974C635.674 327.693 635.762 327.421 635.9 327.174C636.037 326.926 636.222 326.709 636.444 326.533C636.666 326.357 636.921 326.227 637.193 326.149C637.466 326.071 637.751 326.048 638.032 326.081H638.032L641.395 326.468L641.139 328.678Z" fill="#2F2E41"/>
<path d="M660.749 325.714L659.107 326.221L656.369 320.136L658.793 319.388L660.749 325.714Z" fill="#FFB8B8"/>
<path d="M661.66 327.175L656.365 328.808L656.344 328.741C656.261 328.471 656.231 328.187 656.257 327.905C656.284 327.623 656.365 327.35 656.498 327.099C656.63 326.849 656.81 326.628 657.028 326.447C657.246 326.266 657.498 326.131 657.768 326.047H657.769L661.003 325.049L661.66 327.175Z" fill="#2F2E41"/>
<path d="M638.989 325.444C638.815 325.391 638.669 325.272 638.582 325.113C638.495 324.954 638.473 324.767 638.521 324.593L639.55 312.76C639.598 312.22 639.768 311.698 640.047 311.234L646.277 300.907L651.852 301.908L651.888 301.923C654.598 303.58 657.003 311.617 659.33 319.389C659.692 320.597 660.066 321.847 660.431 323.041C660.499 323.212 660.497 323.402 660.427 323.572C660.356 323.741 660.222 323.876 660.053 323.948L658.365 324.658C658.205 324.726 658.025 324.731 657.861 324.674C657.697 324.617 657.56 324.501 657.477 324.348L648.799 308.481C648.789 308.461 648.773 308.444 648.754 308.431C648.735 308.419 648.714 308.411 648.691 308.408C648.669 308.406 648.646 308.408 648.625 308.416C648.604 308.425 648.586 308.438 648.571 308.455L643.535 314.147L641.684 324.994L641.677 325.017C641.61 325.172 641.489 325.298 641.337 325.371C641.184 325.445 641.011 325.461 640.848 325.416L639.032 325.451L639.021 325.451L638.989 325.444Z" fill="#2F2E41"/>
<path d="M645.976 302.039L645.941 302.028L645.93 301.992C645.904 301.906 643.356 293.294 645.652 287.804L645.654 287.799C645.722 287.668 647.323 284.594 649.185 284.287L649.234 284.278L649.839 285.408C650.029 285.598 653.304 288.994 651.817 294.831C651.951 295.309 653.759 301.88 652.776 302.862C652.417 303.109 651.982 303.218 651.549 303.169C649.654 303.008 647.784 302.628 645.976 302.039V302.039Z" fill="#FF0000"/>
<path d="M648.801 283.21C651.201 283.21 653.147 281.267 653.147 278.87C653.147 276.472 651.201 274.529 648.801 274.529C646.401 274.529 644.455 276.472 644.455 278.87C644.455 281.267 646.401 283.21 648.801 283.21Z" fill="#2F2E41"/>
<path d="M647.074 283.189C648.976 283.189 650.518 281.65 650.518 279.75C650.518 277.851 648.976 276.312 647.074 276.312C645.173 276.312 643.631 277.851 643.631 279.75C643.631 281.65 645.173 283.189 647.074 283.189Z" fill="#FFB8B8"/>
<path d="M649.29 283.091C648.976 283.202 648.591 283.3 648.344 283.07C648.241 282.936 648.181 282.776 648.171 282.608C648.161 282.44 648.202 282.273 648.288 282.129C648.467 281.846 648.611 281.542 648.719 281.225C648.751 280.987 648.721 280.744 648.631 280.521C648.542 280.297 648.396 280.101 648.207 279.951C647.834 279.667 647.411 279.454 646.96 279.324L644.55 278.469C643.923 278.321 643.367 277.961 642.976 277.45C642.775 277.025 642.741 276.539 642.88 276.09C643.019 275.64 643.321 275.258 643.727 275.02C644.137 274.814 644.587 274.702 645.046 274.693C645.504 274.684 645.959 274.778 646.376 274.968C646.835 275.182 647.307 275.371 647.787 275.532C648.753 275.787 649.85 275.558 650.698 276.102C651.056 276.373 651.34 276.729 651.525 277.138C651.709 277.548 651.788 277.996 651.754 278.444C651.681 279.343 651.441 280.222 651.045 281.033C650.861 281.533 650.595 281.999 650.259 282.413C650.094 282.614 649.883 282.773 649.643 282.877C649.403 282.98 649.143 283.024 648.882 283.005L649.29 283.091Z" fill="#2F2E41"/>
<path d="M652.446 279.57C653.994 279.57 655.25 278.316 655.25 276.769C655.25 275.223 653.994 273.969 652.446 273.969C650.897 273.969 649.642 275.223 649.642 276.769C649.642 278.316 650.897 279.57 652.446 279.57Z" fill="#2F2E41"/>
<path d="M647.82 280.83C647.82 280.779 647.833 280.729 647.859 280.686C647.886 280.642 647.923 280.606 647.968 280.582C648.013 280.559 648.064 280.547 648.114 280.55C648.165 280.553 648.214 280.569 648.257 280.597C648.299 280.626 648.332 280.665 648.354 280.711C648.376 280.757 648.384 280.808 648.379 280.859C648.374 280.909 648.355 280.957 648.324 280.998C648.293 281.039 648.252 281.07 648.205 281.089V281.705C648.205 281.719 648.203 281.733 648.197 281.746C648.192 281.758 648.184 281.77 648.175 281.78C648.165 281.79 648.153 281.798 648.14 281.803C648.128 281.808 648.114 281.811 648.1 281.811C648.086 281.811 648.072 281.808 648.06 281.803C648.047 281.798 648.035 281.79 648.025 281.78C648.016 281.77 648.008 281.758 648.003 281.746C647.997 281.733 647.995 281.719 647.995 281.705V281.089C647.943 281.068 647.899 281.033 647.868 280.986C647.836 280.94 647.82 280.886 647.82 280.83V280.83Z" fill="white"/>
<path d="M639.078 290.799C639.283 290.779 639.49 290.804 639.684 290.872C639.879 290.94 640.056 291.05 640.203 291.194C640.351 291.338 640.464 291.512 640.537 291.705C640.61 291.897 640.639 292.104 640.623 292.309L645.215 294.309L643.033 295.726L639.006 293.61C638.663 293.56 638.35 293.387 638.126 293.122C637.902 292.857 637.783 292.519 637.792 292.173C637.801 291.826 637.936 291.495 638.173 291.242C638.41 290.989 638.732 290.831 639.078 290.799Z" fill="#FFB8B8"/>
<path d="M647.019 297.598L641.395 295.24C641.317 295.207 641.247 295.159 641.188 295.099C641.129 295.039 641.083 294.968 641.052 294.89C641.021 294.811 641.006 294.728 641.008 294.644C641.01 294.559 641.029 294.477 641.064 294.4L641.595 293.223C641.658 293.083 641.77 292.971 641.91 292.908C642.049 292.844 642.207 292.834 642.354 292.879L646.841 294.248L647.055 288.158C647.064 287.918 647.122 287.682 647.225 287.464C647.328 287.247 647.475 287.054 647.657 286.895C647.838 286.737 648.05 286.618 648.279 286.545C648.508 286.472 648.75 286.446 648.99 286.47V286.47C649.367 286.506 649.722 286.663 650.002 286.917C650.282 287.172 650.472 287.51 650.543 287.881C651.042 290.43 649.827 294.495 649.059 296.692C648.954 296.991 648.759 297.251 648.5 297.435C648.241 297.619 647.931 297.718 647.613 297.719C647.409 297.718 647.207 297.677 647.019 297.598Z" fill="#FF0000"/>
<path d="M70.3238 296.157H61.7101V293.545C64.432 291.653 66.8436 291.818 70.0162 293.699L70.3238 296.157Z" fill="#FF0000"/>
<path d="M59.7156 342.544H57.8296L57.5476 335.28H59.7156V342.544Z" fill="#FFB8B8"/>
<path d="M60.1963 344.37L54.1158 344.37V344.293C54.1158 343.982 54.1771 343.675 54.296 343.388C54.4149 343.102 54.5893 342.841 54.809 342.621C55.0288 342.402 55.2897 342.228 55.5768 342.109C55.864 341.99 56.1717 341.929 56.4825 341.929H56.4827L60.1964 341.929L60.1963 344.37Z" fill="#2F2E41"/>
<path d="M70.3373 342.544H72.2224L72.5044 335.28H70.3364L70.3373 342.544Z" fill="#FFB8B8"/>
<path d="M69.856 341.929L73.5697 341.929H73.5698C73.8806 341.929 74.1884 341.99 74.4755 342.109C74.7627 342.228 75.0236 342.402 75.2433 342.621C75.4631 342.841 75.6374 343.102 75.7564 343.388C75.8753 343.675 75.9365 343.982 75.9365 344.293V344.37L69.8561 344.37L69.856 341.929Z" fill="#2F2E41"/>
<path d="M70.3866 341.613C70.2292 341.613 70.0767 341.559 69.9539 341.461C69.8312 341.362 69.7454 341.225 69.7107 341.072L65.0367 320.711C65.0265 320.659 64.9983 320.613 64.9571 320.58C64.9159 320.547 64.8643 320.53 64.8115 320.531H64.8104C64.7574 320.53 64.7057 320.548 64.6646 320.581C64.6235 320.614 64.5956 320.661 64.5858 320.713L60.2936 340.937C60.2601 341.092 60.1747 341.231 60.0516 341.33C59.9285 341.43 59.7749 341.484 59.6164 341.485H57.5718C57.4775 341.485 57.3841 341.466 57.2975 341.428C57.2109 341.391 57.1328 341.337 57.0681 341.268C57.0034 341.199 56.9534 341.118 56.9212 341.03C56.889 340.941 56.8753 340.847 56.8808 340.753L58.4038 315.12L59.0166 314.939L59.0281 314.939L71.0654 315.044L73.6291 340.649C73.6381 340.74 73.6288 340.833 73.6017 340.92C73.5746 341.008 73.5302 341.089 73.4713 341.16C73.4124 341.23 73.34 341.288 73.2584 341.33C73.1767 341.372 73.0875 341.398 72.996 341.405L70.442 341.611C70.4234 341.613 70.4049 341.613 70.3866 341.613Z" fill="#2F2E41"/>
<path d="M65.4156 291.476C67.502 291.476 69.1935 289.787 69.1935 287.703C69.1935 285.619 67.502 283.93 65.4156 283.93C63.3291 283.93 61.6377 285.619 61.6377 287.703C61.6377 289.787 63.3291 291.476 65.4156 291.476Z" fill="#FFB8B8"/>
<path d="M63.1012 317.93C62.4385 317.938 61.7783 317.846 61.1435 317.655C60.579 317.485 60.0552 317.201 59.6045 316.822C59.1538 316.442 58.7856 315.974 58.5228 315.447C58.4395 315.288 58.421 315.103 58.4712 314.932C58.8879 313.511 60.9013 306.129 59.6167 300.26C59.4353 299.445 59.4203 298.601 59.5724 297.78C59.7244 296.959 60.0406 296.177 60.5019 295.48C60.9525 294.789 61.5378 294.196 62.223 293.735C62.9082 293.275 63.6791 292.957 64.4899 292.801V292.801C64.703 292.76 64.9172 292.725 65.1266 292.7C66.0228 292.589 66.9324 292.679 67.7901 292.96C68.6479 293.242 69.4327 293.71 70.0884 294.33C70.7635 294.962 71.2903 295.736 71.6311 296.595C71.9719 297.455 72.1182 298.379 72.0596 299.301L71.0723 315.125C71.0655 315.244 71.0279 315.359 70.9633 315.458C70.8986 315.558 70.8091 315.639 70.7035 315.694C69.5664 316.289 66.1506 317.93 63.1012 317.93Z" fill="#3F3D56"/>
<path d="M69.6834 284.926C69.291 283.94 68.5721 283.12 67.6469 282.6C66.7216 282.081 65.6459 281.894 64.5993 282.071L65.7905 283.032C64.3105 283.082 62.7527 282.976 61.696 284.012C62.0324 284.003 62.4733 284.721 62.8097 284.712C62.4949 284.734 62.1918 284.84 61.932 285.019C61.6722 285.198 61.4652 285.443 61.3326 285.729C61.0753 286.309 61.0152 286.956 61.1613 287.572C61.5425 288.48 61.9858 289.359 62.4882 290.206C62.4443 288.705 65.4029 285.125 66.8476 285.498C66.1136 285.77 65.4766 286.253 65.0171 286.886C66 286.391 67.1116 286.209 68.2013 286.366C68.4501 286.423 68.7068 286.437 68.9604 286.408C69.1158 286.378 69.2608 286.308 69.3814 286.205C69.5021 286.102 69.5943 285.971 69.6495 285.822C69.7046 285.674 69.7207 285.514 69.6962 285.358C69.6718 285.201 69.6076 285.054 69.5098 284.929L69.6834 284.926Z" fill="#2F2E41"/>
<path d="M62.841 316.98C62.7456 316.98 62.6512 316.96 62.5638 316.922L55.3959 313.797C55.2436 313.732 55.1201 313.614 55.0479 313.465C54.9757 313.316 54.9598 313.146 55.0031 312.986L59.7484 295.083C59.8366 294.75 59.9904 294.438 60.201 294.165C60.4115 293.892 60.6744 293.664 60.9743 293.493C61.2743 293.323 61.6052 293.214 61.9478 293.173C62.2903 293.132 62.6377 293.16 62.9694 293.255L64.8668 293.795L63.5311 316.329C63.5242 316.44 63.4906 316.548 63.4332 316.644C63.3757 316.739 63.2961 316.819 63.201 316.877C63.0928 316.944 62.9682 316.98 62.841 316.98V316.98Z" fill="#FF0000"/>
<path d="M76.1072 312.986L75.7919 311.799L75.3351 310.072L75.1151 309.244L74.6583 307.522L71.362 295.083C71.274 294.75 71.1203 294.437 70.9099 294.164C70.6995 293.891 70.4365 293.663 70.1365 293.492C69.8365 293.322 69.5054 293.213 69.1628 293.172C68.8201 293.132 68.4727 293.16 68.1411 293.255L66.2445 293.796L67.1843 309.645L67.2813 311.299L67.3428 312.343V312.344L67.4412 313.989L67.5797 316.329C67.591 316.505 67.6685 316.67 67.7966 316.79C67.9248 316.911 68.094 316.979 68.2703 316.98C68.3656 316.98 68.4598 316.96 68.5472 316.922L75.715 313.797C75.8673 313.732 75.991 313.614 76.063 313.465C76.1351 313.316 76.1508 313.146 76.1072 312.986Z" fill="#FF0000"/>
<path d="M75.1151 309.244L67.281 311.299L67.184 309.645L74.6582 307.521L75.1151 309.244Z" fill="#CCCCCC"/>
<path d="M75.7919 311.799L67.4411 313.99L67.3424 312.344V312.342L75.335 310.072L75.7919 311.799Z" fill="#CCCCCC"/>
<path d="M63.83 310.001L63.733 311.625L56.0498 309.34L56.5001 307.64L63.83 310.001Z" fill="#CCCCCC"/>
<path d="M63.67 312.694L55.8301 310.167L55.3789 311.871L63.5746 314.309L63.67 312.694Z" fill="#CCCCCC"/>
<path d="M55.9663 314.392C56.2 314.331 56.4175 314.22 56.6035 314.066C56.7895 313.912 56.9394 313.719 57.0427 313.501C57.146 313.283 57.2002 313.045 57.2014 312.804C57.2026 312.563 57.1508 312.324 57.0497 312.105L60.7354 300.548L58.1219 300.002L54.7427 311.332C54.3854 311.526 54.1118 311.844 53.9737 312.226C53.8356 312.608 53.8426 313.028 53.9935 313.405C54.1443 313.782 54.4284 314.091 54.792 314.273C55.1556 314.455 55.5734 314.497 55.9663 314.392V314.392Z" fill="#FFB8B8"/>
<path d="M60.8378 294.867C61.5883 294.944 62.0104 295.786 61.8238 296.836L60.9284 301.871C60.8613 302.249 60.5502 302.548 60.2917 302.483L57.263 301.727C57.03 301.669 56.9441 301.338 57.0762 301.007L58.8944 296.452C59.0174 296.021 59.2697 295.638 59.6171 295.355C59.9646 295.072 60.3906 294.901 60.8378 294.867Z" fill="#3F3D56"/>
<path d="M65.4016 280.641C66.6802 280.641 67.9086 281.138 68.8266 282.027C69.7446 282.916 70.2801 284.127 70.3198 285.403H71.2466C71.3282 285.403 71.4065 285.435 71.4642 285.493C71.5219 285.551 71.5543 285.629 71.5543 285.71V286.939C71.5543 287.021 71.5219 287.099 71.4642 287.156C71.4065 287.214 71.3282 287.246 71.2466 287.246H60.7871C60.7055 287.246 60.6273 287.214 60.5696 287.156C60.5119 287.099 60.4795 287.021 60.4795 286.939V285.557C60.4795 284.911 60.6068 284.272 60.8542 283.675C61.1015 283.079 61.4641 282.537 61.9211 282.08C62.3782 281.624 62.9208 281.262 63.518 281.015C64.1152 280.768 64.7552 280.641 65.4016 280.641V280.641Z" fill="#FF0000"/>
<path d="M65.9898 311.028H63.8155C63.7457 311.028 63.6784 311.003 63.6267 310.956C63.575 310.909 63.5427 310.845 63.5362 310.775L63.101 306.32H66.7043L66.2691 310.775C66.2625 310.845 66.2303 310.909 66.1786 310.956C66.1269 311.003 66.0595 311.028 65.9898 311.028Z" fill="#E6E6E6"/>
<path d="M66.6986 306.88H63.1068C63.0324 306.88 62.9611 306.851 62.9085 306.798C62.8559 306.746 62.8263 306.674 62.8262 306.6V305.928C62.8263 305.853 62.8559 305.782 62.9085 305.729C62.9611 305.677 63.0324 305.647 63.1068 305.647H66.6986C66.773 305.647 66.8443 305.677 66.8969 305.729C66.9495 305.782 66.9791 305.853 66.9792 305.928V306.6C66.9791 306.674 66.9495 306.746 66.8969 306.798C66.8443 306.851 66.773 306.88 66.6986 306.88V306.88Z" fill="#CCCCCC"/>
<path d="M64.9492 308.639C65.0338 308.649 65.1174 308.665 65.1994 308.688L70.99 303.728L70.6515 301.909L73.3345 301.04L74.2472 304.203C74.3209 304.458 74.3097 304.731 74.2151 304.98C74.1205 305.228 73.9478 305.439 73.7228 305.582L66.3892 310.217C66.3944 310.544 66.2997 310.865 66.1176 311.138C65.9355 311.41 65.6748 311.62 65.37 311.741C65.0652 311.862 64.7308 311.887 64.4113 311.813C64.0919 311.74 63.8024 311.571 63.5815 311.329C63.3607 311.087 63.2188 310.783 63.1748 310.459C63.1308 310.134 63.1867 309.804 63.3352 309.512C63.4837 309.22 63.7176 308.98 64.006 308.824C64.2943 308.668 64.6233 308.604 64.9493 308.639H64.9492Z" fill="#FFB8B8"/>
<path d="M71.0052 295.283C71.8068 295.059 72.6078 295.668 72.8762 296.707L74.1642 301.689C74.2607 302.062 74.0732 302.459 73.7803 302.501L70.3492 302.994C70.0852 303.032 69.8526 302.761 69.8429 302.405L69.7097 297.503C69.6587 297.043 69.7571 296.579 69.9903 296.179C70.2236 295.779 70.5794 295.465 71.0052 295.283Z" fill="#3F3D56"/>
<path d="M110.006 308.762H107.394C107.31 308.762 107.229 308.731 107.167 308.675C107.105 308.618 107.066 308.541 107.058 308.458L106.535 303.105H110.865L110.342 308.457C110.334 308.541 110.295 308.618 110.233 308.675C110.171 308.731 110.09 308.762 110.006 308.762V308.762Z" fill="#E6E6E6"/>
<path d="M110.858 303.778H106.542C106.453 303.778 106.367 303.743 106.304 303.679C106.241 303.616 106.205 303.531 106.205 303.441V302.633C106.205 302.544 106.241 302.458 106.304 302.395C106.367 302.332 106.453 302.297 106.542 302.297H110.858C110.947 302.297 111.033 302.332 111.096 302.395C111.159 302.458 111.195 302.544 111.195 302.633V303.441C111.195 303.531 111.159 303.616 111.096 303.679C111.033 303.743 110.947 303.778 110.858 303.778V303.778Z" fill="#CCCCCC"/>
<path d="M135.671 340.196C133.773 337.675 132.272 334.878 131.222 331.903C131.161 331.725 131.165 331.532 131.234 331.356C131.303 331.181 131.431 331.036 131.597 330.947L138.092 327.472C138.197 327.415 138.314 327.383 138.433 327.378C138.552 327.373 138.671 327.396 138.78 327.444C138.892 327.492 138.991 327.565 139.069 327.657C139.148 327.75 139.205 327.859 139.235 327.976C139.991 330.843 141.412 333.491 143.383 335.708C143.464 335.798 143.524 335.905 143.557 336.022C143.59 336.139 143.596 336.261 143.575 336.381C143.554 336.498 143.507 336.609 143.437 336.706C143.367 336.802 143.276 336.882 143.17 336.938L136.676 340.414C136.509 340.502 136.317 340.529 136.133 340.489C135.949 340.449 135.785 340.345 135.671 340.196Z" fill="#CCCCCC"/>
<path d="M136.114 339.864C136.149 339.907 136.198 339.937 136.253 339.948C136.307 339.96 136.364 339.952 136.414 339.925L142.909 336.45C142.94 336.433 142.967 336.41 142.988 336.381C143.009 336.352 143.023 336.319 143.029 336.284C143.036 336.247 143.034 336.209 143.024 336.173C143.013 336.137 142.995 336.104 142.969 336.076C140.94 333.794 139.477 331.068 138.699 328.116C138.69 328.08 138.673 328.046 138.648 328.017C138.624 327.989 138.593 327.966 138.559 327.951C138.526 327.937 138.491 327.93 138.455 327.931C138.42 327.933 138.385 327.942 138.354 327.96L131.859 331.435C131.81 331.462 131.771 331.505 131.75 331.557C131.73 331.608 131.727 331.666 131.744 331.719C132.776 334.641 134.25 337.387 136.114 339.864V339.864Z" fill="white"/>
<path d="M138.518 332.432L134.981 333.991C134.846 334.05 134.694 334.054 134.557 334.001C134.42 333.948 134.309 333.843 134.25 333.708L134.162 333.51C134.103 333.376 134.1 333.224 134.153 333.087C134.206 332.95 134.311 332.84 134.446 332.78L137.983 331.221C138.118 331.162 138.27 331.158 138.407 331.211C138.544 331.264 138.655 331.369 138.714 331.504L138.802 331.702C138.861 331.836 138.864 331.988 138.811 332.125C138.758 332.262 138.653 332.372 138.518 332.432V332.432Z" fill="#CCCCCC"/>
<path d="M139.812 334.831L136.275 336.391C136.14 336.45 135.987 336.453 135.85 336.4C135.713 336.347 135.603 336.242 135.543 336.108L135.456 335.91C135.397 335.776 135.393 335.623 135.446 335.486C135.5 335.349 135.605 335.239 135.739 335.18L139.277 333.62C139.411 333.561 139.564 333.558 139.701 333.611C139.838 333.664 139.948 333.769 140.008 333.903L140.095 334.101C140.154 334.236 140.158 334.388 140.105 334.525C140.052 334.662 139.946 334.772 139.812 334.831V334.831Z" fill="#CCCCCC"/>
<path d="M131.515 332.832C131.271 332.675 131.065 332.467 130.91 332.221C130.755 331.976 130.656 331.7 130.62 331.413C130.584 331.125 130.611 330.833 130.7 330.557C130.789 330.281 130.937 330.028 131.134 329.815L129.643 308.672L133.94 309.088L134.058 329.794C134.393 330.149 134.587 330.614 134.601 331.102C134.616 331.59 134.451 332.066 134.138 332.441C133.824 332.815 133.384 333.062 132.901 333.134C132.418 333.206 131.925 333.099 131.515 332.832V332.832Z" fill="#A0616A"/>
<path d="M130.615 315.776C130.515 315.704 130.432 315.61 130.372 315.502C130.313 315.393 130.279 315.272 130.272 315.149L129.957 309.45C129.926 308.885 130.105 308.329 130.46 307.889C130.815 307.448 131.321 307.155 131.88 307.065C132.439 306.975 133.012 307.095 133.487 307.401C133.963 307.708 134.308 308.179 134.456 308.725L135.839 313.82C135.897 314.033 135.868 314.259 135.758 314.45C135.648 314.642 135.467 314.781 135.254 314.839L131.32 315.905C131.2 315.937 131.075 315.943 130.953 315.92C130.831 315.898 130.716 315.849 130.615 315.776Z" fill="#3F3D56"/>
<path d="M123.291 358.827L121.026 358.826L119.948 350.099H123.292L123.291 358.827Z" fill="#A0616A"/>
<path d="M118.902 358.18H123.777V360.927H116.656V360.422C116.656 360.128 116.714 359.836 116.827 359.564C116.94 359.292 117.105 359.045 117.314 358.836C117.522 358.628 117.77 358.463 118.042 358.35C118.315 358.238 118.607 358.18 118.902 358.18V358.18Z" fill="#2F2E41"/>
<path d="M131.792 358.827L129.527 358.826L128.449 350.099H131.793L131.792 358.827Z" fill="#A0616A"/>
<path d="M127.402 358.18H132.278V360.927H125.157V360.422C125.157 360.128 125.215 359.836 125.328 359.564C125.441 359.292 125.606 359.045 125.815 358.836C126.023 358.628 126.271 358.463 126.543 358.35C126.816 358.238 127.108 358.18 127.402 358.18V358.18Z" fill="#2F2E41"/>
<path d="M123.184 354.429L120.69 354.311C120.478 354.301 120.277 354.21 120.13 354.056C119.983 353.903 119.9 353.699 119.898 353.487C119.241 343.351 118.33 332.482 119.724 328.283C119.723 328.163 119.748 328.045 119.798 327.936C119.847 327.827 119.919 327.729 120.01 327.651C120.1 327.572 120.206 327.514 120.321 327.48C120.436 327.446 120.557 327.438 120.675 327.455L130.653 328.902C130.85 328.929 131.031 329.027 131.162 329.177C131.293 329.326 131.365 329.518 131.365 329.717C132.639 334.689 132.697 343.704 132.649 353.072C132.65 353.181 132.629 353.29 132.587 353.391C132.546 353.493 132.485 353.585 132.407 353.663C132.33 353.741 132.238 353.802 132.137 353.845C132.036 353.887 131.927 353.908 131.817 353.908H129.128C128.93 353.909 128.738 353.839 128.587 353.71C128.436 353.581 128.337 353.403 128.307 353.207L126.648 342.674C126.624 342.52 126.544 342.38 126.425 342.28C126.305 342.179 126.153 342.126 125.997 342.128C125.841 342.131 125.691 342.191 125.575 342.295C125.459 342.4 125.385 342.543 125.367 342.698L124.05 353.698C124.025 353.9 123.927 354.086 123.775 354.22C123.623 354.355 123.427 354.43 123.224 354.43C123.211 354.43 123.198 354.43 123.184 354.429Z" fill="#2F2E41"/>
<path d="M124.94 329.718C123.484 328.864 121.87 328.312 120.195 328.095C120.085 328.084 119.978 328.051 119.881 327.998C119.784 327.945 119.699 327.873 119.63 327.786C119.561 327.699 119.509 327.598 119.48 327.49C119.45 327.382 119.443 327.269 119.458 327.158L121.849 309.43C121.987 308.393 122.388 307.409 123.014 306.57C123.641 305.731 124.471 305.067 125.428 304.639C126.353 304.215 127.372 304.033 128.388 304.113C129.403 304.192 130.381 304.53 131.229 305.094C131.311 305.148 131.392 305.204 131.471 305.26C132.447 305.975 133.19 306.962 133.606 308.098C134.021 309.233 134.091 310.466 133.806 311.642C132.34 317.632 131.836 327.452 131.75 329.36C131.743 329.523 131.688 329.68 131.592 329.811C131.497 329.943 131.364 330.043 131.211 330.099C130.309 330.427 129.357 330.596 128.397 330.6C127.188 330.607 125.998 330.303 124.94 329.718V329.718Z" fill="#3F3D56"/>
<path d="M126.94 302.232C129.447 302.232 131.479 300.203 131.479 297.699C131.479 295.196 129.447 293.166 126.94 293.166C124.433 293.166 122.401 295.196 122.401 297.699C122.401 300.203 124.433 302.232 126.94 302.232Z" fill="#A0616A"/>
<path d="M130.152 301.286C129.962 301.49 129.718 301.636 129.448 301.707C129.178 301.777 128.893 301.769 128.628 301.684C128.362 301.598 128.126 301.439 127.948 301.224C127.77 301.01 127.657 300.749 127.622 300.472C127.614 300.377 127.614 300.28 127.624 300.185C127.79 299.661 127.889 299.118 127.921 298.569C127.904 298.426 127.85 298.29 127.766 298.173C127.091 297.27 125.507 298.576 124.87 297.759C124.48 297.259 124.939 296.47 124.639 295.91C124.244 295.171 123.072 295.536 122.338 295.131C121.52 294.681 121.569 293.428 122.107 292.666C122.457 292.216 122.903 291.849 123.411 291.59C123.92 291.332 124.479 291.188 125.05 291.17C126.192 291.143 127.327 291.364 128.375 291.818C129.613 292.22 130.705 292.977 131.517 293.994C131.936 294.661 132.202 295.412 132.295 296.195C132.388 296.977 132.306 297.77 132.054 298.516C131.61 299.556 130.964 300.498 130.152 301.286Z" fill="#2F2E41"/>
<path d="M133.747 305.693C133.667 305.32 132.985 304.811 132.009 304.395C130.441 303.761 128.745 303.505 127.059 303.65C125.373 303.794 123.745 304.334 122.307 305.226C122.207 305.231 122.111 305.269 122.035 305.334C121.958 305.4 121.906 305.488 121.884 305.586L118.602 320.084L118.175 321.972L117.893 323.221L117.466 325.104L117.238 326.11C117.224 326.174 117.223 326.241 117.236 326.305C117.25 326.37 117.277 326.431 117.316 326.484C117.355 326.538 117.404 326.582 117.462 326.615C117.519 326.647 117.583 326.667 117.649 326.673L131.821 327.895C131.834 327.895 131.849 327.897 131.862 327.897C131.979 327.896 132.091 327.851 132.176 327.771C132.261 327.691 132.312 327.581 132.32 327.465L132.455 325.414L132.599 323.221L132.662 322.271L132.804 320.084L133.748 305.717V305.704L133.747 305.693Z" fill="#FF0000"/>
<path d="M110.492 306.606C110.515 306.705 110.53 306.806 110.536 306.908L118.475 311.482L120.405 310.373L122.462 313.062L118.334 316.001L109.277 308.865C108.908 309.001 108.505 309.022 108.124 308.925C107.742 308.828 107.399 308.617 107.141 308.32C106.882 308.023 106.72 307.655 106.676 307.264C106.632 306.873 106.709 306.478 106.895 306.131C107.081 305.785 107.369 305.503 107.72 305.324C108.07 305.144 108.467 305.076 108.858 305.127C109.248 305.179 109.614 305.348 109.906 305.612C110.198 305.876 110.402 306.223 110.492 306.605V306.606Z" fill="#A0616A"/>
<path d="M118.758 311.093C118.745 310.97 118.76 310.846 118.801 310.729C118.842 310.612 118.91 310.506 118.997 310.419L123.038 306.383C123.438 305.983 123.972 305.745 124.538 305.716C125.103 305.686 125.66 305.866 126.1 306.222C126.54 306.578 126.832 307.084 126.921 307.642C127.01 308.201 126.888 308.772 126.58 309.247L123.703 313.675C123.582 313.859 123.394 313.989 123.178 314.035C122.963 314.08 122.737 314.039 122.552 313.919L119.133 311.703C119.029 311.636 118.941 311.546 118.876 311.441C118.811 311.335 118.771 311.216 118.758 311.093Z" fill="#3F3D56"/>
<path d="M132.804 320.084L132.662 322.271L118.175 321.972L118.602 320.084H132.804Z" fill="#CCCCCC"/>
<path d="M132.599 323.221L132.455 325.414L117.466 325.104L117.893 323.221H132.599Z" fill="#CCCCCC"/>
<path d="M127.029 288.892C125.493 288.892 124.017 289.489 122.914 290.557C121.811 291.625 121.168 293.08 121.12 294.613H120.007C119.909 294.613 119.815 294.652 119.745 294.721C119.676 294.791 119.637 294.884 119.637 294.982V296.459C119.637 296.557 119.676 296.651 119.745 296.72C119.815 296.789 119.909 296.828 120.007 296.828H132.573C132.671 296.828 132.765 296.789 132.834 296.72C132.904 296.651 132.943 296.557 132.943 296.459V294.798C132.943 294.022 132.79 293.254 132.492 292.538C132.195 291.821 131.76 291.17 131.211 290.621C130.661 290.073 130.01 289.638 129.292 289.341C128.575 289.044 127.806 288.892 127.029 288.892Z" fill="#FF0000"/>
<path d="M160.311 348.979H159.044C159.036 348.825 157.334 344.837 157.334 344.837L156.306 342.352L155.626 340.696L154.597 338.211L153.419 335.353C153.389 335.224 153.316 335.109 153.212 335.027C153.109 334.944 152.98 334.899 152.847 334.899C152.715 334.899 152.586 334.944 152.482 335.027C152.378 335.109 152.305 335.224 152.275 335.353L151.097 338.211L150.069 340.696L149.389 342.352L148.36 344.837C148.36 344.837 146.659 348.825 146.65 348.979H145.383C145.053 348.979 144.737 349.11 144.503 349.343C144.27 349.576 144.139 349.892 144.139 350.221C144.139 350.551 144.27 350.867 144.503 351.1C144.737 351.333 145.053 351.464 145.383 351.464H160.311C160.641 351.464 160.958 351.333 161.191 351.1C161.424 350.867 161.555 350.551 161.555 350.221C161.555 349.892 161.424 349.576 161.191 349.343C160.958 349.11 160.641 348.979 160.311 348.979Z" fill="#FF6584"/>
<path d="M159.482 370.515H158.991C159.036 370.409 156.853 364.833 156.853 364.833L155.543 361.644L154.663 359.507L153.353 356.318L151.927 352.864C151.887 352.7 151.793 352.556 151.661 352.452C151.528 352.348 151.365 352.292 151.197 352.292C151.029 352.292 150.865 352.348 150.733 352.452C150.601 352.556 150.507 352.7 150.467 352.864L149.041 356.318L147.73 359.507L146.842 361.644L145.532 364.833C145.532 364.833 143.358 370.409 143.403 370.515H142.895C142.565 370.515 142.249 370.646 142.015 370.879C141.782 371.112 141.651 371.428 141.651 371.758C141.651 372.087 141.782 372.403 142.015 372.636C142.249 372.869 142.565 373 142.895 373H159.482C159.812 373 160.129 372.869 160.362 372.636C160.595 372.403 160.726 372.087 160.726 371.758C160.726 371.428 160.595 371.112 160.362 370.879C160.129 370.646 159.812 370.515 159.482 370.515Z" fill="#FF6584"/>
<path d="M155.625 340.696H150.069L151.097 338.211H154.597L155.625 340.696Z" fill="#F2F2F2"/>
<path d="M157.334 344.837H148.36L149.389 342.352H156.305L157.334 344.837Z" fill="#F2F2F2"/>
<path d="M154.663 359.507H147.73L149.04 356.318H153.353L154.663 359.507Z" fill="#F2F2F2"/>
<path d="M156.853 364.833H145.532L146.842 361.644H155.542L156.853 364.833Z" fill="#F2F2F2"/>
<path d="M342.509 301.554C342.637 301.427 342.736 301.274 342.799 301.106C342.861 300.937 342.886 300.757 342.871 300.577C342.856 300.398 342.802 300.224 342.713 300.068C342.623 299.912 342.5 299.777 342.353 299.674L341.731 295.577L339.175 296.38L340.575 300.035C340.417 300.294 340.36 300.601 340.413 300.899C340.467 301.197 340.629 301.465 340.867 301.653C341.105 301.84 341.404 301.933 341.707 301.915C342.01 301.897 342.295 301.768 342.509 301.554V301.554Z" fill="#FFB8B8"/>
<path d="M339.876 299.627L338.3 292.273C338.146 291.568 338.176 290.836 338.387 290.147C338.598 289.457 338.982 288.833 339.504 288.335C341.522 286.392 344.116 283.944 345.012 283.311C345.852 282.712 346.87 282.412 347.902 282.459L347.923 282.461L349.279 283.741L346.325 288.599L341.84 291.405L342.339 298.613L339.876 299.627Z" fill="#FF0000"/>
<path d="M345.398 289.633H338.782C338.495 289.633 338.263 289.865 338.263 290.152C338.263 290.438 338.495 290.67 338.782 290.67H345.398C345.685 290.67 345.917 290.438 345.917 290.152C345.917 289.865 345.685 289.633 345.398 289.633Z" fill="#CCCCCC"/>
<path d="M345.398 300.906H338.782C338.495 300.906 338.263 301.138 338.263 301.424C338.263 301.71 338.495 301.942 338.782 301.942H345.398C345.685 301.942 345.917 301.71 345.917 301.424C345.917 301.138 345.685 300.906 345.398 300.906Z" fill="#CCCCCC"/>
<path d="M342.155 329.152C342.09 329.152 342.027 329.128 341.979 329.084C341.932 329.04 341.902 328.98 341.896 328.916L338.588 290.174C338.585 290.141 338.589 290.106 338.599 290.074C338.609 290.041 338.626 290.011 338.648 289.985C338.67 289.959 338.696 289.937 338.727 289.921C338.757 289.905 338.79 289.896 338.824 289.893C338.858 289.89 338.892 289.893 338.925 289.904C338.957 289.914 338.988 289.93 339.014 289.952C339.04 289.974 339.061 290.001 339.077 290.031C339.093 290.062 339.102 290.095 339.105 290.129L342.151 325.922L345.11 290.129C345.113 290.095 345.122 290.062 345.138 290.032C345.153 290.001 345.175 289.975 345.201 289.953C345.227 289.931 345.257 289.914 345.29 289.903C345.322 289.893 345.357 289.889 345.391 289.892C345.425 289.895 345.458 289.905 345.488 289.921C345.518 289.936 345.545 289.958 345.567 289.984C345.589 290.01 345.606 290.04 345.616 290.073C345.626 290.106 345.63 290.14 345.627 290.174L342.413 328.915C342.408 328.98 342.378 329.04 342.33 329.084C342.282 329.127 342.22 329.152 342.155 329.152L342.155 329.152Z" fill="#CCCCCC"/>
<path d="M349.58 280.908C351.46 280.908 352.984 279.386 352.984 277.509C352.984 275.631 351.46 274.109 349.58 274.109C347.7 274.109 346.176 275.631 346.176 277.509C346.176 279.386 347.7 280.908 349.58 280.908Z" fill="#FFB8B8"/>
<path d="M339.435 327.598L337.816 327.083L339.036 320.601L341.425 321.362L339.435 327.598Z" fill="#FFB8B8"/>
<path d="M339.345 329.032L334.133 327.373L334.176 327.238C334.342 326.721 334.706 326.29 335.19 326.041C335.673 325.792 336.235 325.744 336.753 325.908L340.011 326.945L339.345 329.032Z" fill="#2F2E41"/>
<path d="M351.213 327.564H349.514L348.705 321.019H351.213V327.564Z" fill="#FFB8B8"/>
<path d="M346.302 329.075H351.512V327.144H348.223C347.714 327.145 347.226 327.347 346.865 327.707C346.505 328.067 346.303 328.554 346.302 329.063V329.075Z" fill="#2F2E41"/>
<path d="M351.163 325.44L350.59 325.355C349.87 325.312 349.158 325.179 348.47 324.96C348.329 324.898 348.32 323.963 348.404 318.707C348.466 314.849 348.544 310.048 348.394 307.471C348.387 307.369 348.347 307.272 348.279 307.196C348.211 307.12 348.12 307.069 348.019 307.052C347.919 307.034 347.815 307.051 347.725 307.099C347.635 307.147 347.564 307.224 347.524 307.318C346.23 310.302 344.058 316.982 342.622 321.402C342.122 322.94 341.727 324.154 341.477 324.882C341.429 325.02 341.331 325.135 341.203 325.204C341.074 325.273 340.925 325.293 340.783 325.258C339.601 324.962 339.68 324.837 337.996 324.402C337.85 324.365 337.724 324.273 337.645 324.145C337.565 324.018 337.539 323.864 337.57 323.718C337.874 322.283 343.449 299.022 343.875 296.811C343.89 296.735 343.919 296.663 343.961 296.598C344.004 296.534 344.059 296.479 344.123 296.436C344.187 296.393 344.259 296.363 344.334 296.348C344.41 296.333 344.488 296.333 344.563 296.348C345.818 296.6 346.582 296.868 347.822 297.127C349.16 297.407 350.544 297.696 351.894 297.966C352.028 297.993 352.149 298.067 352.234 298.174C352.61 298.576 353.073 298.886 353.587 299.082C353.941 299.251 353.14 299.236 353.448 299.479C354.694 300.465 352.902 320.481 351.818 325.001C351.784 325.143 351.697 325.266 351.576 325.347C351.455 325.429 351.308 325.462 351.163 325.441V325.44Z" fill="#2F2E41"/>
<path d="M351.031 280.484C350.832 279.641 351.836 277.829 351.638 276.987C351.503 276.417 350.16 276.804 349.847 276.309C349.701 276.054 349.495 275.838 349.247 275.68C348.998 275.523 348.715 275.428 348.422 275.406C347.748 275.398 347.084 275.898 346.445 275.682C346.294 275.607 346.159 275.503 346.049 275.375C345.938 275.248 345.854 275.1 345.802 274.94C345.749 274.78 345.729 274.611 345.742 274.443C345.755 274.275 345.801 274.111 345.878 273.962C346.22 273.366 346.751 272.901 347.387 272.64C348.389 272.029 349.588 271.828 350.735 272.078C351.391 272.332 351.992 272.71 352.506 273.19C353.021 273.571 353.473 274.03 353.847 274.55C354.164 275.092 354.336 275.707 354.346 276.335C354.357 276.963 354.204 277.583 353.905 278.135C353.285 279.237 352.296 280.086 351.113 280.534" fill="#2F2E41"/>
<path d="M342.672 300.083C343.04 299.47 343.597 296.598 344.285 291.777C344.754 288.486 345.162 285.142 345.364 283.434C345.38 283.296 345.43 283.164 345.511 283.051C345.592 282.938 345.7 282.847 345.826 282.786C345.957 282.723 346.088 282.663 346.218 282.607C347.776 281.894 349.507 281.642 351.204 281.88C352.902 282.118 354.496 282.837 355.797 283.951L355.813 283.965L355.817 283.986C355.824 284.024 356.527 287.808 355.087 290.364C353.667 292.887 353.65 299.567 353.65 299.634V299.72L353.567 299.697C351.358 299.066 342.822 300.169 342.736 300.181L342.603 300.198L342.672 300.083Z" fill="#FF0000"/>
<path d="M355.517 291.318H348.901C348.614 291.318 348.382 291.55 348.382 291.836C348.382 292.122 348.614 292.354 348.901 292.354H355.517C355.804 292.354 356.036 292.122 356.036 291.836C356.036 291.55 355.804 291.318 355.517 291.318Z" fill="#CCCCCC"/>
<path d="M355.517 302.59H348.901C348.614 302.59 348.382 302.822 348.382 303.108C348.382 303.395 348.614 303.627 348.901 303.627H355.517C355.804 303.627 356.036 303.395 356.036 303.108C356.036 302.822 355.804 302.59 355.517 302.59Z" fill="#CCCCCC"/>
<path d="M352.274 329.281C352.209 329.281 352.146 329.257 352.099 329.213C352.051 329.17 352.021 329.11 352.015 329.045L348.708 291.859C348.701 291.79 348.723 291.722 348.767 291.67C348.811 291.617 348.875 291.584 348.943 291.578C349.012 291.572 349.08 291.593 349.133 291.637C349.185 291.681 349.218 291.745 349.224 291.813L352.27 326.052L355.229 291.814C355.232 291.78 355.241 291.746 355.257 291.716C355.272 291.686 355.294 291.659 355.32 291.637C355.346 291.615 355.376 291.598 355.409 291.588C355.441 291.577 355.476 291.574 355.51 291.577C355.544 291.58 355.577 291.589 355.607 291.605C355.638 291.621 355.664 291.642 355.686 291.668C355.708 291.695 355.725 291.725 355.735 291.757C355.745 291.79 355.749 291.824 355.746 291.858L352.532 329.044C352.527 329.109 352.497 329.169 352.449 329.213C352.401 329.257 352.339 329.281 352.274 329.281L352.274 329.281Z" fill="#CCCCCC"/>
<path d="M350.137 302.754C350.099 302.579 350.099 302.397 350.138 302.221C350.178 302.045 350.255 301.881 350.365 301.738C350.475 301.596 350.615 301.479 350.775 301.397C350.935 301.314 351.112 301.267 351.292 301.26L354.043 298.159L355.751 300.22L352.587 302.529C352.579 302.831 352.46 303.121 352.253 303.342C352.046 303.563 351.765 303.701 351.463 303.728C351.161 303.756 350.859 303.672 350.615 303.493C350.37 303.313 350.201 303.05 350.137 302.754H350.137Z" fill="#FFB8B8"/>
<path d="M351.739 300.595L356.08 294.815L353.842 290.025L354.004 284.344L355.839 284.006L355.858 284.015C356.75 284.536 357.441 285.34 357.821 286.299C358.229 287.317 359.074 290.78 359.712 293.505C359.878 294.207 359.861 294.939 359.663 295.633C359.465 296.326 359.092 296.957 358.58 297.465L353.255 302.783L351.739 300.595Z" fill="#FF0000"/>
<path d="M333.544 327.674L339.483 329.102C339.598 329.132 339.72 329.122 339.828 329.071C339.936 329.021 340.023 328.934 340.073 328.827L345.175 315.281C345.197 315.229 345.209 315.173 345.209 315.116C345.209 315.06 345.197 315.003 345.175 314.951C345.149 314.893 345.112 314.84 345.065 314.796C345.018 314.753 344.963 314.719 344.903 314.697L340.439 312.994C340.368 312.967 340.293 312.956 340.217 312.96C340.142 312.964 340.068 312.984 340.001 313.019C339.942 313.047 339.891 313.088 339.85 313.139C339.809 313.189 339.779 313.248 339.762 313.31L339.762 313.311L336.611 325.249L336.564 325.252C335.586 325.309 334.656 325.697 333.927 326.35C333.775 326.532 333.663 326.744 333.597 326.972C333.531 327.2 333.513 327.439 333.544 327.674Z" fill="#CCCCCC"/>
<path d="M337.845 320.081L337.818 320.339L343.232 320.911L343.259 320.654L337.845 320.081Z" fill="#B3B3B3"/>
<path d="M337.373 322.216L337.266 322.452L341.623 324.41L341.73 324.174L337.373 322.216Z" fill="#B3B3B3"/>
<path d="M343.829 318.839L338.693 317.14L338.8 316.904L343.935 318.602L343.829 318.839Z" fill="#B3B3B3"/>
<path d="M344.348 317.672L339.213 315.197L339.319 314.96L344.454 317.436L344.348 317.672Z" fill="#B3B3B3"/>
<path d="M336.92 324.245L336.752 324.442L340.454 327.6L340.623 327.403L336.92 324.245Z" fill="#B3B3B3"/>
<path d="M335.869 325.292L335.633 325.399L337.119 328.673L337.355 328.566L335.869 325.292Z" fill="#B3B3B3"/>
<path d="M480.591 302.639C480.371 302.588 480.165 302.489 479.987 302.35C479.809 302.211 479.664 302.035 479.562 301.833C479.46 301.632 479.403 301.411 479.396 301.185C479.389 300.96 479.431 300.736 479.52 300.528L473.824 287.675L477.082 286.855L481.657 299.747C481.996 299.92 482.26 300.21 482.398 300.564C482.537 300.918 482.541 301.31 482.41 301.666C482.278 302.023 482.021 302.319 481.685 302.498C481.35 302.677 480.961 302.727 480.591 302.639V302.639Z" fill="#A0616A"/>
<path d="M474.881 291.702C474.79 291.662 474.709 291.602 474.643 291.527C474.578 291.452 474.529 291.364 474.5 291.269L473.504 287.942C473.287 287.481 473.261 286.952 473.434 286.473C473.606 285.993 473.962 285.601 474.424 285.384C474.885 285.166 475.415 285.141 475.895 285.313C476.375 285.485 476.767 285.841 476.985 286.302L478.911 289.207C478.966 289.29 479.002 289.384 479.018 289.482C479.033 289.58 479.027 289.681 479 289.776C478.973 289.872 478.926 289.961 478.862 290.037C478.797 290.113 478.717 290.174 478.627 290.216L475.458 291.697C475.368 291.74 475.269 291.762 475.17 291.763C475.07 291.764 474.972 291.743 474.881 291.702V291.702Z" fill="#FF0000"/>
<path d="M486.477 290.045L482.983 292.515C482.938 292.548 482.884 292.565 482.829 292.565C482.773 292.565 482.719 292.548 482.675 292.515L481.731 291.807C481.699 291.784 481.673 291.754 481.655 291.72C481.637 291.686 481.626 291.648 481.625 291.609C481.623 291.57 481.63 291.532 481.646 291.496C481.661 291.46 481.684 291.429 481.714 291.403L484.402 289.009C484.438 288.978 484.48 288.957 484.527 288.948C484.573 288.939 484.62 288.942 484.664 288.958L486.414 289.583C486.459 289.6 486.499 289.628 486.529 289.666C486.558 289.703 486.578 289.748 486.584 289.795C486.591 289.842 486.584 289.891 486.565 289.935C486.546 289.979 486.516 290.017 486.477 290.045V290.045Z" fill="#3F3D56"/>
<path d="M486.192 289.81C486.201 289.787 486.2 289.762 486.19 289.739C486.179 289.717 486.161 289.699 486.138 289.69L484.562 289.127C484.546 289.121 484.529 289.12 484.513 289.123C484.497 289.126 484.481 289.134 484.469 289.144L482.044 291.304L482.03 291.319C482.023 291.328 482.018 291.339 482.016 291.351C482.013 291.362 482.012 291.374 482.014 291.386C482.016 291.398 482.021 291.409 482.027 291.419C482.033 291.429 482.041 291.438 482.051 291.445L482.9 292.081C482.916 292.093 482.936 292.099 482.955 292.099C482.975 292.099 482.994 292.092 483.01 292.08L486.159 289.854C486.174 289.843 486.186 289.828 486.192 289.81Z" fill="white"/>
<path d="M473.742 326.878H475.505L476.345 320.085H473.742V326.878Z" fill="#A0616A"/>
<path d="M473.292 326.303L476.765 326.303H476.765C477.056 326.303 477.344 326.36 477.612 326.471C477.881 326.583 478.125 326.745 478.33 326.951C478.536 327.156 478.699 327.4 478.81 327.668C478.921 327.936 478.978 328.223 478.978 328.514V328.585L473.293 328.586L473.292 326.303Z" fill="#2F2E41"/>
<path d="M467.845 326.878H469.609L470.447 320.085H467.845V326.878Z" fill="#A0616A"/>
<path d="M467.395 326.303L470.868 326.303H470.868C471.159 326.303 471.447 326.36 471.715 326.471C471.984 326.583 472.228 326.745 472.433 326.951C472.639 327.156 472.802 327.4 472.913 327.668C473.024 327.936 473.081 328.223 473.081 328.514V328.585L467.395 328.586L467.395 326.303Z" fill="#2F2E41"/>
<path d="M467.471 324.802C467.35 324.664 467.282 324.488 467.28 324.304C466.859 319.985 468.003 297.28 470.646 295.341L470.662 295.325L478.398 293.991L478.541 294.135C478.553 294.335 479.959 314.237 476.075 324.394C476.028 324.515 475.945 324.619 475.837 324.693C475.73 324.766 475.603 324.805 475.472 324.805H473.928C473.839 324.805 473.751 324.787 473.669 324.751C473.587 324.715 473.514 324.663 473.453 324.598C473.392 324.532 473.346 324.455 473.317 324.371C473.287 324.286 473.276 324.197 473.283 324.108L474.533 305.089C474.537 305.035 474.521 304.981 474.487 304.938C474.453 304.895 474.404 304.867 474.35 304.859C474.295 304.851 474.24 304.864 474.195 304.895C474.15 304.926 474.119 304.973 474.107 305.026L470.586 324.33C470.556 324.465 470.483 324.588 470.378 324.679C470.272 324.771 470.141 324.826 470.002 324.837L467.974 324.987C467.958 324.988 467.942 324.988 467.926 324.988C467.756 324.988 467.592 324.922 467.471 324.802V324.802Z" fill="#2F2E41"/>
<path d="M477.649 282.349C479.6 282.349 481.182 280.769 481.182 278.821C481.182 276.872 479.6 275.292 477.649 275.292C475.698 275.292 474.116 276.872 474.116 278.821C474.116 280.769 475.698 282.349 477.649 282.349Z" fill="#A0616A"/>
<path d="M469.14 298.431C468.991 298.279 468.905 298.076 468.9 297.864L470.343 291.118C469.192 286.234 470.724 285.318 472.453 284.393L472.442 284.387L473.164 282.435C473.187 282.348 473.229 282.268 473.287 282.199C473.344 282.13 473.417 282.075 473.498 282.037C473.58 281.999 473.669 281.98 473.759 281.981C473.848 281.981 473.937 282.002 474.018 282.04L477.7 283.994C477.866 284.087 477.989 284.242 478.042 284.424C478.104 284.617 478.1 284.826 478.03 285.017L477.758 285.752C478.461 286.69 479.548 290.4 478.398 291.836L479.266 296.624C479.285 296.8 479.241 296.977 479.143 297.124C479.044 297.272 478.897 297.38 478.727 297.429L469.654 298.592C469.619 298.599 469.583 298.603 469.547 298.603C469.394 298.601 469.248 298.539 469.14 298.431V298.431Z" fill="#FF0000"/>
<path d="M482.348 290.695C482.29 290.749 482.237 290.808 482.188 290.871L475.072 290.38L474.308 288.826L471.81 289.67L472.894 292.552C472.981 292.785 473.142 292.983 473.352 293.117C473.562 293.251 473.81 293.313 474.058 293.294L482.15 292.681C482.329 292.93 482.58 293.118 482.869 293.221C483.158 293.323 483.471 293.336 483.767 293.256C484.063 293.177 484.328 293.009 484.527 292.776C484.725 292.543 484.848 292.254 484.878 291.95C484.908 291.645 484.845 291.338 484.697 291.07C484.548 290.802 484.322 290.586 484.047 290.449C483.773 290.313 483.463 290.264 483.159 290.308C482.856 290.351 482.573 290.486 482.348 290.695V290.695Z" fill="#A0616A"/>
<path d="M474.806 290.405L471.705 291.436C471.616 291.466 471.523 291.476 471.43 291.465C471.338 291.455 471.249 291.426 471.169 291.378C471.089 291.331 471.02 291.266 470.967 291.19C470.915 291.113 470.879 291.026 470.863 290.935L470.298 287.729C470.15 287.277 470.187 286.785 470.402 286.361C470.617 285.937 470.991 285.615 471.443 285.466C471.895 285.317 472.388 285.354 472.813 285.567C473.239 285.781 473.562 286.154 473.712 286.605L475.179 289.5C475.221 289.583 475.245 289.674 475.249 289.766C475.252 289.859 475.236 289.952 475.2 290.038C475.165 290.124 475.111 290.201 475.043 290.264C474.975 290.328 474.894 290.376 474.806 290.405V290.405Z" fill="#FF0000"/>
<path d="M475.665 276.035C477.254 276.035 478.541 274.748 478.541 273.161C478.541 271.575 477.254 270.288 475.665 270.288C474.076 270.288 472.788 271.575 472.788 273.161C472.788 274.748 474.076 276.035 475.665 276.035Z" fill="#2F2E41"/>
<path d="M480.993 279.257C481.272 279.312 481.561 279.288 481.826 279.187C481.961 279.11 482.077 279.003 482.163 278.874C482.248 278.744 482.303 278.596 482.321 278.442C482.857 274.885 479.828 275.178 479.47 275.024C479.244 274.891 479.032 274.737 478.837 274.562C478.332 274.283 477.757 274.156 477.182 274.199C476.502 274.136 475.817 274.22 475.172 274.444C474.61 274.707 474.143 275.137 473.836 275.674C473.531 276.21 473.307 276.788 473.173 277.389C472.961 278.069 472.922 278.791 473.06 279.49C473.207 280.012 473.514 280.475 473.938 280.813C474.361 281.152 474.88 281.351 475.422 281.38C475.335 280.962 475.389 280.527 475.574 280.142C475.76 279.757 476.068 279.444 476.449 279.251C477.056 278.952 477.747 278.87 478.408 279.018C478.836 279.104 479.27 279.158 479.707 279.179C480.135 279.195 480.65 279.22 480.993 279.257Z" fill="#2F2E41"/>
<path d="M757.471 327.579C757.474 323.81 758.975 320.197 761.645 317.532C764.314 314.868 767.934 313.372 771.708 313.372C775.482 313.372 779.101 314.868 781.77 317.532C784.44 320.197 785.941 323.81 785.944 327.579" fill="#F2F2F2"/>
<path d="M771.708 327.579C771.606 327.579 771.508 327.539 771.436 327.467C771.364 327.395 771.323 327.297 771.323 327.195V319.702C771.323 319.6 771.364 319.502 771.436 319.43C771.508 319.358 771.606 319.317 771.708 319.317C771.81 319.317 771.908 319.358 771.98 319.43C772.052 319.502 772.093 319.6 772.093 319.702V327.195C772.093 327.297 772.052 327.395 771.98 327.467C771.908 327.539 771.81 327.579 771.708 327.579V327.579Z" fill="#CCCCCC"/>
<path d="M771.707 325.004C771.616 325.005 771.527 324.972 771.457 324.912L766.84 320.954C766.801 320.921 766.769 320.881 766.746 320.836C766.723 320.791 766.708 320.742 766.704 320.691C766.7 320.64 766.706 320.59 766.722 320.541C766.738 320.493 766.763 320.448 766.796 320.41C766.829 320.371 766.869 320.34 766.915 320.317C766.96 320.294 767.01 320.28 767.06 320.277C767.111 320.273 767.162 320.28 767.21 320.296C767.258 320.312 767.303 320.337 767.341 320.371L771.958 324.329C772.018 324.38 772.06 324.448 772.08 324.524C772.1 324.6 772.096 324.68 772.068 324.754C772.041 324.827 771.992 324.891 771.927 324.936C771.863 324.981 771.786 325.005 771.707 325.005L771.707 325.004Z" fill="#CCCCCC"/>
<path d="M801.334 327.579C801.337 323.81 802.838 320.197 805.508 317.532C808.178 314.868 811.797 313.372 815.571 313.372C819.345 313.372 822.964 314.868 825.633 317.532C828.303 320.197 829.804 323.81 829.807 327.579" fill="#F2F2F2"/>
<path d="M815.571 327.579C815.469 327.579 815.371 327.539 815.299 327.467C815.227 327.395 815.186 327.297 815.186 327.195V319.702C815.186 319.6 815.227 319.502 815.299 319.43C815.371 319.358 815.469 319.317 815.571 319.317C815.673 319.317 815.771 319.358 815.843 319.43C815.915 319.502 815.956 319.6 815.956 319.702V327.195C815.956 327.297 815.915 327.395 815.843 327.467C815.771 327.539 815.673 327.579 815.571 327.579V327.579Z" fill="#CCCCCC"/>
<path d="M815.571 325.004C815.479 325.005 815.39 324.972 815.32 324.912L810.703 320.954C810.664 320.921 810.632 320.881 810.609 320.836C810.585 320.791 810.571 320.742 810.567 320.691C810.563 320.64 810.569 320.589 810.585 320.541C810.601 320.493 810.626 320.448 810.659 320.41C810.692 320.371 810.732 320.339 810.778 320.317C810.823 320.294 810.873 320.28 810.923 320.277C810.974 320.273 811.025 320.279 811.073 320.296C811.121 320.312 811.166 320.337 811.204 320.371L815.821 324.329C815.881 324.38 815.924 324.448 815.943 324.524C815.963 324.6 815.959 324.68 815.932 324.754C815.904 324.827 815.855 324.891 815.79 324.936C815.726 324.981 815.649 325.005 815.571 325.005V325.004Z" fill="#CCCCCC"/>
</g>
</svg>
