<svg width="740" height="600" viewBox="0 0 740 600" fill="none" xmlns="http://www.w3.org/2000/svg">
<g clip-path="url(#clip0_9_283)">
<path d="M256.961 508.163C256.386 508.19 255.817 508.039 255.33 507.731C254.844 507.423 254.464 506.973 254.242 506.442C254.02 505.911 253.967 505.324 254.089 504.762C254.211 504.199 254.504 503.688 254.926 503.297L255.119 502.533C255.093 502.471 255.068 502.41 255.042 502.349C254.463 500.981 253.492 499.814 252.252 498.996C251.012 498.177 249.558 497.744 248.072 497.749C246.586 497.755 245.135 498.199 243.901 499.027C242.667 499.854 241.705 501.028 241.136 502.401C238.861 507.879 235.965 513.366 235.252 519.159C234.938 521.719 235.071 524.314 235.644 526.829C230.302 515.176 227.527 502.51 227.51 489.69C227.508 486.474 227.687 483.259 228.045 480.062C228.341 477.441 228.751 474.839 229.276 472.256C232.139 458.238 238.286 445.099 247.214 433.918C251.534 431.561 255.029 427.935 257.225 423.531C258.021 421.948 258.584 420.257 258.895 418.513C258.408 418.577 257.058 411.154 257.425 410.699C256.746 409.668 255.53 409.155 254.788 408.15C251.099 403.148 246.016 404.021 243.362 410.818C237.694 413.679 237.639 418.424 241.117 422.988C243.33 425.891 243.634 429.819 245.576 432.927C245.376 433.183 245.168 433.431 244.968 433.687C241.317 438.382 238.134 443.424 235.466 448.74C236.115 442.785 235.341 436.76 233.207 431.162C231.044 425.944 226.99 421.55 223.421 417.04C219.133 411.623 210.34 413.987 209.585 420.855C209.578 420.921 209.57 420.987 209.564 421.054C210.094 421.353 210.613 421.671 211.121 422.006C211.759 422.433 212.253 423.042 212.539 423.754C212.825 424.466 212.889 425.247 212.723 425.996C212.557 426.746 212.169 427.427 211.609 427.952C211.049 428.476 210.344 428.819 209.585 428.936L209.508 428.948C209.696 430.859 210.03 432.753 210.506 434.613C205.927 452.324 215.814 458.774 229.931 459.064C230.242 459.223 230.546 459.383 230.858 459.535C228.177 467.132 226.496 475.044 225.856 483.074C225.493 487.812 225.515 492.571 225.92 497.305L225.896 497.137C224.873 491.873 222.065 487.123 217.945 483.69C211.827 478.664 203.183 476.813 196.583 472.773C195.881 472.323 195.066 472.082 194.232 472.08C193.398 472.078 192.582 472.315 191.878 472.762C191.174 473.209 190.613 473.848 190.261 474.603C189.908 475.358 189.779 476.199 189.888 477.025C189.897 477.084 189.906 477.143 189.915 477.202C190.899 477.602 191.857 478.064 192.784 478.584C193.314 478.883 193.833 479.201 194.341 479.536C194.979 479.963 195.473 480.572 195.759 481.284C196.045 481.996 196.109 482.777 195.943 483.526C195.777 484.275 195.389 484.957 194.829 485.482C194.269 486.006 193.564 486.349 192.806 486.466L192.728 486.478C192.672 486.486 192.624 486.494 192.568 486.502C194.249 490.516 196.609 494.211 199.544 497.425C202.407 512.885 214.706 514.352 227.861 509.85H227.869C229.313 516.122 231.404 522.228 234.11 528.068H256.402C256.482 527.82 256.554 527.564 256.626 527.316C254.563 527.446 252.491 527.323 250.458 526.949C252.112 524.919 253.766 522.874 255.42 520.844C255.457 520.806 255.491 520.766 255.524 520.725C256.363 519.686 257.21 518.655 258.048 517.616L258.049 517.615C258.094 514.431 257.728 511.255 256.962 508.164L256.961 508.163Z" fill="#F2F2F2"/>
<path d="M527.662 302.529H19.092C14.5605 302.523 10.2162 300.721 7.01192 297.517C3.80768 294.312 2.00524 289.968 2 285.437V86.092C2.00524 81.5605 3.80768 77.2162 7.01192 74.0119C10.2162 70.8077 14.5605 69.0052 19.092 69H527.662C532.194 69.0052 536.538 70.8077 539.742 74.0119C542.946 77.2162 544.749 81.5605 544.754 86.092V285.437C544.749 289.968 542.946 294.312 539.742 297.517C536.538 300.721 532.194 302.523 527.662 302.529V302.529Z" fill="#F2F2F2"/>
<path d="M409.052 291.627H99.8198C76.7762 291.601 54.6839 282.436 38.3896 266.142C22.0954 249.847 12.9298 227.755 12.9038 204.711V166.826C12.9298 143.783 22.0953 121.69 38.3896 105.396C54.6839 89.1015 76.7762 79.9358 99.8198 79.9097H446.937C469.981 79.9358 492.073 89.1015 508.368 105.396C524.662 121.69 533.827 143.783 533.853 166.826C533.816 199.914 520.655 231.636 497.259 255.033C473.862 278.429 442.14 291.59 409.052 291.627V291.627Z" fill="white"/>
<path d="M329.283 136.975H124.876C123.707 136.975 122.586 136.511 121.759 135.684C120.933 134.858 120.468 133.737 120.468 132.567C120.468 131.398 120.933 130.277 121.759 129.451C122.586 128.624 123.707 128.159 124.876 128.159H329.283C330.452 128.159 331.573 128.624 332.4 129.451C333.226 130.277 333.691 131.398 333.691 132.567C333.691 133.737 333.226 134.858 332.4 135.684C331.573 136.511 330.452 136.975 329.283 136.975V136.975Z" fill="#E6E6E6"/>
<path d="M432.757 184.007H124.876C123.707 184.007 122.586 183.542 121.759 182.715C120.933 181.889 120.468 180.768 120.468 179.598C120.468 178.429 120.933 177.308 121.759 176.482C122.586 175.655 123.707 175.19 124.876 175.19H432.757C433.926 175.19 435.047 175.655 435.874 176.482C436.7 177.308 437.165 178.429 437.165 179.598C437.165 180.768 436.7 181.889 435.874 182.715C435.047 183.542 433.926 184.007 432.757 184.007V184.007Z" fill="#E6E6E6"/>
<path d="M432.757 231.037H124.876C123.707 231.037 122.586 230.573 121.759 229.746C120.933 228.919 120.468 227.798 120.468 226.629C120.468 225.46 120.933 224.339 121.759 223.512C122.586 222.686 123.707 222.221 124.876 222.221H432.757C433.926 222.221 435.047 222.686 435.874 223.512C436.7 224.339 437.165 225.46 437.165 226.629C437.165 227.798 436.7 228.919 435.874 229.746C435.047 230.573 433.926 231.037 432.757 231.037V231.037Z" fill="#E6E6E6"/>
<path d="M432.757 231.037H124.876C123.707 231.037 122.586 230.573 121.759 229.746C120.933 228.919 120.468 227.798 120.468 226.629C120.468 225.46 120.933 224.339 121.759 223.512C122.586 222.686 123.707 222.221 124.876 222.221H432.757C433.926 222.221 435.047 222.686 435.874 223.512C436.7 224.339 437.165 225.46 437.165 226.629C437.165 227.798 436.7 228.919 435.874 229.746C435.047 230.573 433.926 231.037 432.757 231.037V231.037Z" fill="#E6E6E6"/>
<path d="M402.956 150.141C405.775 134.779 412.364 121.329 423.946 110.412C424.372 109.608 425.099 109.006 425.968 108.738C426.837 108.47 427.777 108.557 428.582 108.981L458.586 124.833C459.389 125.259 459.991 125.986 460.259 126.855C460.528 127.724 460.44 128.664 460.016 129.469L439.026 169.197C438.601 170.001 437.873 170.603 437.004 170.871C436.135 171.139 435.196 171.052 434.391 170.628L404.387 154.776C403.583 154.35 402.981 153.623 402.713 152.754C402.445 151.885 402.533 150.945 402.956 150.141V150.141Z" fill="#E6E6E6"/>
<path d="M411.598 139.357C411.969 131.338 417.817 122.662 425.092 113.816C425.491 113.063 426.172 112.499 426.986 112.248C427.8 111.997 428.68 112.079 429.433 112.476L455.219 126.099C455.972 126.498 456.536 127.179 456.787 127.993C457.038 128.807 456.956 129.687 456.559 130.44L437.881 165.794C437.482 166.546 436.801 167.11 435.987 167.361C435.173 167.612 434.293 167.53 433.54 167.133L417.566 158.694C414.213 156.918 411.702 153.884 410.583 150.259C409.465 146.634 409.829 142.713 411.598 139.357V139.357Z" fill="white"/>
<path d="M441.877 144.473L421.741 133.906C421.422 133.737 421.183 133.449 421.077 133.104C420.97 132.759 421.004 132.386 421.172 132.066C421.34 131.747 421.627 131.507 421.971 131.399C422.316 131.29 422.689 131.323 423.009 131.49L443.145 142.057C443.464 142.226 443.703 142.514 443.81 142.859C443.916 143.204 443.882 143.577 443.714 143.896C443.547 144.216 443.259 144.456 442.915 144.564C442.57 144.672 442.197 144.639 441.877 144.473V144.473Z" fill="#989898"/>
<path d="M429.648 129.605L425.218 127.28C425.059 127.198 424.917 127.084 424.802 126.946C424.686 126.809 424.599 126.65 424.546 126.478C424.492 126.307 424.472 126.127 424.488 125.948C424.504 125.769 424.556 125.595 424.639 125.436C424.723 125.277 424.837 125.136 424.975 125.021C425.113 124.906 425.272 124.819 425.444 124.766C425.615 124.713 425.796 124.695 425.975 124.711C426.154 124.728 426.327 124.78 426.486 124.864L430.916 127.189C431.235 127.358 431.474 127.646 431.581 127.991C431.687 128.336 431.653 128.709 431.485 129.028C431.318 129.348 431.03 129.588 430.686 129.696C430.341 129.804 429.968 129.772 429.648 129.605V129.605Z" fill="#989898"/>
<path d="M436.302 155.095L416.167 144.528C415.847 144.36 415.608 144.071 415.501 143.726C415.394 143.381 415.428 143.008 415.596 142.688C415.764 142.368 416.052 142.128 416.396 142.02C416.741 141.912 417.114 141.945 417.435 142.112L437.57 152.679C437.889 152.848 438.128 153.137 438.235 153.481C438.342 153.826 438.307 154.199 438.14 154.519C437.972 154.838 437.684 155.078 437.34 155.187C436.996 155.295 436.623 155.262 436.302 155.095V155.095Z" fill="#989898"/>
<path d="M439.09 149.784L418.954 139.217C418.795 139.134 418.653 139.021 418.538 138.883C418.422 138.746 418.335 138.586 418.281 138.415C418.228 138.244 418.208 138.063 418.224 137.884C418.24 137.706 418.292 137.532 418.375 137.372C418.459 137.213 418.573 137.072 418.711 136.958C418.849 136.843 419.008 136.756 419.18 136.703C419.351 136.65 419.532 136.631 419.711 136.648C419.889 136.665 420.063 136.717 420.222 136.801L440.358 147.368C440.677 147.537 440.916 147.825 441.022 148.17C441.129 148.515 441.095 148.888 440.927 149.207C440.759 149.527 440.472 149.767 440.127 149.875C439.783 149.983 439.41 149.951 439.09 149.784Z" fill="#989898"/>
<path d="M619.922 419.744H609.506C609.014 419.744 608.526 419.841 608.071 420.029C607.616 420.218 607.203 420.494 606.854 420.842C606.506 421.191 606.23 421.604 606.042 422.059C605.853 422.514 605.756 423.002 605.756 423.494C605.756 424.489 605.361 425.443 604.658 426.146C603.954 426.849 603 427.245 602.006 427.245H567.283C566.79 427.245 566.302 427.148 565.847 426.959C565.392 426.771 564.979 426.494 564.631 426.146C564.282 425.798 564.006 425.384 563.818 424.929C563.629 424.474 563.532 423.987 563.532 423.494L562.846 419.692L562.89 419.744L562.846 419.692L556.552 411.668C556.345 411.401 556.08 411.185 555.777 411.038C555.473 410.891 555.14 410.815 554.802 410.818H542.999C542.409 410.819 541.844 411.054 541.428 411.47C541.011 411.887 540.777 412.452 540.776 413.041L540.532 419.692H536.07C535.132 419.692 534.204 419.877 533.338 420.236C532.473 420.594 531.686 421.12 531.023 421.783C530.36 422.445 529.835 423.232 529.476 424.098C529.117 424.964 528.933 425.892 528.933 426.829V473.313C528.933 474.145 529.096 474.969 529.415 475.737C529.733 476.505 530.2 477.204 530.788 477.792C531.376 478.38 532.074 478.846 532.842 479.165C533.611 479.483 534.434 479.647 535.266 479.647H619.922C621.601 479.645 623.21 478.977 624.397 477.789C625.584 476.602 626.252 474.992 626.254 473.313V426.076C626.254 425.244 626.09 424.421 625.772 423.653C625.453 422.884 624.987 422.186 624.399 421.598C623.811 421.01 623.113 420.544 622.345 420.226C621.577 419.908 620.753 419.744 619.922 419.744V419.744Z" fill="#F2F2F2"/>
<path d="M562.849 419.521H540.776V412.87C540.777 412.281 541.011 411.716 541.428 411.299C541.844 410.882 542.409 410.648 542.999 410.647H554.802C555.14 410.644 555.473 410.719 555.777 410.867C556.08 411.014 556.345 411.23 556.551 411.497L562.849 419.521Z" fill="#E6E6E6"/>
<path d="M574.151 474.532H537.295C536.128 474.531 535.009 474.067 534.184 473.242C533.359 472.417 532.895 471.298 532.894 470.131V460.052C532.895 458.885 533.359 457.767 534.184 456.942C535.009 456.117 536.128 455.653 537.295 455.651H581.531C582.698 455.653 583.816 456.117 584.641 456.942C585.466 457.767 585.93 458.885 585.931 460.052V462.752C585.928 465.875 584.686 468.869 582.477 471.078C580.269 473.286 577.274 474.528 574.151 474.532Z" fill="white"/>
<path d="M547.904 463.255H538.807C538.215 463.255 537.648 463.02 537.229 462.601C536.811 462.183 536.576 461.615 536.576 461.023C536.576 460.432 536.811 459.864 537.229 459.445C537.648 459.027 538.215 458.792 538.807 458.792H547.904C548.496 458.792 549.063 459.027 549.482 459.445C549.9 459.864 550.135 460.432 550.135 461.023C550.135 461.615 549.9 462.183 549.482 462.601C549.063 463.02 548.496 463.255 547.904 463.255Z" fill="#F2F2F2"/>
<path d="M578.799 470.292H538.807C538.513 470.292 538.223 470.235 537.952 470.123C537.68 470.011 537.434 469.847 537.226 469.64C537.018 469.433 536.854 469.186 536.741 468.915C536.629 468.644 536.571 468.354 536.571 468.06C536.571 467.767 536.629 467.476 536.741 467.205C536.854 466.934 537.018 466.688 537.226 466.481C537.434 466.274 537.68 466.109 537.952 465.998C538.223 465.886 538.513 465.828 538.807 465.829H578.799C579.391 465.829 579.959 466.064 580.377 466.483C580.796 466.901 581.031 467.469 581.031 468.06C581.031 468.652 580.796 469.22 580.377 469.638C579.959 470.057 579.391 470.292 578.799 470.292H578.799Z" fill="#F2F2F2"/>
<path d="M656.922 470.744H646.506C646.014 470.744 645.526 470.841 645.071 471.029C644.616 471.218 644.203 471.494 643.854 471.842C643.506 472.191 643.23 472.604 643.042 473.059C642.853 473.514 642.756 474.002 642.756 474.494C642.756 475.489 642.361 476.443 641.658 477.146C640.954 477.849 640 478.245 639.006 478.245H604.283C603.79 478.245 603.302 478.148 602.847 477.959C602.392 477.771 601.979 477.494 601.631 477.146C601.282 476.798 601.006 476.384 600.818 475.929C600.629 475.474 600.532 474.987 600.532 474.494L599.846 470.692L599.89 470.744L599.846 470.692L593.552 462.668C593.345 462.401 593.08 462.185 592.777 462.038C592.473 461.891 592.14 461.815 591.802 461.818H579.999C579.409 461.819 578.844 462.054 578.428 462.47C578.011 462.887 577.777 463.452 577.776 464.041L577.532 470.692H573.07C572.132 470.692 571.204 470.877 570.338 471.236C569.473 471.594 568.686 472.12 568.023 472.783C567.36 473.445 566.835 474.232 566.476 475.098C566.117 475.964 565.933 476.892 565.933 477.829V524.313C565.933 525.145 566.096 525.969 566.415 526.737C566.733 527.505 567.2 528.204 567.788 528.792C568.376 529.38 569.074 529.846 569.842 530.165C570.611 530.483 571.434 530.647 572.266 530.647H656.922C658.601 530.645 660.21 529.977 661.397 528.789C662.584 527.602 663.252 525.992 663.254 524.313V477.076C663.254 476.244 663.09 475.421 662.772 474.653C662.453 473.884 661.987 473.186 661.399 472.598C660.811 472.01 660.113 471.544 659.345 471.226C658.577 470.908 657.753 470.744 656.922 470.744V470.744Z" fill="#F2F2F2"/>
<path d="M599.849 470.521H577.776V463.87C577.777 463.281 578.011 462.716 578.428 462.299C578.844 461.882 579.409 461.648 579.999 461.647H591.802C592.14 461.644 592.473 461.719 592.777 461.867C593.08 462.014 593.345 462.23 593.551 462.497L599.849 470.521Z" fill="#E6E6E6"/>
<path d="M611.151 525.532H574.295C573.128 525.531 572.009 525.067 571.184 524.242C570.359 523.417 569.895 522.298 569.894 521.131V511.052C569.895 509.885 570.359 508.767 571.184 507.942C572.009 507.117 573.128 506.653 574.295 506.651H618.531C619.698 506.653 620.816 507.117 621.641 507.942C622.466 508.767 622.93 509.885 622.931 511.052V513.752C622.928 516.875 621.686 519.869 619.477 522.078C617.269 524.286 614.274 525.528 611.151 525.532V525.532Z" fill="white"/>
<path d="M584.904 514.255H575.807C575.215 514.255 574.648 514.02 574.229 513.601C573.811 513.183 573.576 512.615 573.576 512.023C573.576 511.432 573.811 510.864 574.229 510.445C574.648 510.027 575.215 509.792 575.807 509.792H584.904C585.496 509.792 586.063 510.027 586.482 510.445C586.9 510.864 587.135 511.432 587.135 512.023C587.135 512.615 586.9 513.183 586.482 513.601C586.063 514.02 585.496 514.255 584.904 514.255V514.255Z" fill="#F2F2F2"/>
<path d="M615.799 521.292H575.807C575.513 521.292 575.223 521.235 574.952 521.123C574.68 521.011 574.434 520.847 574.226 520.64C574.018 520.433 573.854 520.186 573.741 519.915C573.629 519.644 573.571 519.354 573.571 519.06C573.571 518.767 573.629 518.476 573.741 518.205C573.854 517.934 574.018 517.688 574.226 517.481C574.434 517.274 574.68 517.109 574.952 516.998C575.223 516.886 575.513 516.828 575.807 516.829H615.799C616.391 516.829 616.959 517.064 617.377 517.483C617.796 517.901 618.031 518.469 618.031 519.06C618.031 519.652 617.796 520.22 617.377 520.638C616.959 521.057 616.391 521.292 615.799 521.292H615.799Z" fill="#F2F2F2"/>
<path d="M491.468 513.144L482.868 513.143L478.777 479.972H491.47L491.468 513.144Z" fill="#FFB6B6"/>
<path d="M465.511 525.833C465.515 526.796 465.899 527.719 466.58 528.401C467.26 529.083 468.182 529.469 469.146 529.475H485.335L485.837 528.435L488.127 523.71L489.013 528.435L489.21 529.475H495.316L495.229 528.428L493.601 508.902L491.471 508.771L482.267 508.226L480.006 508.088V513.918C478.291 515.743 464.828 522.642 465.511 525.833Z" fill="#2F2E41"/>
<path d="M633.857 446.722L629.7 454.251L598.682 441.802L604.817 430.69L633.857 446.722Z" fill="#FFB6B6"/>
<path d="M632.421 475.579C633.267 476.041 634.26 476.151 635.186 475.884C636.112 475.618 636.895 474.997 637.366 474.157L645.19 459.984L644.522 459.042L641.492 454.754L646.058 456.261L647.063 456.591L650.014 451.245L649.055 450.816L631.173 442.805L630.03 444.607L625.105 452.4L623.891 454.313L628.995 457.131C629.764 459.514 629.297 474.635 632.421 475.579Z" fill="#2F2E41"/>
<path d="M505.858 294.515L538.353 308.313C538.353 308.313 548.749 330.508 541.559 333.688V392.365L615.782 435.32L593.41 472.689C593.41 472.689 564.694 465.272 564.994 458.5C565.294 451.729 568.604 449.05 558.745 448.181C548.885 447.311 543.3 448.037 543.568 441.994C543.836 435.951 508.746 404.53 508.746 404.53L505.858 294.515Z" fill="#2F2E41"/>
<path d="M513.643 305.78L505.403 296.524C505.403 296.524 486.898 326.91 486.967 333.151C487.037 339.393 471.259 371.579 471.259 371.579L451.695 486.439C451.695 486.439 489.43 495.409 492.336 495.657C495.241 495.906 500.141 497.437 497.06 491.622C493.979 485.808 497.06 485.808 497.06 485.808L498.953 397.374L513.643 336.55V305.78Z" fill="#2F2E41"/>
<path d="M509.322 216.803L525.099 213.016L534.223 224.207C538.387 228.125 541.492 233.032 543.248 238.473C545.004 243.914 545.354 249.711 544.266 255.324L535.828 298.846C535.828 298.846 550.974 312.73 549.081 320.303C546.01 332.586 512.144 321.739 506.315 322.599C500.486 323.459 492.913 314.027 491.651 308.645C490.389 303.263 495.537 290.347 497.331 290.641C499.125 290.936 492.382 263.922 492.382 263.922C492.382 263.922 492.913 245.833 499.224 240.785C503.095 237.633 506.245 233.688 508.462 229.216L509.322 216.803Z" fill="#989898"/>
<path d="M440.822 148.566C440.834 149.627 441.077 150.673 441.533 151.631C441.989 152.589 442.648 153.437 443.464 154.115C444.279 154.794 445.233 155.287 446.258 155.56C447.283 155.834 448.356 155.882 449.401 155.7L469.261 186.343L479.087 182.933L455.233 146.711C454.796 144.974 453.738 143.458 452.258 142.449C450.778 141.44 448.98 141.009 447.204 141.238C445.427 141.467 443.797 142.339 442.62 143.69C441.444 145.04 440.804 146.776 440.822 148.566H440.822Z" fill="#FFB6B6"/>
<path d="M520.463 255.389C520.463 255.389 527.942 239.375 522.254 232.258C516.566 225.14 512.408 217.905 509.224 215.945C506.041 213.985 493.353 191.291 490.155 190.613C486.957 189.936 489.442 186.257 484.977 184.282C480.512 182.307 479.23 182.293 479.244 181.011C479.259 179.729 468.356 164.334 468.356 164.334L457.149 171.291L484.526 227.296L520.463 255.389Z" fill="#989898"/>
<path d="M449.806 405.246C435.469 386.176 427.182 364.851 426.911 340.538C426.449 339.228 426.525 337.788 427.124 336.534C427.722 335.28 428.794 334.315 430.103 333.85L478.972 316.559C480.282 316.097 481.722 316.173 482.976 316.772C484.23 317.37 485.195 318.442 485.66 319.751L508.556 384.459C509.018 385.77 508.941 387.21 508.342 388.463C507.744 389.717 506.673 390.682 505.364 391.147L456.494 408.438C455.184 408.9 453.744 408.824 452.49 408.225C451.237 407.627 450.271 406.556 449.806 405.246V405.246Z" fill="#E6E6E6"/>
<path d="M446.64 384.375C438.016 375.657 434.325 360.106 431.92 342.775C431.488 341.548 431.559 340.199 432.12 339.025C432.68 337.851 433.684 336.947 434.91 336.511L476.909 321.651C478.136 321.218 479.484 321.29 480.659 321.85C481.833 322.411 482.737 323.414 483.172 324.64L503.546 382.222C503.979 383.449 503.907 384.798 503.347 385.972C502.786 387.146 501.783 388.05 500.557 388.486L474.539 397.691C469.073 399.618 463.066 399.299 457.836 396.802C452.605 394.306 448.579 389.837 446.64 384.375V384.375Z" fill="white"/>
<path d="M483.734 355.66L451.018 367.338C450.498 367.524 449.925 367.495 449.425 367.259C448.926 367.022 448.541 366.596 448.355 366.076C448.169 365.555 448.197 364.982 448.434 364.483C448.671 363.983 449.096 363.598 449.617 363.412L482.333 351.734C482.591 351.642 482.864 351.602 483.138 351.615C483.411 351.629 483.679 351.696 483.926 351.814C484.174 351.931 484.396 352.096 484.579 352.299C484.763 352.501 484.905 352.739 484.997 352.996C485.089 353.254 485.129 353.528 485.116 353.801C485.102 354.074 485.034 354.342 484.917 354.59C484.8 354.837 484.635 355.059 484.432 355.242C484.229 355.426 483.992 355.568 483.734 355.66V355.66Z" fill="#989898"/>
<path d="M454.373 354.004L447.176 356.573C446.656 356.757 446.083 356.728 445.585 356.491C445.086 356.254 444.702 355.829 444.516 355.309C444.331 354.789 444.359 354.217 444.595 353.718C444.831 353.219 445.255 352.834 445.774 352.647L452.972 350.078C453.492 349.893 454.065 349.923 454.563 350.16C455.062 350.397 455.446 350.822 455.631 351.342C455.817 351.861 455.789 352.434 455.553 352.933C455.317 353.432 454.893 353.817 454.373 354.004V354.004Z" fill="#989898"/>
<path d="M489.896 372.919L457.179 384.597C456.922 384.689 456.648 384.73 456.375 384.716C456.102 384.702 455.834 384.635 455.586 384.518C455.339 384.401 455.117 384.236 454.933 384.033C454.75 383.83 454.608 383.593 454.516 383.335C454.424 383.077 454.383 382.804 454.397 382.531C454.411 382.257 454.478 381.989 454.595 381.742C454.713 381.494 454.877 381.273 455.08 381.089C455.283 380.905 455.52 380.763 455.778 380.671L488.494 368.993C488.752 368.901 489.025 368.861 489.299 368.875C489.572 368.888 489.84 368.956 490.087 369.073C490.335 369.19 490.557 369.355 490.74 369.558C490.924 369.761 491.066 369.998 491.158 370.256C491.25 370.513 491.29 370.787 491.277 371.06C491.263 371.334 491.196 371.602 491.078 371.849C490.961 372.096 490.796 372.318 490.593 372.502C490.391 372.685 490.153 372.827 489.896 372.919Z" fill="#989898"/>
<path d="M486.815 364.29L454.099 375.968C453.841 376.06 453.568 376.1 453.294 376.086C453.021 376.073 452.753 376.005 452.506 375.888C452.258 375.771 452.036 375.606 451.853 375.403C451.669 375.2 451.527 374.963 451.435 374.705C451.343 374.448 451.303 374.174 451.317 373.901C451.33 373.627 451.398 373.359 451.515 373.112C451.632 372.865 451.797 372.643 452 372.459C452.203 372.276 452.44 372.134 452.698 372.042L485.414 360.364C485.934 360.178 486.507 360.207 487.007 360.443C487.506 360.68 487.891 361.105 488.077 361.626C488.263 362.147 488.235 362.72 487.998 363.219C487.761 363.719 487.336 364.104 486.815 364.29V364.29Z" fill="#989898"/>
<path d="M511.235 211.096C520.59 211.096 528.174 203.512 528.174 194.157C528.174 184.802 520.59 177.218 511.235 177.218C501.879 177.218 494.295 184.802 494.295 194.157C494.295 203.512 501.879 211.096 511.235 211.096Z" fill="#FFB6B6"/>
<path d="M493.423 191.947C494.323 192.546 495.395 192.832 496.474 192.761C496.722 191.465 496.762 190.137 496.592 188.827C497.234 190.002 497.717 191.257 498.028 192.56C501.041 191.902 500.907 191.006 504.011 191.475C504.864 191.654 505.67 192.008 506.38 192.513C507.091 193.017 507.689 193.663 508.139 194.409C508.589 195.155 508.881 195.986 508.996 196.85C509.111 197.714 509.047 198.592 508.808 199.43C509.466 197.99 512.197 198.645 512.658 200.292C513.138 202.026 512.081 203.778 511.069 205.266C507.454 210.585 516.803 220.39 513.188 225.709L512.685 226.31C515.845 224.666 518.836 222.712 521.612 220.479C521.137 218.378 521.055 216.207 521.369 214.076C521.761 215.832 522.723 217.409 524.103 218.562C534.331 210.542 546.634 198.996 544.372 196.194L537.487 184.058C530.252 171.31 512.801 166.189 501.989 176.088C501.707 176.352 501.067 176.177 500.782 176.455C497.675 177.259 493.699 178.718 491.67 181.201C489.648 183.688 490.768 190.154 493.423 191.947Z" fill="#2F2E41"/>
<path d="M506.676 323.126C492.894 315.777 482.078 305.417 475.192 291.068C474.555 290.418 474.202 289.543 474.211 288.633C474.219 287.724 474.587 286.855 475.236 286.217L499.446 262.44C500.096 261.803 500.971 261.45 501.881 261.458C502.79 261.467 503.659 261.835 504.297 262.483L535.781 294.541C536.418 295.191 536.77 296.066 536.762 296.976C536.754 297.885 536.385 298.754 535.737 299.392L511.527 323.169C510.877 323.806 510.001 324.159 509.092 324.151C508.183 324.142 507.314 323.774 506.676 323.126V323.126Z" fill="#E6E6E6"/>
<path d="M499.023 311.619C491.495 308.832 485.004 300.627 478.782 291.009C478.186 290.401 477.856 289.581 477.863 288.729C477.871 287.878 478.216 287.064 478.823 286.466L499.631 266.032C500.239 265.435 501.059 265.105 501.911 265.113C502.762 265.12 503.576 265.466 504.174 266.073L532.19 294.6C532.786 295.208 533.117 296.028 533.109 296.88C533.101 297.731 532.756 298.545 532.149 299.143L519.259 311.802C516.55 314.457 512.897 315.929 509.103 315.895C505.31 315.86 501.684 314.323 499.023 311.619Z" fill="white"/>
<path d="M513.088 284.321L496.908 300.3C496.781 300.426 496.63 300.525 496.464 300.593C496.298 300.66 496.12 300.695 495.941 300.694C495.761 300.693 495.584 300.656 495.419 300.587C495.254 300.517 495.104 300.416 494.978 300.288C494.852 300.16 494.753 300.009 494.685 299.843C494.617 299.677 494.583 299.5 494.585 299.32C494.586 299.141 494.622 298.964 494.692 298.799C494.761 298.634 494.863 298.484 494.991 298.358L511.17 282.379C511.298 282.253 511.449 282.154 511.615 282.086C511.781 282.019 511.959 281.984 512.138 281.985C512.317 281.986 512.494 282.023 512.66 282.092C512.825 282.162 512.975 282.264 513.1 282.391C513.226 282.519 513.326 282.67 513.394 282.836C513.461 283.002 513.495 283.179 513.494 283.359C513.493 283.538 513.456 283.715 513.387 283.88C513.317 284.045 513.216 284.195 513.088 284.321V284.321Z" fill="#989898"/>
<path d="M495.21 291.46L491.65 294.976C491.393 295.23 491.045 295.372 490.683 295.369C490.321 295.367 489.975 295.221 489.721 294.964C489.467 294.706 489.325 294.358 489.327 293.996C489.329 293.635 489.475 293.288 489.733 293.034L493.292 289.519C493.42 289.392 493.571 289.292 493.737 289.225C493.903 289.157 494.081 289.122 494.26 289.123C494.44 289.124 494.617 289.16 494.783 289.23C494.948 289.299 495.098 289.401 495.224 289.529C495.35 289.656 495.45 289.808 495.517 289.974C495.585 290.14 495.619 290.318 495.618 290.498C495.616 290.677 495.58 290.854 495.51 291.02C495.44 291.185 495.338 291.335 495.21 291.46Z" fill="#989898"/>
<path d="M521.518 292.857L505.338 308.835C505.21 308.961 505.059 309.061 504.893 309.129C504.727 309.196 504.55 309.23 504.37 309.229C504.191 309.228 504.014 309.192 503.849 309.122C503.684 309.053 503.534 308.951 503.408 308.824C503.282 308.696 503.182 308.545 503.115 308.379C503.047 308.213 503.013 308.035 503.014 307.856C503.015 307.677 503.052 307.5 503.121 307.334C503.191 307.169 503.293 307.02 503.42 306.894L519.6 290.915C519.728 290.789 519.879 290.689 520.045 290.622C520.211 290.554 520.388 290.52 520.568 290.521C520.747 290.522 520.924 290.559 521.089 290.628C521.254 290.698 521.404 290.799 521.53 290.927C521.656 291.054 521.756 291.205 521.823 291.371C521.891 291.537 521.925 291.715 521.924 291.894C521.923 292.073 521.886 292.251 521.816 292.416C521.747 292.581 521.645 292.731 521.518 292.857V292.857Z" fill="#989898"/>
<path d="M517.303 288.589L501.123 304.567C500.995 304.694 500.844 304.794 500.678 304.862C500.512 304.93 500.334 304.964 500.155 304.963C499.975 304.962 499.798 304.926 499.632 304.856C499.467 304.787 499.317 304.685 499.191 304.558C499.065 304.43 498.965 304.279 498.898 304.112C498.83 303.946 498.796 303.768 498.797 303.589C498.799 303.409 498.835 303.232 498.905 303.067C498.975 302.901 499.077 302.752 499.205 302.626L515.385 286.647C515.643 286.393 515.991 286.252 516.352 286.254C516.714 286.256 517.06 286.402 517.314 286.66C517.569 286.917 517.71 287.265 517.708 287.627C517.706 287.988 517.56 288.334 517.303 288.589V288.589Z" fill="#989898"/>
<path d="M482.617 356.328C482.416 355.286 482.444 354.213 482.699 353.183C482.953 352.153 483.429 351.191 484.092 350.362C484.755 349.534 485.59 348.86 486.54 348.386C487.489 347.912 488.53 347.65 489.591 347.619L502.903 313.616L513.213 314.986L497.107 355.256C497.028 357.045 496.295 358.743 495.047 360.028C493.8 361.313 492.124 362.096 490.338 362.228C488.552 362.36 486.78 361.832 485.356 360.745C483.933 359.658 482.959 358.086 482.617 356.328V356.328Z" fill="#FFB6B6"/>
<path d="M539.219 235.705C539.219 235.705 549.757 249.894 545.612 258.007C541.466 266.121 538.843 274.043 536.118 276.601C533.392 279.16 525.513 303.937 522.516 305.243C519.519 306.548 522.691 309.654 518.712 312.484C514.734 315.314 513.481 315.585 513.752 316.838C514.023 318.091 506.429 335.359 506.429 335.359L494.055 330.792L520.406 239.133L539.219 235.705Z" fill="#989898"/>
<path d="M736.887 530.657L74.1374 529.964C73.8222 529.963 73.5203 529.837 73.2977 529.614C73.0752 529.391 72.9502 529.088 72.9502 528.773C72.9502 528.458 73.0752 528.156 73.2977 527.932C73.5203 527.709 73.8222 527.583 74.1374 527.583L736.887 528.275C737.044 528.275 737.199 528.305 737.344 528.365C737.489 528.425 737.621 528.512 737.732 528.623C737.842 528.733 737.931 528.865 737.991 529.009C738.051 529.154 738.082 529.309 738.082 529.466C738.082 529.623 738.051 529.778 737.991 529.922C737.931 530.067 737.842 530.198 737.732 530.309C737.621 530.42 737.489 530.507 737.344 530.567C737.199 530.627 737.044 530.657 736.887 530.657V530.657Z" fill="#CACACA"/>
<path d="M250.983 268.381C243.135 254.878 239.394 240.376 241.095 224.55C240.895 223.663 241.056 222.733 241.542 221.964C242.028 221.195 242.799 220.651 243.686 220.449L276.788 212.981C277.675 212.782 278.605 212.943 279.374 213.429C280.143 213.915 280.688 214.686 280.889 215.573L290.778 259.404C290.977 260.291 290.816 261.221 290.33 261.99C289.844 262.759 289.073 263.303 288.186 263.505L255.084 270.973C254.197 271.172 253.267 271.011 252.498 270.525C251.729 270.039 251.184 269.268 250.983 268.381V268.381Z" fill="#E6E6E6"/>
<path d="M250.535 254.57C245.603 248.237 244.404 237.843 244.178 226.391C243.992 225.56 244.142 224.689 244.597 223.969C245.052 223.249 245.774 222.739 246.605 222.55L275.053 216.132C275.885 215.946 276.756 216.097 277.476 216.551C278.196 217.006 278.706 217.728 278.894 218.559L287.694 257.563C287.88 258.394 287.73 259.265 287.275 259.985C286.82 260.705 286.098 261.215 285.267 261.403L267.644 265.379C263.942 266.21 260.062 265.539 256.854 263.512C253.647 261.486 251.375 258.27 250.535 254.57V254.57Z" fill="white"/>
<path d="M261.602 233.04C262.181 232.371 262.961 231.908 263.826 231.72C264.69 231.531 265.593 231.627 266.398 231.994C267.203 232.422 267.848 233.099 268.235 233.925C268.622 234.75 268.731 235.679 268.545 236.571C268.233 238.634 267.155 240.512 267.057 242.625C266.969 243.55 267.131 244.482 267.525 245.323C267.919 246.165 268.532 246.886 269.299 247.411C270.473 248.124 271.682 246.358 270.502 245.641C268.56 244.461 269.213 241.868 269.776 240.099C270.479 237.89 271.212 235.639 270.342 233.363C269.957 232.41 269.339 231.57 268.545 230.917C267.751 230.265 266.805 229.822 265.796 229.63C264.787 229.437 263.745 229.501 262.766 229.815C261.788 230.129 260.903 230.683 260.194 231.427C259.268 232.426 260.663 234.052 261.602 233.04V233.04Z" fill="#989898"/>
<path d="M271.029 253.579C272.211 253.579 273.17 252.621 273.17 251.439C273.17 250.257 272.211 249.298 271.029 249.298C269.847 249.298 268.889 250.257 268.889 251.439C268.889 252.621 269.847 253.579 271.029 253.579Z" fill="#989898"/>
<path d="M61.7756 175.159C53.9276 161.656 50.1869 147.154 51.8871 131.328C51.6879 130.441 51.8489 129.511 52.3347 128.742C52.8205 127.973 53.5914 127.428 54.4783 127.227L87.5805 119.759C88.4678 119.56 89.3979 119.721 90.1667 120.207C90.9356 120.693 91.4803 121.463 91.6814 122.35L101.57 166.181C101.769 167.069 101.608 167.999 101.122 168.768C100.637 169.537 99.8657 170.081 98.9788 170.282L65.8767 177.75C64.9893 177.95 64.0592 177.789 63.2903 177.303C62.5215 176.817 61.9768 176.046 61.7756 175.159V175.159Z" fill="#E6E6E6"/>
<path d="M61.3279 161.348C56.3955 155.014 55.1964 144.621 54.9707 133.169C54.7841 132.338 54.9349 131.467 55.3898 130.747C55.8448 130.027 56.5668 129.517 57.3974 129.328L85.8459 122.91C86.677 122.724 87.5481 122.874 88.2682 123.329C88.9882 123.784 89.4984 124.506 89.6868 125.337L98.4863 164.34C98.6728 165.172 98.522 166.043 98.067 166.763C97.6121 167.483 96.8901 167.993 96.0594 168.181L78.4361 172.157C74.7343 172.988 70.8542 172.316 67.6469 170.29C64.4396 168.263 62.1671 165.047 61.3279 161.348V161.348Z" fill="white"/>
<path d="M76.1973 164.32C77.8541 164.32 79.1973 162.977 79.1973 161.32C79.1973 159.663 77.8541 158.32 76.1973 158.32C74.5404 158.32 73.1973 159.663 73.1973 161.32C73.1973 162.977 74.5404 164.32 76.1973 164.32Z" fill="#989898"/>
<path d="M79.7825 132.828C78.6278 131.474 76.5151 131.689 74.7671 132.022C72.951 132.286 71.1781 132.791 69.4953 133.523C68.6549 133.894 67.8963 134.428 67.2632 135.093C66.6301 135.759 66.135 136.543 65.8065 137.401C65.1083 139.542 65.8686 141.869 66.7806 143.928C68.5365 147.888 70.8672 151.568 73.6975 154.848L75.1276 155.511C77.3523 152.676 78.9876 149.426 79.937 145.95C80.8863 142.474 81.1307 138.843 80.6556 135.271C80.6013 134.391 80.2986 133.544 79.7825 132.828Z" fill="#989898"/>
</g>
<defs>
<clipPath id="clip0_9_283">
<rect width="736.078" height="461.657" fill="white" transform="translate(2 69)"/>
</clipPath>
</defs>
</svg>
