<svg width="740" height="600" viewBox="0 0 740 600" fill="none" xmlns="http://www.w3.org/2000/svg">
<path d="M603 147.936V451.064C603 472.018 583.962 489 560.472 489H179.528C156.038 489 137 472.018 137 451.064V147.936C137 126.982 156.038 110 179.528 110H560.472C583.962 110 603 126.982 603 147.936Z" fill="#F2F2F2"/>
<path d="M292.404 488L319.669 482.09L351.261 475.235C351.261 475.235 352.972 480.469 355.372 488H292.404Z" fill="#2F2E41"/>
<path d="M361.422 484.605C361.422 484.605 361.167 485.97 360.644 488H233.356C231.952 483.724 231.327 479.32 232.999 475.682C233.28 475.047 233.636 474.447 234.058 473.895C234.371 473.461 234.721 473.056 235.105 472.683C237.607 470.206 239.138 464.871 240.057 458.795C241.161 450.486 241.617 442.105 241.423 433.725C241.436 433.712 241.436 433.712 241.423 433.712C241.398 431.734 241.347 430.547 241.347 430.547C241.347 430.547 240.862 423.233 240.313 412.179C240.326 412.179 240.313 412.166 240.313 412.166C238.807 382.335 236.764 325.227 242.061 310.088C242.399 308.812 243.084 307.655 244.04 306.744C251.171 301.597 258.76 297.115 266.71 293.354C267.169 293.15 267.412 293.035 267.412 293.035L284.886 292.703L306.586 288.874L321.661 286.116C321.661 286.116 322.771 286.193 324.507 286.436C330.277 287.227 342.965 289.818 344.752 297.324C344.752 297.337 344.765 297.349 344.765 297.362C344.991 298.346 345.03 299.363 344.88 300.362C343.169 312.871 355.244 389.7 358.921 393.543C362.597 397.385 361.627 411.426 352.538 420.348C350.937 421.998 349.77 424.02 349.143 426.232C345.709 437.274 351.096 455.31 356.368 463.747C360.198 469.998 361.966 477.294 361.422 484.605Z" fill="#3F3D56"/>
<path d="M430.935 238.986L430.569 225.629L430.08 207.717L415.8 207.057L413.801 224.854L411.938 241.392L430.935 238.986Z" fill="#A0616A"/>
<path d="M284.67 295.543L304.703 317.042C304.703 317.042 389.584 330.751 390.152 323.553C390.72 316.354 385.129 314.269 394.294 314.909C403.459 315.549 405.662 322.06 407.059 315.833C408.455 309.605 400.771 309.452 409.668 308.57C418.566 307.687 438 230 438 230L407 235C407 235 400.975 272.562 397.196 277.362C393.418 282.162 389.627 285.607 387.296 285.815C384.965 286.022 284.67 295.543 284.67 295.543Z" fill="#3F3D56"/>
<path d="M296.158 267.748C312.412 267.748 325.588 254.572 325.588 238.318C325.588 222.065 312.412 208.889 296.158 208.889C279.905 208.889 266.729 222.065 266.729 238.318C266.729 254.572 279.905 267.748 296.158 267.748Z" fill="#A0616A"/>
<path d="M273.225 263.664L284.892 265.898C284.892 265.898 274.042 248.385 274.68 240.369C275.318 232.352 284.049 229.48 284.049 229.48C284.049 229.48 288.887 230.527 293.98 231.114C294.59 229.397 295.382 227.749 296.341 226.2C296.53 228.2 297.416 230.071 298.843 231.484C300.71 231.645 302.589 231.428 304.37 230.846C306.387 229.927 306.349 228.332 305.685 226.838C315.399 227.31 324.602 232.033 324.602 232.033C324.896 228.115 324.746 224.175 324.155 220.29C323.874 220.213 323.594 220.124 323.313 220.035C321.573 219.484 319.896 218.753 318.309 217.852C320.075 217.618 321.725 216.842 323.032 215.631C321.96 212.491 320.249 209.772 317.556 208.445C314.958 207.174 312.116 206.476 309.225 206.399C306.333 206.322 303.459 206.867 300.796 207.998C300.796 207.998 307.038 203.441 304.74 201.577C304.587 201.73 304.434 201.871 304.268 202.011C304.051 202.19 303.809 202.381 303.579 202.56C302.162 203.709 300.043 202.088 299.762 200.352C299.732 200.133 299.689 199.915 299.635 199.701C299.596 199.522 299.545 199.343 299.494 199.178C299.451 199.03 299.4 198.885 299.341 198.744C295.09 197.722 282.237 201.871 277.297 211.01C277.297 211.01 242.769 227.604 273.225 263.664Z" fill="#3F3D56"/>
<path d="M259.115 488H242.623L242.061 487.068L234.058 473.895L229.641 466.619L240.057 458.795L244.959 455.119L255.77 480.226L259.115 488Z" fill="#A0616A"/>
<path d="M266.715 293.354L307.868 388.437L324.512 286.436C322.776 286.193 321.666 286.117 321.666 286.117L314.582 272.356L274.003 274.463L267.417 293.035C267.417 293.035 267.174 293.15 266.715 293.354Z" fill="#989898"/>
<path d="M320.856 488H288.447L309.139 429.283L319.669 482.09L320.856 488Z" fill="#989898"/>
<path opacity="0.5" d="M517.903 307.816H424.744C409.974 307.816 398 319.789 398 334.56V368.24C398 383.01 409.974 394.984 424.744 394.984H517.903C532.674 394.984 544.648 383.01 544.648 368.24V334.56C544.648 319.789 532.674 307.816 517.903 307.816Z" fill="white"/>
<path d="M517.903 395.983H424.744C417.389 395.975 410.337 393.049 405.135 387.848C399.934 382.647 397.008 375.595 397 368.239V334.56C397.008 327.204 399.934 320.152 405.135 314.951C410.337 309.75 417.389 306.824 424.744 306.815H517.903C525.259 306.824 532.311 309.75 537.512 314.951C542.713 320.152 545.639 327.204 545.647 334.56V368.239C545.639 375.595 542.713 382.647 537.512 387.848C532.311 393.049 525.259 395.975 517.903 395.983V395.983ZM424.744 308.815C417.919 308.823 411.375 311.538 406.549 316.364C401.723 321.191 399.008 327.734 399 334.56V368.239C399.008 375.065 401.723 381.608 406.549 386.435C411.375 391.261 417.919 393.976 424.744 393.983H517.903C524.729 393.976 531.272 391.261 536.099 386.435C540.925 381.608 543.64 375.065 543.647 368.239V334.56C543.64 327.734 540.925 321.191 536.099 316.364C531.272 311.538 524.729 308.823 517.903 308.815L424.744 308.815Z" fill="white"/>
<path d="M471.204 376.095C483.001 376.095 492.564 366.532 492.564 354.735C492.564 342.939 483.001 333.376 471.204 333.376C459.407 333.376 449.844 342.939 449.844 354.735C449.844 366.532 459.407 376.095 471.204 376.095Z" fill="#A0616A"/>
<path d="M475.888 375.974C473.265 370.127 487.473 357.995 478.37 357.38C478.37 357.38 472.385 346.888 468.585 349.701C464.185 352.958 457.773 347.042 454.007 343.084C454.808 342.438 455.527 341.695 456.148 340.873C454.951 341.093 453.739 341.22 452.522 341.253C452.07 340.585 451.755 339.834 451.593 339.044C451.416 338.297 451.472 337.513 451.754 336.798C452.036 336.084 452.529 335.473 453.169 335.047C454.549 334.277 456.312 334.747 457.787 334.195C457.972 334.106 458.131 333.972 458.253 333.807C458.374 333.642 458.454 333.45 458.484 333.247C458.595 332.77 458.809 332.324 459.112 331.939C459.415 331.555 459.8 331.242 460.237 331.023C460.675 330.804 461.156 330.684 461.645 330.672C462.135 330.66 462.621 330.755 463.069 330.953C463.24 331.05 463.432 331.103 463.628 331.108C464.657 331.043 465.674 330.855 466.658 330.549C465.553 330.033 464.49 329.433 463.477 328.755C463.269 328.614 463.061 328.473 462.857 328.323C463.774 327.578 464.841 327.04 465.986 326.745C467.13 326.451 468.325 326.407 469.488 326.617C471.926 327.091 474.277 327.94 476.457 329.133C477.748 329.762 479.037 330.39 480.323 331.017C483.099 332.239 485.739 333.751 488.197 335.529C490.761 337.545 492.848 340.102 494.31 343.017C495.772 345.933 496.571 349.135 496.652 352.396C496.77 358.901 491.204 376.726 475.888 375.974Z" fill="#2F2E41"/>
<path opacity="0.5" d="M344.256 392.832H251.097C236.326 392.832 224.353 404.806 224.353 419.576V453.256C224.353 468.026 236.326 480 251.097 480H344.256C359.026 480 371 468.026 371 453.256V419.576C371 404.806 359.026 392.832 344.256 392.832Z" fill="white"/>
<path d="M344.256 481H251.097C243.741 480.992 236.689 478.066 231.488 472.865C226.287 467.664 223.361 460.612 223.353 453.256V419.576C223.361 412.221 226.287 405.169 231.488 399.967C236.689 394.766 243.741 391.84 251.097 391.832H344.256C351.612 391.84 358.664 394.766 363.865 399.967C369.066 405.169 371.992 412.221 372 419.576V453.256C371.992 460.612 369.066 467.664 363.865 472.865C358.663 478.066 351.612 480.992 344.256 481ZM251.097 393.832C244.271 393.84 237.728 396.555 232.901 401.381C228.075 406.207 225.36 412.751 225.353 419.576V453.256C225.36 460.081 228.075 466.625 232.901 471.451C237.728 476.278 244.271 478.992 251.097 479H344.256C351.081 478.992 357.625 476.278 362.451 471.451C367.277 466.625 369.992 460.081 370 453.256V419.576C369.992 412.751 367.277 406.207 362.451 401.381C357.625 396.555 351.081 393.84 344.256 393.832H251.097Z" fill="white"/>
<path d="M299.107 464.216C311.093 464.216 320.809 454.499 320.809 442.513C320.809 430.527 311.093 420.811 299.107 420.811C287.121 420.811 277.404 430.527 277.404 442.513C277.404 454.499 287.121 464.216 299.107 464.216Z" fill="#FFB6B6"/>
<path d="M284.969 448.089C284.699 447.998 284.413 447.967 284.13 447.996C283.846 448.025 283.573 448.115 283.327 448.259C283.082 448.404 282.87 448.599 282.706 448.832C282.542 449.065 282.431 449.33 282.378 449.61C282.307 450.185 282.353 450.768 282.515 451.325C282.677 451.881 282.951 452.398 283.319 452.845C284.06 453.732 284.724 454.681 285.304 455.681C285.587 456.187 285.72 456.763 285.687 457.342C285.653 457.921 285.455 458.478 285.116 458.948C284.746 459.308 284.282 459.555 283.777 459.662C283.272 459.768 282.747 459.729 282.264 459.55C281.301 459.173 280.449 458.558 279.79 457.762C275.641 453.261 271.313 445.788 273.434 440.045C273.61 439.431 273.68 438.792 273.641 438.154C273.681 437.424 273.817 436.323 273.128 436.074C271.208 435.381 276.597 424.154 284.915 421.712C284.509 417.879 304.52 412.365 303.428 417.177C303.232 418.041 305.164 417.572 306.049 417.62C312.838 417.987 320.506 419.693 319.888 427.562C319.648 430.61 320.909 429.907 321.921 432.791C320.344 433.731 319.827 435.792 318.612 434.416C317.396 433.041 316.358 431.318 314.616 430.741C312.761 430.125 310.748 431.046 309.166 432.193C307.584 433.34 306.132 434.766 304.272 435.367C302.186 436.041 299.912 435.572 297.737 435.845C294.634 436.377 291.832 438.023 289.856 440.474C287.909 442.911 286.265 445.576 284.961 448.41" fill="#2F2E41"/>
<path d="M272.765 306.508L243.407 307.784C243.407 307.784 200.008 381.819 205.113 386.924C210.219 392.03 215.435 389.132 208.998 395.687C202.561 402.242 196.178 399.689 200.008 404.795C203.837 409.901 208.943 404.155 203.837 411.495C198.731 418.836 240.216 488 240.216 488L258.086 479.065C258.086 479.065 240.696 433.369 239.499 427.379C238.301 421.389 238.143 416.269 239.499 414.361C240.854 412.453 272.765 306.508 272.765 306.508Z" fill="#3F3D56"/>
<path d="M423.117 329.776C426.918 329.776 430 326.695 430 322.893C430 319.092 426.918 316.01 423.117 316.01C419.316 316.01 416.234 319.092 416.234 322.893C416.234 326.695 419.316 329.776 423.117 329.776Z" fill="#989898"/>
<path d="M422.178 326.476C422.059 326.476 421.942 326.448 421.836 326.395C421.73 326.341 421.637 326.264 421.566 326.169L419.688 323.665C419.627 323.585 419.582 323.493 419.557 323.396C419.531 323.298 419.525 323.196 419.539 323.096C419.553 322.996 419.587 322.9 419.638 322.813C419.689 322.726 419.757 322.65 419.838 322.589C419.919 322.529 420.011 322.485 420.109 322.46C420.206 322.435 420.308 322.43 420.408 322.444C420.508 322.459 420.604 322.493 420.691 322.545C420.777 322.597 420.853 322.666 420.913 322.747L422.141 324.385L425.297 319.652C425.409 319.483 425.585 319.365 425.784 319.326C425.983 319.286 426.19 319.327 426.359 319.439C426.527 319.552 426.645 319.727 426.685 319.926C426.724 320.125 426.684 320.332 426.571 320.501L422.815 326.135C422.747 326.236 422.656 326.321 422.549 326.38C422.442 326.439 422.322 326.472 422.199 326.475L422.178 326.476Z" fill="white"/>
<path d="M255.117 415.776C258.918 415.776 262 412.695 262 408.893C262 405.092 258.918 402.01 255.117 402.01C251.316 402.01 248.234 405.092 248.234 408.893C248.234 412.695 251.316 415.776 255.117 415.776Z" fill="#989898"/>
<path d="M254.178 412.475C254.059 412.475 253.942 412.448 253.836 412.394C253.729 412.341 253.637 412.264 253.566 412.169L251.688 409.665C251.627 409.585 251.582 409.493 251.557 409.395C251.531 409.298 251.525 409.196 251.539 409.096C251.553 408.996 251.587 408.9 251.638 408.813C251.689 408.726 251.757 408.65 251.838 408.589C251.919 408.529 252.011 408.485 252.109 408.46C252.206 408.435 252.308 408.43 252.408 408.444C252.508 408.459 252.604 408.493 252.691 408.545C252.777 408.597 252.853 408.665 252.913 408.746L254.141 410.384L257.297 405.652C257.353 405.568 257.424 405.496 257.508 405.44C257.591 405.384 257.685 405.345 257.784 405.325C257.882 405.306 257.984 405.306 258.082 405.325C258.181 405.345 258.275 405.383 258.359 405.439C258.442 405.495 258.514 405.567 258.57 405.65C258.626 405.734 258.665 405.827 258.685 405.926C258.704 406.025 258.704 406.126 258.685 406.225C258.665 406.323 258.627 406.417 258.571 406.501L254.815 412.134C254.747 412.236 254.656 412.32 254.549 412.38C254.442 412.439 254.322 412.472 254.199 412.475L254.178 412.475Z" fill="white"/>
<path d="M522.117 333.451C520.773 333.451 519.459 333.052 518.341 332.305C517.224 331.559 516.353 330.497 515.839 329.256C515.324 328.014 515.19 326.647 515.452 325.329C515.714 324.011 516.361 322.8 517.312 321.85C518.262 320.899 519.473 320.252 520.791 319.99C522.109 319.728 523.476 319.862 524.717 320.377C525.959 320.891 527.021 321.762 527.767 322.88C528.514 323.997 528.913 325.311 528.912 326.655C528.912 328.457 528.197 330.186 526.922 331.46C525.648 332.735 523.919 333.451 522.117 333.451V333.451Z" fill="#E6E6E6"/>
<path d="M524.487 328.077L523.065 326.655L524.487 325.233C524.55 325.171 524.6 325.097 524.634 325.015C524.668 324.934 524.686 324.847 524.686 324.758C524.687 324.67 524.669 324.582 524.636 324.5C524.602 324.419 524.553 324.345 524.49 324.282C524.428 324.22 524.353 324.17 524.272 324.136C524.19 324.103 524.102 324.085 524.014 324.086C523.926 324.086 523.838 324.104 523.757 324.138C523.675 324.172 523.601 324.222 523.539 324.285L522.117 325.707L520.695 324.285C520.569 324.16 520.399 324.09 520.221 324.09C520.044 324.09 519.874 324.161 519.748 324.286C519.623 324.412 519.552 324.582 519.552 324.759C519.552 324.937 519.622 325.107 519.747 325.233L521.169 326.655L519.747 328.077C519.684 328.139 519.634 328.213 519.6 328.295C519.566 328.376 519.548 328.463 519.548 328.552C519.548 328.64 519.565 328.728 519.598 328.809C519.632 328.891 519.682 328.965 519.744 329.028C519.807 329.09 519.881 329.14 519.963 329.174C520.044 329.207 520.132 329.225 520.22 329.224C520.309 329.224 520.396 329.206 520.478 329.172C520.559 329.138 520.633 329.088 520.695 329.025L522.117 327.603L523.539 329.025C523.601 329.088 523.675 329.137 523.757 329.171C523.838 329.205 523.925 329.223 524.014 329.223C524.102 329.223 524.189 329.206 524.271 329.172C524.352 329.138 524.426 329.089 524.488 329.026C524.551 328.964 524.6 328.89 524.634 328.808C524.668 328.727 524.685 328.64 524.685 328.551C524.685 328.463 524.667 328.376 524.633 328.294C524.599 328.213 524.55 328.139 524.487 328.077V328.077Z" fill="white"/>
<path d="M346.117 415.451C344.773 415.451 343.459 415.052 342.341 414.305C341.224 413.559 340.353 412.497 339.839 411.256C339.324 410.014 339.19 408.647 339.452 407.329C339.714 406.011 340.361 404.8 341.312 403.85C342.262 402.899 343.473 402.252 344.791 401.99C346.109 401.728 347.476 401.862 348.717 402.377C349.959 402.891 351.021 403.762 351.767 404.88C352.514 405.997 352.913 407.311 352.912 408.655C352.912 410.457 352.197 412.186 350.922 413.46C349.648 414.735 347.919 415.451 346.117 415.451V415.451Z" fill="#E6E6E6"/>
<path d="M348.487 410.077L347.065 408.655L348.487 407.233C348.612 407.107 348.681 406.937 348.681 406.76C348.68 406.583 348.609 406.413 348.484 406.288C348.359 406.163 348.189 406.092 348.012 406.091C347.835 406.091 347.665 406.16 347.539 406.285L346.117 407.707L344.695 406.285C344.569 406.16 344.399 406.09 344.221 406.09C344.044 406.09 343.874 406.161 343.748 406.286C343.623 406.412 343.552 406.582 343.552 406.759C343.552 406.937 343.622 407.107 343.747 407.233L345.169 408.655L343.747 410.077C343.684 410.139 343.634 410.213 343.6 410.294C343.566 410.376 343.548 410.463 343.548 410.552C343.548 410.64 343.565 410.728 343.598 410.809C343.632 410.891 343.682 410.965 343.744 411.028C343.807 411.09 343.881 411.14 343.963 411.173C344.044 411.207 344.132 411.224 344.22 411.224C344.309 411.224 344.396 411.206 344.478 411.172C344.559 411.138 344.633 411.088 344.695 411.025L346.117 409.603L347.539 411.025C347.665 411.15 347.835 411.22 348.013 411.22C348.19 411.22 348.36 411.149 348.486 411.023C348.611 410.898 348.682 410.728 348.682 410.55C348.682 410.373 348.612 410.203 348.487 410.077Z" fill="white"/>
<path d="M423 213C429.627 213 435 207.627 435 201C435 194.373 429.627 189 423 189C416.373 189 411 194.373 411 201C411 207.627 416.373 213 423 213Z" fill="#A0616A"/>
<path opacity="0.5" d="M517.58 197.799H424.42C409.65 197.799 397.676 209.773 397.676 224.543V258.223C397.676 272.994 409.65 284.967 424.42 284.967H517.58C532.35 284.967 544.324 272.994 544.324 258.223V224.543C544.324 209.773 532.35 197.799 517.58 197.799Z" fill="white"/>
<path d="M517.58 285.968H424.42C417.064 285.959 410.012 283.034 404.811 277.832C399.61 272.631 396.684 265.579 396.676 258.224V224.543C396.684 217.188 399.61 210.136 404.811 204.935C410.012 199.733 417.064 196.808 424.42 196.799H517.58C524.936 196.808 531.988 199.733 537.189 204.935C542.39 210.136 545.316 217.188 545.324 224.543V258.224C545.316 265.579 542.39 272.631 537.189 277.832C531.988 283.034 524.936 285.959 517.58 285.968V285.968ZM424.42 198.799C417.595 198.807 411.051 201.522 406.225 206.348C401.398 211.174 398.684 217.718 398.676 224.543V258.224C398.684 265.049 401.398 271.593 406.225 276.419C411.051 281.245 417.595 283.96 424.42 283.968H517.58C524.405 283.96 530.949 281.245 535.775 276.419C540.602 271.593 543.316 265.049 543.324 258.224V224.543C543.316 217.718 540.602 211.174 535.775 206.348C530.949 201.522 524.405 198.807 517.58 198.799H424.42Z" fill="white"/>
<path d="M498.834 243.886C498.895 249.483 500.677 261.136 499.4 266.618L499.193 266.16C498.132 267.001 497.004 267.755 495.821 268.415C494.968 266.34 493.692 264.465 492.075 262.91C492.288 265.483 491.983 268.072 491.18 270.526C486.401 272.246 478.013 266.825 472.813 266.71C464.448 266.519 456.297 264.439 448.307 262.237C445.47 261.457 442.351 260.44 441.066 258.085C439.782 255.73 442.08 253.188 441.93 250.53C440.858 231.601 449.875 228.429 458.454 223.371C460.342 222.258 461.268 219.861 463.401 218.928C466.36 217.636 469.885 218.255 473.104 218.905C472.305 218.642 471.586 218.177 471.019 217.556C470.451 216.934 470.052 216.177 469.862 215.357C469.728 214.554 469.818 213.729 470.123 212.973C470.428 212.217 470.936 211.561 471.59 211.075C472.566 210.437 473.671 210.02 474.825 209.855C475.98 209.69 477.157 209.78 478.273 210.12C480.46 210.803 482.528 211.82 484.405 213.132C485.68 213.832 486.82 214.754 487.77 215.854C488.217 216.375 488.495 217.021 488.566 217.704C488.637 218.387 488.498 219.076 488.167 219.678C487.759 220.194 487.24 220.611 486.648 220.898C486.056 221.185 485.407 221.335 484.749 221.337C483.736 221.366 482.723 221.261 481.737 221.023C486.256 222.138 490.328 224.602 493.413 228.089C497.243 232.546 498.765 238.289 498.834 243.886Z" fill="#2F2E41"/>
<path d="M468.826 262.11C479.065 262.11 487.364 253.81 487.364 243.572C487.364 233.334 479.065 225.034 468.826 225.034C458.588 225.034 450.289 233.334 450.289 243.572C450.289 253.81 458.588 262.11 468.826 262.11Z" fill="#FFB6B6"/>
<path d="M489.054 240.774C486.875 243.412 483.633 243.274 480.75 242.854C479.84 242.724 478.93 242.578 478.021 242.41C477.86 241.898 477.676 241.385 477.47 240.888C476.617 238.813 475.341 236.938 473.723 235.383C473.894 237.416 473.736 239.464 473.257 241.447C471.567 241.057 469.885 240.621 468.21 240.139C466.729 239.898 465.396 239.097 464.488 237.902C463.58 236.707 463.166 235.208 463.332 233.716C460.923 235.551 458.301 237.142 455.548 237.172C453.996 237.132 452.498 236.596 451.274 235.642C450.049 234.689 449.162 233.368 448.743 231.873C448.104 229.453 447.992 226.924 448.414 224.457C448.781 221.513 449.607 218.278 451.595 217.093C453.193 216.13 455.036 216.818 456.68 217.598C460.301 219.336 463.735 221.442 466.926 223.883L466.964 224.686C467.79 220.733 470.519 217.682 473.494 217.376C475.497 217.177 477.455 218.102 479.343 219.035C481.812 220.124 484.107 221.569 486.156 223.325C488.471 225.43 490.079 228.2 490.759 231.254C491.47 234.565 490.935 238.495 489.054 240.774Z" fill="#2F2E41"/>
<path d="M470.704 215.047C470.894 215.063 470.427 214.956 470.579 215.02C470.504 214.985 470.433 214.946 470.365 214.9C470.353 214.892 470.203 214.771 470.301 214.855C470.074 214.679 469.904 214.441 469.809 214.169C469.599 213.509 469.501 212.819 469.519 212.127C469.557 211.217 469.402 210.309 469.064 209.464C468.964 209.235 468.811 209.032 468.618 208.874C468.425 208.715 468.198 208.603 467.954 208.549C467.71 208.495 467.456 208.499 467.214 208.56C466.972 208.622 466.748 208.74 466.56 208.905C466.032 209.617 465.776 210.495 465.84 211.38C465.793 212.236 465.883 213.094 466.109 213.921C466.497 215.28 467.272 216.498 468.34 217.425C469.573 218.505 471.122 219.159 472.756 219.289C472.981 219.284 473.199 219.214 473.384 219.087C473.57 218.96 473.714 218.782 473.8 218.575C473.886 218.367 473.91 218.139 473.869 217.918C473.827 217.698 473.722 217.494 473.567 217.331L471.515 215.383C471.299 215.17 471.008 215.051 470.705 215.052C470.402 215.053 470.112 215.174 469.898 215.388C469.684 215.602 469.563 215.892 469.562 216.195C469.561 216.498 469.68 216.789 469.893 217.005L471.945 218.953L472.756 216.995C472.418 216.965 472.083 216.896 471.76 216.792C471.409 216.694 471.074 216.547 470.764 216.355C470.461 216.189 470.177 215.991 469.917 215.763C469.75 215.617 469.591 215.462 469.44 215.299C469.386 215.24 469.332 215.18 469.28 215.119C469.283 215.124 469.064 214.848 469.158 214.974C468.921 214.649 468.714 214.304 468.541 213.941C468.48 213.812 468.43 213.679 468.391 213.542C468.318 213.317 468.259 213.088 468.213 212.856C468.125 212.369 468.099 211.873 468.134 211.38C468.144 211.17 468.165 210.962 468.197 210.754C468.226 210.645 468.247 210.534 468.261 210.422C468.265 210.143 468.223 210.571 468.078 210.635L467.499 210.792C467.405 210.784 467.313 210.756 467.232 210.708C467.15 210.66 467.08 210.594 467.027 210.516C467.003 210.42 467.01 210.437 467.048 210.567C467.091 210.719 467.125 210.874 467.149 211.03C467.193 211.394 467.218 211.76 467.225 212.126C467.233 212.903 467.323 213.676 467.495 214.433C467.655 215.194 468.052 215.885 468.628 216.407C469.205 216.929 469.931 217.256 470.704 217.341C471.007 217.338 471.298 217.217 471.512 217.002C471.727 216.788 471.849 216.497 471.851 216.194C471.845 215.891 471.722 215.603 471.508 215.389C471.294 215.176 471.006 215.053 470.704 215.047V215.047Z" fill="#2F2E41"/>
<path d="M425.117 219.776C428.918 219.776 432 216.695 432 212.893C432 209.092 428.918 206.01 425.117 206.01C421.316 206.01 418.234 209.092 418.234 212.893C418.234 216.695 421.316 219.776 425.117 219.776Z" fill="#989898"/>
<path d="M424.178 216.476C424.059 216.476 423.942 216.448 423.836 216.395C423.73 216.341 423.637 216.264 423.566 216.169L421.688 213.665C421.627 213.585 421.582 213.493 421.557 213.396C421.531 213.298 421.525 213.196 421.539 213.096C421.553 212.996 421.587 212.9 421.638 212.813C421.689 212.726 421.757 212.65 421.838 212.589C421.919 212.529 422.011 212.485 422.109 212.46C422.206 212.435 422.308 212.43 422.408 212.444C422.508 212.459 422.604 212.493 422.691 212.545C422.777 212.597 422.853 212.666 422.913 212.747L424.141 214.385L427.297 209.652C427.409 209.483 427.585 209.365 427.784 209.326C427.983 209.286 428.19 209.327 428.359 209.439C428.527 209.552 428.645 209.727 428.685 209.926C428.724 210.125 428.684 210.332 428.571 210.501L424.815 216.135C424.747 216.236 424.656 216.321 424.549 216.38C424.442 216.439 424.322 216.472 424.199 216.475L424.178 216.476Z" fill="white"/>
<path d="M519.117 220.451C517.773 220.451 516.459 220.052 515.341 219.305C514.224 218.559 513.353 217.497 512.839 216.256C512.324 215.014 512.19 213.647 512.452 212.329C512.714 211.011 513.361 209.8 514.312 208.85C515.262 207.899 516.473 207.252 517.791 206.99C519.109 206.728 520.476 206.862 521.717 207.377C522.959 207.891 524.021 208.762 524.767 209.88C525.514 210.997 525.913 212.311 525.912 213.655C525.912 215.457 525.197 217.186 523.922 218.46C522.648 219.735 520.919 220.451 519.117 220.451Z" fill="#E6E6E6"/>
<path d="M521.487 215.077L520.065 213.655L521.487 212.233C521.55 212.171 521.6 212.097 521.634 212.015C521.668 211.934 521.686 211.847 521.686 211.758C521.687 211.67 521.669 211.582 521.636 211.5C521.602 211.419 521.553 211.345 521.49 211.282C521.428 211.22 521.353 211.17 521.272 211.136C521.19 211.103 521.102 211.085 521.014 211.086C520.926 211.086 520.838 211.104 520.757 211.138C520.675 211.172 520.601 211.222 520.539 211.285L519.117 212.707L517.695 211.285C517.569 211.16 517.399 211.09 517.221 211.09C517.044 211.09 516.874 211.161 516.748 211.286C516.623 211.412 516.552 211.582 516.552 211.759C516.552 211.937 516.622 212.107 516.747 212.233L518.169 213.655L516.747 215.077C516.684 215.139 516.634 215.213 516.6 215.295C516.566 215.376 516.548 215.463 516.548 215.552C516.548 215.64 516.565 215.728 516.598 215.809C516.632 215.891 516.682 215.965 516.744 216.028C516.807 216.09 516.881 216.14 516.963 216.174C517.044 216.207 517.132 216.225 517.22 216.224C517.309 216.224 517.396 216.206 517.478 216.172C517.559 216.138 517.633 216.088 517.695 216.025L519.117 214.603L520.539 216.025C520.601 216.088 520.675 216.137 520.757 216.171C520.838 216.205 520.925 216.223 521.014 216.223C521.102 216.223 521.189 216.206 521.271 216.172C521.352 216.138 521.426 216.089 521.488 216.026C521.551 215.964 521.6 215.89 521.634 215.808C521.668 215.727 521.685 215.64 521.685 215.551C521.685 215.463 521.667 215.376 521.633 215.294C521.599 215.213 521.55 215.139 521.487 215.077V215.077Z" fill="white"/>
<path d="M565.365 156H163.635C163.37 156 163.115 155.895 162.928 155.707C162.74 155.52 162.635 155.265 162.635 155C162.635 154.735 162.74 154.48 162.928 154.293C163.115 154.105 163.37 154 163.635 154H565.365C565.63 154 565.885 154.105 566.072 154.293C566.26 154.48 566.365 154.735 566.365 155C566.365 155.265 566.26 155.52 566.072 155.707C565.885 155.895 565.63 156 565.365 156Z" fill="white"/>
<path d="M208.654 140C212.922 140 216.382 136.463 216.382 132.1C216.382 127.737 212.922 124.2 208.654 124.2C204.386 124.2 200.926 127.737 200.926 132.1C200.926 136.463 204.386 140 208.654 140Z" fill="white"/>
<path d="M235.351 140C239.619 140 243.079 136.463 243.079 132.1C243.079 127.737 239.619 124.2 235.351 124.2C231.083 124.2 227.623 127.737 227.623 132.1C227.623 136.463 231.083 140 235.351 140Z" fill="white"/>
<path d="M262.047 140C266.315 140 269.775 136.463 269.775 132.1C269.775 127.737 266.315 124.2 262.047 124.2C257.779 124.2 254.319 127.737 254.319 132.1C254.319 136.463 257.779 140 262.047 140Z" fill="white"/>
<path d="M292.489 138.344C292.367 138.344 292.246 138.32 292.134 138.273C292.022 138.225 291.92 138.156 291.835 138.069L286.621 132.739C286.454 132.568 286.36 132.339 286.36 132.1C286.36 131.861 286.454 131.631 286.621 131.461L291.835 126.131C291.919 126.045 292.019 125.977 292.13 125.929C292.24 125.882 292.359 125.857 292.479 125.856C292.599 125.855 292.718 125.877 292.829 125.922C292.94 125.966 293.042 126.033 293.128 126.117C293.213 126.2 293.282 126.3 293.329 126.411C293.376 126.521 293.401 126.64 293.402 126.76C293.404 126.88 293.381 126.999 293.337 127.11C293.292 127.221 293.226 127.323 293.142 127.409L288.553 132.1L293.142 136.791C293.268 136.92 293.353 137.083 293.386 137.259C293.42 137.436 293.401 137.619 293.331 137.784C293.261 137.95 293.144 138.092 292.994 138.191C292.844 138.291 292.669 138.344 292.489 138.344V138.344Z" fill="white"/>
<path d="M301.251 138.344C301.071 138.344 300.895 138.291 300.745 138.191C300.595 138.092 300.478 137.95 300.408 137.784C300.339 137.619 300.319 137.436 300.353 137.259C300.387 137.083 300.472 136.92 300.597 136.791L305.186 132.1L300.597 127.409C300.428 127.235 300.334 127.002 300.337 126.76C300.34 126.517 300.438 126.286 300.612 126.117C300.785 125.947 301.018 125.853 301.261 125.856C301.503 125.859 301.734 125.958 301.904 126.131L307.118 131.461C307.285 131.631 307.379 131.861 307.379 132.1C307.379 132.339 307.285 132.568 307.118 132.739L301.904 138.069C301.819 138.156 301.717 138.225 301.605 138.273C301.493 138.32 301.372 138.344 301.251 138.344V138.344Z" fill="white"/>
<path d="M503.674 125.114H493.978C493.715 125.114 493.455 125.166 493.212 125.266C492.97 125.367 492.749 125.514 492.563 125.7C492.377 125.886 492.23 126.107 492.129 126.35C492.029 126.592 491.977 126.853 491.977 127.116V136.82C491.977 137.083 492.029 137.344 492.129 137.586C492.23 137.829 492.377 138.05 492.563 138.236C492.749 138.422 492.97 138.569 493.212 138.67C493.455 138.77 493.715 138.822 493.978 138.822H503.674C504.206 138.822 504.716 138.612 505.093 138.237C505.47 137.862 505.683 137.352 505.685 136.82V127.116C505.683 126.584 505.47 126.074 505.093 125.699C504.716 125.324 504.206 125.114 503.674 125.114V125.114Z" fill="white"/>
<path d="M479.914 125.114H470.219C469.956 125.114 469.695 125.166 469.453 125.266C469.21 125.367 468.989 125.514 468.803 125.7C468.617 125.886 468.47 126.107 468.369 126.35C468.269 126.592 468.217 126.853 468.217 127.116V136.82C468.217 137.083 468.269 137.344 468.369 137.586C468.47 137.829 468.617 138.05 468.803 138.236C468.989 138.422 469.21 138.569 469.453 138.67C469.695 138.77 469.956 138.822 470.219 138.822H479.914C480.446 138.822 480.956 138.612 481.333 138.237C481.71 137.862 481.923 137.352 481.925 136.82V127.116C481.923 126.584 481.71 126.074 481.333 125.699C480.956 125.324 480.446 125.114 479.914 125.114V125.114Z" fill="white"/>
<path d="M526.063 125.571H516.368C516.105 125.571 515.844 125.623 515.602 125.723C515.359 125.824 515.138 125.971 514.952 126.157C514.766 126.343 514.619 126.564 514.518 126.807C514.418 127.049 514.366 127.31 514.366 127.573V137.278C514.366 137.54 514.418 137.801 514.518 138.043C514.619 138.286 514.766 138.507 514.952 138.693C515.138 138.879 515.359 139.026 515.602 139.127C515.844 139.227 516.105 139.279 516.368 139.279H526.063C526.595 139.279 527.105 139.069 527.482 138.694C527.859 138.319 528.072 137.809 528.074 137.278V127.573C528.072 127.041 527.859 126.532 527.482 126.156C527.105 125.781 526.595 125.571 526.063 125.571V125.571Z" fill="white"/>
<path d="M420.13 129.263H342.628C342.306 129.261 341.987 129.323 341.689 129.444C341.391 129.566 341.12 129.746 340.892 129.972C340.664 130.199 340.483 130.469 340.359 130.766C340.235 131.063 340.172 131.381 340.172 131.703C340.172 132.025 340.235 132.343 340.359 132.641C340.483 132.938 340.664 133.207 340.892 133.434C341.12 133.661 341.391 133.84 341.689 133.962C341.987 134.084 342.306 134.145 342.628 134.143H420.13C420.774 134.139 421.391 133.88 421.845 133.423C422.299 132.966 422.554 132.348 422.554 131.703C422.554 131.059 422.299 130.44 421.845 129.983C421.391 129.526 420.774 129.267 420.13 129.263Z" fill="white"/>
</svg>
