<svg width="740" height="600" viewBox="0 0 740 600" fill="none" xmlns="http://www.w3.org/2000/svg">
<g clip-path="url(#clip0_9_280)">
<path d="M175 574.336C175 574.492 175.03 574.647 175.089 574.791C175.148 574.935 175.235 575.066 175.345 575.176C175.455 575.287 175.585 575.375 175.729 575.435C175.873 575.495 176.027 575.526 176.183 575.526H563.48C563.796 575.526 564.098 575.401 564.321 575.178C564.545 574.955 564.67 574.652 564.67 574.336C564.67 574.021 564.545 573.718 564.321 573.495C564.098 573.272 563.796 573.146 563.48 573.146H176.19C176.034 573.146 175.88 573.176 175.736 573.235C175.592 573.295 175.46 573.382 175.35 573.492C175.239 573.601 175.152 573.732 175.092 573.876C175.032 574.019 175 574.174 175 574.329V574.336Z" fill="#CCCCCC"/>
<path opacity="0.5" d="M329.772 411.357C333.991 410.503 338.313 410.268 342.6 410.66C342.997 410.657 343.376 410.498 343.657 410.218C343.938 409.937 344.097 409.557 344.1 409.16C344.092 408.765 343.931 408.388 343.651 408.109C343.372 407.829 342.995 407.668 342.6 407.66C338.043 407.265 333.453 407.536 328.975 408.464C328.591 408.57 328.266 408.824 328.07 409.17C327.873 409.516 327.823 409.925 327.928 410.309C328.034 410.692 328.288 411.018 328.633 411.214C328.979 411.411 329.389 411.462 329.772 411.357H329.772Z" fill="#CCCCCC"/>
<path d="M226.796 385.264C218.548 374.292 213.78 362.022 213.624 348.034C213.358 347.281 213.402 346.452 213.746 345.731C214.091 345.009 214.707 344.454 215.46 344.187L243.576 334.238C244.33 333.973 245.159 334.017 245.88 334.361C246.601 334.705 247.157 335.322 247.424 336.075L260.597 373.304C260.863 374.058 260.818 374.886 260.474 375.608C260.13 376.329 259.514 376.884 258.76 377.152L230.644 387.1C229.89 387.366 229.062 387.322 228.34 386.977C227.619 386.633 227.064 386.017 226.796 385.264V385.264Z" fill="#F2F2F2"/>
<path opacity="0.2" d="M233.144 384.6C232.39 384.866 231.562 384.822 230.84 384.477C230.119 384.133 229.564 383.517 229.296 382.764C221.047 371.792 216.28 359.522 216.124 345.534C215.952 345.039 215.914 344.506 216.013 343.991L215.46 344.187C214.707 344.454 214.091 345.01 213.746 345.731C213.402 346.452 213.358 347.281 213.624 348.034C213.78 362.022 218.547 374.292 226.796 385.264C227.064 386.017 227.619 386.633 228.34 386.977C229.062 387.322 229.89 387.366 230.644 387.1L258.76 377.152C259.259 376.973 259.702 376.666 260.044 376.262C260.386 375.857 260.614 375.369 260.707 374.848L233.144 384.6Z" fill="black"/>
<path d="M246.316 356.735L227.494 363.453C227.194 363.56 226.864 363.544 226.577 363.408C226.289 363.272 226.068 363.027 225.961 362.727C225.854 362.428 225.871 362.098 226.007 361.811C226.143 361.523 226.388 361.302 226.687 361.195L245.51 354.476C245.809 354.37 246.138 354.387 246.425 354.523C246.712 354.66 246.933 354.904 247.04 355.203C247.146 355.502 247.13 355.831 246.995 356.119C246.859 356.406 246.615 356.627 246.316 356.735H246.316Z" fill="white"/>
<path d="M229.424 355.782L225.283 357.26C225.135 357.314 224.977 357.338 224.82 357.33C224.662 357.323 224.508 357.285 224.365 357.218C224.222 357.151 224.094 357.057 223.988 356.94C223.882 356.824 223.8 356.687 223.746 356.539C223.693 356.391 223.669 356.233 223.677 356.076C223.684 355.919 223.723 355.764 223.79 355.622C223.857 355.479 223.951 355.351 224.068 355.245C224.185 355.139 224.321 355.057 224.469 355.004L224.476 355.001L228.617 353.523C228.917 353.417 229.246 353.435 229.532 353.571C229.819 353.707 230.04 353.952 230.146 354.251C230.253 354.55 230.237 354.879 230.102 355.166C229.966 355.453 229.722 355.674 229.424 355.782V355.782Z" fill="white"/>
<path d="M249.861 366.665L231.038 373.384C230.739 373.489 230.41 373.472 230.123 373.336C229.837 373.199 229.616 372.955 229.509 372.656C229.402 372.357 229.418 372.028 229.554 371.741C229.689 371.454 229.933 371.232 230.232 371.125L249.055 364.406C249.354 364.299 249.683 364.314 249.971 364.45C250.258 364.585 250.48 364.829 250.588 365.128C250.696 365.427 250.68 365.756 250.545 366.044C250.41 366.332 250.167 366.554 249.868 366.662L249.861 366.665Z" fill="white"/>
<path d="M248.089 361.7L229.266 368.419C228.966 368.526 228.637 368.51 228.349 368.374C228.061 368.238 227.84 367.994 227.732 367.694C227.625 367.395 227.641 367.065 227.777 366.777C227.913 366.49 228.157 366.268 228.457 366.161L228.459 366.16L247.282 359.441C247.582 359.335 247.911 359.352 248.197 359.488C248.484 359.625 248.705 359.869 248.812 360.168C248.919 360.467 248.902 360.797 248.767 361.084C248.631 361.371 248.387 361.592 248.088 361.7H248.089Z" fill="white"/>
<path d="M228.77 344.572C231.531 344.572 233.77 342.333 233.77 339.572C233.77 336.81 231.531 334.572 228.77 334.572C226.008 334.572 223.77 336.81 223.77 339.572C223.77 342.333 226.008 344.572 228.77 344.572Z" fill="#CCCCCC"/>
<path d="M411.77 123.612C411.85 130.932 414.18 146.172 412.51 153.342L412.24 152.742C410.851 153.842 409.377 154.829 407.83 155.692C406.714 152.977 405.045 150.525 402.93 148.492C403.208 151.856 402.81 155.243 401.76 158.452C395.51 160.702 384.54 153.612 377.74 153.462C366.8 153.212 356.14 150.492 345.69 147.612C341.98 146.592 337.9 145.262 336.22 142.182C334.54 139.102 337.546 135.777 337.35 132.302C335.948 107.546 347.74 103.396 358.96 96.7816C361.429 95.3259 362.64 92.1916 365.43 90.9716C369.3 89.2816 373.91 90.0916 378.12 90.9416C377.074 90.5971 376.135 89.9893 375.392 89.1767C374.65 88.364 374.129 87.3739 373.88 86.3016C373.704 85.2506 373.822 84.1715 374.221 83.1833C374.62 82.1952 375.284 81.3364 376.14 80.7016C378.46 78.9116 381.92 78.6916 384.88 79.4516C387.739 80.3459 390.444 81.6748 392.9 83.3916C394.567 84.3061 396.057 85.5118 397.3 86.9516C397.885 87.633 398.248 88.4768 398.341 89.3703C398.434 90.2638 398.252 91.1644 397.82 91.9516C397.286 92.6264 396.607 93.1721 395.833 93.5478C395.059 93.9235 394.21 94.1197 393.35 94.1216C392.024 94.1602 390.699 94.0223 389.41 93.7116C395.32 95.1695 400.646 98.3924 404.68 102.952C409.69 108.782 411.68 116.292 411.77 123.612Z" fill="#2F2E41"/>
<path d="M236.97 194.156C237.987 196.314 239.806 197.991 242.04 198.828C244.274 199.666 246.746 199.599 248.931 198.641C249.372 198.44 249.796 198.202 250.198 197.93L275.947 216.848L290.143 207.16L252.069 185.058C250.814 183.479 249.071 182.36 247.113 181.875C245.155 181.39 243.092 181.567 241.245 182.379C240.199 182.85 239.255 183.523 238.469 184.36C237.683 185.196 237.069 186.179 236.663 187.252C236.256 188.326 236.065 189.469 236.101 190.616C236.136 191.763 236.397 192.892 236.869 193.939V193.939C236.901 194.012 236.935 194.084 236.97 194.156Z" fill="#FFB6B6"/>
<path d="M502.36 176.988C499.992 177.283 497.833 178.49 496.342 180.352C494.851 182.215 494.146 184.586 494.376 186.96C494.431 187.442 494.525 187.919 494.658 188.385L468.668 206.971L473.46 223.477L506.309 194.167C508.2 193.466 509.806 192.158 510.876 190.448C511.946 188.738 512.42 186.722 512.223 184.714C512.1 183.573 511.754 182.467 511.204 181.46C510.654 180.452 509.911 179.563 509.017 178.843C508.123 178.123 507.096 177.586 505.995 177.263C504.893 176.939 503.739 176.836 502.598 176.959C502.518 176.967 502.439 176.977 502.36 176.988Z" fill="#FFB6B6"/>
<path d="M313.897 557.902L305.527 557.831L301.823 524.797L314.175 524.901L313.897 557.902Z" fill="#FFB6B6"/>
<path d="M287.089 571.21C287.081 572.203 287.468 573.157 288.163 573.865C288.859 574.572 289.806 574.975 290.799 574.985L307.439 575.124L310.352 569.219L311.422 575.154L317.7 575.211L316.115 554.043L313.93 553.898L305.02 553.284L302.146 553.091L302.095 559.08L288.728 568.147C288.228 568.487 287.817 568.943 287.531 569.477C287.246 570.01 287.094 570.605 287.089 571.21Z" fill="#2F2E41"/>
<path d="M424.221 520.825L417.388 525.657L395.08 501.013L405.165 493.88L424.221 520.825Z" fill="#FFB6B6"/>
<path d="M410.241 547.288C410.815 548.098 411.686 548.647 412.664 548.815C413.642 548.983 414.646 548.756 415.457 548.184L429.043 538.574L427.957 532.08L432.293 536.272L437.421 532.649L423.767 516.397L421.909 517.555L414.319 522.263L411.874 523.786L415.333 528.676L409.782 543.844C409.574 544.413 409.507 545.023 409.587 545.623C409.667 546.223 409.892 546.794 410.241 547.288V547.288Z" fill="#2F2E41"/>
<path d="M320.174 290.074L344.485 233.619H400.481L384.33 292.537L320.174 290.074Z" fill="#FFB6B6"/>
<path d="M268.772 558.155C268.307 558.176 267.847 558.054 267.454 557.805C267.061 557.557 266.753 557.193 266.574 556.764C266.394 556.334 266.351 555.86 266.45 555.405C266.549 554.951 266.785 554.538 267.127 554.222L267.283 553.604C267.262 553.554 267.242 553.505 267.221 553.455C266.753 552.349 265.968 551.406 264.965 550.745C263.963 550.083 262.787 549.732 261.586 549.737C260.385 549.741 259.212 550.101 258.215 550.77C257.217 551.439 256.439 552.387 255.979 553.497C254.141 557.925 251.8 562.361 251.224 567.043C250.97 569.112 251.077 571.21 251.54 573.243C247.222 563.823 244.979 553.585 244.965 543.223C244.964 540.622 245.109 538.024 245.398 535.44C245.637 533.321 245.968 531.218 246.392 529.129C248.707 517.798 253.676 507.177 260.893 498.14C264.385 496.234 267.21 493.303 268.986 489.743C269.629 488.463 270.084 487.097 270.335 485.687C269.941 485.739 268.85 479.738 269.147 479.37C268.598 478.537 267.615 478.123 267.016 477.31C264.033 473.266 259.924 473.972 257.779 479.467C253.197 481.78 253.153 485.615 255.964 489.304C257.753 491.651 257.999 494.826 259.569 497.339C259.407 497.545 259.239 497.746 259.078 497.952C256.126 501.748 253.553 505.823 251.397 510.121C251.921 505.307 251.295 500.436 249.57 495.911C247.822 491.694 244.545 488.142 241.66 484.496C240.897 483.517 239.86 482.786 238.682 482.395C237.503 482.005 236.235 481.972 235.038 482.302C233.841 482.632 232.769 483.31 231.957 484.249C231.145 485.188 230.629 486.347 230.476 487.58C230.47 487.633 230.464 487.687 230.458 487.741C230.887 487.983 231.307 488.239 231.717 488.511C232.233 488.855 232.632 489.348 232.864 489.923C233.095 490.499 233.147 491.13 233.012 491.736C232.878 492.341 232.564 492.892 232.112 493.316C231.659 493.74 231.089 494.018 230.476 494.112L230.413 494.122C230.566 495.667 230.836 497.198 231.221 498.701C227.519 513.017 235.511 518.231 246.922 518.466C247.174 518.595 247.419 518.724 247.671 518.847C245.505 524.987 244.145 531.383 243.628 537.874C243.335 541.704 243.352 545.551 243.68 549.378L243.66 549.242C242.834 544.987 240.564 541.147 237.234 538.372C232.288 534.309 225.301 532.813 219.966 529.548C219.398 529.183 218.739 528.989 218.065 528.987C217.392 528.986 216.731 529.177 216.162 529.538C215.594 529.899 215.14 530.416 214.855 531.027C214.57 531.637 214.466 532.317 214.554 532.985L214.576 533.127C215.371 533.451 216.146 533.824 216.895 534.245C217.323 534.486 217.743 534.743 218.153 535.014C218.669 535.359 219.069 535.851 219.3 536.427C219.531 537.002 219.583 537.634 219.449 538.24C219.315 538.845 219.001 539.396 218.548 539.82C218.095 540.244 217.525 540.522 216.912 540.616L216.85 540.626C216.804 540.632 216.766 540.639 216.72 540.645C218.079 543.89 219.987 546.877 222.359 549.475C224.674 561.972 234.615 563.157 245.249 559.518H245.256C246.422 564.588 248.113 569.524 250.3 574.244H268.32C268.385 574.044 268.443 573.837 268.501 573.637C266.833 573.742 265.159 573.642 263.515 573.34C264.852 571.7 266.189 570.046 267.526 568.406C267.556 568.375 267.584 568.343 267.61 568.309C268.288 567.469 268.973 566.636 269.651 565.796L269.651 565.795C269.687 563.221 269.392 560.654 268.772 558.155L268.772 558.155Z" fill="#F2F2F2"/>
<path d="M463.767 558.155C464.232 558.176 464.692 558.054 465.085 557.805C465.479 557.557 465.786 557.193 465.965 556.763C466.145 556.334 466.188 555.86 466.089 555.405C465.99 554.951 465.754 554.537 465.412 554.222L465.256 553.603C465.277 553.554 465.298 553.505 465.318 553.455C465.786 552.349 466.571 551.406 467.574 550.744C468.576 550.083 469.752 549.732 470.953 549.737C472.154 549.741 473.327 550.101 474.324 550.77C475.322 551.439 476.1 552.387 476.56 553.497C478.398 557.925 480.739 562.361 481.315 567.043C481.569 569.112 481.462 571.21 480.999 573.243C485.317 563.823 487.56 553.585 487.574 543.222C487.575 540.622 487.431 538.024 487.141 535.44C486.902 533.321 486.571 531.218 486.147 529.129C483.832 517.798 478.863 507.177 471.647 498.14C468.154 496.234 465.329 493.303 463.554 489.743C462.91 488.463 462.456 487.097 462.204 485.687C462.598 485.739 463.689 479.738 463.392 479.37C463.941 478.537 464.924 478.123 465.523 477.31C468.506 473.266 472.615 473.972 474.76 479.467C479.342 481.78 479.386 485.615 476.575 489.304C474.786 491.651 474.54 494.826 472.971 497.339C473.132 497.545 473.3 497.746 473.462 497.952C476.413 501.748 478.986 505.823 481.143 510.121C480.618 505.307 481.244 500.436 482.969 495.911C484.717 491.694 487.994 488.142 490.879 484.496C491.643 483.517 492.679 482.786 493.858 482.395C495.036 482.005 496.304 481.972 497.501 482.302C498.698 482.632 499.77 483.31 500.582 484.249C501.394 485.188 501.91 486.347 502.063 487.58C502.069 487.633 502.075 487.687 502.081 487.741C501.652 487.983 501.232 488.239 500.822 488.511C500.306 488.855 499.907 489.348 499.676 489.923C499.444 490.499 499.393 491.131 499.527 491.736C499.661 492.342 499.975 492.892 500.427 493.316C500.88 493.741 501.45 494.018 502.063 494.112L502.126 494.122C501.973 495.667 501.703 497.198 501.318 498.701C505.02 513.017 497.028 518.231 485.617 518.466C485.365 518.595 485.12 518.724 484.868 518.847C487.035 524.987 488.394 531.383 488.911 537.874C489.204 541.704 489.187 545.551 488.859 549.378L488.879 549.242C489.706 544.987 491.975 541.147 495.305 538.372C500.251 534.309 507.238 532.813 512.574 529.547C513.141 529.183 513.8 528.989 514.474 528.987C515.148 528.986 515.808 529.177 516.377 529.538C516.945 529.899 517.399 530.416 517.684 531.027C517.969 531.637 518.073 532.317 517.985 532.985L517.963 533.127C517.168 533.451 516.393 533.824 515.644 534.245C515.216 534.486 514.796 534.743 514.386 535.014C513.87 535.359 513.47 535.851 513.239 536.427C513.008 537.002 512.956 537.634 513.09 538.24C513.224 538.845 513.538 539.396 513.991 539.82C514.444 540.244 515.014 540.522 515.627 540.616L515.689 540.626C515.735 540.632 515.773 540.639 515.819 540.645C514.46 543.89 512.552 546.877 510.18 549.474C507.865 561.972 497.924 563.157 487.29 559.518H487.283C486.117 564.588 484.426 569.524 482.239 574.244H464.219C464.154 574.044 464.096 573.837 464.038 573.637C465.706 573.742 467.38 573.642 469.024 573.34C467.687 571.7 466.35 570.046 465.013 568.405C464.983 568.375 464.955 568.342 464.929 568.309C464.251 567.469 463.566 566.636 462.888 565.796L462.888 565.795C462.852 563.221 463.147 560.654 463.767 558.155L463.767 558.155Z" fill="#F2F2F2"/>
<path d="M320.174 285.834L296.037 336.186L297.76 536.843H318.434C318.434 536.843 322.454 531.422 322.454 527.624C322.454 523.825 315.616 523.274 320.174 518.612C324.733 513.949 326.252 512.43 326.252 507.872V434.947L342.553 364.256L340.83 441.93L399.405 511.839L413.05 498.194C413.05 498.194 417.04 496.435 413.05 492.657C409.06 488.879 406.571 495.551 406.296 484.998C406.021 474.445 408.3 476.724 406.021 474.445C403.742 472.166 371.84 434.083 371.84 434.083C371.84 434.083 400.703 311.109 386.268 287.558L320.174 285.834Z" fill="#2F2E41"/>
<path d="M387.788 291.357C387.788 291.357 325.492 269.325 330.051 257.17C334.609 245.015 342.266 247.354 333.119 243.526C323.973 239.697 317.913 238.937 323.602 233.62C329.291 228.302 337.648 222.984 337.648 217.666C337.648 212.348 344.485 170.564 344.485 170.564H355.43L366.516 151.572H382.177L390.067 169.045H406.727L407.54 195.634C407.54 195.634 408.617 247.001 403.52 249.047C398.424 251.093 393.866 251.093 398.424 255.651C402.982 260.209 405.578 262.566 403.52 266.705C401.463 270.845 387.788 291.357 387.788 291.357Z" fill="#E6E6E6"/>
<path d="M396.904 176.642L406.727 169.045C406.727 169.045 423.494 169.045 425.773 178.161C428.052 187.278 441.77 209.572 441.77 209.572C441.77 209.572 455.401 201.712 460.719 201.712C466.037 201.712 469.836 205.511 469.836 200.952C469.836 196.394 466.797 195.634 471.355 195.634C475.913 195.634 488.068 191.076 488.068 191.076L501.034 204.042C501.034 204.042 499.464 216.146 494.146 215.387C488.828 214.627 485.789 210.829 485.789 215.387C485.789 219.945 488.828 226.782 481.991 227.542C475.154 228.302 429.571 239.697 429.571 239.697L398.424 194.115L396.904 176.642Z" fill="#E6E6E6"/>
<path d="M357.4 176.642L347.578 169.045C347.578 169.045 330.81 169.045 328.531 178.161C326.252 187.278 311.77 209.572 311.77 209.572C311.77 209.572 298.903 201.712 293.585 201.712C288.267 201.712 284.469 205.511 284.469 200.952C284.469 196.394 287.507 195.634 282.949 195.634C278.391 195.634 266.236 191.076 266.236 191.076L253.27 204.042C253.27 204.042 254.84 216.146 260.158 215.387C265.476 214.627 268.515 210.828 268.515 215.387C268.515 219.945 265.476 226.782 272.313 227.542C279.151 228.302 324.733 239.697 324.733 239.697L355.88 194.115L357.4 176.642Z" fill="#E6E6E6"/>
<path d="M372.526 147.446C385.915 147.446 396.77 136.591 396.77 123.202C396.77 109.812 385.915 98.9575 372.526 98.9575C359.136 98.9575 348.281 109.812 348.281 123.202C348.281 136.591 359.136 147.446 372.526 147.446Z" fill="#FFB6B6"/>
<path d="M398.98 119.542C396.13 122.992 391.89 122.812 388.12 122.262C386.93 122.092 385.74 121.902 384.55 121.682C384.34 121.012 384.1 120.342 383.83 119.692C382.714 116.978 381.045 114.526 378.93 112.492C379.153 115.151 378.947 117.828 378.32 120.422C376.11 119.912 373.91 119.342 371.72 118.712C369.782 118.397 368.04 117.349 366.852 115.786C365.665 114.223 365.123 112.263 365.34 110.312C362.19 112.712 358.76 114.792 355.16 114.832C353.131 114.779 351.172 114.078 349.57 112.831C347.968 111.584 346.808 109.856 346.26 107.902C345.28 104.902 345.43 101.442 345.83 98.2017C346.31 94.3517 347.39 90.1217 349.99 88.5717C352.08 87.3117 354.49 88.2117 356.64 89.2317C361.377 91.505 365.867 94.2595 370.04 97.4517L370.09 98.5018C371.17 93.3318 374.74 89.3418 378.63 88.9418C381.25 88.6818 383.81 89.8918 386.28 91.1118C389.508 92.536 392.51 94.4261 395.19 96.7218C398.217 99.4755 400.32 103.097 401.21 107.092C402.14 111.422 401.44 116.562 398.98 119.542Z" fill="#2F2E41"/>
<path d="M374.98 85.8957C375.229 85.9166 374.618 85.7765 374.817 85.8598C374.719 85.8153 374.626 85.763 374.537 85.7034C374.522 85.6937 374.325 85.5344 374.454 85.6453C374.157 85.4144 373.934 85.1026 373.811 84.7476C373.535 83.8848 373.407 82.9818 373.431 82.0764C373.481 80.8865 373.278 79.6997 372.836 78.5937C372.705 78.2943 372.505 78.0299 372.253 77.8221C372.001 77.6143 371.703 77.4689 371.384 77.3977C371.065 77.3266 370.733 77.3317 370.417 77.4126C370.1 77.4935 369.807 77.648 369.561 77.8634C368.743 78.6658 368.678 80.0214 368.62 81.0996C368.558 82.2189 368.676 83.341 368.971 84.4226C369.479 86.201 370.492 87.7934 371.889 89.0057C373.502 90.4182 375.527 91.2733 377.665 91.4439C377.958 91.4373 378.244 91.3454 378.486 91.1795C378.728 91.0136 378.917 90.7808 379.03 90.5094C379.142 90.238 379.173 89.9397 379.119 89.651C379.065 89.3623 378.928 89.0955 378.725 88.8832L376.041 86.335C375.76 86.0537 375.378 85.8957 374.98 85.8957C374.583 85.8957 374.201 86.0537 373.92 86.335C373.638 86.6163 373.48 86.9979 373.48 87.3957C373.48 87.7935 373.638 88.175 373.92 88.4564L376.604 91.0045L377.665 88.4439C377.222 88.404 376.784 88.3147 376.361 88.1776C375.903 88.0501 375.464 87.858 375.059 87.6071C374.663 87.3898 374.291 87.1299 373.951 86.8321C373.733 86.6408 373.525 86.4385 373.328 86.2261C373.256 86.1489 373.186 86.0704 373.118 85.9905C373.122 85.9962 372.835 85.6355 372.959 85.8005C372.648 85.3761 372.378 84.9237 372.152 84.4491C372.072 84.2811 372.006 84.1068 371.955 83.928C371.86 83.6338 371.782 83.3344 371.722 83.0312C371.608 82.3941 371.574 81.7452 371.62 81.0996C371.633 80.8258 371.66 80.5529 371.702 80.2819C371.739 80.139 371.767 79.9938 371.785 79.8471C371.791 79.4829 371.736 80.0416 371.546 80.1264L370.789 80.3312C370.665 80.3211 370.546 80.2834 370.439 80.2209C370.332 80.1584 370.241 80.0727 370.172 79.9701C370.14 79.8449 370.149 79.8671 370.199 80.0367C370.256 80.2358 370.3 80.4383 370.331 80.643C370.389 81.1188 370.422 81.5972 370.431 82.0764C370.441 83.0917 370.559 84.103 370.783 85.0932C370.993 86.0882 371.512 86.9915 372.266 87.6743C373.019 88.3571 373.969 88.7846 374.98 88.8958C375.377 88.8926 375.757 88.7335 376.037 88.4529C376.318 88.1723 376.477 87.7926 376.48 87.3958C376.473 87.0004 376.312 86.6234 376.032 86.3438C375.753 86.0642 375.376 85.9036 374.98 85.8957V85.8957Z" fill="#2F2E41"/>
<path d="M498.796 183.264C490.548 172.292 485.78 160.022 485.624 146.034C485.358 145.281 485.402 144.452 485.746 143.731C486.091 143.009 486.707 142.454 487.46 142.187L515.576 132.238C516.33 131.973 517.159 132.017 517.88 132.361C518.601 132.705 519.157 133.322 519.424 134.075L532.597 171.304C532.863 172.058 532.818 172.886 532.474 173.608C532.13 174.329 531.513 174.884 530.76 175.152L502.644 185.1C501.89 185.366 501.062 185.322 500.34 184.977C499.619 184.633 499.064 184.017 498.796 183.264V183.264Z" fill="#989898"/>
<path opacity="0.2" d="M505.144 182.6C504.39 182.866 503.562 182.822 502.84 182.477C502.119 182.133 501.564 181.517 501.296 180.764C493.047 169.792 488.28 157.522 488.124 143.534C487.952 143.039 487.914 142.506 488.013 141.991L487.46 142.187C486.707 142.454 486.091 143.009 485.746 143.731C485.402 144.452 485.358 145.281 485.624 146.034C485.78 160.022 490.547 172.292 498.796 183.264C499.064 184.017 499.619 184.633 500.34 184.977C501.062 185.322 501.89 185.366 502.644 185.1L530.76 175.152C531.259 174.973 531.702 174.666 532.044 174.262C532.386 173.857 532.614 173.369 532.707 172.848L505.144 182.6Z" fill="black"/>
<path d="M518.316 154.735L499.493 161.454C499.194 161.56 498.864 161.544 498.577 161.408C498.289 161.272 498.068 161.027 497.961 160.727C497.854 160.428 497.87 160.098 498.007 159.811C498.143 159.523 498.388 159.302 498.687 159.195L517.51 152.476C517.658 152.423 517.815 152.4 517.973 152.408C518.13 152.416 518.284 152.454 518.427 152.522C518.569 152.589 518.696 152.684 518.802 152.801C518.908 152.918 518.989 153.054 519.042 153.202C519.095 153.351 519.119 153.508 519.111 153.665C519.103 153.822 519.064 153.977 518.997 154.119C518.929 154.261 518.834 154.389 518.718 154.495C518.601 154.6 518.464 154.682 518.316 154.735V154.735Z" fill="white"/>
<path d="M501.424 153.782L497.283 155.26C497.135 155.313 496.977 155.337 496.82 155.329C496.663 155.321 496.509 155.283 496.366 155.215C496.224 155.148 496.096 155.054 495.99 154.937C495.884 154.82 495.803 154.684 495.749 154.536C495.696 154.387 495.673 154.23 495.681 154.073C495.688 153.916 495.727 153.761 495.794 153.619C495.861 153.477 495.956 153.349 496.073 153.243C496.189 153.137 496.326 153.055 496.474 153.002L496.477 153.001L500.618 151.523C500.917 151.417 501.246 151.433 501.534 151.57C501.821 151.706 502.042 151.951 502.149 152.25C502.256 152.549 502.239 152.879 502.103 153.166C501.967 153.453 501.723 153.675 501.424 153.782V153.782Z" fill="white"/>
<path d="M521.861 164.665L503.038 171.384C502.739 171.491 502.409 171.475 502.121 171.339C501.834 171.203 501.612 170.959 501.505 170.659C501.397 170.36 501.413 170.03 501.549 169.742C501.685 169.455 501.93 169.233 502.229 169.126L502.232 169.125L521.054 162.406C521.354 162.3 521.683 162.316 521.97 162.452C522.258 162.589 522.479 162.833 522.586 163.133C522.693 163.432 522.676 163.761 522.54 164.049C522.404 164.336 522.16 164.558 521.861 164.665V164.665Z" fill="white"/>
<path d="M520.089 159.7L501.266 166.418C501.118 166.472 500.96 166.495 500.803 166.487C500.646 166.48 500.491 166.441 500.349 166.374C500.207 166.307 500.079 166.212 499.973 166.095C499.867 165.979 499.785 165.842 499.732 165.694C499.679 165.546 499.656 165.389 499.664 165.231C499.671 165.074 499.71 164.92 499.777 164.777C499.844 164.635 499.939 164.507 500.056 164.401C500.172 164.296 500.309 164.214 500.457 164.161L500.459 164.16L519.282 157.441C519.43 157.388 519.588 157.364 519.745 157.372C519.902 157.38 520.057 157.418 520.199 157.486C520.341 157.553 520.469 157.647 520.575 157.764C520.681 157.881 520.763 158.017 520.816 158.165C520.869 158.314 520.892 158.471 520.884 158.628C520.877 158.785 520.838 158.94 520.771 159.082C520.704 159.224 520.609 159.352 520.492 159.458C520.376 159.564 520.239 159.646 520.091 159.699L520.089 159.7Z" fill="white"/>
<path d="M500.77 142.572C503.531 142.572 505.77 140.333 505.77 137.572C505.77 134.81 503.531 132.572 500.77 132.572C498.008 132.572 495.77 134.81 495.77 137.572C495.77 140.333 498.008 142.572 500.77 142.572Z" fill="#3F3D56"/>
<path d="M253.872 55.8193C258.907 43.0496 266.87 32.568 278.71 25.1175C279.213 24.4966 279.942 24.1009 280.737 24.0169C281.532 23.933 282.328 24.1678 282.95 24.6698L306.136 43.4281C306.757 43.9315 307.153 44.6606 307.237 45.4555C307.321 46.2504 307.086 47.0461 306.584 47.6681L281.746 78.3699C281.242 78.9907 280.513 79.3865 279.718 79.4704C278.924 79.5544 278.128 79.3195 277.506 78.8175L254.319 60.0593C253.698 59.5559 253.303 58.8267 253.219 58.0318C253.135 57.237 253.369 56.4413 253.872 55.8193Z" fill="#989898"/>
<path opacity="0.2" d="M257.758 60.8819C257.137 60.3785 256.741 59.6494 256.657 58.8545C256.573 58.0596 256.808 57.2639 257.31 56.6419C262.346 43.8722 270.308 33.3906 282.148 25.9401C282.481 25.5341 282.914 25.2232 283.406 25.0388L282.95 24.6696C282.328 24.1676 281.532 23.9328 280.737 24.0167C279.942 24.1006 279.213 24.4964 278.71 25.1172C266.87 32.5678 258.907 43.0493 253.872 55.8191C253.369 56.441 253.135 57.2367 253.219 58.0316C253.303 58.8265 253.698 59.5556 254.319 60.0591L277.506 78.8173C277.919 79.1491 278.412 79.3658 278.936 79.4455C279.46 79.5252 279.995 79.465 280.488 79.271L257.758 60.8819Z" fill="black"/>
<path d="M288.397 57.5314L272.824 45.0042C272.577 44.8046 272.419 44.5152 272.386 44.1995C272.352 43.8837 272.445 43.5675 272.644 43.3201C272.843 43.0727 273.132 42.9143 273.447 42.8797C273.763 42.8451 274.079 42.9371 274.327 43.1355L289.9 55.6627C290.147 55.8623 290.304 56.1517 290.338 56.4674C290.372 56.7831 290.279 57.0993 290.08 57.3466C289.881 57.594 289.592 57.7524 289.277 57.787C288.961 57.8216 288.645 57.7297 288.397 57.5314L288.397 57.5314Z" fill="white"/>
<path d="M280.372 42.6362L276.946 39.8802C276.699 39.6804 276.542 39.3911 276.508 39.0755C276.475 38.76 276.568 38.444 276.766 38.1968C276.965 37.9496 277.254 37.7912 277.57 37.7565C277.885 37.7217 278.201 37.8134 278.449 38.0114L281.875 40.7674C282.122 40.9671 282.279 41.2565 282.313 41.5721C282.347 41.8877 282.254 42.2038 282.055 42.4511C281.856 42.6984 281.567 42.8567 281.252 42.8914C280.936 42.9261 280.62 42.8343 280.372 42.6362L280.372 42.6362Z" fill="white"/>
<path d="M281.788 65.7467L266.215 53.2196C265.968 53.02 265.811 52.7305 265.777 52.4148C265.743 52.0991 265.836 51.7828 266.035 51.5354C266.234 51.288 266.523 51.1296 266.839 51.095C267.154 51.0604 267.471 51.1524 267.719 51.3509L283.291 63.878C283.538 64.0778 283.695 64.3671 283.729 64.6826C283.762 64.9981 283.67 65.3141 283.471 65.5614C283.272 65.8086 282.983 65.9669 282.668 66.0017C282.352 66.0364 282.036 65.9447 281.788 65.7467H281.788Z" fill="white"/>
<path d="M285.092 61.639L269.52 49.1119C269.397 49.0135 269.294 48.8919 269.218 48.7539C269.142 48.616 269.094 48.4644 269.077 48.3079C269.042 47.9918 269.134 47.6747 269.332 47.4264C269.531 47.178 269.82 47.0188 270.136 46.9837C270.452 46.9485 270.77 47.0404 271.018 47.2391L271.023 47.2431L286.596 59.7703C286.844 59.969 287.003 60.2582 287.038 60.5743C287.073 60.8904 286.982 61.2075 286.783 61.4558C286.584 61.7042 286.295 61.8634 285.979 61.8986C285.663 61.9337 285.346 61.8418 285.097 61.6431L285.092 61.6391V61.639Z" fill="white"/>
<path d="M293.845 38.5986C296.607 38.5986 298.845 36.3601 298.845 33.5986C298.845 30.8372 296.607 28.5986 293.845 28.5986C291.084 28.5986 288.845 30.8372 288.845 33.5986C288.845 36.3601 291.084 38.5986 293.845 38.5986Z" fill="#3F3D56"/>
<path d="M196.518 205.301C184.317 189.072 177.265 170.924 177.034 150.234C176.641 149.119 176.706 147.893 177.215 146.826C177.725 145.759 178.636 144.938 179.75 144.542L221.338 129.827C222.453 129.434 223.679 129.499 224.746 130.009C225.813 130.518 226.634 131.43 227.03 132.544L246.514 187.611C246.907 188.726 246.842 189.951 246.333 191.018C245.823 192.085 244.912 192.907 243.797 193.302L202.21 208.017C201.095 208.41 199.869 208.345 198.802 207.836C197.735 207.326 196.914 206.415 196.518 205.301Z" fill="#989898"/>
<path opacity="0.2" d="M205.908 204.319C204.793 204.712 203.567 204.647 202.5 204.138C201.433 203.629 200.612 202.717 200.216 201.603C188.015 185.374 180.963 167.226 180.732 146.536C180.477 145.802 180.421 145.015 180.569 144.253L179.75 144.542C178.636 144.938 177.725 145.759 177.215 146.826C176.706 147.893 176.641 149.119 177.034 150.234C177.265 170.924 184.317 189.072 196.518 205.301C196.914 206.415 197.735 207.326 198.802 207.836C199.869 208.345 201.095 208.41 202.21 208.017L243.798 193.302C244.535 193.038 245.19 192.584 245.696 191.986C246.202 191.387 246.54 190.665 246.677 189.894L205.908 204.319Z" fill="black"/>
<path d="M225.391 163.103L197.55 173.041C197.33 173.12 197.097 173.155 196.864 173.144C196.631 173.133 196.402 173.076 196.191 172.976C195.98 172.876 195.791 172.736 195.634 172.563C195.477 172.39 195.356 172.188 195.278 171.968C195.199 171.748 195.165 171.515 195.177 171.282C195.189 171.049 195.246 170.821 195.347 170.61C195.447 170.399 195.588 170.21 195.761 170.054C195.935 169.898 196.137 169.777 196.357 169.7L224.199 159.762C224.418 159.683 224.651 159.649 224.883 159.661C225.116 159.672 225.344 159.73 225.554 159.829C225.765 159.929 225.954 160.069 226.11 160.242C226.266 160.415 226.387 160.617 226.465 160.836C226.544 161.055 226.578 161.288 226.566 161.521C226.555 161.753 226.497 161.981 226.398 162.192C226.298 162.402 226.158 162.591 225.985 162.747C225.812 162.904 225.61 163.024 225.391 163.103V163.103Z" fill="white"/>
<path d="M200.405 161.693L194.28 163.88C193.837 164.036 193.35 164.011 192.926 163.809C192.502 163.607 192.175 163.246 192.018 162.804C191.86 162.361 191.884 161.875 192.084 161.45C192.285 161.026 192.645 160.698 193.087 160.539V160.539L199.212 158.352C199.655 158.196 200.141 158.221 200.565 158.423C200.989 158.624 201.316 158.986 201.474 159.428C201.632 159.87 201.608 160.357 201.407 160.782C201.207 161.206 200.846 161.534 200.405 161.693V161.693Z" fill="white"/>
<path d="M230.634 177.79L202.793 187.728C202.349 187.887 201.862 187.862 201.437 187.661C201.012 187.459 200.684 187.097 200.526 186.654C200.368 186.211 200.392 185.723 200.593 185.298C200.795 184.873 201.157 184.546 201.6 184.387V184.387L229.441 174.449C229.661 174.371 229.893 174.337 230.126 174.348C230.359 174.36 230.587 174.417 230.797 174.517C231.008 174.617 231.197 174.757 231.353 174.93C231.509 175.102 231.63 175.304 231.708 175.524C231.786 175.743 231.821 175.976 231.809 176.208C231.798 176.441 231.74 176.669 231.641 176.88C231.541 177.09 231.401 177.279 231.228 177.435C231.055 177.591 230.853 177.712 230.634 177.79V177.79Z" fill="white"/>
<path d="M228.013 170.447L200.171 180.385C199.952 180.463 199.719 180.497 199.486 180.486C199.254 180.474 199.026 180.417 198.815 180.317C198.605 180.217 198.416 180.077 198.26 179.904C198.103 179.732 197.983 179.53 197.904 179.31C197.826 179.091 197.792 178.858 197.803 178.626C197.815 178.393 197.872 178.165 197.972 177.955C198.072 177.744 198.212 177.555 198.385 177.399C198.557 177.243 198.759 177.122 198.978 177.044V177.044L226.82 167.106C227.039 167.027 227.272 166.993 227.505 167.005C227.737 167.016 227.965 167.074 228.176 167.173C228.386 167.273 228.575 167.413 228.731 167.586C228.888 167.759 229.008 167.961 229.087 168.18C229.165 168.399 229.199 168.632 229.188 168.865C229.176 169.097 229.119 169.325 229.019 169.536C228.919 169.746 228.779 169.935 228.606 170.091C228.434 170.248 228.232 170.368 228.013 170.447V170.447Z" fill="white"/>
<path d="M199.437 145.112C203.522 145.112 206.833 141.801 206.833 137.716C206.833 133.632 203.522 130.321 199.437 130.321C195.353 130.321 192.041 133.632 192.041 137.716C192.041 141.801 195.353 145.112 199.437 145.112Z" fill="#3F3D56"/>
<path d="M470.958 472.786C457.231 472.716 444.578 469.09 433.345 460.752C432.584 460.507 431.951 459.971 431.585 459.26C431.219 458.55 431.15 457.723 431.393 456.962L440.481 428.556C440.725 427.795 441.262 427.162 441.972 426.796C442.683 426.43 443.509 426.36 444.271 426.603L481.884 438.637C482.645 438.882 483.278 439.418 483.644 440.128C484.01 440.839 484.079 441.666 483.836 442.427L474.748 470.833C474.503 471.594 473.967 472.227 473.257 472.593C472.546 472.959 471.719 473.028 470.958 472.786V472.786Z" fill="#F2F2F2"/>
<path opacity="0.2" d="M474.27 467.33C474.025 468.091 473.489 468.724 472.778 469.09C472.068 469.456 471.241 469.525 470.48 469.282C456.753 469.213 444.099 465.586 432.867 457.248C432.368 457.085 431.921 456.794 431.571 456.402L431.392 456.961C431.15 457.723 431.219 458.55 431.585 459.26C431.951 459.971 432.584 460.507 433.345 460.752C444.577 469.09 457.231 472.716 470.958 472.786C471.719 473.028 472.546 472.959 473.257 472.593C473.967 472.227 474.503 471.594 474.748 470.833L483.836 442.427C483.996 441.922 484.019 441.384 483.904 440.867C483.789 440.349 483.539 439.872 483.179 439.483L474.27 467.33Z" fill="black"/>
<path d="M460.051 439.984L454.014 459.036C453.967 459.186 453.891 459.326 453.79 459.447C453.689 459.568 453.565 459.669 453.426 459.742C453.286 459.815 453.134 459.86 452.977 459.874C452.82 459.889 452.661 459.872 452.511 459.825C452.361 459.778 452.221 459.701 452.1 459.6C451.979 459.499 451.879 459.375 451.806 459.236C451.733 459.096 451.688 458.943 451.674 458.786C451.66 458.629 451.677 458.471 451.725 458.321L451.727 458.311L457.765 439.259C457.862 438.957 458.075 438.706 458.357 438.561C458.639 438.416 458.966 438.388 459.269 438.484C459.571 438.58 459.823 438.791 459.97 439.072C460.116 439.353 460.146 439.681 460.051 439.984V439.984Z" fill="white"/>
<path d="M449.073 452.858L447.745 457.05C447.698 457.2 447.622 457.339 447.521 457.46C447.42 457.581 447.296 457.681 447.157 457.754C447.017 457.827 446.865 457.872 446.708 457.886C446.551 457.9 446.393 457.883 446.242 457.837C446.092 457.79 445.953 457.713 445.832 457.613C445.711 457.512 445.611 457.388 445.538 457.248C445.465 457.109 445.42 456.956 445.406 456.8C445.392 456.643 445.408 456.485 445.455 456.334L445.458 456.325L446.787 452.134C446.834 451.983 446.91 451.844 447.011 451.723C447.111 451.602 447.235 451.502 447.375 451.429C447.514 451.356 447.667 451.311 447.824 451.297C447.98 451.283 448.138 451.3 448.289 451.347C448.439 451.393 448.579 451.47 448.7 451.571C448.82 451.671 448.92 451.795 448.993 451.935C449.066 452.074 449.111 452.227 449.126 452.384C449.14 452.54 449.123 452.698 449.076 452.849L449.073 452.858Z" fill="white"/>
<path d="M470.102 443.169L464.065 462.221C464.018 462.372 463.942 462.511 463.841 462.632C463.74 462.753 463.616 462.853 463.477 462.926C463.337 462.999 463.185 463.044 463.028 463.058C462.871 463.072 462.713 463.055 462.563 463.008C462.412 462.961 462.273 462.885 462.152 462.784C462.031 462.683 461.931 462.56 461.858 462.42C461.785 462.281 461.74 462.128 461.726 461.971C461.712 461.815 461.729 461.656 461.775 461.506L461.778 461.497L467.816 442.445C467.863 442.294 467.939 442.154 468.039 442.033C468.14 441.912 468.264 441.812 468.404 441.738C468.543 441.665 468.696 441.62 468.853 441.605C469.01 441.591 469.168 441.608 469.319 441.655C469.469 441.702 469.609 441.778 469.73 441.88C469.851 441.981 469.951 442.105 470.024 442.244C470.097 442.384 470.142 442.537 470.156 442.694C470.17 442.851 470.152 443.009 470.105 443.16L470.102 443.169Z" fill="white"/>
<path d="M465.077 441.576L459.039 460.628C458.992 460.779 458.916 460.919 458.815 461.04C458.715 461.161 458.591 461.261 458.451 461.334C458.312 461.408 458.159 461.453 458.002 461.467C457.845 461.481 457.687 461.464 457.536 461.417C457.386 461.37 457.246 461.294 457.125 461.193C457.004 461.092 456.904 460.968 456.831 460.828C456.758 460.689 456.714 460.536 456.7 460.379C456.686 460.222 456.703 460.064 456.75 459.913L456.753 459.904L462.79 440.852C462.837 440.702 462.913 440.562 463.014 440.441C463.115 440.32 463.239 440.22 463.378 440.147C463.518 440.074 463.67 440.029 463.827 440.015C463.984 440.001 464.142 440.018 464.293 440.065C464.443 440.112 464.582 440.188 464.703 440.289C464.824 440.39 464.924 440.513 464.997 440.653C465.07 440.792 465.115 440.945 465.129 441.102C465.143 441.259 465.127 441.417 465.08 441.567L465.077 441.576Z" fill="white"/>
<path d="M435.77 448.572C438.531 448.572 440.77 446.333 440.77 443.572C440.77 440.81 438.531 438.572 435.77 438.572C433.009 438.572 430.77 440.81 430.77 443.572C430.77 446.333 433.009 448.572 435.77 448.572Z" fill="#CCCCCC"/>
<path d="M545.839 248.346C546.328 246.418 544.477 244.286 541.706 243.583C538.934 242.881 536.292 243.875 535.803 245.803C535.315 247.731 537.165 249.863 539.936 250.565C542.708 251.267 545.351 250.274 545.839 248.346Z" fill="white"/>
<path d="M511.995 248.128C512.484 246.2 510.633 244.068 507.862 243.366C505.091 242.663 502.448 243.657 501.959 245.585C501.471 247.513 503.321 249.645 506.093 250.347C508.864 251.049 511.507 250.056 511.995 248.128Z" fill="#3F3D56"/>
<path d="M552.19 276.425C552.679 274.497 550.828 272.364 548.057 271.662C545.285 270.96 542.643 271.953 542.154 273.881C541.666 275.809 543.516 277.941 546.288 278.644C549.059 279.346 551.702 278.353 552.19 276.425Z" fill="#FF6584"/>
<path d="M560.079 287.012C560.28 285.216 559.43 283.648 558.181 283.508C556.932 283.368 555.756 284.711 555.556 286.507C555.355 288.302 556.205 289.871 557.454 290.011C558.703 290.15 559.879 288.808 560.079 287.012Z" fill="#E6E6E6"/>
<path d="M562.862 308.22C563.063 306.424 562.213 304.856 560.964 304.716C559.715 304.576 558.539 305.919 558.339 307.715C558.138 309.51 558.988 311.079 560.237 311.219C561.486 311.358 562.662 310.016 562.862 308.22Z" fill="#3F3D56"/>
<path d="M528.262 267.804C528.463 266.008 527.613 264.44 526.363 264.3C525.114 264.16 523.939 265.503 523.738 267.299C523.538 269.094 524.388 270.663 525.637 270.803C526.886 270.942 528.061 269.6 528.262 267.804Z" fill="#E6E6E6"/>
<path d="M545.294 261.406C545.494 259.61 544.644 258.041 543.395 257.902C542.146 257.762 540.971 259.105 540.77 260.9C540.569 262.696 541.419 264.265 542.669 264.404C543.918 264.544 545.093 263.201 545.294 261.406Z" fill="#FF6584"/>
<path d="M524.311 244.119C524.512 242.323 523.662 240.755 522.413 240.615C521.164 240.475 519.988 241.818 519.788 243.614C519.587 245.409 520.437 246.978 521.686 247.118C522.935 247.257 524.111 245.915 524.311 244.119Z" fill="#3F3D56"/>
<path d="M229.839 236.346C230.328 234.418 228.477 232.286 225.706 231.584C222.934 230.881 220.292 231.875 219.803 233.803C219.315 235.731 221.165 237.863 223.936 238.565C226.708 239.267 229.35 238.274 229.839 236.346Z" fill="white"/>
<path d="M195.995 236.128C196.484 234.2 194.633 232.068 191.862 231.366C189.091 230.663 186.448 231.657 185.959 233.585C185.471 235.513 187.321 237.645 190.093 238.347C192.864 239.049 195.507 238.056 195.995 236.128Z" fill="#3F3D56"/>
<path d="M236.19 264.425C236.679 262.497 234.828 260.365 232.057 259.662C229.285 258.96 226.643 259.953 226.154 261.881C225.666 263.809 227.516 265.941 230.288 266.644C233.059 267.346 235.702 266.353 236.19 264.425Z" fill="#FF6584"/>
<path d="M244.079 275.012C244.28 273.217 243.43 271.648 242.181 271.508C240.932 271.369 239.756 272.711 239.556 274.507C239.355 276.303 240.205 277.871 241.454 278.011C242.703 278.151 243.879 276.808 244.079 275.012Z" fill="#E6E6E6"/>
<path d="M246.862 296.22C247.063 294.424 246.213 292.855 244.964 292.716C243.715 292.576 242.539 293.919 242.339 295.714C242.138 297.51 242.988 299.079 244.237 299.219C245.486 299.358 246.662 298.016 246.862 296.22Z" fill="#3F3D56"/>
<path d="M212.262 255.804C212.463 254.008 211.613 252.44 210.363 252.3C209.114 252.16 207.939 253.503 207.738 255.299C207.538 257.094 208.388 258.663 209.637 258.803C210.886 258.942 212.061 257.6 212.262 255.804Z" fill="#E6E6E6"/>
<path d="M229.294 249.406C229.494 247.61 228.644 246.041 227.395 245.902C226.146 245.762 224.971 247.105 224.77 248.9C224.569 250.696 225.419 252.265 226.669 252.404C227.918 252.544 229.093 251.201 229.294 249.406Z" fill="#FF6584"/>
<path d="M208.311 232.119C208.512 230.324 207.662 228.755 206.413 228.615C205.164 228.476 203.988 229.818 203.788 231.614C203.587 233.41 204.437 234.978 205.686 235.118C206.935 235.258 208.111 233.915 208.311 232.119Z" fill="#3F3D56"/>
<path d="M445.796 332.264C437.548 321.292 432.78 309.022 432.624 295.034C432.358 294.281 432.402 293.452 432.746 292.731C433.091 292.009 433.707 291.454 434.46 291.187L462.576 281.238C463.33 280.973 464.159 281.017 464.88 281.361C465.601 281.705 466.157 282.322 466.424 283.075L479.597 320.304C479.863 321.058 479.818 321.886 479.474 322.608C479.13 323.329 478.513 323.884 477.76 324.152L449.644 334.1C448.89 334.366 448.062 334.322 447.34 333.977C446.619 333.633 446.064 333.017 445.796 332.264V332.264Z" fill="#F2F2F2"/>
<path opacity="0.2" d="M452.144 331.6C451.39 331.866 450.562 331.822 449.84 331.477C449.119 331.133 448.564 330.517 448.296 329.764C440.047 318.792 435.28 306.522 435.124 292.534C434.952 292.039 434.914 291.506 435.013 290.991L434.46 291.187C433.707 291.454 433.091 292.009 432.746 292.731C432.402 293.452 432.358 294.281 432.624 295.034C432.78 309.022 437.547 321.292 445.796 332.264C446.064 333.017 446.619 333.633 447.34 333.977C448.062 334.322 448.89 334.366 449.644 334.1L477.76 324.152C478.259 323.973 478.702 323.666 479.044 323.262C479.386 322.857 479.614 322.369 479.707 321.848L452.144 331.6Z" fill="black"/>
<path d="M465.316 303.735L446.493 310.454C446.194 310.56 445.864 310.544 445.577 310.408C445.289 310.272 445.068 310.027 444.961 309.727C444.854 309.428 444.87 309.098 445.007 308.811C445.143 308.523 445.388 308.302 445.687 308.195L464.51 301.476C464.658 301.423 464.815 301.4 464.973 301.408C465.13 301.416 465.284 301.454 465.427 301.522C465.569 301.589 465.696 301.684 465.802 301.801C465.908 301.918 465.989 302.054 466.042 302.202C466.095 302.351 466.119 302.508 466.111 302.665C466.103 302.822 466.064 302.977 465.997 303.119C465.929 303.261 465.834 303.389 465.718 303.495C465.601 303.6 465.464 303.682 465.316 303.735V303.735Z" fill="white"/>
<path d="M448.424 302.782L444.283 304.26C444.135 304.313 443.977 304.337 443.82 304.329C443.663 304.321 443.509 304.283 443.366 304.215C443.224 304.148 443.096 304.054 442.99 303.937C442.884 303.82 442.803 303.684 442.749 303.536C442.696 303.387 442.673 303.23 442.681 303.073C442.688 302.916 442.727 302.761 442.794 302.619C442.861 302.477 442.956 302.349 443.073 302.243C443.189 302.137 443.326 302.055 443.474 302.002L443.477 302.001L447.618 300.523C447.917 300.417 448.246 300.433 448.534 300.57C448.821 300.706 449.042 300.951 449.149 301.25C449.256 301.549 449.239 301.879 449.103 302.166C448.967 302.453 448.723 302.675 448.424 302.782V302.782Z" fill="white"/>
<path d="M468.861 313.665L450.038 320.384C449.89 320.437 449.732 320.46 449.575 320.452C449.418 320.445 449.264 320.406 449.121 320.339C448.979 320.272 448.851 320.177 448.745 320.06C448.64 319.944 448.558 319.807 448.505 319.659C448.451 319.511 448.428 319.354 448.436 319.196C448.443 319.039 448.482 318.885 448.549 318.742C448.616 318.6 448.711 318.472 448.828 318.366C448.944 318.261 449.081 318.179 449.229 318.126L449.232 318.125L468.054 311.406C468.354 311.3 468.683 311.316 468.97 311.452C469.258 311.589 469.479 311.833 469.586 312.133C469.693 312.432 469.676 312.761 469.54 313.049C469.404 313.336 469.16 313.558 468.861 313.665V313.665Z" fill="white"/>
<path d="M467.089 308.7L448.266 315.418C448.118 315.472 447.96 315.495 447.803 315.487C447.646 315.48 447.491 315.441 447.349 315.374C447.207 315.307 447.079 315.212 446.973 315.095C446.867 314.979 446.785 314.842 446.732 314.694C446.679 314.546 446.656 314.388 446.664 314.231C446.671 314.074 446.71 313.92 446.777 313.777C446.844 313.635 446.939 313.507 447.056 313.401C447.172 313.296 447.309 313.214 447.457 313.161L447.459 313.16L466.282 306.441C466.582 306.334 466.911 306.35 467.199 306.486C467.486 306.621 467.708 306.866 467.816 307.165C467.923 307.465 467.907 307.794 467.771 308.082C467.635 308.37 467.391 308.591 467.091 308.699L467.089 308.7Z" fill="white"/>
<path d="M447.77 291.572C450.531 291.572 452.77 289.333 452.77 286.572C452.77 283.81 450.531 281.572 447.77 281.572C445.008 281.572 442.77 283.81 442.77 286.572C442.77 289.333 445.008 291.572 447.77 291.572Z" fill="#CCCCCC"/>
</g>
<defs>
<clipPath id="clip0_9_280">
<rect width="389.67" height="551.527" fill="white" transform="translate(175 24)"/>
</clipPath>
</defs>
</svg>
