<svg width="740" height="600" viewBox="0 0 740 600" fill="none" xmlns="http://www.w3.org/2000/svg">
<g clip-path="url(#clip0_9_281)">
<path d="M455.147 103.094L267.002 236.672L267.816 237.819L455.961 104.241L455.147 103.094Z" fill="#E6E6E6"/>
<path d="M459.401 103.487H259.046V104.893H459.401V103.487Z" fill="#F2F2F2"/>
<path d="M459.401 135.827H259.046V137.233H459.401V135.827Z" fill="#F2F2F2"/>
<path d="M459.401 168.167H259.046V169.573H459.401V168.167Z" fill="#F2F2F2"/>
<path d="M459.401 200.507H259.046V201.913H459.401V200.507Z" fill="#F2F2F2"/>
<path d="M459.401 232.847H259.046V234.253H459.401V232.847Z" fill="#F2F2F2"/>
<path d="M477.515 267.234H258.062V65H259.469V207.987C259.469 223.327 265.564 238.039 276.415 248.887C287.265 259.734 301.982 265.828 317.326 265.828H477.515V267.234Z" fill="#E6E6E6"/>
<path d="M362.846 237.246C395.859 237.246 422.622 210.491 422.622 177.487C422.622 144.483 395.859 117.728 362.846 117.728C329.832 117.728 303.07 144.483 303.07 177.487C303.07 210.491 329.832 237.246 362.846 237.246Z" fill="#989898"/>
<path d="M449.46 173.942L495.127 209.273C497.066 210.764 499.514 211.433 501.942 211.135C504.371 210.838 506.585 209.598 508.107 207.683V207.683C508.894 206.693 509.471 205.552 509.803 204.331C510.135 203.111 510.215 201.835 510.038 200.582C509.861 199.329 509.43 198.126 508.772 197.045C508.115 195.964 507.244 195.028 506.213 194.294L457.65 159.049L429.045 136.389C429.491 134.78 429.431 133.073 428.872 131.499C428.314 129.925 427.285 128.562 425.924 127.593C424.564 126.625 422.938 126.099 421.268 126.086C419.598 126.074 417.964 126.576 416.589 127.524C415.214 128.471 414.165 129.819 413.583 131.385C413.001 132.95 412.915 134.656 413.337 136.271C413.759 137.887 414.668 139.333 415.941 140.414C417.214 141.495 418.789 142.158 420.451 142.313L449.46 173.942Z" fill="#FFB6B6"/>
<path d="M377.614 224.591C365.652 224.591 353.959 221.045 344.014 214.401C334.068 207.758 326.316 198.315 321.739 187.267C317.161 176.219 315.963 164.062 318.297 152.334C320.63 140.605 326.391 129.832 334.849 121.376C343.307 112.92 354.083 107.162 365.815 104.829C377.547 102.496 389.707 103.693 400.758 108.27C411.81 112.846 421.255 120.595 427.901 130.538C434.546 140.481 438.093 152.171 438.093 164.129C438.075 180.159 431.697 195.527 420.359 206.862C409.021 218.197 393.649 224.573 377.614 224.591ZM377.614 105.073C382.195 127.732 318.541 131.566 318.541 164.129C318.559 179.786 324.788 194.797 335.863 205.868C346.937 216.939 361.952 223.167 377.614 223.185C410.187 223.185 437.363 196.686 436.687 164.129C436.009 131.515 373.034 82.4144 377.614 105.073V105.073Z" fill="#3F3D56"/>
<path d="M487.304 171.762C499.891 171.762 510.095 161.561 510.095 148.978C510.095 136.395 499.891 126.194 487.304 126.194C474.717 126.194 464.513 136.395 464.513 148.978C464.513 161.561 474.717 171.762 487.304 171.762Z" fill="#FFB6B6"/>
<path d="M420.161 519.782L412.089 519.781L408.25 488.658H420.163L420.161 519.782Z" fill="#FFB6B6"/>
<path d="M395.799 531.687C395.803 532.591 396.163 533.457 396.802 534.097C397.441 534.737 398.306 535.099 399.21 535.105H414.405L414.875 534.129L417.025 529.696L417.857 534.129L418.041 535.105H423.772L423.691 534.123L422.162 515.802L420.163 515.679L411.525 515.167L409.404 515.038V520.508C407.793 522.22 395.157 528.693 395.799 531.687Z" fill="#2F2E41"/>
<path d="M564.34 484.22L558.179 489.434L535.132 468.16L544.225 460.465L564.34 484.22Z" fill="#FFB6B6"/>
<path d="M553.441 509.045C554.029 509.732 554.863 510.16 555.764 510.236C556.665 510.311 557.56 510.029 558.254 509.449L569.85 499.634L569.579 498.586L568.354 493.814L571.855 496.66L572.626 497.285L577 493.583L576.303 492.886L563.295 479.891L561.69 481.088L554.767 486.277L553.064 487.549L556.599 491.724C556.477 494.071 551.017 507.174 553.441 509.045Z" fill="#2F2E41"/>
<path d="M353.736 523.565C353.409 523.58 353.085 523.495 352.809 523.32C352.532 523.145 352.316 522.889 352.19 522.587C352.064 522.285 352.033 521.952 352.103 521.632C352.172 521.313 352.339 521.022 352.579 520.8L352.688 520.365C352.674 520.331 352.659 520.296 352.645 520.261C352.316 519.483 351.764 518.82 351.059 518.355C350.354 517.89 349.527 517.644 348.682 517.647C347.838 517.65 347.013 517.903 346.311 518.373C345.61 518.843 345.063 519.51 344.739 520.29C343.446 523.404 341.8 526.522 341.395 529.814C341.216 531.269 341.292 532.744 341.617 534.173C338.581 527.55 337.004 520.352 336.993 513.067C336.993 511.239 337.094 509.412 337.298 507.595C337.466 506.106 337.699 504.627 337.997 503.159C339.625 495.192 343.12 487.726 348.194 481.372C350.651 480.032 352.637 477.972 353.886 475.469C354.338 474.569 354.658 473.608 354.835 472.617C354.558 472.653 353.79 468.435 353.999 468.176C353.613 467.59 352.922 467.299 352.501 466.728C350.403 463.885 347.514 464.381 346.005 468.244C342.783 469.87 342.752 472.567 344.729 475.16C345.987 476.81 346.16 479.042 347.263 480.809C347.15 480.954 347.032 481.095 346.918 481.24C344.842 483.909 343.033 486.774 341.516 489.795C341.885 486.41 341.445 482.987 340.232 479.805C339.003 476.84 336.698 474.343 334.669 471.78C334.132 471.091 333.403 470.577 332.575 470.303C331.746 470.028 330.854 470.006 330.012 470.238C329.171 470.47 328.416 470.946 327.845 471.606C327.274 472.267 326.912 473.081 326.804 473.948C326.8 473.985 326.796 474.023 326.792 474.061C327.093 474.231 327.388 474.411 327.677 474.602C328.04 474.845 328.321 475.191 328.483 475.595C328.646 476 328.682 476.444 328.588 476.87C328.493 477.296 328.273 477.683 327.954 477.981C327.636 478.279 327.235 478.474 326.804 478.541L326.76 478.547C326.867 479.633 327.057 480.71 327.328 481.767C324.724 491.831 330.345 495.497 338.37 495.662C338.547 495.753 338.72 495.844 338.897 495.93C337.373 500.247 336.417 504.744 336.053 509.307C335.847 512 335.859 514.704 336.09 517.394L336.076 517.299C335.495 514.307 333.898 511.608 331.556 509.657C328.078 506.801 323.165 505.749 319.413 503.453C319.014 503.197 318.55 503.06 318.076 503.059C317.602 503.058 317.138 503.192 316.738 503.446C316.338 503.7 316.019 504.064 315.819 504.493C315.618 504.922 315.545 505.4 315.607 505.869L315.623 505.97C316.182 506.197 316.726 506.46 317.253 506.755C317.555 506.925 317.85 507.106 318.138 507.296C318.501 507.539 318.782 507.885 318.945 508.289C319.107 508.694 319.144 509.138 319.049 509.564C318.955 509.99 318.734 510.377 318.416 510.675C318.098 510.973 317.697 511.168 317.266 511.235L317.221 511.242C317.19 511.246 317.162 511.251 317.131 511.255C318.086 513.537 319.428 515.636 321.096 517.463C322.724 526.249 329.715 527.082 337.193 524.524H337.198C338.018 528.088 339.207 531.558 340.745 534.877H353.418C353.463 534.736 353.504 534.591 353.545 534.45C352.372 534.524 351.195 534.454 350.039 534.241C350.979 533.088 351.919 531.925 352.859 530.772C352.88 530.75 352.9 530.728 352.918 530.704C353.395 530.113 353.877 529.528 354.354 528.937L354.354 528.937C354.379 527.127 354.172 525.322 353.736 523.566L353.736 523.565Z" fill="#F2F2F2"/>
<path d="M316.048 535.163C316.047 535.273 316.069 535.382 316.111 535.484C316.153 535.586 316.214 535.678 316.292 535.756C316.37 535.833 316.462 535.895 316.564 535.937C316.666 535.979 316.775 536 316.885 536H495.01C495.232 536 495.445 535.912 495.602 535.755C495.759 535.598 495.847 535.385 495.847 535.163C495.847 534.941 495.759 534.729 495.602 534.572C495.445 534.415 495.232 534.327 495.01 534.327H316.885C316.775 534.326 316.666 534.348 316.564 534.39C316.462 534.432 316.37 534.493 316.292 534.571C316.214 534.649 316.153 534.741 316.111 534.843C316.069 534.944 316.047 535.053 316.048 535.163V535.163Z" fill="#CCCCCC"/>
<path d="M378.108 147.006C378.069 146.907 378.001 146.822 377.912 146.762C377.824 146.702 377.72 146.67 377.613 146.67C377.507 146.67 377.403 146.702 377.315 146.762C377.226 146.822 377.158 146.907 377.119 147.006C375.811 150.286 374.124 153.401 372.091 156.288C372.023 156.381 371.987 156.493 371.988 156.608C371.989 156.723 372.027 156.835 372.096 156.926C372.165 157.018 372.262 157.085 372.373 157.118C372.483 157.15 372.601 157.146 372.709 157.106L376.91 155.587V181.588H378.317V155.587L382.52 157.107C382.628 157.146 382.745 157.15 382.856 157.118C382.966 157.085 383.063 157.018 383.132 156.927C383.201 156.835 383.239 156.723 383.24 156.608C383.241 156.493 383.205 156.381 383.137 156.288C381.104 153.401 379.416 150.285 378.108 147.006V147.006Z" fill="#3F3D56"/>
<path d="M496.284 280.621L441.21 266.375C441.21 266.375 414.183 300.52 412.776 341.296C412.704 343.384 413.806 346 412.588 348.569C411.37 351.139 414.215 355.994 412.441 358.136C410.667 360.278 409.857 362.115 412.371 364.712C414.886 367.309 407.987 478.893 405.399 483.089C402.228 488.232 408.158 492.235 405.193 494.452C402.228 496.669 405.041 502.996 405.041 502.996H420.512L442.627 421.308C442.627 421.308 456.565 383.389 454.19 378.594C451.816 373.798 456.002 371.901 456.002 371.901C456.002 371.901 459.62 370.366 457.476 366.457C455.332 362.549 462.004 349.733 462.004 349.733C458.998 349.342 463.444 389.12 481.37 424.945C494.483 451.153 517.035 458.217 518.263 462.923C520.985 473.349 534.225 461.932 530.219 469.953C526.212 477.974 538.658 476.984 538.658 476.984L552.722 465.735L509.824 413.007L505.204 356.936C505.204 356.936 502.746 356.167 504.175 353.302C505.605 350.436 500.832 350.765 502.515 347.437C504.198 344.108 499.711 344.272 500.9 341.73C502.089 339.187 499.5 336.786 499.5 336.786C499.5 336.786 506.268 313.797 493.805 297.14L496.284 280.621Z" fill="#2F2E41"/>
<path d="M426.499 291.542C426.499 291.542 436.344 269.044 439.157 266.232C441.97 263.42 451.455 258.337 449.345 256.228C447.235 254.119 443.043 255.375 446.546 251.583C450.048 247.791 452.742 240.423 452.742 240.423L449.706 205.067L465.881 184.679L476.069 174.675L500.922 173.064L502.313 187.333C502.313 187.333 525.271 199.198 520.009 222.089C514.747 244.979 505.263 247.953 508.076 276.075C508.389 279.207 495.904 275.282 498.572 276.616C499.979 277.319 506.43 289.954 502.21 292.767C499.575 294.502 496.742 295.918 493.771 296.985C472.168 279.927 450.066 272.13 426.499 291.542Z" fill="#E6E6E6"/>
<path d="M415.132 221.292L470.544 205.051C472.89 204.356 474.868 202.767 476.052 200.627C477.236 198.487 477.531 195.967 476.873 193.611V193.611C476.532 192.393 475.947 191.256 475.153 190.271C474.359 189.286 473.372 188.473 472.254 187.881C471.135 187.289 469.907 186.932 468.646 186.83C467.384 186.728 466.115 186.884 464.916 187.289L407.874 205.923L372.735 215.785C371.693 214.48 370.275 213.527 368.673 213.056C367.071 212.584 365.362 212.618 363.78 213.151C362.197 213.684 360.817 214.691 359.827 216.036C358.837 217.381 358.285 218.998 358.246 220.667C358.207 222.336 358.683 223.977 359.609 225.366C360.536 226.755 361.867 227.826 363.423 228.432C364.98 229.038 366.685 229.151 368.307 228.755C369.93 228.359 371.391 227.473 372.492 226.218L415.132 221.292Z" fill="#FFB6B6"/>
<path d="M513.093 134.394C516.264 122.836 481.705 112.926 474.989 122.233C474.055 120.91 470.604 120.106 469.021 120.512C467.471 121.026 466.038 121.843 464.806 122.915C463.02 124.287 461.168 125.707 460.072 127.68C458.968 129.645 458.797 132.324 460.283 134.028C461.461 135.384 463.53 142.588 465.3 142.945C466.534 143.197 467.574 143.4 468.467 143.546C469.263 142.385 471.292 140.927 471.146 139.522C472.348 140.318 471.909 141.718 471.666 143.148C470.86 147.912 452.682 184.786 463.093 173.92C464.295 174.604 465.559 175.172 466.869 175.617C469.46 171.658 471.444 167.335 472.756 162.79L472.766 162.876C473.017 164.848 473.843 166.702 475.142 168.207C476.442 169.712 478.156 170.801 480.07 171.338C495.699 175.864 508.34 169.223 512.689 157.245C511.097 154.014 510.403 154.365 510.546 154.269C511.013 153.957 511.545 153.755 512.101 153.676C512.657 153.598 513.224 153.646 513.76 153.816C514.295 153.987 514.785 154.275 515.193 154.661C515.602 155.047 515.918 155.52 516.119 156.044C516.371 156.704 516.599 157.268 516.798 157.692C519.063 149.59 521.758 150.759 513.093 134.394Z" fill="#2F2E41"/>
<path d="M502.312 126.008L500.716 117.849C500.509 117.177 500.525 116.455 500.763 115.793C500.999 115.409 501.346 115.106 501.759 114.926C502.172 114.745 502.63 114.695 503.071 114.782C503.96 114.91 504.625 115.722 505.51 115.879C508.585 116.422 512.65 113.386 513.752 121.067C514.211 124.27 519.323 124.609 521.031 127.358C522.738 130.106 522.948 134.074 520.618 136.32C518.757 138.113 515.768 138.32 513.351 137.404C510.934 136.488 508.994 134.637 507.3 132.686C505.606 130.734 504.071 128.622 502.117 126.931" fill="#2F2E41"/>
<path d="M514.311 138.418C508.075 137.547 503.824 135.28 501.677 131.68C498.866 126.967 500.749 121.777 500.83 121.559L502.148 122.048C502.131 122.096 500.423 126.847 502.892 130.972C504.813 134.181 508.72 136.218 514.505 137.026L514.311 138.418Z" fill="#989898"/>
<path d="M183.504 378.792C187.386 370.739 197.456 366.254 206.04 368.755C210.876 370.164 214.932 373.401 219.378 375.766C223.825 378.132 229.341 379.601 233.814 377.286C241.502 373.306 241.033 361.423 247.721 355.926C252.171 352.267 258.702 352.438 264.204 354.153C269.705 355.869 274.736 358.897 280.273 360.494C285.455 361.935 290.91 362.101 296.171 360.98C301.432 359.858 306.344 357.481 310.487 354.051C310.569 353.982 310.65 353.912 310.729 353.842C311.629 353.042 312.742 352.523 313.933 352.349C315.124 352.174 316.339 352.351 317.43 352.859C318.521 353.366 319.44 354.182 320.073 355.205C320.707 356.228 321.027 357.414 320.994 358.616L319.957 396.295H184.23L183.504 378.792Z" fill="#F2F2F2"/>
<path d="M302.622 372.002C302.721 371.963 302.805 371.895 302.865 371.806C302.925 371.718 302.957 371.614 302.957 371.508C302.957 371.401 302.925 371.297 302.865 371.209C302.805 371.121 302.72 371.052 302.621 371.013C299.341 369.706 296.224 368.019 293.336 365.987C293.243 365.919 293.131 365.883 293.016 365.884C292.901 365.885 292.79 365.923 292.698 365.992C292.606 366.061 292.539 366.158 292.507 366.268C292.474 366.379 292.478 366.496 292.518 366.604L294.038 370.804H268.029V372.211H294.038L292.518 376.412C292.478 376.52 292.474 376.638 292.506 376.748C292.539 376.859 292.606 376.955 292.698 377.025C292.79 377.094 292.901 377.132 293.016 377.133C293.131 377.134 293.243 377.097 293.336 377.03C296.224 374.997 299.341 373.31 302.622 372.002Z" fill="#3F3D56"/>
<path d="M244.107 365.23C244.162 365.139 244.188 365.033 244.183 364.927C244.177 364.82 244.139 364.718 244.075 364.633C244.01 364.549 243.922 364.485 243.821 364.451C243.72 364.417 243.611 364.414 243.508 364.443C240.105 365.388 236.603 365.932 233.074 366.063C232.959 366.065 232.848 366.104 232.757 366.174C232.666 366.245 232.6 366.342 232.569 366.453C232.538 366.564 232.543 366.681 232.584 366.789C232.625 366.896 232.7 366.988 232.797 367.049L236.55 369.472L215.851 385.215L216.702 386.334L237.402 370.591L238.737 374.856C238.771 374.965 238.839 375.062 238.931 375.13C239.024 375.198 239.136 375.234 239.251 375.234C239.366 375.234 239.478 375.196 239.57 375.127C239.662 375.058 239.729 374.962 239.762 374.852C240.83 371.486 242.288 368.257 244.107 365.23Z" fill="#3F3D56"/>
<path d="M325.302 309.907H178.584C174.453 309.91 170.492 311.551 167.57 314.471C164.648 317.39 163.005 321.349 163 325.479V405.155C163.004 409.286 164.647 413.247 167.569 416.169C170.49 419.091 174.451 420.736 178.584 420.742H325.302C329.435 420.737 333.397 419.093 336.319 416.171C339.241 413.248 340.883 409.287 340.886 405.155V325.479C340.883 321.349 339.24 317.389 336.318 314.469C333.396 311.549 329.434 309.908 325.302 309.907V309.907ZM339.17 405.155C339.169 408.832 337.707 412.357 335.107 414.957C332.507 417.557 328.98 419.018 325.302 419.019H202.515C200.829 419.021 199.144 418.908 197.473 418.682H197.466C197.34 418.668 197.206 418.646 197.079 418.625C178.774 416.003 164.716 346.12 164.716 327.096V325.479C164.722 321.805 166.186 318.283 168.785 315.685C171.385 313.088 174.909 311.627 178.584 311.622H325.302C328.978 311.626 332.502 313.086 335.102 315.684C337.702 318.282 339.165 321.804 339.17 325.479V405.155Z" fill="#E6E6E6"/>
<path d="M315.281 363.236C321.939 363.236 327.336 357.84 327.336 351.184C327.336 344.528 321.939 339.132 315.281 339.132C308.623 339.132 303.225 344.528 303.225 351.184C303.225 357.84 308.623 363.236 315.281 363.236Z" fill="#989898"/>
<path opacity="0.7" d="M256.208 363.236C262.866 363.236 268.264 357.84 268.264 351.184C268.264 344.528 262.866 339.132 256.208 339.132C249.55 339.132 244.152 344.528 244.152 351.184C244.152 357.84 249.55 363.236 256.208 363.236Z" fill="#989898"/>
<path opacity="0.25" d="M202.761 374.485C209.419 374.485 214.817 369.089 214.817 362.433C214.817 355.777 209.419 350.381 202.761 350.381C196.103 350.381 190.706 355.777 190.706 362.433C190.706 369.089 196.103 374.485 202.761 374.485Z" fill="#989898"/>
</g>
<defs>
<clipPath id="clip0_9_281">
<rect width="414" height="471" fill="white" transform="translate(163 65)"/>
</clipPath>
</defs>
</svg>
