<svg width="866" height="659" viewBox="0 0 866 659" fill="none" xmlns="http://www.w3.org/2000/svg">
<g clip-path="url(#clip0_13_322)">
<path d="M514.099 647.768H517.452L519.047 634.839H514.099V647.768Z" fill="#9F616A"/>
<path d="M513.244 651.018H524.053V650.881C524.051 649.766 523.608 648.696 522.819 647.907C522.03 647.119 520.961 646.675 519.846 646.674H513.244V651.018Z" fill="#2F2E41"/>
<path d="M470.872 641.416L473.746 643.143L481.772 632.881L477.531 630.333L470.872 641.416Z" fill="#9F616A"/>
<path d="M477.731 649.328L477.801 649.211C478.374 648.254 478.545 647.109 478.275 646.027C478.005 644.944 477.317 644.013 476.362 643.438L470.703 640.038L468.466 643.761L477.731 649.328Z" fill="#2F2E41"/>
<path d="M513.228 645.1L513.285 645.1C514.916 645.095 516.545 645.001 518.166 644.819C518.783 644.758 519.453 644.692 520.261 644.625L520.288 644.62C520.839 644.456 520.854 639.291 520.621 621.609C520.501 612.553 520.366 602.289 520.527 595.752L520.529 595.687L520.48 595.645C517.565 593.089 514.086 591.259 510.327 590.305C506.569 589.351 502.639 589.3 498.857 590.155L498.798 590.168L498.767 590.22C495.473 595.794 490.498 603.823 485.688 611.589C474.645 629.414 471.487 634.657 471.833 635.052L471.875 635.084C472.629 635.461 473.195 635.752 473.676 635.998C475.582 636.985 477.539 637.868 479.54 638.643L479.628 638.679L479.693 638.609C490.897 626.331 500.222 612.616 505.989 599.937C506.663 604.265 507.481 609.917 508.346 615.889C510.831 633.062 512.511 644.37 513.187 645.059L513.228 645.1Z" fill="#2F2E41"/>
<path d="M510.209 597.073C503.527 597.043 496.89 598.154 490.583 600.358C490.363 589.77 493.913 579.447 500.598 571.233L500.647 571.174L500.622 571.101C498.862 566.015 497.042 560.758 495.417 555.528L495.441 555.44C496.581 551.387 499.029 547.291 502.922 542.918C503.345 542.481 503.918 542.22 504.525 542.189C505.133 542.159 505.729 542.36 506.194 542.753C509.605 545.872 512.262 549.727 513.964 554.026C515.665 558.324 516.367 562.953 516.015 567.563L516.012 567.589L516.02 567.614C519.069 577.944 520.176 583.25 521.152 587.931C521.865 591.346 522.481 594.302 523.72 598.527C519.281 597.561 514.751 597.074 510.209 597.073Z" fill="#CBCBCB"/>
<path opacity="0.1" d="M500.372 564.419L510.291 586.013L515.958 580.277L500.372 564.419Z" fill="black"/>
<path d="M504.613 540.816C500.715 540.816 497.556 537.657 497.556 533.76C497.556 529.862 500.715 526.703 504.613 526.703C508.51 526.703 511.67 529.862 511.67 533.76C511.67 537.657 508.51 540.816 504.613 540.816Z" fill="#9F616A"/>
<path d="M513.169 529.773H501.964V524.889C504.423 523.911 506.83 523.08 508.285 524.889C509.58 524.889 510.823 525.403 511.739 526.319C512.655 527.235 513.169 528.478 513.169 529.773Z" fill="#2F2E41"/>
<path d="M501.343 524.027C494.644 524.027 492.769 532.424 492.769 537.161C492.769 539.802 493.964 540.747 495.842 541.067L496.505 537.531L498.057 541.219C498.585 541.222 499.139 541.212 499.713 541.201L500.24 540.117L501.414 541.182C506.116 541.189 509.917 541.874 509.917 537.161C509.917 532.424 508.273 524.027 501.343 524.027Z" fill="#2F2E41"/>
<path d="M299 198C299 384 494 473 494 473C494 473 691 384 695 198C697.351 88.6729 606.352 0 497 0C387.647 0 299 88.6477 299 198Z" fill="#989898"/>
<path d="M489.817 646.307H493.928L495.883 630.453H489.817V646.307Z" fill="#FFB7B7"/>
<path d="M496.863 645.132H488.936V650.123H501.854C501.854 649.468 501.725 648.819 501.475 648.213C501.224 647.608 500.856 647.058 500.393 646.594C499.929 646.131 499.379 645.763 498.773 645.512C498.168 645.261 497.519 645.132 496.863 645.132Z" fill="#2F2E41"/>
<path d="M474.395 646.307H478.505L480.461 630.453H474.394L474.395 646.307Z" fill="#FFB7B7"/>
<path d="M481.441 645.132H473.514V650.123H486.432C486.432 648.8 485.906 647.53 484.97 646.594C484.034 645.658 482.765 645.132 481.441 645.132Z" fill="#2F2E41"/>
<path d="M474.897 599.089C475.34 598.804 475.715 598.425 475.996 597.98C476.276 597.534 476.456 597.033 476.522 596.51C476.588 595.988 476.538 595.458 476.377 594.956C476.216 594.455 475.947 593.995 475.589 593.609L478.295 555.202L470.499 555.958L470.285 593.57C469.676 594.215 469.326 595.061 469.299 595.947C469.272 596.833 469.571 597.698 470.14 598.378C470.708 599.058 471.507 599.506 472.384 599.637C473.26 599.768 474.155 599.573 474.897 599.089Z" fill="#FFB7B7"/>
<path d="M490.011 638.32L494.536 638.104C494.922 638.086 495.286 637.921 495.553 637.642C495.82 637.364 495.971 636.994 495.973 636.608L496.289 590.825C496.291 590.608 496.245 590.393 496.156 590.195C496.066 589.997 495.935 589.82 495.771 589.677C495.608 589.535 495.415 589.429 495.206 589.367C494.998 589.306 494.779 589.29 494.564 589.322L476.461 591.949C476.104 591.999 475.776 592.177 475.539 592.449C475.301 592.721 475.17 593.07 475.169 593.431L472.841 635.854C472.84 636.053 472.878 636.25 472.953 636.434C473.028 636.619 473.139 636.786 473.279 636.928C473.419 637.069 473.586 637.181 473.77 637.258C473.954 637.334 474.151 637.374 474.35 637.374H479.228C479.588 637.375 479.936 637.247 480.21 637.013C480.483 636.78 480.664 636.455 480.718 636.099C480.718 636.099 484.403 604.279 484.909 604.297C485.418 604.307 488.442 636.992 488.442 636.992C488.487 637.358 488.664 637.695 488.939 637.94C489.215 638.185 489.571 638.321 489.94 638.322C489.964 638.322 489.987 638.321 490.011 638.32Z" fill="#2F2E41"/>
<path d="M476.53 568.108C476.713 567.976 476.863 567.806 476.971 567.608C477.079 567.411 477.141 567.192 477.153 566.968L477.724 556.616C477.781 555.59 477.456 554.58 476.812 553.78C476.167 552.98 475.25 552.447 474.236 552.283C473.222 552.12 472.183 552.337 471.32 552.894C470.457 553.451 469.831 554.308 469.562 555.299L467.053 564.554C466.948 564.941 467.002 565.352 467.201 565.699C467.4 566.046 467.728 566.3 468.114 566.405L475.252 568.341C475.469 568.4 475.696 568.41 475.917 568.369C476.139 568.329 476.348 568.24 476.53 568.108Z" fill="var(--ks-background-color-primary)"/>
<path d="M483.198 543.506C478.65 543.506 474.964 539.819 474.964 535.271C474.964 530.723 478.65 527.037 483.198 527.037C487.746 527.037 491.432 530.723 491.432 535.271C491.432 539.819 487.746 543.506 483.198 543.506Z" fill="#FFB7B7"/>
<path d="M477.371 541.786C477.715 542.157 478.158 542.422 478.648 542.55C479.138 542.679 479.654 542.664 480.136 542.509C480.618 542.354 481.046 542.064 481.369 541.674C481.692 541.285 481.897 540.811 481.96 540.308C481.976 540.135 481.974 539.96 481.956 539.787C481.853 538.796 481.281 537.897 481.418 536.852C481.449 536.592 481.546 536.344 481.7 536.131C482.924 534.492 485.797 536.865 486.953 535.381C487.661 534.471 486.828 533.038 487.372 532.021C488.09 530.679 490.215 531.341 491.547 530.606C493.03 529.788 492.941 527.513 491.965 526.129C491.33 525.312 490.522 524.644 489.6 524.174C488.677 523.705 487.662 523.444 486.627 523.411C484.555 523.363 482.496 523.764 480.595 524.589C478.349 525.319 476.367 526.693 474.895 528.541C474.133 529.752 473.651 531.117 473.482 532.538C473.313 533.959 473.463 535.399 473.92 536.755C474.417 538.418 476.116 540.45 477.371 541.786Z" fill="#2F2E41"/>
<path d="M474.979 549.006C475.122 548.903 475.268 548.802 475.416 548.703C476.207 548.177 477.063 547.757 477.963 547.454V545.291H484.333V547.298C486.445 547.881 488.338 549.071 489.779 550.722C491.219 552.372 492.142 554.409 492.434 556.58L496.771 588.783C496.799 588.984 496.786 589.189 496.732 589.385C496.679 589.581 496.586 589.764 496.459 589.923C496.336 590.081 496.181 590.212 496.005 590.309C495.829 590.405 495.635 590.465 495.436 590.484C492.397 590.878 489.468 591.881 486.826 593.433C484.908 594.496 482.748 595.047 480.555 595.034C478.814 595.027 477.087 594.72 475.45 594.125C475.173 594.023 474.932 593.841 474.758 593.602C474.584 593.363 474.484 593.077 474.472 592.782C474.316 589.317 473.402 571.478 470.742 560.597C470.225 558.463 470.352 556.223 471.106 554.16C471.86 552.097 473.207 550.304 474.979 549.006Z" fill="var(--ks-background-color-primary)"/>
<path d="M428 484H560L576 420H412L428 484Z" fill="var(--ks-background-color-primary)"/>
<path d="M432.5 593.451H555.5V657.549H432.5V593.451Z" fill="white"/>
<path d="M431.5 658.549H556.5V592.451H431.5V658.549ZM554.5 656.549H433.5V594.451H554.5V656.549Z" fill="var(--ks-background-color-primary)"/>
<path d="M468.787 491.547H519.213L525 482.453H463L468.787 491.547Z" fill="var(--ks-background-color-primary)"/>
<path d="M557 484H559V582H557V484Z" fill="var(--ks-background-color-primary)"/>
<path d="M429 484H431V582H429V484Z" fill="var(--ks-background-color-primary)"/>
<path d="M473.953 418.916L475.174 417.332C417.396 372.776 348.521 296.444 348.521 185.829C348.475 147.087 359.869 109.194 381.273 76.9022C402.678 44.6103 433.14 19.3571 468.84 4.30956L468.061 2.46777C431.999 17.668 401.227 43.1774 379.606 75.797C357.984 108.416 346.475 146.694 346.521 185.829C346.521 297.256 415.819 374.085 473.953 418.916Z" fill="var(--ks-background-color-primary)"/>
<path d="M537.953 418.916L539.175 417.332C481.396 372.776 412.521 296.444 412.521 185.829C412.506 147.347 423.763 109.705 444.902 77.5498C466.041 45.3949 496.136 20.1367 531.47 4.89502L530.677 3.05908C494.985 18.4554 464.584 43.9699 443.23 76.4511C421.877 108.932 410.505 146.957 410.521 185.829C410.521 297.257 479.819 374.086 537.953 418.916Z" fill="var(--ks-background-color-primary)"/>
<path d="M456.047 418.916C514.181 374.086 583.479 297.257 583.479 185.829C583.495 146.957 572.123 108.932 550.769 76.4504C529.415 43.9692 499.014 18.4547 463.321 3.05872L462.528 4.89465C497.862 20.136 527.958 45.3942 549.098 77.5492C570.237 109.704 581.494 147.347 581.479 185.829C581.479 296.444 512.604 372.776 454.826 417.332L456.047 418.916Z" fill="var(--ks-background-color-primary)"/>
<path d="M520.047 418.916C578.181 374.086 647.479 297.257 647.479 185.829C647.544 146.54 635.954 108.114 614.174 75.4141C592.395 42.7141 561.406 17.2092 525.127 2.12646L524.356 3.97216C560.27 18.9032 590.948 44.1519 612.509 76.5234C634.07 108.895 645.543 146.934 645.479 185.829C645.479 296.445 576.604 372.776 518.826 417.332L520.047 418.916Z" fill="var(--ks-background-color-primary)"/>
<path d="M496 0H498V420H496V0Z" fill="var(--ks-background-color-primary)"/>
<path d="M519.533 578.918L556.207 615.592L554.793 617.006L518.119 580.332L519.533 578.918Z" fill="var(--ks-background-color-primary)"/>
<path d="M501.704 578.308L556.221 635.645L554.772 637.023L500.255 579.686L501.704 578.308Z" fill="var(--ks-background-color-primary)"/>
<path d="M421 579H571V597H421V579Z" fill="white"/>
<path d="M420 598H572V578H420V598ZM570 596H422V580H570V596Z" fill="var(--ks-background-color-primary)"/>
<path d="M522.486 587.372C522.085 587.344 521.695 587.229 521.343 587.034C520.992 586.839 520.687 586.569 520.451 586.244C520.215 585.918 520.053 585.545 519.977 585.151C519.901 584.756 519.912 584.349 520.01 583.959L511.837 578.605L516.498 576.591L523.544 581.985C524.188 582.193 524.734 582.629 525.077 583.213C525.421 583.796 525.538 584.485 525.408 585.149C525.277 585.813 524.908 586.406 524.369 586.816C523.831 587.225 523.16 587.423 522.486 587.372H522.486Z" fill="#9F616A"/>
<path d="M514.622 583.514L514.725 583.441C516.67 582.01 518.829 580.529 520.917 579.098L521.043 579.012L520.944 578.896C516.487 573.681 512.025 568.234 507.709 562.965L507.717 562.946L507.677 562.925L507.659 562.904L507.65 562.912L507.624 562.899L507.742 562.908L509.072 552.476C509.73 551.391 510.067 550.141 510.041 548.873C510.016 547.604 509.63 546.368 508.929 545.311C508.122 544.17 506.922 543.367 505.559 543.055C504.197 542.744 502.767 542.947 501.545 543.625C500.941 544.03 500.437 544.565 500.069 545.192C499.7 545.818 499.478 546.519 499.417 547.243C499.331 547.888 499.391 548.544 499.591 549.163C499.792 549.783 500.128 550.349 500.575 550.822C500.116 555.884 499.913 560.967 499.967 566.05L499.967 566.098L499.997 566.137C504.598 571.982 509.651 577.796 514.539 583.419L514.622 583.514Z" fill="#CBCBCB"/>
<path d="M513.038 551.449C512.997 551.63 512.97 551.814 512.957 551.999L498.555 560.307L495.055 558.292L491.323 563.178L498.812 568.515L515.242 555.553C515.912 555.801 516.642 555.839 517.335 555.662C518.027 555.486 518.649 555.102 519.118 554.563C519.587 554.024 519.881 553.355 519.961 552.645C520.04 551.935 519.902 551.217 519.563 550.588C519.225 549.958 518.704 549.447 518.068 549.121C517.432 548.795 516.712 548.671 516.003 548.764C515.295 548.858 514.632 549.165 514.102 549.644C513.572 550.124 513.201 550.753 513.038 551.449H513.038Z" fill="#FFB7B7"/>
<path d="M498.041 559.601C498.065 559.378 498.038 559.151 497.963 558.939C497.888 558.727 497.767 558.535 497.607 558.376L490.277 551.045C489.551 550.318 488.582 549.887 487.556 549.833C486.53 549.779 485.521 550.107 484.723 550.753C483.924 551.399 483.394 552.318 483.233 553.332C483.072 554.347 483.292 555.385 483.851 556.247L489.071 564.29C489.289 564.626 489.631 564.861 490.023 564.944C490.414 565.027 490.822 564.952 491.158 564.735L497.362 560.709C497.551 560.587 497.71 560.424 497.827 560.232C497.945 560.04 498.018 559.825 498.041 559.601Z" fill="var(--ks-background-color-primary)"/>
<path d="M171.272 46.8612C174.597 90.8823 130.037 115.432 130.037 115.432C130.037 115.432 81.8214 97.8895 77.5499 53.9399C75.0392 28.1072 94.991 5.49405 120.872 3.53932C133.3 2.60062 145.592 6.63753 155.044 14.762C164.496 22.8864 170.334 34.4328 171.272 46.8612Z" fill="#E5E5E5"/>
<path d="M145.854 116.855L114.613 119.215L109.682 104.354L148.497 101.422L145.854 116.855Z" fill="#CBCBCB"/>
<path d="M146.745 142.84L117.635 145.039L118.78 160.209L147.891 158.01L146.745 142.84Z" fill="white"/>
<path d="M148.146 158.229L118.562 160.464L117.38 144.82L146.964 142.586L148.146 158.229ZM118.999 159.955L147.637 157.792L146.527 143.095L117.889 145.258L118.999 159.955Z" fill="#CBCBCB"/>
<path d="M136.336 119.371L124.401 120.272L122.869 118.223L137.543 117.115L136.336 119.371Z" fill="#CBCBCB"/>
<path d="M115.323 119.161L114.85 119.197L116.602 142.391L117.075 142.355L115.323 119.161Z" fill="#CBCBCB"/>
<path d="M145.617 116.873L145.144 116.909L146.896 140.103L147.369 140.067L145.617 116.873Z" fill="#CBCBCB"/>
<path d="M133.815 102.273L133.497 101.92C146.376 90.3422 161.312 71.0454 159.334 44.8657C158.653 35.6958 155.279 26.9312 149.636 19.6712C143.993 12.4112 136.332 6.97901 127.613 4.05584L127.765 3.60601C136.572 6.55885 144.31 12.0462 150.011 19.3798C155.711 26.7135 159.119 35.567 159.808 44.83C161.8 71.2019 146.772 90.624 133.815 102.273Z" fill="#CBCBCB"/>
<path d="M118.668 103.418L118.35 103.065C131.228 91.4866 146.165 72.1897 144.187 46.0099C143.503 36.9022 140.166 28.1944 134.588 20.9621C129.01 13.7298 121.436 8.28981 112.801 5.31414L112.956 4.86544C121.679 7.87131 129.33 13.3665 134.964 20.6722C140.599 27.9779 143.97 36.774 144.661 45.9742C146.653 72.3462 131.625 91.7684 118.668 103.418Z" fill="#CBCBCB"/>
<path d="M138.052 101.953C123.492 92.3824 105.718 75.4377 103.726 49.0657C103.028 39.8661 105.039 30.6633 109.513 22.5941C113.986 14.525 120.725 7.94293 128.897 3.66108L129.118 4.08143C121.027 8.32027 114.356 14.8362 109.928 22.8243C105.499 30.8124 103.508 39.9227 104.2 49.0299C106.177 75.2096 123.842 92.0441 138.313 101.557L138.052 101.953Z" fill="#CBCBCB"/>
<path d="M122.906 103.097C108.346 93.5265 90.5712 76.5821 88.5794 50.2099C87.8616 40.9124 89.9178 31.6109 94.4879 23.4824C99.0579 15.3539 105.936 8.76359 114.253 4.54544L114.468 4.96847C106.235 9.14424 99.426 15.6683 94.9018 23.7152C90.3777 31.762 88.3421 40.97 89.0527 50.1741C91.03 76.354 108.695 93.1884 123.166 102.701L122.906 103.097Z" fill="#CBCBCB"/>
<path d="M121.108 3.52138L120.635 3.55713L128.143 102.96L128.616 102.924L121.108 3.52138Z" fill="#CBCBCB"/>
<path d="M125.887 140.956L117.863 150.292L118.223 150.601L126.247 141.266L125.887 140.956Z" fill="#CBCBCB"/>
<path d="M130.096 140.493L118.218 155.038L118.586 155.338L130.464 140.793L130.096 140.493Z" fill="#CBCBCB"/>
<path d="M149.209 139.214L113.708 141.896L114.03 146.156L149.531 143.474L149.209 139.214Z" fill="white"/>
<path d="M149.785 143.693L113.811 146.41L113.453 141.677L149.428 138.96L149.785 143.693ZM114.248 145.901L149.276 143.256L148.99 139.469L113.962 142.115L114.248 145.901Z" fill="#CBCBCB"/>
<path d="M751.438 127.071L735 114.181C747.77 112.799 753.016 119.627 755.164 125.032C765.14 120.971 776 126.293 776 126.293L743.112 138C744.771 133.655 747.659 129.864 751.438 127.071Z" fill="#CECECE"/>
<path d="M770.414 153.067L758 143.139C767.644 142.075 771.606 147.334 773.227 151.497C780.761 148.369 788.963 152.469 788.963 152.469L764.126 161.486C765.379 158.139 767.56 155.219 770.414 153.067Z" fill="#CECECE"/>
</g>
<defs>
<clipPath id="clip0_13_322">
<rect width="865.573" height="658.549" fill="white"/>
</clipPath>
</defs>
</svg>
